<?xml version="1.0" encoding="iso-8859-1"?>
<!-- Generator: Adobe Illustrator 19.0.0, SVG Export Plug-In . SVG Version: 6.00 Build 0)  -->
<svg version="1.1" id="Capa_1" xmlns="http://www.w3.org/2000/svg" xmlns:xlink="http://www.w3.org/1999/xlink" x="0px" y="0px"
	 viewBox="0 0 512.367 512.367" style="enable-background:new 0 0 512.367 512.367;" xml:space="preserve">
<path style="fill:#F44336;" d="M424.694,176.497v314.24c-0.037,2.982-1.267,5.824-3.413,7.893
	c-14.521,10.256-32.213,15.019-49.92,13.44c-17.707,1.579-35.399-3.184-49.92-13.44c-2.229-2.011-3.475-4.892-3.413-7.893V172.87
	c-0.041-7.314-1.192-14.579-3.413-21.547c-5.195-16.105-16.438-29.566-31.36-37.547c-4.915-2.763-10.247-4.708-15.787-5.76
	c-1.618-0.332-3.258-0.546-4.907-0.64c-6.735-1.07-13.612-0.853-20.267,0.64c-6.525,1.106-12.806,3.344-18.56,6.613
	c-15.774,8.292-27.316,22.856-31.787,40.107c-3.526,16.281-18.878,27.194-35.413,25.173c-16.386-2.865-32.459-7.294-48-13.227
	c-15.385-5.805-23.935-22.261-19.84-38.187c7.558-30.006,23.288-57.329,45.44-78.933l18.133-15.787
	c33.14-24.603,74.045-36.42,115.2-33.28c4.364,0.346,8.708,0.915,13.013,1.707c7.242,1.001,14.381,2.643,21.333,4.907
	c26.992,7.877,51.424,22.743,70.827,43.093c6.845,6.39,12.929,13.549,18.133,21.333c15.395,21.022,25.891,45.222,30.72,70.827v0.213
	C423.635,153.756,424.707,165.114,424.694,176.497z"/>
<g>
	<path style="fill:#FAFAFA;" d="M424.694,356.763v37.333c-29.746,38.037-65.831,70.657-106.667,96.427V464.71
		C360.378,436.144,396.635,399.452,424.694,356.763z"/>
	<path style="fill:#FAFAFA;" d="M424.694,250.097v37.333c-29.746,38.037-65.831,70.657-106.667,96.427v-25.813
		C360.378,329.477,396.635,292.786,424.694,250.097z"/>
	<path style="fill:#FAFAFA;" d="M424.694,176.497v0.853c-28.571,38.885-64.89,71.427-106.667,95.573v-24.96
		c42.4-26.375,77.876-62.509,103.467-105.387C423.635,153.756,424.707,165.114,424.694,176.497z"/>
	<path style="fill:#FAFAFA;" d="M390.774,71.537c-14.205,41.101-39.269,77.591-72.533,105.6l-0.213,0.213v-4.48
		c-0.041-7.314-1.192-14.579-3.413-21.547c18.56-18.133,55.68-59.733,58.027-101.12C379.485,56.594,385.57,63.752,390.774,71.537z"
		/>
	<path style="fill:#FAFAFA;" d="M301.814,7.11c0.668,36.413-5.632,72.619-18.56,106.667c-4.915-2.763-10.247-4.708-15.787-5.76
		c-1.618-0.332-3.258-0.546-4.907-0.64c13.038-33.482,19.134-69.264,17.92-105.173C287.723,3.205,294.862,4.847,301.814,7.11z"/>
	<path style="fill:#FAFAFA;" d="M152.267,33.777c32,4.907,81.707,29.653,89.813,71.893c0.177,0.769,0.248,1.558,0.213,2.347
		c-6.525,1.106-12.806,3.344-18.56,6.613c-1.456-1.243-2.373-3.002-2.56-4.907c-6.4-33.067-54.613-54.613-78.72-55.467
		c-3.351-0.189-6.425-1.923-8.32-4.693L152.267,33.777z"/>
</g>
<g>
</g>
<g>
</g>
<g>
</g>
<g>
</g>
<g>
</g>
<g>
</g>
<g>
</g>
<g>
</g>
<g>
</g>
<g>
</g>
<g>
</g>
<g>
</g>
<g>
</g>
<g>
</g>
<g>
</g>
</svg>
