<?xml version="1.0" encoding="iso-8859-1"?>
<!-- Generator: Adobe Illustrator 19.0.0, SVG Export Plug-In . SVG Version: 6.00 Build 0)  -->
<svg version="1.1" id="Capa_1" xmlns="http://www.w3.org/2000/svg" xmlns:xlink="http://www.w3.org/1999/xlink" x="0px" y="0px"
	 viewBox="0 0 512 512" style="enable-background:new 0 0 512 512;" xml:space="preserve">
<path style="fill:#FFC107;" d="M373.344,362.667c-5.891,0-10.667,4.776-10.667,10.667H128.011c0-5.891-4.776-10.667-10.667-10.667
	s-10.667,4.776-10.667,10.667v128c0,5.891,4.776,10.667,10.667,10.667h256c5.891,0,10.667-4.776,10.667-10.667v-128
	C384.011,367.442,379.235,362.667,373.344,362.667z"/>
<polygon style="fill:#FFE082;" points="384.011,426.667 341.344,426.667 320.011,426.667 298.677,426.667 298.677,362.667 
	277.344,362.667 277.344,426.667 234.677,426.667 213.344,426.667 192.011,426.667 192.011,362.667 170.677,362.667 
	170.677,426.667 106.677,426.667 106.677,448 170.677,448 192.011,448 213.344,448 213.344,512 234.677,512 234.677,448 
	277.344,448 298.677,448 320.011,448 320.011,512 341.344,512 341.344,448 384.011,448 "/>
<path style="fill:#FFF9C4;" d="M394.677,21.333c-11.724-0.15-23.432,0.894-34.944,3.115C354.634,17.792,336.459,0,288.011,0
	c-45.717,0-67.648,43.435-73.728,69.227c-10.598-3.62-21.74-5.388-32.939-5.227c-62.805,0-96,33.195-96,96
	c-1.397,32.162,6.729,64.021,23.36,91.584c2.005,2.773,5.218,4.415,8.64,4.416h0.896l256-21.333
	c2.828-0.234,5.446-1.585,7.275-3.755c3.797-4.523,37.099-45.099,33.408-76.544c-0.128-1.067-0.292-2.105-0.491-3.115
	c10.868-1.156,21.227-5.208,29.995-11.733c14.516-9.94,23.694-25.969,24.917-43.52C469.344,34.283,428.811,21.333,394.677,21.333z"
	/>
<path style="fill:#FFA000;" d="M416.352,298.667L75.019,288c-5.888-0.189-10.814,4.432-11.003,10.32
	c-0.004,0.116-0.006,0.231-0.005,0.347v74.667c0,5.891,4.776,10.667,10.667,10.667h341.333c5.891,0,10.667-4.776,10.667-10.667v-64
	C426.68,303.573,422.109,298.851,416.352,298.667z"/>
<path style="fill:#CFD8DC;" d="M341.344,213.333c-20.974-2.235-41.893,4.676-57.408,18.965
	c-18.502-10.275-38.881-16.724-59.925-18.965c-23.182-0.519-45.529,8.659-61.653,25.323l-2.837,3.52
	c-17.883-4.185-36.116-6.699-54.464-7.509c-18.356-1.737-36.693,3.512-51.349,14.699c-7.385,7.397-11.378,17.521-11.029,27.968
	c0,35.264,64,43.072,115.648,42.325c16.234,23.591,27.819,50.062,34.133,77.995c1.325,4.544,5.486,7.671,10.219,7.68
	c0.433,0.031,0.868,0.031,1.301,0c5.211-0.637,9.184-4.972,9.365-10.219c1.6-37.909,12.16-75.115,21.333-75.115
	c9.093,0.371,17.96,2.948,25.835,7.509c18.366,9.508,38.822,14.261,59.499,13.824c51.541,0,128-26.88,128-64
	C448.011,241.301,390.667,213.333,341.344,213.333z"/>
<g>
</g>
<g>
</g>
<g>
</g>
<g>
</g>
<g>
</g>
<g>
</g>
<g>
</g>
<g>
</g>
<g>
</g>
<g>
</g>
<g>
</g>
<g>
</g>
<g>
</g>
<g>
</g>
<g>
</g>
</svg>
