<?xml version="1.0" encoding="iso-8859-1"?>
<!-- Generator: Adobe Illustrator 19.0.0, SVG Export Plug-In . SVG Version: 6.00 Build 0)  -->
<svg version="1.1" id="Capa_1" xmlns="http://www.w3.org/2000/svg" xmlns:xlink="http://www.w3.org/1999/xlink" x="0px" y="0px"
	 viewBox="0 0 512 512" style="enable-background:new 0 0 512 512;" xml:space="preserve">
<path style="fill:#F44336;" d="M361.707,208.917L308.373,91.584c-1.731-3.806-5.526-6.25-9.707-6.251h-85.333
	c-4.181,0.001-7.976,2.445-9.707,6.251l-53.333,117.333c-2.439,5.362-0.069,11.687,5.294,14.126c1.386,0.63,2.891,0.957,4.413,0.957
	h192c5.891-0.002,10.665-4.779,10.664-10.67C362.663,211.808,362.337,210.303,361.707,208.917z"/>
<circle style="fill:#FFC107;" cx="256" cy="64" r="64"/>
<path style="fill:#4CAF50;" d="M512,138.667c0-5.891-4.776-10.667-10.667-10.667c-56.427,0-127.317,53.632-149.483,71.595
	c-28.148-19.409-61.664-29.524-95.851-28.928c-34.186-0.596-67.702,9.519-95.851,28.928C137.984,181.632,67.093,128,10.667,128
	C4.776,128,0,132.776,0,138.667c0,43.541,78.933,138.453,114.176,164.117c-5.09,15.905-7.625,32.517-7.509,49.216
	c0,23.019,78.933,160,149.333,160s149.333-136.981,149.333-160c0.116-16.699-2.419-33.311-7.509-49.216
	C433.067,277.12,512,182.208,512,138.667z"/>
<path style="fill:#FAFAFA;" d="M256,448c-47.872,0-61.483-24.448-62.869-27.221c-2.698-5.237-0.64-11.67,4.597-14.368
	c5.237-2.698,11.67-0.64,14.368,4.597c0.597,1.003,9.771,15.659,43.904,15.659c34.56,0,43.563-15.04,43.925-15.68
	c2.868-5.042,9.202-6.924,14.357-4.267c5.1,2.646,7.14,8.89,4.587,14.037C317.483,423.552,303.872,448,256,448z"/>
<circle style="fill:#F44336;" cx="256" cy="362.667" r="42.667"/>
<g>
	<path style="fill:#FAFAFA;" d="M224,298.667c-4.968-0.003-9.276-3.435-10.389-8.277c0,0-3.392-13.056-10.944-13.056
		s-10.901,12.907-10.944,13.056c-1.32,5.744-7.046,9.33-12.789,8.011c-5.744-1.32-9.33-7.046-8.011-12.789
		c2.54-15.982,15.625-28.187,31.744-29.611c16.111,1.433,29.185,13.636,31.723,29.611c1.328,5.739-2.248,11.469-7.987,12.797
		c-0.004,0.001-0.009,0.002-0.013,0.003C225.605,298.587,224.804,298.673,224,298.667z"/>
	<path style="fill:#FAFAFA;" d="M330.667,298.667c-4.968-0.003-9.276-3.435-10.389-8.277c0,0-3.392-13.056-10.944-13.056
		s-10.901,12.907-10.944,13.056c-1.32,5.744-7.046,9.33-12.789,8.011c-5.744-1.32-9.33-7.046-8.011-12.789l0,0
		c2.54-15.982,15.625-28.187,31.744-29.611c16.111,1.433,29.185,13.636,31.723,29.611c1.328,5.739-2.248,11.469-7.987,12.797
		c-0.004,0.001-0.009,0.002-0.013,0.003C332.272,298.587,331.47,298.673,330.667,298.667z"/>
</g>
<g>
</g>
<g>
</g>
<g>
</g>
<g>
</g>
<g>
</g>
<g>
</g>
<g>
</g>
<g>
</g>
<g>
</g>
<g>
</g>
<g>
</g>
<g>
</g>
<g>
</g>
<g>
</g>
<g>
</g>
</svg>
