<?xml version="1.0" encoding="iso-8859-1"?>
<!-- Generator: Adobe Illustrator 19.0.0, SVG Export Plug-In . SVG Version: 6.00 Build 0)  -->
<svg version="1.1" id="Capa_1" xmlns="http://www.w3.org/2000/svg" xmlns:xlink="http://www.w3.org/1999/xlink" x="0px" y="0px"
	 viewBox="0 0 512.016 512.016" style="enable-background:new 0 0 512.016 512.016;" xml:space="preserve">
<path style="fill:#455A64;" d="M341.341,96c-5.891,0-10.667-4.776-10.667-10.667v-32c0-17.673-14.327-32-32-32h-85.333
	c-17.673,0-32,14.327-32,32v32c0,5.891-4.776,10.667-10.667,10.667s-10.667-4.776-10.667-10.667v-32
	C160.008,23.878,183.886,0,213.341,0h85.333c29.455,0,53.333,23.878,53.333,53.333v32C352.008,91.224,347.232,96,341.341,96z"/>
<path style="fill:#FFC107;" d="M362.675,383.189l-53.333,21.333l-53.333-21.333l-53.333,21.333l-53.333-21.333l-78.613,31.403
	l8.768,11.179c75.944,97.479,216.531,114.937,314.01,38.993c14.556-11.34,27.653-24.437,38.993-38.993l8.768-11.179L362.675,383.189
	z"/>
<g>
	<path style="fill:#ECEFF1;" d="M34.141,320l2.453,12.693c6.692,34.018,21.415,65.944,42.944,93.12l4.928,6.251l64.875-25.92
		l53.333,21.333l53.333-21.333l53.333,21.333l53.333-21.333l64.875,25.92l4.928-6.251c21.498-27.184,36.192-59.11,42.859-93.12
		L477.875,320H34.141z"/>
	<path style="fill:#ECEFF1;" d="M475.528,243.2C450.91,121.962,332.67,43.637,211.433,68.255
		C123.282,86.155,54.388,155.049,36.488,243.2L33.885,256h444.245L475.528,243.2z"/>
</g>
<path style="fill:#4CAF50;" d="M475.528,243.2l-1.728-8.533H38.216l-1.728,8.533c-2.984,14.747-4.485,29.755-4.48,44.8
	c-0.039,15.103,1.549,30.165,4.736,44.928l1.835,8.405h434.859l1.835-8.405c3.187-14.763,4.775-29.825,4.736-44.928
	C480.013,272.955,478.512,257.947,475.528,243.2z"/>
<g>
</g>
<g>
</g>
<g>
</g>
<g>
</g>
<g>
</g>
<g>
</g>
<g>
</g>
<g>
</g>
<g>
</g>
<g>
</g>
<g>
</g>
<g>
</g>
<g>
</g>
<g>
</g>
<g>
</g>
</svg>
