<?xml version="1.0" encoding="iso-8859-1"?>
<!-- Generator: Adobe Illustrator 19.0.0, SVG Export Plug-In . SVG Version: 6.00 Build 0)  -->
<svg version="1.1" id="Capa_1" xmlns="http://www.w3.org/2000/svg" xmlns:xlink="http://www.w3.org/1999/xlink" x="0px" y="0px"
	 viewBox="0 0 512.047 512.047" style="enable-background:new 0 0 512.047 512.047;" xml:space="preserve">
<path style="fill:#CFD8DC;" d="M448.024,170.714H317.89c-5.891,0-10.667,4.776-10.667,10.667h-102.4
	c0-5.891-4.776-10.667-10.667-10.667H64.024c-5.891,0-10.667,4.776-10.667,10.667v320c0,5.891,4.776,10.667,10.667,10.667h384
	c5.891,0,10.667-4.776,10.667-10.667v-320C458.69,175.49,453.915,170.714,448.024,170.714z"/>
<path style="fill:#B0BEC5;" d="M21.357,85.381H490.69c5.891,0,10.667,4.776,10.667,10.667v85.333
	c0,5.891-4.776,10.667-10.667,10.667H21.357c-5.891,0-10.667-4.776-10.667-10.667V96.047C10.69,90.156,15.466,85.381,21.357,85.381z
	"/>
<path style="fill:#F44336;" d="M234.69,106.714h42.667c5.891,0,10.667,4.776,10.667,10.667v384c0,5.891-4.776,10.667-10.667,10.667
	H234.69c-5.891,0-10.667-4.776-10.667-10.667v-384C224.024,111.49,228.799,106.714,234.69,106.714z"/>
<g>
	<path style="fill:#FFC107;" d="M261.933,151.173l-32-21.333c-4.822-3.217-11.33-1.995-14.656,2.752L140.61,239.258
		c-3.364,4.836-2.17,11.484,2.666,14.847c2.516,1.75,5.664,2.333,8.64,1.601l35.371-8.853l17.067,25.749
		c1.997,3.016,5.386,4.815,9.003,4.779h1.109c3.938-0.415,7.322-2.978,8.789-6.656l42.667-106.667
		C267.822,159.361,266.154,153.975,261.933,151.173z"/>
	<path style="fill:#FFC107;" d="M371.416,239.258l-74.667-106.667c-3.326-4.747-9.834-5.969-14.656-2.752l-32,21.333
		c-4.18,2.793-5.842,8.126-3.989,12.8l42.667,106.667c1.467,3.678,4.851,6.241,8.789,6.656l1.131,0.085
		c3.568-0.002,6.898-1.787,8.875-4.757l17.067-25.749l35.371,8.853c5.72,1.408,11.499-2.087,12.907-7.808
		c0.733-2.976,0.15-6.124-1.601-8.64L371.416,239.258z"/>
</g>
<g>
	<path style="fill:#F44336;" d="M222.146,47.343C208.07,19.71,180.325,1.682,149.357,0.047
		C121.106-1.157,97.227,20.77,96.024,49.021c-0.062,1.453-0.062,2.907,0,4.36c0.318,11.412,2.884,22.648,7.552,33.067
		c1.425,3.061,2.471,6.285,3.115,9.6c-0.644,3.315-1.69,6.539-3.115,9.6c-4.668,10.418-7.234,21.655-7.552,33.067
		c-1.204,28.251,20.722,52.13,48.974,53.333c1.453,0.062,2.907,0.062,4.359,0c30.968-1.635,58.714-19.663,72.789-47.296
		c1.222-1.776,1.876-3.881,1.877-6.037V53.381C224.022,51.225,223.368,49.12,222.146,47.343z"/>
	<path style="fill:#F44336;" d="M405.357,96.047c0.644-3.315,1.69-6.539,3.115-9.6c4.668-10.418,7.234-21.655,7.552-33.067
		c1.204-28.251-20.722-52.129-48.974-53.333c-1.453-0.062-2.907-0.062-4.359,0c-30.968,1.635-58.714,19.663-72.789,47.296
		c-1.222,1.776-1.876,3.881-1.877,6.037v85.333c0.001,2.156,0.656,4.261,1.877,6.037c14.076,27.633,41.821,45.661,72.789,47.296
		c28.251,1.204,52.129-20.723,53.333-48.974c0.062-1.453,0.062-2.907,0-4.36c-0.318-11.412-2.884-22.648-7.552-33.067
		C407.047,102.586,406.001,99.362,405.357,96.047z"/>
</g>
<path style="fill:#D32F2F;" d="M256.024,21.381c-29.867,0-53.333,32.811-53.333,74.667s23.467,74.667,53.333,74.667
	s53.333-32.811,53.333-74.667S285.89,21.381,256.024,21.381z"/>
<g>
</g>
<g>
</g>
<g>
</g>
<g>
</g>
<g>
</g>
<g>
</g>
<g>
</g>
<g>
</g>
<g>
</g>
<g>
</g>
<g>
</g>
<g>
</g>
<g>
</g>
<g>
</g>
<g>
</g>
</svg>
