<?xml version="1.0" encoding="iso-8859-1"?>
<!-- Generator: Adobe Illustrator 19.0.0, SVG Export Plug-In . SVG Version: 6.00 Build 0)  -->
<svg version="1.1" id="Capa_1" xmlns="http://www.w3.org/2000/svg" xmlns:xlink="http://www.w3.org/1999/xlink" x="0px" y="0px"
	 viewBox="0 0 512.017 512.017" style="enable-background:new 0 0 512.017 512.017;" xml:space="preserve">
<g>
	<path style="fill:#F44336;" d="M192.009,160.013c-24.896,0-167.339-72.896-191.467-145.984C-1.308,8.432,1.73,2.396,7.326,0.546
		S18.959,1.734,20.809,7.33c20.203,61.248,152.725,131.136,171.2,131.349c5.891,0,10.667,4.776,10.667,10.667
		C202.675,155.237,197.9,160.013,192.009,160.013z"/>
	<path style="fill:#F44336;" d="M138.675,138.679c-1.966-0.003-3.893-0.549-5.568-1.579C99.358,116.407,85.342,44.535,85.342,10.679
		c0-5.891,4.776-10.667,10.667-10.667c5.891,0,10.667,4.776,10.667,10.667c0,29.739,12.8,93.099,37.589,108.245
		c5.019,3.084,6.588,9.653,3.504,14.672C145.827,136.757,142.384,138.681,138.675,138.679z"/>
	<path style="fill:#F44336;" d="M10.675,128.013c-5.891-0.002-10.665-4.778-10.664-10.669c0.001-3.222,1.458-6.271,3.965-8.296
		c23.908-16.359,52.412-24.663,81.365-23.701c5.891,0,10.667,4.776,10.667,10.667c0,5.891-4.776,10.667-10.667,10.667
		c-24.094-0.796-47.848,5.848-68.032,19.029C15.422,127.204,13.084,128.016,10.675,128.013z"/>
	<path style="fill:#F44336;" d="M320.009,160.013c-5.891,0-10.667-4.776-10.667-10.667c0-5.891,4.776-10.667,10.667-10.667
		c18.475-0.213,150.997-70.101,171.2-131.349c2.056-5.521,8.197-8.33,13.718-6.274c5.228,1.946,8.073,7.592,6.527,12.952
		C487.347,87.117,344.905,160.013,320.009,160.013z"/>
	<path style="fill:#F44336;" d="M373.342,138.679c-5.891,0.003-10.669-4.771-10.672-10.662c-0.002-3.708,1.923-7.151,5.082-9.093
		c24.789-15.147,37.589-78.507,37.589-108.245c0-5.891,4.776-10.667,10.667-10.667c5.891,0,10.667,4.776,10.667,10.667
		c0,33.856-14.016,105.728-47.744,126.421C377.25,138.134,375.315,138.68,373.342,138.679z"/>
	<path style="fill:#F44336;" d="M501.342,128.013c-2.418,0.002-4.765-0.818-6.656-2.325c-20.183-13.163-43.927-19.799-68.011-19.008
		c-5.891,0-10.667-4.776-10.667-10.667c0-5.891,4.776-10.667,10.667-10.667c28.934-0.965,57.422,7.323,81.323,23.659
		c4.607,3.672,5.365,10.383,1.693,14.99C507.666,126.536,504.592,128.015,501.342,128.013z"/>
</g>
<g>
	<path style="fill:#FFC107;" d="M508.894,173.794c-51.2-51.2-145.856-29.248-164.416-10.667c-3.387,3.393-4.094,8.63-1.728,12.8
		l42.667,74.667c1.887,3.34,5.423,5.409,9.259,5.419h0.277c4.757-0.128,117.056-3.755,117.056-74.667
		C512.014,178.515,510.893,175.798,508.894,173.794z"/>
	<path style="fill:#FFC107;" d="M167.561,163.127c-18.581-18.581-113.216-40.533-164.416,10.667
		c-2.007,2.001-3.135,4.718-3.136,7.552c0,70.912,112.299,74.539,117.056,74.667h0.277c3.827-0.001,7.36-2.053,9.259-5.376
		l42.667-74.667C171.661,171.794,170.962,166.533,167.561,163.127z"/>
</g>
<path style="fill:#FFD54F;" d="M256.009,128.013c-78.761-3.659-145.575,57.223-149.234,135.984
	c-0.042,0.894-0.075,1.788-0.099,2.683c0,53.333,30.101,98.133,50.027,127.637c5.565,7.357,10.314,15.297,14.165,23.68
	c5.333,28.139,17.835,94.016,85.141,94.016s79.808-65.877,85.141-94.016c3.851-8.383,8.6-16.323,14.165-23.68
	c19.925-29.504,50.027-74.304,50.027-127.637c-2.177-78.816-67.835-140.943-146.65-138.766
	C257.797,127.938,256.903,127.971,256.009,128.013z"/>
<g>
	<circle style="fill:#455A64;" cx="256.009" cy="426.679" r="42.667"/>
	<path style="fill:#455A64;" d="M224.009,298.679c-5.891-0.002-10.665-4.779-10.664-10.67c0-0.869,0.107-1.735,0.317-2.578
		c0.366-1.848,0.048-3.767-0.896-5.397c-6.296-3.375-13.864-3.375-20.16,0c-0.975,1.682-1.287,3.668-0.875,5.568
		c1.328,5.739-2.248,11.469-7.987,12.797c-0.004,0.001-0.009,0.002-0.013,0.003c-5.652,1.348-11.343-2.076-12.8-7.701
		c-1.919-8.2-0.192-16.829,4.736-23.659c6.727-7.776,16.761-11.874,27.008-11.029c10.207-0.85,20.21,3.205,26.944,10.923
		c4.928,6.829,6.655,15.459,4.736,23.659C233.171,295.344,228.904,298.678,224.009,298.679z"/>
	<path style="fill:#455A64;" d="M330.675,298.679c-5.891,0.002-10.668-4.772-10.67-10.663c0-0.82,0.094-1.637,0.281-2.436
		c0.415-1.893,0.103-3.873-0.875-5.547c-6.296-3.375-13.864-3.375-20.16,0c-0.975,1.682-1.287,3.668-0.875,5.568
		c1.328,5.739-2.248,11.469-7.987,12.797c-0.004,0.001-0.009,0.002-0.013,0.003c-5.652,1.348-11.343-2.076-12.8-7.701
		c-1.919-8.2-0.192-16.829,4.736-23.659c6.731-7.782,16.775-11.881,27.029-11.029c10.207-0.85,20.21,3.205,26.944,10.923
		c4.928,6.829,6.655,15.459,4.736,23.659C339.837,295.344,335.571,298.678,330.675,298.679z"/>
</g>
<g>
</g>
<g>
</g>
<g>
</g>
<g>
</g>
<g>
</g>
<g>
</g>
<g>
</g>
<g>
</g>
<g>
</g>
<g>
</g>
<g>
</g>
<g>
</g>
<g>
</g>
<g>
</g>
<g>
</g>
</svg>
