<?xml version="1.0" encoding="iso-8859-1"?>
<!-- Generator: Adobe Illustrator 19.0.0, SVG Export Plug-In . SVG Version: 6.00 Build 0)  -->
<svg version="1.1" id="Capa_1" xmlns="http://www.w3.org/2000/svg" xmlns:xlink="http://www.w3.org/1999/xlink" x="0px" y="0px"
	 viewBox="0 0 512 512" style="enable-background:new 0 0 512 512;" xml:space="preserve">
<g>
	<path style="fill:#455A64;" d="M426.667,426.937c-4.037,0-7.728-2.279-9.536-5.888l-42.667-85.333
		c-2.633-5.272-0.494-11.681,4.779-14.315c5.272-2.633,11.681-0.494,14.315,4.779l42.667,85.333
		c2.627,5.273,0.483,11.677-4.79,14.304C429.953,426.556,428.321,426.939,426.667,426.937z"/>
	<path style="fill:#455A64;" d="M106.667,426.937c-2,0.007-3.961-0.555-5.653-1.621c-4.983-3.121-6.5-9.686-3.392-14.677
		l53.333-85.333c3.279-4.894,9.904-6.204,14.799-2.925c4.671,3.129,6.111,9.346,3.292,14.211l-53.333,85.333
		C113.763,425.043,110.344,426.937,106.667,426.937z"/>
	<path style="fill:#455A64;" d="M501.333,426.937h-384C52.566,426.855,0.082,374.371,0,309.604c0-53.019,42.981-96,96-96
		c5.891,0,10.667,4.776,10.667,10.667c0,5.891-4.776,10.667-10.667,10.667c-41.237,0-74.667,33.429-74.667,74.667l0,0
		c0,53.019,42.981,96,96,96h384c5.891,0,10.667,4.776,10.667,10.667S507.224,426.937,501.333,426.937z"/>
</g>
<path style="fill:#FFC107;" d="M509.76,89.743c-2.018-2.608-5.129-4.136-8.427-4.139h-4.544
	c-63.021-5.282-122.875,28.464-150.976,85.12c-44.157-3.764-88.589,2.651-129.877,18.752l-1.365-1.813
	c-10.773-14.229-28.8-38.059-54.571-38.059c-28.472-0.983-52.35,21.301-53.333,49.773c-0.041,1.186-0.041,2.374,0,3.56
	c7.423,41.665,19.836,82.284,36.971,120.981c5.155,10.344,15.487,17.104,27.029,17.685L352,341.305
	c54.044,3.837,103.481-30.435,118.848-82.389l40.811-160C512.474,95.729,511.774,92.344,509.76,89.743z"/>
<g>
</g>
<g>
</g>
<g>
</g>
<g>
</g>
<g>
</g>
<g>
</g>
<g>
</g>
<g>
</g>
<g>
</g>
<g>
</g>
<g>
</g>
<g>
</g>
<g>
</g>
<g>
</g>
<g>
</g>
</svg>
