<?xml version="1.0" encoding="iso-8859-1"?>
<!-- Generator: Adobe Illustrator 19.0.0, SVG Export Plug-In . SVG Version: 6.00 Build 0)  -->
<svg version="1.1" id="Capa_1" xmlns="http://www.w3.org/2000/svg" xmlns:xlink="http://www.w3.org/1999/xlink" x="0px" y="0px"
	 viewBox="0 0 511.987 511.987" style="enable-background:new 0 0 511.987 511.987;" xml:space="preserve">
<path style="fill:#455A64;" d="M415.652,350.805c-0.611-5.42-5.212-9.506-10.667-9.472H106.319
	c-5.454-0.034-10.056,4.052-10.667,9.472l-10.667,96c-0.434,3.861,1.266,7.654,4.437,9.899c98.507,73.711,233.802,73.711,332.309,0
	c3.18-2.24,4.888-6.033,4.459-9.899L415.652,350.805z"/>
<path style="fill:#4CAF50;" d="M469.113,201.429c-0.079-1.28-0.383-2.537-0.896-3.712c-9.259-21.035-42.027-31.04-97.515-29.632
	l-80.299,0.448c-9.51-0.584-19.049,0.469-28.203,3.115c-16.956,6.584-34.675,11.006-52.736,13.163l-60.267,6.144
	C136.847,191.573,125.86,192,117.327,192c-28.153-0.629-54.852,12.478-71.573,35.136c-1.522,2.111-2.221,4.706-1.963,7.296
	c12.106,117.197,116.927,202.391,234.124,190.285c108.443-11.202,190.993-102.364,191.412-211.383
	C469.327,209.323,469.327,205.504,469.113,201.429z"/>
<path style="fill:#CFD8DC;" d="M255.993,0C138.226,0.129,42.789,95.566,42.66,213.333c0,7.189,0.448,14.123,1.109,21.077
	c0.606,5.86,5.847,10.119,11.707,9.513c2.99-0.309,5.711-1.866,7.493-4.286c12.738-17.117,33.03-26.936,54.357-26.304
	c8.896,0,20.181-0.427,33.515-1.131l61.333-6.251c19.742-2.312,39.103-7.166,57.6-14.443c6.652-1.633,13.524-2.188,20.352-1.643
	l80.853-0.448c51.2-1.323,73.685,7.851,77.653,16.875c2.121,4.677,7.238,7.217,12.245,6.08c5.025-1.2,8.467-5.829,8.171-10.987
	C462.627,88.401,369.161,0.055,255.993,0z"/>
<path style="fill:#009688;" d="M255.311,284.245l-64-170.667c-2.685-5.52-9.337-7.818-14.857-5.132
	c-2.237,1.088-4.044,2.895-5.132,5.132l-64,170.667c-2.074,5.514,0.715,11.665,6.229,13.739c1.207,0.454,2.486,0.685,3.776,0.683
	h128c5.891,0,10.667-4.776,10.667-10.667C255.993,286.718,255.762,285.446,255.311,284.245z"/>
<path style="fill:#00796B;" d="M181.327,277.333c-5.891,0-10.667,4.776-10.667,10.667v42.667c0,5.891,4.776,10.667,10.667,10.667
	s10.667-4.776,10.667-10.667V288C191.993,282.109,187.218,277.333,181.327,277.333z"/>
<path style="fill:#FF9800;" d="M266.66,213.333h128c5.891,0,10.667,4.776,10.667,10.667v85.333c0,5.891-4.776,10.667-10.667,10.667
	h-128c-5.891,0-10.667-4.776-10.667-10.667V224C255.993,218.109,260.769,213.333,266.66,213.333z"/>
<path style="fill:#FFC107;" d="M423.545,216.448l-85.333-85.333c-4.165-4.164-10.917-4.164-15.083,0l-85.333,85.333
	c-4.171,4.16-4.179,10.914-0.019,15.085c2.001,2.006,4.717,3.133,7.55,3.134h170.667c5.891,0.011,10.675-4.757,10.686-10.648
	C426.684,221.179,425.556,218.454,423.545,216.448z"/>
<g>
	<path style="fill:#FAFAFA;" d="M309.327,256h42.667c5.891,0,10.667,4.776,10.667,10.667v42.667c0,5.891-4.776,10.667-10.667,10.667
		h-42.667c-5.891,0-10.667-4.776-10.667-10.667v-42.667C298.66,260.776,303.436,256,309.327,256z"/>
	<circle style="fill:#FAFAFA;" cx="117.327" cy="160" r="10.667"/>
	<circle style="fill:#FAFAFA;" cx="202.66" cy="53.333" r="10.667"/>
	<circle style="fill:#FAFAFA;" cx="266.66" cy="74.667" r="10.667"/>
	<circle style="fill:#FAFAFA;" cx="245.327" cy="117.333" r="10.667"/>
	<circle style="fill:#FAFAFA;" cx="330.66" cy="96" r="10.667"/>
	<circle style="fill:#FAFAFA;" cx="394.66" cy="138.667" r="10.667"/>
	<circle style="fill:#FAFAFA;" cx="138.66" cy="96" r="10.667"/>
</g>
<g>
</g>
<g>
</g>
<g>
</g>
<g>
</g>
<g>
</g>
<g>
</g>
<g>
</g>
<g>
</g>
<g>
</g>
<g>
</g>
<g>
</g>
<g>
</g>
<g>
</g>
<g>
</g>
<g>
</g>
</svg>
