<?xml version="1.0" encoding="iso-8859-1"?>
<!-- Generator: Adobe Illustrator 19.0.0, SVG Export Plug-In . SVG Version: 6.00 Build 0)  -->
<svg version="1.1" id="Capa_1" xmlns="http://www.w3.org/2000/svg" xmlns:xlink="http://www.w3.org/1999/xlink" x="0px" y="0px"
	 viewBox="0 0 490.672 490.672" style="enable-background:new 0 0 490.672 490.672;" xml:space="preserve">
<path style="fill:#FFC107;" d="M483.758,235.025L317.635,172.71L255.32,6.588c-2.671-5.514-9.305-7.819-14.819-5.149
	c-2.247,1.088-4.06,2.902-5.149,5.149L173.038,172.71L6.915,235.025c-5.514,2.074-8.303,8.225-6.229,13.739
	c1.082,2.877,3.352,5.147,6.229,6.229l166.123,62.315l62.315,166.123c2.074,5.514,8.225,8.303,13.739,6.229
	c2.877-1.082,5.147-3.352,6.229-6.229l62.315-166.123l166.123-62.315c5.514-2.074,8.303-8.225,6.229-13.739
	C488.905,238.377,486.635,236.107,483.758,235.025L483.758,235.025z"/>
<g>
	<path style="fill:#FAFAFA;" d="M245.336,341.009c-5.891,0-10.667-4.776-10.667-10.667V159.676c0-5.891,4.776-10.667,10.667-10.667
		s10.667,4.776,10.667,10.667v170.667C256.003,336.233,251.227,341.009,245.336,341.009z"/>
	<path style="fill:#FAFAFA;" d="M330.67,255.676H160.003c-5.891,0-10.667-4.776-10.667-10.667c0-5.891,4.776-10.667,10.667-10.667
		H330.67c5.891,0,10.667,4.776,10.667,10.667C341.336,250.9,336.561,255.676,330.67,255.676z"/>
</g>
<g>
	<path style="fill:#FFD54F;" d="M131.118,344.124l-64,64c-4.237,4.093-4.355,10.845-0.262,15.083
		c4.093,4.237,10.845,4.354,15.083,0.262c0.089-0.086,0.176-0.173,0.262-0.262l64-64c4.093-4.237,3.975-10.99-0.262-15.083
		C141.805,340.131,135.251,340.131,131.118,344.124z"/>
	<path style="fill:#FFD54F;" d="M352.003,149.009c2.831,0.005,5.548-1.115,7.552-3.115l64-64c4.237-4.093,4.354-10.845,0.262-15.083
		c-4.093-4.237-10.845-4.354-15.083-0.262c-0.089,0.086-0.176,0.173-0.262,0.262l-64,64c-4.159,4.172-4.149,10.926,0.024,15.085
		C346.489,147.884,349.188,149.003,352.003,149.009z"/>
	<path style="fill:#FFD54F;" d="M82.222,66.79c-4.237-4.093-10.99-3.975-15.083,0.262c-3.992,4.134-3.992,10.687,0,14.82l64,64
		c4.237,4.092,10.99,3.975,15.083-0.262c3.992-4.134,3.992-10.687,0-14.82L82.222,66.79z"/>
	<path style="fill:#FFD54F;" d="M359.555,344.145c-4.237-4.093-10.99-3.976-15.083,0.261c-3.993,4.134-3.993,10.688,0,14.821l64,64
		c4.237,4.093,10.99,3.976,15.083-0.261c3.993-4.134,3.993-10.688,0-14.821L359.555,344.145z"/>
</g>
<g>
</g>
<g>
</g>
<g>
</g>
<g>
</g>
<g>
</g>
<g>
</g>
<g>
</g>
<g>
</g>
<g>
</g>
<g>
</g>
<g>
</g>
<g>
</g>
<g>
</g>
<g>
</g>
<g>
</g>
</svg>
