<?xml version="1.0" encoding="iso-8859-1"?>
<!-- Generator: Adobe Illustrator 19.0.0, SVG Export Plug-In . SVG Version: 6.00 Build 0)  -->
<svg version="1.1" id="Capa_1" xmlns="http://www.w3.org/2000/svg" xmlns:xlink="http://www.w3.org/1999/xlink" x="0px" y="0px"
	 viewBox="0 0 512.002 512.002" style="enable-background:new 0 0 512.002 512.002;" xml:space="preserve">
<path style="fill:#9A84B8;" d="M216.848,133.09c3.793-2.437,8.058-4.281,12.701-5.358c13.185-3.059,26.353,0.729,35.8,9.029
	c9.423-8.951,23.349-12.542,36.537-8.143c4.067,1.357,7.731,3.368,10.922,5.87c0.094-0.309,0.18-0.618,0.283-0.926
	c5.325-15.964,20.66-25.766,36.697-24.766c2.72-3.158,4.899-6.871,6.3-11.07c5.768-17.292-3.573-35.984-20.865-41.752
	c-3.695-1.232-7.454-1.77-11.138-1.692c0.1-0.276,0.206-0.548,0.3-0.828c5.768-17.292-3.573-35.984-20.865-41.752
	s-35.984,3.574-41.752,20.865c-0.094,0.28-0.172,0.561-0.258,0.842c-2.899-2.273-6.228-4.101-9.923-5.333
	c-17.292-5.768-35.984,3.573-41.752,20.865c-4.785,14.344,0.835,29.645,12.759,37.74c-5.834,3.926-10.469,9.733-12.867,16.92
	c-1.26,3.777-1.798,7.621-1.691,11.382c4.062,4.762,7.083,10.535,8.595,17.054C216.713,132.386,216.776,132.738,216.848,133.09z
	 M258.998,75.838c3.834-11.495,16.261-17.704,27.756-13.87c11.494,3.834,17.704,16.261,13.87,27.755
	c-3.834,11.495-16.261,17.705-27.756,13.87C261.374,99.759,255.164,87.332,258.998,75.838z"/>
<circle style="fill:#F4DAAB;" cx="279.806" cy="82.779" r="21.94"/>
<path style="fill:#C7E1F0;" d="M185.863,325.68c7.332,13.507,16.876,26.279,29.168,35.029c0,0,0.001,62.791-22.288,121.806
	c-1.709,4.525,0.596,9.579,5.114,11.31c28.408,10.884,59.836,10.884,88.244,0c4.517-1.73,6.823-6.784,5.114-11.31
	c-22.29-59.016-22.288-121.806-22.288-121.806c5.249-3.736,9.997-8.206,14.286-13.152c12.756-14.711,21.451-33.643,27.165-50.075
	c4.726-13.591,7.411-25.462,8.67-31.824c-2.588-3.033-4.645-6.472-6.117-10.156c-0.918-0.638-1.842-1.264-2.773-1.875
	c-8.969,5.861-20.427,7.725-31.379,4.071c-3.778-1.26-7.204-3.088-10.23-5.346c-5.271,10.05-14.714,17.837-26.637,20.604
	c-13.305,3.087-26.593-0.798-36.058-9.256c-4.774,11.762-14.994,21.101-28.299,24.188c-2.269,0.526-4.535,0.838-6.784,0.972
	c3.407,11.164,8.298,24.301,15.087,36.81"/>
<path style="fill:#CD5C63;" d="M393.94,159.325c-4.067-1.357-8.204-1.948-12.259-1.862c0.11-0.304,0.227-0.603,0.33-0.911
	c6.349-19.032-3.933-39.606-22.965-45.955c-3.068-1.023-6.176-1.609-9.258-1.801c-16.037-1-31.372,8.802-36.697,24.766
	c-0.103,0.308-0.189,0.618-0.283,0.926c-3.191-2.502-6.855-4.513-10.922-5.87c-13.189-4.399-27.115-0.808-36.537,8.143
	c6.121,5.377,10.685,12.643,12.667,21.186c2.971,12.807-0.516,25.596-8.325,34.974c0.095,0.066,0.187,0.136,0.283,0.201
	c-0.393,0.264-0.78,0.537-1.163,0.816c-1.785,2.004-3.774,3.837-5.946,5.463c-1.132,1.299-2.182,2.682-3.13,4.153
	c5.981,5.351,10.437,12.524,12.389,20.935c2.275,9.805,0.758,19.6-3.577,27.865c3.027,2.258,6.453,4.085,10.23,5.346
	c10.953,3.654,22.411,1.79,31.379-4.071c0.574-0.375,1.14-0.766,1.693-1.173c0.311,1.034,0.681,2.047,1.081,3.048
	c1.472,3.684,3.53,7.123,6.117,10.156c4.141,4.853,9.609,8.68,16.103,10.846c19.032,6.349,39.606-3.934,45.954-22.965
	c2.647-7.934,2.394-16.133-0.169-23.461c15.771,0.663,30.724-9.077,35.969-24.798C423.253,186.247,412.971,165.672,393.94,159.325z
	 M355.856,196.471c-4.22,12.652-17.897,19.486-30.548,15.266c-12.651-4.22-19.486-17.897-15.266-30.548
	c4.22-12.651,17.897-19.486,30.548-15.266C353.242,170.143,360.076,183.82,355.856,196.471z"/>
<circle style="fill:#F4DAAB;" cx="332.945" cy="188.827" r="24.15"/>
<path style="fill:#EBBF72;" d="M205.853,263.7c9.466,8.458,22.753,12.343,36.058,9.256c11.922-2.766,21.365-10.554,26.637-20.604
	c4.335-8.266,5.852-18.06,3.577-27.865c-1.951-8.411-6.408-15.584-12.389-20.935c-0.46-0.411-0.926-0.814-1.403-1.204
	c1.588-0.884,3.098-1.874,4.533-2.949c2.172-1.626,4.161-3.459,5.946-5.463c0.298-0.335,0.593-0.673,0.879-1.017
	c7.81-9.379,11.297-22.168,8.325-34.974c-1.982-8.542-6.546-15.808-12.667-21.186c-9.448-8.3-22.616-12.088-35.8-9.029
	c-4.643,1.077-8.908,2.921-12.701,5.358c-0.072-0.352-0.135-0.704-0.217-1.055c-1.512-6.519-4.532-12.292-8.595-17.054
	c-9.478-11.112-24.665-16.689-39.873-13.161c-21.728,5.041-35.254,26.741-30.213,48.468c0.082,0.352,0.179,0.695,0.27,1.042
	c-4.479-0.518-9.119-0.295-13.763,0.782c-21.728,5.041-35.254,26.741-30.213,48.468c4.182,18.024,19.83,30.392,37.445,31.211
	c-3.576,7.827-4.698,16.85-2.602,25.88c4.515,19.459,22.393,32.329,41.684,31.185c2.249-0.133,4.516-0.446,6.784-0.972
	C190.859,284.8,201.079,275.462,205.853,263.7z M166.733,201.203c-3.351-14.443,5.641-28.868,20.085-32.219
	c14.443-3.351,28.868,5.641,32.218,20.085c3.351,14.443-5.641,28.868-20.085,32.218
	C184.508,224.638,170.084,215.647,166.733,201.203z"/>
<circle style="fill:#F4DAAB;" cx="192.887" cy="195.137" r="26.847"/>
<path d="M279.842,114.736c4.889,0,9.747-1.136,14.247-3.385c7.632-3.813,13.322-10.371,16.021-18.465
	c2.699-8.093,2.086-16.753-1.729-24.385c-3.813-7.631-10.371-13.321-18.463-16.021c-8.096-2.699-16.755-2.086-24.386,1.728
	c-7.632,3.813-13.321,10.371-16.021,18.465c-2.699,8.093-2.086,16.753,1.729,24.385c3.813,7.631,10.371,13.321,18.463,16.021
	C273.024,114.186,276.44,114.736,279.842,114.736z M268.484,79.003c1.667-4.997,6.336-8.164,11.336-8.164
	c1.249,0,2.521,0.198,3.77,0.615c6.245,2.083,9.631,8.859,7.548,15.104c-1.009,3.025-3.136,5.477-5.989,6.902
	c-2.853,1.426-6.09,1.653-9.116,0.646C269.787,92.024,266.401,85.247,268.484,79.003z"/>
<path d="M409.233,155.977c-3.706-2.624-7.786-4.689-12.129-6.139c-1.112-0.371-2.234-0.699-3.365-0.983
	c0.704-8.372-0.896-16.801-4.748-24.508c-5.07-10.145-13.489-17.914-23.897-22.157c0.161-0.434,0.334-0.86,0.481-1.3v-0.001
	c7.503-22.495-4.693-46.899-27.186-54.401c-0.792-0.265-1.59-0.506-2.392-0.723c0.437-6.766-0.733-13.585-3.485-19.908
	c-4.862-11.173-14.276-19.79-25.828-23.644c-18.898-6.306-39.14,1.295-49.585,17.233c-0.772-0.309-1.555-0.595-2.348-0.859
	c-22.496-7.506-46.898,4.692-54.403,27.188c-4.735,14.199-1.608,29.636,7.534,40.847c-2.585,3.12-4.709,6.606-6.331,10.385
	c-10.893-6.002-23.444-7.759-35.648-4.927c-13.11,3.041-24.252,11.006-31.371,22.428c-5.128,8.227-7.728,17.538-7.644,27.007
	c-1.571,0.211-3.137,0.498-4.692,0.858c-7.342,1.704-14.04,4.928-19.91,9.584c-4.327,3.433-5.053,9.723-1.621,14.049
	c3.433,4.327,9.722,5.054,14.049,1.621c3.531-2.801,7.57-4.743,12.003-5.771c3.411-0.792,6.896-0.989,10.353-0.589
	c3.282,0.385,6.535-0.884,8.699-3.375c2.165-2.492,2.961-5.893,2.127-9.086l-0.103-0.384c-0.036-0.134-0.073-0.268-0.103-0.392
	c-1.834-7.906-0.479-16.055,3.814-22.942c4.293-6.888,11.013-11.691,18.919-13.525c7.906-1.832,16.055-0.479,22.942,3.813
	c1.815,1.132,3.481,2.436,4.991,3.882c4.218,4.04,7.183,9.211,8.531,15.024c0.03,0.13,0.054,0.261,0.08,0.391l0.086,0.431
	c0.663,3.229,2.876,5.924,5.914,7.203c3.038,1.279,6.512,0.979,9.285-0.803c2.932-1.884,6.146-3.239,9.557-4.03
	c1.805-0.418,3.623-0.663,5.435-0.752c1.867-0.092,3.728-0.01,5.565,0.241c2.71,0.371,5.365,1.104,7.903,2.204
	c1.385,0.601,2.735,1.307,4.04,2.121c4.839,3.017,8.643,7.234,11.118,12.216c1.048,2.109,1.862,4.353,2.408,6.704
	c0.549,2.366,0.791,4.75,0.766,7.11c-0.031,3.036-0.532,6.021-1.436,8.875c-2.132,6.733-6.567,12.677-12.749,16.572
	c-0.458,0.289-0.91,0.584-1.387,0.85c-2.896,1.611-4.806,4.555-5.098,7.856c-0.058,0.656-0.033,1.306,0.036,1.948
	c0.279,2.59,1.545,5.002,3.604,6.681c5.252,4.286,8.839,10.043,10.372,16.65c2.313,9.968-0.597,19.944-6.926,27.068
	c-4.034,4.541-9.453,7.926-15.806,9.4c-9.61,2.228-19.754-0.376-27.136-6.972c-2.426-2.168-5.755-3.02-8.923-2.284
	c-3.169,0.735-5.782,2.966-7.006,5.98c-3.377,8.319-10.247,14.68-18.667,17.457c-0.862,0.284-1.734,0.543-2.627,0.75
	c-6.312,1.463-12.625,0.829-18.218-1.434c-8.873-3.589-15.928-11.289-18.25-21.299c-1.528-6.587-0.852-13.318,1.957-19.465
	c1.38-3.021,1.171-6.529-0.56-9.364c-1.729-2.835-4.754-4.626-8.071-4.78c-5.612-0.261-11.05-2.086-15.725-5.278
	c-4.561-3.114-10.783-1.942-13.897,2.62c-3.114,4.561-1.941,10.782,2.62,13.897c4.227,2.886,8.836,5.098,13.667,6.581
	c-1.211,6.67-1.045,13.535,0.526,20.309c3.042,13.11,11.007,24.252,22.428,31.371c6.663,4.153,14.036,6.644,21.626,7.398
	c7.527,22.271,20.436,49.651,41.521,66.862c-0.533,15.577-3.631,66.022-21.532,113.418c-3.64,9.639,1.247,20.486,10.892,24.181
	c15.382,5.894,31.538,8.84,47.7,8.839c16.157-0.001,32.32-2.947,47.698-8.839c9.647-3.695,14.533-14.543,10.892-24.181
	c-17.862-47.293-20.984-97.829-21.528-113.422c4.085-3.335,8.015-7.171,11.728-11.452c11.638-13.422,21.413-31.368,29.053-53.341
	c2.217-6.374,3.999-12.372,5.413-17.657c2.156,1.126,4.408,2.097,6.751,2.879c4.847,1.616,9.774,2.385,14.623,2.385
	c19.396-0.001,37.515-12.286,43.981-31.671c1.942-5.824,2.706-11.836,2.293-17.801c15.389-3.602,28.347-14.987,33.507-30.458
	C432.897,188.937,426.002,167.852,409.233,155.977z M265.174,124.222c-11.39-7.044-24.836-9.26-37.884-6.231
	c-1.556,0.36-3.087,0.793-4.591,1.294c-1.282-2.674-2.819-5.2-4.543-7.591c0.169-1.646,0.513-3.297,1.058-4.931
	c1.62-4.856,4.72-8.933,8.963-11.788c2.756-1.854,4.411-4.955,4.418-8.276c0.007-3.321-1.636-6.429-4.383-8.294
	c-8.479-5.757-12.135-16.572-8.89-26.303c1.944-5.829,6.043-10.552,11.539-13.299c5.498-2.747,11.734-3.189,17.564-1.244
	c2.514,0.839,4.841,2.089,6.917,3.716c2.597,2.036,6.031,2.662,9.18,1.667c3.148-0.993,5.603-3.477,6.561-6.635l0.173-0.579
	c4.016-12.032,17.07-18.556,29.104-14.543c6.179,2.062,11.216,6.673,13.818,12.651c2.268,5.211,2.525,11.054,0.729,16.438
	l-0.225,0.614c-1.117,3.1-0.637,6.55,1.286,9.226s5.076,4.197,8.333,4.163c2.636-0.069,5.246,0.341,7.762,1.181
	c12.032,4.014,18.557,17.069,14.543,29.101c-0.5,1.5-1.163,2.911-1.938,4.242c-6.124,0.382-12.168,1.988-17.822,4.813
	c-7.705,3.851-14.045,9.629-18.51,16.749c-1.075-0.451-2.17-0.862-3.282-1.233c-11.736-3.915-24.3-3.023-35.367,2.506
	C268.12,122.418,266.62,123.287,265.174,124.222z M300.931,294.197c-6.804,19.564-15.307,35.312-25.273,46.808
	c-3.965,4.571-8.182,8.46-12.531,11.557c-2.635,1.876-4.2,4.911-4.2,8.146c0,2.621,0.257,64.51,22.501,124.191
	c-4.877,1.812-9.844,3.27-14.865,4.388c-3.632-6.518-11.609-23.259-13.408-47.276c-0.412-5.508-5.239-9.644-10.718-9.226
	c-5.508,0.412-9.639,5.211-9.226,10.718c1.605,21.451,7.547,38.12,12.306,48.417c-14.528,0.455-29.118-1.871-42.989-7.023
	c14.791-39.682,19.859-80.336,21.596-103.899c3.984,3.033,8.179,5.96,12.575,8.692c1.643,1.021,3.466,1.507,5.268,1.507
	c3.343,0,6.609-1.675,8.504-4.724c2.914-4.69,1.475-10.856-3.217-13.771c-30.843-19.166-51.565-50.272-52.909-52.322
	c-4.244-7.912-7.701-16.126-10.488-23.879c10.228-3.295,19.093-9.773,25.342-18.38c10.619,5.622,23.043,7.343,34.971,4.574
	c10.933-2.537,20.487-8.506,27.49-17.039c1.288,0.563,2.604,1.076,3.953,1.526c10.402,3.469,21.599,3.082,31.603-0.845
	c0.356,0.578,0.726,1.147,1.106,1.708C306.902,274.482,304.533,283.843,300.931,294.197z M407.419,202.115
	c-3.693,11.072-14.419,18.468-26.063,17.971c-3.321-0.137-6.478,1.371-8.453,4.034c-1.975,2.662-2.501,6.13-1.407,9.259
	c1.939,5.544,1.981,11.421,0.122,16.996c-4.593,13.771-19.531,21.24-33.304,16.643c-3.142-1.048-6.009-2.674-8.492-4.744
	c-3.926-3.272-6.885-7.662-8.395-12.693c-0.045-0.149-0.108-0.289-0.16-0.434c-1.021-2.906-3.316-5.197-6.253-6.177
	c-1.034-0.345-2.102-0.514-3.164-0.514c-0.212,0-0.424,0.012-0.636,0.025c-1.889,0.12-3.733,0.771-5.298,1.925
	c-6.904,5.089-15.863,6.515-23.975,3.808c-0.282-0.094-0.558-0.199-0.835-0.301c1.751-5.887,2.414-12.041,1.919-18.214
	c-0.2-2.493-0.584-4.988-1.16-7.469c-1.583-6.823-4.486-13.101-8.556-18.583c0.717-0.682,1.408-1.386,2.08-2.106
	c0.057-0.039,0.109-0.083,0.166-0.122c1.665-1.12,2.919-2.699,3.659-4.502c4.936-6.74,8.162-14.636,9.335-22.933
	c0.846-5.988,0.627-12.183-0.792-18.297c-0.165-0.711-0.351-1.413-0.544-2.112c-1.483-5.353-3.807-10.341-6.855-14.83
	c5.851-2.421,12.302-2.664,18.364-0.641c2.876,0.959,5.539,2.391,7.916,4.254c1.318,1.033,2.853,1.699,4.456,1.978
	c1.554,0.271,3.172,0.178,4.722-0.311c3.146-0.992,5.602-3.474,6.561-6.63l0.104-0.35c0.032-0.11,0.063-0.221,0.097-0.32
	c2.225-6.67,6.915-12.075,13.205-15.219c5.493-2.744,11.631-3.479,17.542-2.138c0.858,0.195,1.712,0.432,2.558,0.714
	c6.671,2.225,12.075,6.915,15.219,13.205c3.144,6.291,3.649,13.429,1.42,20.11c-0.034,0.104-0.073,0.205-0.111,0.307l-0.126,0.343
	c-1.127,3.101-0.652,6.557,1.27,9.238c1.92,2.682,5.047,4.212,8.339,4.175c3.021-0.053,6.007,0.391,8.884,1.35
	c2.477,0.827,4.799,2.001,6.9,3.489C407.053,178.939,411.059,191.2,407.419,202.115z"/>
<path d="M343.755,156.437c-5.25-1.75-10.63-2.139-15.764-1.376c-10.544,1.567-20.037,8.031-25.198,17.76
	c-0.873,1.646-1.628,3.38-2.237,5.205c-5.957,17.861,3.728,37.239,21.589,43.198c3.572,1.191,7.204,1.757,10.778,1.757
	c14.296,0,27.653-9.057,32.42-23.345v-0.001c2.208-6.621,2.347-13.653,0.399-20.336
	C362.605,168.531,354.387,159.985,343.755,156.437z M346.371,193.306c-2.468,7.401-10.497,11.418-17.897,8.945
	c-7.401-2.469-11.414-10.498-8.945-17.897c1.976-5.922,7.509-9.674,13.433-9.674c1.48,0,2.985,0.234,4.465,0.729
	c4.406,1.47,7.814,5.016,9.116,9.484C347.345,187.653,347.287,190.562,346.371,193.306z"/>
<path d="M184.557,159.243c-9.588,2.224-17.735,8.049-22.942,16.401c-5.206,8.353-6.849,18.232-4.624,27.819
	c3.944,17.002,19.138,28.522,35.891,28.522c0.589,0,1.18-0.021,1.773-0.05c2.172-0.105,4.365-0.398,6.557-0.907
	c3.856-0.895,7.426-2.375,10.648-4.314c13.313-8.014,20.614-23.972,16.918-39.905v-0.001
	C224.185,167.017,204.348,154.648,184.557,159.243z M196.692,211.547c-4.384,1.019-8.9,0.266-12.72-2.115
	c-3.819-2.38-6.482-6.105-7.499-10.489c-1.018-4.383-0.267-8.9,2.114-12.719c2.381-3.819,6.105-6.482,10.489-7.499
	c1.275-0.296,2.551-0.438,3.809-0.438c7.658,0,14.606,5.269,16.41,13.042v-0.001C211.394,200.377,205.741,209.448,196.692,211.547z"
	/>
<path d="M256.654,299.221c-5.183-1.908-10.931,0.749-12.837,5.933c-3.342,9.084-7.196,14.814-7.235,14.872
	c-3.107,4.547-1.953,10.754,2.587,13.879c1.732,1.192,3.706,1.764,5.661,1.764c3.18,0,6.307-1.514,8.246-4.331
	c0.212-0.309,5.246-7.684,9.511-19.279C264.494,306.874,261.838,301.127,256.654,299.221z"/>
<path d="M102.428,197.372c0.25-0.601,0.44-1.23,0.57-1.87c0.13-0.64,0.19-1.3,0.19-1.95c0-0.649-0.061-1.31-0.19-1.96
	c-0.13-0.64-0.32-1.27-0.57-1.87c-0.25-0.6-0.56-1.18-0.92-1.72c-0.37-0.55-0.79-1.06-1.25-1.52c-0.46-0.461-0.97-0.881-1.52-1.25
	c-0.54-0.36-1.12-0.671-1.72-0.921c-0.61-0.25-1.24-0.439-1.881-0.569c-1.29-0.26-2.609-0.26-3.899,0
	c-0.641,0.13-1.271,0.319-1.87,0.569c-0.61,0.25-1.19,0.561-1.73,0.921c-0.55,0.369-1.06,0.789-1.52,1.25
	c-0.46,0.46-0.88,0.97-1.24,1.52c-0.359,0.54-0.67,1.12-0.92,1.72c-0.25,0.601-0.45,1.23-0.57,1.87
	c-0.13,0.65-0.199,1.311-0.199,1.96c0,0.65,0.069,1.311,0.199,1.95c0.12,0.64,0.32,1.27,0.57,1.87c0.25,0.61,0.561,1.189,0.92,1.729
	c0.36,0.551,0.78,1.061,1.24,1.521c0.46,0.46,0.97,0.88,1.52,1.24c0.54,0.359,1.12,0.67,1.73,0.92c0.6,0.25,1.229,0.439,1.87,0.569
	c0.64,0.131,1.3,0.2,1.95,0.2c0.649,0,1.31-0.069,1.949-0.2c0.641-0.13,1.271-0.319,1.881-0.569c0.6-0.25,1.18-0.561,1.72-0.92
	c0.55-0.36,1.06-0.78,1.52-1.24c0.46-0.46,0.88-0.97,1.25-1.521C101.868,198.562,102.178,197.983,102.428,197.372z"/>
<g>
</g>
<g>
</g>
<g>
</g>
<g>
</g>
<g>
</g>
<g>
</g>
<g>
</g>
<g>
</g>
<g>
</g>
<g>
</g>
<g>
</g>
<g>
</g>
<g>
</g>
<g>
</g>
<g>
</g>
</svg>
