<?xml version="1.0" encoding="iso-8859-1"?>
<!-- Generator: Adobe Illustrator 19.0.0, SVG Export Plug-In . SVG Version: 6.00 Build 0)  -->
<svg version="1.1" id="Capa_1" xmlns="http://www.w3.org/2000/svg" xmlns:xlink="http://www.w3.org/1999/xlink" x="0px" y="0px"
	 viewBox="0 0 512 512" style="enable-background:new 0 0 512 512;" xml:space="preserve">
<path style="fill:#CE8570;" d="M344.673,202.413c-0.357-0.438-0.72-0.869-1.08-1.304c14.38-19.902,22.938-44.342,22.938-69.72
	c0-12.763-2.171-25.019-6.151-36.425c-9.379-26.878-28.839-49.026-53.857-61.906c-15.143-7.797-32.319-12.2-50.524-12.2
	s-35.381,4.403-50.524,12.2c-25.018,12.88-44.478,35.028-53.857,61.906c-3.98,11.406-6.151,23.662-6.151,36.425
	c0,25.378,8.558,49.818,22.938,69.72c-0.36,0.435-0.723,0.865-1.08,1.304c-16.064,5.634-181.869,65.534-135.746,122.021
	c25.516,31.25,58.543,10.496,85.777-22.556c-3.451,13.619-5.302,26.521-5.302,37.842c0,8.676,1.093,17.136,3.152,25.295
	c-12.592-0.56-24.41,2.412-33.41,9.969c-25.592,21.488-18.735,71.782,5.539,100.691c24.273,28.909,64.697,34.925,90.289,13.438
	c11.736-9.854,18.299-23.784,19.641-38.764c2.082,0.784,4.189,1.529,6.322,2.231c-2.134-0.703-4.238-1.455-6.321-2.239
	c1.583-17.684-4.115-36.83-17.255-52.479c-8.018-9.549-18.669-17.615-30.253-23.382c15.277-43.969,57.07-75.532,106.241-75.532
	s90.964,31.563,106.241,75.532c-11.584,5.767-22.235,13.833-30.253,23.382c-13.14,15.649-18.838,34.796-17.255,52.479
	c-2.083,0.785-4.187,1.536-6.321,2.239c2.133-0.702,4.24-1.447,6.322-2.231c1.343,14.98,7.905,28.91,19.641,38.764
	c25.592,21.488,66.015,15.472,90.289-13.438c24.273-28.909,31.13-79.203,5.539-100.691c-9-7.557-20.818-10.529-33.41-9.969
	c2.06-8.159,3.152-16.62,3.152-25.295c0-11.322-1.851-24.224-5.302-37.842c27.234,33.052,60.261,53.806,85.777,22.556
	C526.541,267.947,360.737,208.047,344.673,202.413z M255.999,145.855c13.018,0,23.571,7.86,23.571,17.557
	s-10.553,24.622-23.571,24.622s-23.571-14.926-23.571-24.622S242.981,145.855,255.999,145.855z"/>
<g>
	<path style="fill:#F4DAAB;" d="M205.475,33.058c-7.406-13.732-21.92-23.064-38.616-23.064c-24.217,0-43.848,19.631-43.848,43.848
		c0,18.857,11.905,34.93,28.607,41.123C160.997,68.086,180.458,45.938,205.475,33.058z"/>
	<path style="fill:#F4DAAB;" d="M360.38,94.964c16.702-6.193,28.607-22.266,28.607-41.123c0-24.217-19.631-43.848-43.848-43.848
		c-16.696,0-31.209,9.333-38.616,23.064C331.54,45.938,351.001,68.086,360.38,94.964z"/>
	<path style="fill:#F4DAAB;" d="M255.999,188.034c13.018,0,23.571-14.926,23.571-24.622s-10.553-17.557-23.571-17.557
		s-23.571,7.86-23.571,17.557S242.981,188.034,255.999,188.034z"/>
	<path style="fill:#F4DAAB;" d="M331.988,397.862c8.018-9.549,18.669-17.615,30.253-23.382
		c-15.277-43.969-57.07-75.532-106.241-75.532s-90.964,31.563-106.241,75.532c11.584,5.767,22.235,13.833,30.253,23.382
		c13.14,15.649,18.838,34.796,17.255,52.479c2.083,0.785,4.187,1.536,6.321,2.239c0.128,0.042,0.258,0.082,0.386,0.124
		c1.052,0.343,2.111,0.677,3.175,1c0.305,0.093,0.613,0.182,0.919,0.272c0.895,0.266,1.794,0.526,2.697,0.778
		c0.373,0.104,0.748,0.205,1.122,0.307c0.851,0.23,1.706,0.455,2.564,0.672c0.396,0.101,0.793,0.201,1.19,0.298
		c0.861,0.211,1.726,0.414,2.594,0.612c0.385,0.088,0.769,0.178,1.156,0.263c0.942,0.208,1.89,0.405,2.84,0.598
		c0.308,0.063,0.615,0.129,0.924,0.189c2.529,0.497,5.085,0.938,7.663,1.321c0.35,0.052,0.702,0.097,1.053,0.146
		c0.927,0.132,1.855,0.26,2.787,0.376c0.463,0.058,0.928,0.109,1.392,0.164c0.83,0.097,1.662,0.19,2.497,0.275
		c0.501,0.051,1.003,0.098,1.506,0.145c0.811,0.075,1.623,0.145,2.438,0.209c0.512,0.04,1.025,0.079,1.539,0.115
		c0.825,0.057,1.653,0.106,2.482,0.151c0.497,0.027,0.994,0.057,1.493,0.08c0.906,0.042,1.816,0.072,2.727,0.1
		c0.419,0.013,0.837,0.03,1.257,0.04c1.333,0.031,2.669,0.049,4.01,0.049c1.341,0,2.678-0.018,4.01-0.049
		c0.42-0.01,0.838-0.027,1.257-0.04c0.911-0.028,1.82-0.058,2.727-0.1c0.499-0.023,0.995-0.052,1.493-0.08
		c0.829-0.045,1.657-0.094,2.482-0.151c0.514-0.036,1.026-0.075,1.539-0.115c0.815-0.064,1.627-0.134,2.438-0.209
		c0.503-0.046,1.005-0.094,1.506-0.145c0.835-0.085,1.667-0.178,2.497-0.275c0.464-0.054,0.929-0.106,1.392-0.164
		c0.932-0.117,1.861-0.245,2.787-0.376c0.351-0.05,0.703-0.095,1.053-0.146c2.579-0.383,5.134-0.824,7.663-1.321
		c0.309-0.061,0.616-0.127,0.924-0.189c0.95-0.192,1.897-0.39,2.84-0.598c0.386-0.085,0.771-0.175,1.156-0.263
		c0.868-0.198,1.733-0.401,2.594-0.612c0.398-0.098,0.794-0.198,1.19-0.298c0.858-0.217,1.713-0.441,2.564-0.672
		c0.375-0.102,0.749-0.203,1.122-0.307c0.903-0.251,1.802-0.512,2.697-0.778c0.306-0.091,0.614-0.18,0.919-0.272
		c1.064-0.323,2.123-0.657,3.175-1c0.128-0.042,0.258-0.082,0.386-0.124c2.134-0.703,4.238-1.455,6.321-2.239
		C313.15,432.658,318.848,413.511,331.988,397.862z"/>
</g>
<path d="M414.546,221.27c-22.252-11.182-43.535-19.727-56.176-24.498c2.091-3.541,4.043-7.197,5.823-10.976
	c3.543-7.523,6.372-15.385,8.408-23.369c2.605-10.21,3.926-20.651,3.926-31.034c0-1.568-0.031-3.159-0.092-4.73
	c-0.337-8.724-1.619-17.404-3.81-25.796c-0.056-0.213-0.123-0.425-0.179-0.639c15.866-9.378,26.537-26.652,26.537-46.38
	C398.983,24.156,374.827,0,345.136,0c-17.056,0-32.274,7.98-42.147,20.392c-14.782-6.244-30.853-9.528-46.991-9.528
	c-16.659,0-32.538,3.398-46.984,9.537C199.142,7.984,183.921,0,166.862,0c-29.691,0-53.846,24.156-53.846,53.847
	c0,19.732,10.676,37.009,26.548,46.386c-2.663,9.944-4.092,20.387-4.092,31.159c0,22.712,6.455,45.484,18.178,65.371
	c-12.638,4.77-33.933,13.318-56.197,24.506c-47.979,24.111-75.676,48.094-82.318,71.28c-3.822,13.34-0.812,26.551,8.705,38.206
	c10.359,12.687,22.671,19.129,36.245,19.129c5.777,0,11.785-1.168,17.963-3.518c8.155-3.102,16.331-8.315,24.305-14.969
	c-0.188,2.836-0.295,5.618-0.295,8.32c0,5.319,0.375,10.586,1.099,15.784c-10.639,1.415-20.099,5.368-27.787,11.822
	c-14.518,12.19-21.431,32.092-19.465,56.038c1.76,21.429,10.426,42.839,23.777,58.74c13.31,15.853,31.363,26.179,50.835,29.077
	c3.694,0.55,7.357,0.821,10.967,0.821c15.857,0,30.679-5.248,42.573-15.234c10.521-8.834,17.509-20.454,20.944-33.239
	c9.473,2.822,19.293,4.849,29.346,6.047c0.068,0.008,0.137,0.015,0.205,0.023c1.26,0.149,2.523,0.283,3.79,0.406
	c0.268,0.026,0.537,0.05,0.805,0.075c1.071,0.099,2.144,0.188,3.22,0.268c0.372,0.028,0.744,0.055,1.117,0.081
	c0.986,0.067,1.975,0.125,2.965,0.176c0.419,0.021,0.838,0.046,1.258,0.065c0.992,0.045,1.986,0.077,2.981,0.106
	c0.395,0.011,0.789,0.028,1.184,0.037c1.374,0.031,2.75,0.049,4.129,0.049s2.756-0.018,4.129-0.049
	c0.395-0.009,0.789-0.025,1.184-0.037c0.995-0.029,1.989-0.061,2.981-0.106c0.42-0.019,0.838-0.043,1.258-0.065
	c0.99-0.052,1.979-0.109,2.965-0.176c0.373-0.025,0.745-0.053,1.117-0.081c1.076-0.081,2.149-0.169,3.22-0.268
	c0.268-0.025,0.537-0.049,0.805-0.075c1.267-0.123,2.53-0.257,3.79-0.406c0.068-0.008,0.137-0.016,0.205-0.023
	c10.053-1.198,19.874-3.225,29.346-6.047c3.435,12.785,10.423,24.405,20.944,33.239C339.838,506.753,354.658,512,370.516,512
	c3.608,0,7.273-0.271,10.967-0.821c19.471-2.898,37.524-13.224,50.835-29.077c13.351-15.901,22.017-37.311,23.777-58.74
	c1.966-23.946-4.947-43.848-19.465-56.038c-7.688-6.454-17.148-10.408-27.787-11.823c0.724-5.197,1.099-10.464,1.099-15.783
	c0-2.702-0.107-5.484-0.295-8.32c7.974,6.654,16.15,11.866,24.305,14.969c6.18,2.351,12.185,3.518,17.963,3.518
	c13.572,0,25.887-6.443,36.245-19.129c9.516-11.655,12.527-24.867,8.705-38.206C490.222,269.363,462.525,245.381,414.546,221.27z
	 M218.376,38.175c11.628-4.71,24.327-7.311,37.623-7.311c13.103,0,25.724,2.444,37.634,7.273c2.811,1.14,5.583,2.41,8.312,3.815
	c2.614,1.347,5.203,2.827,7.693,4.401c0.726,0.459,1.491,0.801,2.273,1.054c4.24,1.372,9.031-0.221,11.523-4.162
	c2.774-4.388,1.709-10.108-2.306-13.23C327.264,23.834,335.76,20,345.136,20c18.664,0,33.847,15.184,33.847,33.848
	c0,11.237-5.509,21.207-13.963,27.366c-2.79-3.02-7.273-4.124-11.27-2.415c-3.662,1.565-5.897,5.059-6.052,8.789
	c-0.06,1.443,0.182,2.92,0.787,4.336c1.935,4.525,3.546,9.233,4.788,13.994c0.097,0.37,0.182,0.743,0.275,1.115
	c1.654,6.65,2.636,13.506,2.903,20.401c0.051,1.315,0.076,2.647,0.076,3.959c0,8.718-1.112,17.496-3.305,26.091
	c-1.724,6.756-4.12,13.415-7.123,19.791c-1.167,2.478-2.421,4.892-3.745,7.249c-3.408,6.068-7.323,11.718-11.656,16.908
	c-19.078,22.847-46.316,36.653-74.7,36.653c-28.887,0-55.855-14.511-74.574-36.795c-4.383-5.217-8.313-10.86-11.709-16.844
	c-8.99-15.837-14.245-34.053-14.245-53.053c0-8.398,1.041-16.556,2.99-24.358c1.687-6.752,4.054-13.237,7.032-19.375
	c7.835-16.149,19.868-29.898,34.672-39.823C205.852,44.023,211.95,40.777,218.376,38.175z M146.565,80.915
	c-8.222-6.181-13.55-16.013-13.55-27.068c0-18.664,15.183-33.848,33.847-33.848c9.378,0,17.875,3.835,24.011,10.017
	C171.689,42.384,156.23,60.045,146.565,80.915z M70.936,327.674c-12.385,4.712-22.429,1.672-31.606-9.566
	c-5.411-6.627-6.991-12.997-4.973-20.046c4.89-17.073,30.417-37.964,71.883-58.826c11.899-5.987,23.637-11.231,33.829-15.509
	c-14.346,23.38-25.44,49.248-31.844,73.512C95.186,312.72,82.284,323.358,70.936,327.674z M186.151,456.656l-0.002,0.006
	c-2.244,9.609-7.226,18.298-14.955,24.788c-10.152,8.525-23.555,12.054-37.735,9.947c-14.635-2.179-28.294-10.047-38.462-22.157
	c-10.591-12.613-17.753-30.375-19.161-47.515c-1.399-17.05,3.118-31.296,12.394-39.085c5.051-4.242,11.747-6.755,19.469-7.471
	c1.528-0.142,3.092-0.22,4.696-0.22c5.175,0,10.72,0.742,16.475,2.248c0.392,0.103,0.781,0.224,1.173,0.332
	c2.553,0.709,5.093,1.547,7.602,2.514c6.395,2.464,12.586,5.72,18.26,9.578c6.253,4.252,11.88,9.227,16.449,14.668
	c7.755,9.236,12.53,19.874,14.346,30.509c0.004,0.021,0.006,0.042,0.01,0.064C187.97,442.291,187.772,449.712,186.151,456.656z
	 M304.523,443.31c-7.936,2.569-16.235,4.531-24.818,5.807c-0.018,0.003-0.037,0.005-0.055,0.008
	c-1.008,0.15-2.021,0.288-3.037,0.419c-0.193,0.024-0.386,0.048-0.58,0.072c-0.885,0.111-1.772,0.214-2.662,0.31
	c-0.331,0.036-0.663,0.068-0.995,0.102c-0.78,0.079-1.561,0.155-2.345,0.223c-0.456,0.04-0.914,0.073-1.371,0.109
	c-0.684,0.054-1.367,0.107-2.054,0.152c-0.574,0.037-1.15,0.066-1.726,0.098c-0.587,0.032-1.173,0.067-1.761,0.093
	c-0.725,0.032-1.453,0.052-2.18,0.074c-0.453,0.014-0.905,0.033-1.359,0.043c-1.191,0.026-2.385,0.041-3.581,0.041
	s-2.39-0.015-3.581-0.041c-0.454-0.01-0.906-0.029-1.359-0.043c-0.727-0.022-1.455-0.042-2.18-0.074
	c-0.589-0.025-1.175-0.061-1.761-0.093c-0.575-0.031-1.151-0.061-1.726-0.098c-0.687-0.045-1.37-0.098-2.054-0.152
	c-0.457-0.036-0.915-0.069-1.371-0.109c-0.784-0.068-1.565-0.144-2.345-0.223c-0.332-0.034-0.664-0.066-0.995-0.102
	c-0.89-0.096-1.778-0.199-2.662-0.31c-0.193-0.024-0.387-0.048-0.58-0.072c-1.016-0.131-2.029-0.269-3.037-0.419
	c-0.018-0.003-0.037-0.005-0.055-0.008c-8.582-1.277-16.881-3.239-24.818-5.807c-0.283-17.912-6.839-36.44-19.805-51.882
	c-6.978-8.31-15.669-15.606-25.337-21.469c3.756-8.502,8.652-16.514,14.632-23.754c3.517-4.259,2.915-10.561-1.343-14.079
	c-4.26-3.517-10.561-2.914-14.079,1.343c-6.99,8.464-12.757,17.803-17.209,27.716c-3.419-1.291-6.892-2.419-10.404-3.338
	c-3.557-0.93-7.047-1.612-10.476-2.102c-0.915-5.235-1.398-10.586-1.398-16.028c0-10.016,1.587-21.373,4.508-33.357
	c6.428-26.377,19.316-55.791,35.959-80.622c1.787-2.666,3.786-5.532,5.986-8.519c0.66,0.745,1.328,1.483,2.006,2.213
	c1.146,1.235,2.316,2.434,3.497,3.614c22.661,22.629,51.587,35.037,81.986,35.037c30.498,0,59.806-13.021,81.98-35.054
	c1.887-1.875,3.721-3.817,5.501-5.82c2.203,2.992,4.205,5.86,5.994,8.53c16.643,24.831,29.531,54.245,35.959,80.622
	c2.92,11.984,4.508,23.341,4.508,33.357c0,5.442-0.483,10.792-1.398,16.027c-3.428,0.49-6.919,1.172-10.476,2.102
	c-3.51,0.918-6.98,2.045-10.397,3.335c-19.207-42.549-62.037-72.236-111.671-72.236c-7.448,0-14.909,0.675-22.176,2.005
	c-5.432,0.995-9.03,6.205-8.036,11.637c0.995,5.432,6.208,9.029,11.637,8.036c6.082-1.114,12.332-1.679,18.575-1.679
	c41.746,0,77.734,25.104,93.679,61.005c-9.673,5.864-18.369,13.163-25.35,21.477C311.363,406.87,304.807,425.398,304.523,443.31z
	 M423.767,382.64c9.276,7.789,13.794,22.035,12.394,39.085c-1.407,17.14-8.57,34.902-19.161,47.515
	c-10.168,12.11-23.827,19.978-38.462,22.157c-14.179,2.104-27.582-1.422-37.735-9.947c-7.729-6.49-12.711-15.179-14.955-24.788
	l-0.002-0.006c-1.621-6.944-1.818-14.365-0.558-21.794c0.004-0.021,0.006-0.043,0.01-0.064c1.816-10.635,6.591-21.273,14.346-30.509
	c4.572-5.445,10.203-10.424,16.462-14.678c5.675-3.857,11.867-7.111,18.262-9.574c2.504-0.964,5.039-1.8,7.586-2.508
	c0.391-0.109,0.781-0.23,1.173-0.332c5.756-1.506,11.301-2.248,16.475-2.248c1.604,0,3.168,0.078,4.696,0.22
	C412.02,375.886,418.716,378.399,423.767,382.64z M472.667,318.108c-9.177,11.238-19.221,14.279-31.606,9.566
	c-11.348-4.317-24.25-14.955-37.29-30.435c-6.404-24.264-17.498-50.132-31.844-73.512c10.192,4.278,21.93,9.522,33.829,15.509
	c41.466,20.862,66.993,41.753,71.883,58.826C479.658,305.112,478.078,311.482,472.667,318.108z"/>
<path d="M222.428,163.412c0,1.706,0.196,3.453,0.55,5.212c2.263,11.238,11.401,22.956,23.021,27.473v9.478
	c-3.4-0.661-6.742-1.659-9.963-3.002c-5.094-2.124-10.951,0.285-13.078,5.383c-2.125,5.098,0.285,10.952,5.383,13.078
	c8.788,3.663,18.224,5.495,27.658,5.495c9.434,0,18.87-1.832,27.658-5.495c5.098-2.126,7.508-7.98,5.383-13.078
	c-2.126-5.097-7.979-7.505-13.078-5.383c-3.221,1.343-6.563,2.341-9.963,3.002v-9.478c11.62-4.518,20.758-16.235,23.021-27.473
	c0.354-1.759,0.55-3.506,0.55-5.212c0-7.573-3.548-14.337-9.375-19.271c-6.064-5.134-14.596-8.286-24.196-8.286
	s-18.132,3.152-24.196,8.286C225.975,149.075,222.428,155.839,222.428,163.412z M242.702,162.075
	c1.246-3.115,6.616-6.22,13.297-6.22s12.052,3.105,13.297,6.22c0.179,0.448,0.274,0.897,0.274,1.336
	c0,4.567-6.562,14.622-13.571,14.622s-13.571-10.055-13.571-14.622C242.428,162.972,242.522,162.523,242.702,162.075z"/>
<path d="M213.379,120.423c0.25,0.61,0.56,1.19,0.92,1.73c0.36,0.55,0.78,1.06,1.24,1.52c1.859,1.86,4.439,2.93,7.08,2.93
	c0.649,0,1.31-0.069,1.949-0.199c0.641-0.131,1.271-0.32,1.87-0.57c0.601-0.25,1.181-0.561,1.73-0.92c0.54-0.36,1.05-0.78,1.52-1.24
	c1.86-1.86,2.92-4.439,2.92-7.07c0-0.649-0.06-1.31-0.189-1.96c-0.13-0.63-0.32-1.26-0.57-1.87c-0.25-0.6-0.56-1.18-0.92-1.72
	c-0.37-0.55-0.78-1.06-1.24-1.52c-0.47-0.46-0.979-0.88-1.52-1.25c-0.55-0.36-1.13-0.67-1.73-0.92c-0.6-0.25-1.229-0.44-1.87-0.57
	c-3.25-0.65-6.699,0.41-9.029,2.74c-0.46,0.46-0.88,0.97-1.24,1.52c-0.36,0.54-0.67,1.12-0.92,1.72c-0.25,0.61-0.44,1.24-0.57,1.87
	c-0.13,0.65-0.189,1.311-0.189,1.96c0,0.65,0.06,1.311,0.189,1.95C212.938,119.194,213.129,119.824,213.379,120.423z"/>
<path d="M283.829,124.914c0.54,0.359,1.13,0.67,1.729,0.92c0.601,0.25,1.23,0.439,1.87,0.57c0.64,0.13,1.3,0.199,1.95,0.199
	c2.64,0,5.21-1.069,7.08-2.93c1.859-1.86,2.93-4.439,2.93-7.07c0-0.649-0.07-1.31-0.2-1.96c-0.13-0.63-0.319-1.26-0.569-1.87
	c-0.25-0.6-0.561-1.18-0.92-1.72c-0.36-0.55-0.78-1.06-1.24-1.52c-2.33-2.33-5.78-3.391-9.03-2.74c-0.64,0.13-1.27,0.32-1.87,0.57
	s-1.189,0.56-1.729,0.92c-0.55,0.37-1.061,0.79-1.521,1.25s-0.88,0.97-1.24,1.52c-0.359,0.54-0.67,1.12-0.92,1.72
	c-0.25,0.61-0.439,1.24-0.569,1.87c-0.13,0.65-0.2,1.311-0.2,1.96c0,2.631,1.07,5.21,2.93,7.07
	C282.769,124.133,283.279,124.553,283.829,124.914z"/>
<path d="M206.769,311.494c-0.25-0.601-0.56-1.181-0.92-1.721c-0.359-0.55-0.78-1.06-1.24-1.52s-0.97-0.88-1.52-1.25
	c-0.54-0.36-1.12-0.67-1.73-0.92c-0.6-0.25-1.229-0.44-1.869-0.57c-1.29-0.26-2.62-0.26-3.91,0c-0.63,0.13-1.261,0.32-1.87,0.57
	c-0.601,0.25-1.18,0.56-1.72,0.92c-0.551,0.37-1.061,0.79-1.521,1.25s-0.88,0.97-1.25,1.52c-0.36,0.54-0.67,1.12-0.92,1.721
	c-0.25,0.609-0.44,1.24-0.57,1.87c-0.13,0.649-0.189,1.31-0.189,1.96c0,0.649,0.06,1.31,0.189,1.949
	c0.13,0.641,0.32,1.271,0.57,1.87c0.25,0.61,0.56,1.19,0.92,1.73c0.37,0.55,0.79,1.06,1.25,1.52s0.97,0.88,1.521,1.24
	c0.54,0.36,1.119,0.67,1.72,0.92c0.609,0.25,1.24,0.44,1.87,0.57c0.649,0.13,1.31,0.2,1.96,0.2c0.649,0,1.31-0.07,1.95-0.2
	s1.27-0.32,1.869-0.57c0.61-0.25,1.19-0.56,1.73-0.92c0.55-0.36,1.06-0.78,1.52-1.24s0.881-0.97,1.24-1.52
	c0.36-0.54,0.67-1.12,0.92-1.73c0.25-0.6,0.45-1.229,0.57-1.87c0.13-0.64,0.2-1.3,0.2-1.949c0-0.65-0.07-1.311-0.2-1.96
	C207.219,312.734,207.019,312.103,206.769,311.494z"/>
<path d="M330.829,63.454c0.25,0.6,0.56,1.18,0.92,1.729c0.37,0.54,0.78,1.061,1.25,1.521c0.46,0.46,0.97,0.88,1.52,1.24
	c0.54,0.359,1.12,0.67,1.721,0.92c0.609,0.25,1.239,0.439,1.869,0.569c0.65,0.13,1.311,0.2,1.96,0.2c0.65,0,1.311-0.07,1.95-0.2
	c0.641-0.13,1.271-0.319,1.87-0.569c0.601-0.25,1.18-0.561,1.73-0.92c0.54-0.36,1.06-0.78,1.52-1.24s0.88-0.98,1.24-1.521
	c0.36-0.55,0.67-1.13,0.92-1.729c0.25-0.601,0.44-1.23,0.57-1.87c0.13-0.65,0.199-1.3,0.199-1.95c0-0.66-0.069-1.31-0.199-1.96
	c-0.13-0.64-0.32-1.27-0.57-1.87s-0.56-1.18-0.92-1.729c-0.36-0.54-0.78-1.061-1.24-1.521s-0.979-0.88-1.52-1.24
	c-0.551-0.359-1.13-0.67-1.73-0.92s-1.229-0.439-1.87-0.569c-1.29-0.261-2.62-0.261-3.91,0c-0.63,0.13-1.26,0.319-1.869,0.569
	c-0.601,0.25-1.181,0.561-1.721,0.92c-0.55,0.36-1.06,0.78-1.52,1.24c-0.47,0.46-0.88,0.98-1.25,1.521
	c-0.36,0.55-0.67,1.13-0.92,1.729c-0.25,0.601-0.44,1.23-0.57,1.87c-0.13,0.65-0.19,1.3-0.19,1.96c0,0.65,0.061,1.3,0.19,1.95
	C330.389,62.223,330.579,62.853,330.829,63.454z"/>
<g>
</g>
<g>
</g>
<g>
</g>
<g>
</g>
<g>
</g>
<g>
</g>
<g>
</g>
<g>
</g>
<g>
</g>
<g>
</g>
<g>
</g>
<g>
</g>
<g>
</g>
<g>
</g>
<g>
</g>
</svg>
