<?xml version="1.0" encoding="iso-8859-1"?>
<!-- Generator: Adobe Illustrator 19.0.0, SVG Export Plug-In . SVG Version: 6.00 Build 0)  -->
<svg version="1.1" id="Capa_1" xmlns="http://www.w3.org/2000/svg" xmlns:xlink="http://www.w3.org/1999/xlink" x="0px" y="0px"
	 viewBox="0 0 512.001 512.001" style="enable-background:new 0 0 512.001 512.001;" xml:space="preserve">
<g>
	<path style="fill:#9A84B8;" d="M89.582,109.565c-13.874,5.673-21.143,19.999-16.236,31.997
		c4.906,11.998,20.131,17.125,34.004,11.452c13.874-5.674,24.976-21.567,20.07-33.564
		C122.513,107.451,103.455,103.891,89.582,109.565z"/>
	<path style="fill:#9A84B8;" d="M352.449,349.8c-14.228-4.714-29.067,1.439-33.144,13.744c-4.077,12.305,4.153,26.101,18.381,30.815
		c14.228,4.714,32.999-0.137,37.075-12.442C378.838,369.613,366.677,354.514,352.449,349.8z"/>
</g>
<path style="fill:#CD5C63;" d="M183.025,450.443v51.559h30.537v-51.859C203.411,451.166,193.19,451.267,183.025,450.443z"/>
<g>
	<path style="fill:#C7E1F0;" d="M252.584,386.13L252.584,386.13c-36.203,6.229-75.667,6.229-111.868,0l0,0
		c-6.543-1.126-10.921-4.149-10.921-7.542v47.444c0,6.936,4.378,13.116,10.921,15.417l0,0c13.752,4.837,27.975,7.832,42.311,8.994
		c10.165,0.824,20.386,0.723,30.537-0.301c13.221-1.333,26.322-4.227,39.022-8.693l0,0c6.543-2.301,10.92-8.482,10.92-15.417
		v-47.444C263.505,381.981,259.127,385.004,252.584,386.13z"/>
	<path style="fill:#C7E1F0;" d="M253.647,216.477c-36.034-17.283-77.963-17.283-113.995,0l0,0c-6.024,2.89-9.857,8.979-9.857,15.66
		v45.577c0-3.269,3.833-6.247,9.857-7.661l0,0c13.807-3.24,28.48-5.238,43.355-5.995c23.945-1.219,48.414,0.78,70.641,5.995
		c6.024,1.414,9.857,4.392,9.857,7.661v-45.577C263.505,225.456,259.672,219.367,253.647,216.477z"/>
</g>
<path style="fill:#EBBF72;" d="M253.647,270.054c-22.226-5.215-46.696-7.213-70.641-5.995c-14.875,0.757-29.548,2.755-43.355,5.995
	l0,0c-6.024,1.414-9.857,4.392-9.857,7.661v100.873c0,3.393,4.378,6.416,10.921,7.542l0,0c36.203,6.229,75.667,6.229,111.868,0l0,0
	c6.543-1.126,10.92-4.149,10.92-7.542V277.715C263.505,274.446,259.672,271.467,253.647,270.054z"/>
<path style="fill:#CD5C63;" d="M259.352,138.911c33.474,0.612,72.374,25.566,96.641,44.008c7.668,5.828,18.393-1.252,16.07-10.599
	l-8.184-32.922l-22.056-88.72l-8.184-32.922c-2.324-9.347-15.115-10.581-19.162-1.841c-12.807,27.659-35.494,67.923-64.785,84.138
	c-8.163,4.519-12.176,14.042-9.925,23.097C242.018,132.205,250.023,138.741,259.352,138.911z"/>
<path d="M136.675,115.664c-0.782-1.913-3.263-7.98-3.78-9.245L107.27,43.757c7.507-1.189,17.833-3.186,30.236-6.492
	c5.337-1.422,8.509-6.901,7.087-12.238c-1.423-5.337-6.902-8.508-12.238-7.086c-24.088,6.421-39.78,7.519-39.923,7.528
	c-3.213,0.205-6.13,1.944-7.839,4.672c-1.708,2.729-1.999,6.113-0.78,9.093l23.663,57.864c-7.377-0.617-14.999,0.48-21.678,3.212
	c-8.933,3.652-16.14,10.172-20.293,18.357c-4.401,8.673-4.903,18.148-1.414,26.68c5.126,12.537,17.856,19.963,31.763,19.962
	c5.041-0.001,10.239-0.977,15.282-3.039C129.207,154.878,144.142,133.92,136.675,115.664z M103.565,143.757
	c-8.749,3.577-18.152,0.893-20.963-5.981c-1.257-3.073-0.995-6.646,0.737-10.06c1.98-3.901,5.542-7.061,10.028-8.896
	c3.066-1.254,6.592-1.899,10.092-1.899c2.078,0,4.147,0.228,6.105,0.69c4.367,1.032,7.582,3.134,8.6,5.622
	C120.39,128.678,113.71,139.607,103.565,143.757z"/>
<path d="M444.532,308.023c-22.475-10.789-35.107-20.162-35.223-20.247c-2.573-1.934-5.92-2.51-8.993-1.55
	c-3.072,0.962-5.494,3.343-6.506,6.399l-19.655,59.324c-5.213-5.247-11.736-9.378-18.562-11.64
	c-9.16-3.037-18.875-2.771-27.354,0.745c-8.984,3.726-15.528,10.597-18.427,19.346c-2.899,8.751-1.753,18.17,3.229,26.522
	c4.702,7.882,12.337,13.895,21.498,16.93c4.603,1.525,9.599,2.288,14.609,2.288c15.168,0,30.44-7.002,35.104-21.076
	c0,0,0-0.001,0.001-0.001c0.672-2.03,2.717-8.204,3.14-9.48l21.292-64.265c6.476,3.979,15.617,9.179,27.189,14.734
	c4.982,2.39,10.953,0.292,13.343-4.687C451.609,316.385,449.511,310.413,444.532,308.023z M365.269,378.772
	c-1.85,5.584-14.03,9.543-24.438,6.095c-4.602-1.525-8.37-4.434-10.611-8.191c-1.961-3.287-2.466-6.834-1.421-9.986
	c1.044-3.151,3.566-5.695,7.102-7.161c2.122-0.88,4.44-1.32,6.831-1.32c2.164,0,4.387,0.361,6.572,1.085
	C359.708,362.74,367.117,373.189,365.269,378.772z"/>
<path d="M257.972,207.461c-15.867-7.61-32.684-12.12-49.678-13.534v-37.82c0-6.845,4.334-12.979,10.785-15.267l15.376-5.452
	c5.473,8.101,14.597,13.335,24.715,13.521c23.485,0.43,55.723,15.336,90.772,41.971c3.646,2.771,7.914,4.167,12.199,4.167
	c3.841,0,7.694-1.121,11.123-3.379c7.262-4.781,10.6-13.323,8.503-21.761c-0.013-0.05-0.025-0.099-0.038-0.148l-5.433-20.51
	l-4.295-17.229c-1.336-5.359-6.767-8.619-12.122-7.284c-5.358,1.336-8.62,6.763-7.284,12.122l4.313,17.3
	c0.012,0.047,0.024,0.095,0.036,0.142l5.423,20.473c0.01,0.045,0.015,0.076,0.02,0.088c-0.059,0.076-0.195,0.169-0.199,0.188
	c-0.001,0-0.049-0.019-0.144-0.091c-27.17-20.646-67.009-45.395-102.508-46.044c-1.458-0.027-2.858-0.365-4.132-0.953
	c-2.879-1.329-5.117-3.947-5.932-7.224c-1.175-4.727,0.907-9.635,5.063-11.936c2.248-1.245,4.452-2.624,6.621-4.101
	c27.807-18.924,49.094-55.859,62.395-84.585c0.025-0.053,0.046-0.09,0.052-0.106c0.087-0.018,0.224-0.006,0.266-0.005
	c0.007,0,0-0.071,0.054,0.117l4.768,20.846c0.015,0.063,0.029,0.127,0.045,0.189l3.112,12.482c1.336,5.359,6.765,8.62,12.122,7.284
	c5.359-1.336,8.62-6.764,7.284-12.122l-3.089-12.389l-4.777-20.887c-0.014-0.062-0.028-0.123-0.044-0.184
	c-2.098-8.438-9.046-14.422-17.701-15.246c-8.654-0.823-16.591,3.736-20.239,11.616c-18.5,39.951-40.005,68.216-60.555,79.592
	c-9.215,5.102-14.921,14.533-15.613,24.717l-16.841,5.972c-14.416,5.11-24.101,18.821-24.101,34.116v37.59
	c-18.11,1.079-36.077,5.663-52.967,13.764c-9.436,4.526-15.533,14.212-15.533,24.677v45.577v100.873v47.443
	c0,11.16,7.074,21.147,17.603,24.852c11.591,4.077,23.54,6.909,35.628,8.512v32.607h-21.062c-5.523,0-10,4.478-10,10s4.477,10,10,10
	h31.062h30.537h27.773c5.523,0,10-4.478,10-10s-4.477-10-10-10h-17.773V458.93c10.966-1.662,21.801-4.34,32.34-8.047
	c10.528-3.704,17.603-13.691,17.603-24.852v-47.443V277.715v-45.577C273.505,221.673,267.408,211.987,257.972,207.461z
	 M203.562,492.001h-10.537v-31.078c1.208,0.024,2.416,0.038,3.624,0.038c2.305,0,4.61-0.05,6.913-0.138L203.562,492.001
	L203.562,492.001z M253.505,426.031c0,2.688-1.703,5.093-4.239,5.984c-8.392,2.952-16.995,5.171-25.704,6.663
	c-16.699,2.86-33.79,3.037-50.537,0.528c-9.832-1.473-19.546-3.867-28.992-7.19c-2.536-0.892-4.239-3.297-4.239-5.984v-29.923
	c18.35,3.11,37.601,4.672,56.855,4.672s38.505-1.562,56.855-4.671v29.921H253.505z M253.505,259.785
	c-3.427-0.764-6.912-1.481-10.429-2.101c-5.441-0.956-10.625,2.674-11.584,8.111c-0.959,5.439,2.673,10.626,8.112,11.584
	c3.981,0.702,7.938,1.513,11.759,2.409c0.899,0.211,1.609,0.45,2.143,0.669v95.145c-0.642,0.233-1.509,0.48-2.617,0.671
	c-34.976,6.02-73.5,6.018-108.477,0c-1.108-0.19-1.975-0.438-2.617-0.671v-95.145c0.533-0.219,1.242-0.458,2.141-0.669
	c8.121-1.904,16.689-3.387,25.465-4.404c5.486-0.637,9.418-5.6,8.782-11.086c-0.637-5.486-5.608-9.403-11.085-8.781
	c-8.675,1.007-17.161,2.454-25.302,4.27v-27.65c0-2.817,1.642-5.425,4.182-6.644c16.074-7.709,33.277-11.705,50.53-12.011
	c1.606-0.063,5.711-0.105,7.321,0.093c16.23,0.697,32.368,4.663,47.495,11.918c2.541,1.219,4.182,3.826,4.182,6.644V259.785z"/>
<path d="M213.119,259.882c-0.25-0.601-0.56-1.18-0.92-1.72c-0.37-0.551-0.78-1.061-1.24-1.521s-0.98-0.88-1.52-1.24
	c-0.55-0.359-1.13-0.67-1.73-0.92c-0.6-0.25-1.23-0.439-1.87-0.569c-3.25-0.66-6.7,0.409-9.03,2.729
	c-0.46,0.46-0.88,0.97-1.24,1.521c-0.36,0.54-0.67,1.119-0.92,1.72c-0.25,0.61-0.44,1.24-0.57,1.88c-0.13,0.64-0.19,1.3-0.19,1.95
	c0,0.649,0.06,1.31,0.19,1.95c0.13,0.64,0.32,1.27,0.57,1.869c0.25,0.61,0.56,1.19,0.92,1.73c0.36,0.55,0.78,1.06,1.24,1.52
	c0.46,0.461,0.98,0.881,1.52,1.25c0.55,0.36,1.13,0.671,1.73,0.921s1.23,0.439,1.87,0.569c0.64,0.13,1.3,0.19,1.95,0.19
	s1.31-0.061,1.96-0.19c0.64-0.13,1.27-0.319,1.87-0.569c0.6-0.25,1.18-0.561,1.72-0.921c0.55-0.369,1.06-0.789,1.52-1.25
	c0.46-0.46,0.88-0.97,1.25-1.52c0.36-0.54,0.67-1.12,0.92-1.73c0.25-0.6,0.44-1.229,0.57-1.869c0.13-0.641,0.19-1.301,0.19-1.95
	c0-0.65-0.06-1.311-0.19-1.95C213.558,261.123,213.369,260.493,213.119,259.882z"/>
<path d="M346.367,84.513c-0.54,0.37-1.05,0.78-1.51,1.24c-0.47,0.46-0.88,0.979-1.25,1.52c-0.359,0.55-0.67,1.13-0.92,1.73
	c-0.25,0.6-0.439,1.229-0.57,1.87c-0.13,0.649-0.189,1.3-0.189,1.96c0,0.649,0.06,1.31,0.189,1.949
	c0.131,0.641,0.32,1.271,0.57,1.87c0.25,0.601,0.561,1.181,0.92,1.73c0.37,0.54,0.78,1.06,1.25,1.52c0.46,0.46,0.97,0.88,1.51,1.24
	c0.551,0.36,1.131,0.67,1.73,0.92s1.229,0.44,1.87,0.57c0.649,0.13,1.3,0.2,1.96,0.2c0.649,0,1.31-0.07,1.95-0.2
	s1.27-0.32,1.87-0.57s1.18-0.56,1.729-0.92c0.54-0.36,1.05-0.78,1.51-1.24c0.471-0.46,0.88-0.979,1.25-1.52
	c0.36-0.55,0.67-1.13,0.92-1.73s0.44-1.229,0.57-1.87c0.13-0.64,0.2-1.3,0.2-1.949c0-0.66-0.07-1.311-0.2-1.96
	c-0.13-0.641-0.32-1.271-0.57-1.87c-0.25-0.601-0.56-1.181-0.92-1.73c-0.37-0.54-0.779-1.06-1.25-1.52
	c-2.319-2.32-5.77-3.38-9.02-2.73c-0.641,0.13-1.271,0.32-1.87,0.57S346.919,84.153,346.367,84.513z"/>
<g>
</g>
<g>
</g>
<g>
</g>
<g>
</g>
<g>
</g>
<g>
</g>
<g>
</g>
<g>
</g>
<g>
</g>
<g>
</g>
<g>
</g>
<g>
</g>
<g>
</g>
<g>
</g>
<g>
</g>
</svg>
