<?xml version="1.0" encoding="iso-8859-1"?>
<!-- Generator: Adobe Illustrator 19.0.0, SVG Export Plug-In . SVG Version: 6.00 Build 0)  -->
<svg version="1.1" id="Capa_1" xmlns="http://www.w3.org/2000/svg" xmlns:xlink="http://www.w3.org/1999/xlink" x="0px" y="0px"
	 viewBox="0 0 512 512" style="enable-background:new 0 0 512 512;" xml:space="preserve">
<path style="fill:#CD5C63;" d="M83.19,348.998H52.851V302.62c0-9.712,7.873-17.586,17.586-17.586h371.126
	c9.712,0,17.586,7.873,17.586,17.586v46.379h-23.261"/>
<g>
	<path style="fill:#CE8570;" d="M473.212,246.656H52.754c-11.348,0-20.334-9.59-19.597-20.914l0.249-3.822
		c5.077-77.981,69.808-138.634,147.954-138.634h163.247c78.146,0,142.877,60.654,147.954,138.634l0.249,3.822
		C493.546,237.066,484.56,246.656,473.212,246.656z"/>
	<path style="fill:#CE8570;" d="M468.934,348.998H43.066c-5.063,0-9.167,4.104-9.167,9.167v31.368
		c0,21.636,17.539,39.175,39.175,39.175h365.853c21.636,0,39.175-17.539,39.175-39.175v-31.368
		C478.102,353.102,473.997,348.998,468.934,348.998z"/>
</g>
<path d="M95.622,195.182c-2.976,0-5.92-1.321-7.892-3.85c-3.396-4.355-2.62-10.639,1.735-14.036l12.74-9.937
	c4.354-3.396,10.638-2.62,14.035,1.735c3.396,4.355,2.62,10.639-1.735,14.036l-12.74,9.937
	C99.938,194.491,97.771,195.182,95.622,195.182z"/>
<path d="M92.861,405.438c-2.976,0-5.92-1.321-7.892-3.85c-3.396-4.355-2.62-10.639,1.735-14.035l12.353-9.635
	c4.353-3.397,10.638-2.621,14.035,1.734c3.396,4.355,2.62,10.639-1.735,14.035l-12.353,9.635
	C97.178,404.748,95.011,405.438,92.861,405.438z"/>
<path d="M395.474,401.129c-2.976,0-5.92-1.321-7.892-3.85c-3.396-4.355-2.62-10.639,1.735-14.035l12.353-9.635
	c4.353-3.398,10.638-2.621,14.035,1.734c3.396,4.355,2.62,10.639-1.735,14.035l-12.353,9.635
	C399.791,400.438,397.624,401.129,395.474,401.129z"/>
<path d="M249.922,404.688c-2.976,0-5.92-1.321-7.892-3.85c-3.396-4.355-2.62-10.639,1.735-14.035l12.353-9.635
	c4.354-3.398,10.638-2.621,14.035,1.734c3.396,4.355,2.62,10.639-1.735,14.035l-12.353,9.635
	C254.239,403.997,252.072,404.688,249.922,404.688z"/>
<path d="M279.025,211.454c-2.976,0-5.92-1.321-7.892-3.85c-3.396-4.355-2.62-10.639,1.735-14.036l12.74-9.937
	c4.354-3.396,10.638-2.621,14.035,1.735c3.396,4.355,2.62,10.639-1.735,14.036l-12.74,9.937
	C283.341,210.764,281.175,211.454,279.025,211.454z"/>
<path d="M394.85,186.768c-2.976,0-5.92-1.321-7.892-3.85c-3.396-4.355-2.62-10.639,1.735-14.035l12.74-9.937
	c4.354-3.397,10.638-2.621,14.035,1.734c3.396,4.355,2.62,10.639-1.735,14.035l-12.74,9.937
	C399.167,186.078,397,186.768,394.85,186.768z"/>
<path d="M195.825,151.437c-2.976,0-5.92-1.321-7.892-3.85c-3.396-4.355-2.62-10.639,1.735-14.035l12.74-9.937
	c4.354-3.398,10.638-2.621,14.035,1.734c3.396,4.355,2.62,10.639-1.735,14.035l-12.74,9.937
	C200.142,150.747,197.975,151.437,195.825,151.437z"/>
<path d="M378.96,97.297c-0.65,0-1.31-0.07-1.96-0.19c-0.63-0.13-1.26-0.319-1.87-0.569c-0.6-0.25-1.18-0.561-1.72-0.92
	c-0.55-0.37-1.06-0.79-1.52-1.25s-0.88-0.971-1.25-1.521c-0.36-0.54-0.67-1.12-0.92-1.72c-0.25-0.61-0.44-1.24-0.57-1.87
	c-0.13-0.65-0.19-1.31-0.19-1.96s0.06-1.31,0.19-1.95s0.32-1.27,0.57-1.87c0.25-0.609,0.56-1.189,0.92-1.729
	c0.37-0.55,0.79-1.061,1.25-1.521s0.97-0.88,1.52-1.239c0.54-0.36,1.12-0.671,1.72-0.921c0.61-0.25,1.24-0.439,1.87-0.569
	c1.29-0.26,2.62-0.26,3.91,0c0.64,0.13,1.27,0.319,1.87,0.569c0.61,0.25,1.19,0.561,1.73,0.921c0.55,0.359,1.06,0.779,1.52,1.239
	c1.86,1.86,2.93,4.44,2.93,7.07c0,0.65-0.07,1.31-0.2,1.96c-0.13,0.63-0.32,1.26-0.57,1.87c-0.25,0.6-0.56,1.18-0.92,1.72
	c-0.36,0.55-0.78,1.061-1.24,1.521s-0.97,0.88-1.52,1.25c-0.54,0.359-1.12,0.67-1.73,0.92c-0.6,0.25-1.23,0.439-1.87,0.569
	C380.27,97.226,379.61,97.297,378.96,97.297z"/>
<path style="fill:#EBBF72;" d="M471.347,265.594c0-10.736-8.703-19.439-19.439-19.439h-95.272h-93.815H55.009
	c-10.736,0-19.439,8.703-19.439,19.439l0,0c0,10.736,8.703,19.439,19.439,19.439h246.369c7.216,0,14.132,2.887,19.205,8.018
	l23.77,24.038c4.51,4.561,12.282,1.367,12.282-5.047v-13.92c0-7.229,5.861-13.09,13.09-13.09h82.182
	C462.644,285.034,471.347,276.331,471.347,265.594L471.347,265.594z"/>
<path d="M156.04,358.997c-0.65,0-1.31-0.07-1.95-0.2c-0.64-0.12-1.27-0.32-1.87-0.57c-0.61-0.239-1.19-0.55-1.73-0.91
	c-0.55-0.369-1.06-0.79-1.52-1.25c-0.46-0.46-0.88-0.97-1.24-1.52c-0.36-0.54-0.67-1.12-0.92-1.72c-0.25-0.61-0.44-1.24-0.57-1.88
	c-0.13-0.641-0.2-1.301-0.2-1.95c0-0.65,0.07-1.311,0.2-1.95c0.13-0.639,0.32-1.271,0.57-1.87c0.25-0.61,0.56-1.189,0.92-1.729
	c0.36-0.551,0.78-1.061,1.24-1.521c0.46-0.46,0.97-0.88,1.52-1.24c0.54-0.359,1.12-0.67,1.73-0.92c0.6-0.25,1.23-0.439,1.87-0.569
	c1.29-0.261,2.62-0.261,3.91,0c0.63,0.13,1.26,0.319,1.87,0.569c0.6,0.25,1.18,0.561,1.72,0.92c0.55,0.36,1.06,0.78,1.52,1.24
	c0.46,0.46,0.88,0.97,1.25,1.521c0.36,0.54,0.66,1.119,0.91,1.729c0.25,0.6,0.45,1.23,0.58,1.87c0.13,0.64,0.19,1.3,0.19,1.95
	c0,0.649-0.06,1.31-0.19,1.95s-0.33,1.27-0.58,1.88c-0.25,0.6-0.55,1.18-0.91,1.72c-0.37,0.55-0.79,1.06-1.25,1.52
	c-0.46,0.46-0.97,0.881-1.52,1.25c-0.54,0.36-1.12,0.671-1.72,0.91c-0.61,0.25-1.24,0.45-1.87,0.57
	C157.35,358.927,156.69,358.997,156.04,358.997z"/>
<path d="M502,418.709h-23.518c6.04-8.167,9.619-18.26,9.619-29.175v-31.369c0-10.496-8.483-19.039-18.953-19.156v-36.391
	c0-4.117-0.913-8.023-2.538-11.536c8.799-5.096,14.736-14.608,14.736-25.488c0-3.388-0.582-6.641-1.64-9.672
	c5.746-1.298,11.054-4.286,15.132-8.638c5.582-5.956,8.479-14.045,7.949-22.191l-0.249-3.821
	c-3.324-51.06-31.335-97.598-74.93-124.488c-4.7-2.899-10.861-1.44-13.761,3.261c-2.899,4.7-1.439,10.861,3.261,13.761
	c38.092,23.497,62.567,64.157,65.472,108.767l0.249,3.821c0.175,2.688-0.743,5.251-2.585,7.217s-4.34,3.048-7.033,3.048H457.29
	c-1.746-0.324-3.544-0.502-5.383-0.502H55.009c-1.429,0-2.833,0.108-4.208,0.306c-1.934-0.394-3.693-1.372-5.08-2.852
	c-1.842-1.966-2.76-4.528-2.584-7.216l0.249-3.823c4.72-72.496,65.325-129.284,137.975-129.284H334c5.523,0,10-4.478,10-10
	s-4.477-10-10-10H181.36c-40.344,0-78.775,15.192-108.215,42.777c-29.44,27.586-47.096,64.949-49.717,105.207l-0.249,3.823
	c-0.53,8.146,2.367,16.233,7.948,22.19c0.155,0.166,0.318,0.321,0.477,0.483c-3.781,4.952-6.033,11.13-6.033,17.828
	c0,12.548,7.893,23.281,18.973,27.51c-1.094,2.967-1.692,6.172-1.692,9.514v36.391c-10.469,0.117-18.953,8.66-18.953,19.156v31.369
	c0,10.915,3.579,21.007,9.619,29.175H10c-5.523,0-10,4.478-10,10c0,5.522,4.477,10,10,10h63.073h365.854H502c5.523,0,10-4.478,10-10
	C512,423.19,507.523,418.709,502,418.709z M52.046,256.638c0.933-0.31,1.927-0.483,2.963-0.483h396.898
	c1.055,0,2.066,0.182,3.014,0.502c3.73,1.261,6.426,4.787,6.426,8.938c0,5.205-4.234,9.439-9.439,9.439h-10.345h-71.837
	c-11.684,0-21.362,8.725-22.877,20c-0.136,1.012-0.213,2.042-0.213,3.09v7.052l-10.028-10.142l-8.913-9.014
	c-6.904-6.981-16.496-10.986-26.316-10.986H70.437H55.009c-5.205,0-9.439-4.234-9.439-9.439
	C45.57,261.424,48.29,257.884,52.046,256.638z M73.073,418.709c-16.087,0-29.175-13.088-29.175-29.175v-30.536h8.953H83.19h32.19
	c5.523,0,10-4.478,10-10c0-5.522-4.477-10-10-10H83.19H62.851v-36.38c0-4.183,3.403-7.585,7.586-7.585h230.942
	c4.514,0,8.922,1.84,12.094,5.049l23.771,24.039c3.301,3.338,7.7,5.109,12.193,5.109c2.2,0,4.424-0.426,6.55-1.299
	c6.469-2.658,10.649-8.896,10.649-15.89v-13.919c0-1.704,1.386-3.09,3.09-3.09h71.837c4.183,0,7.586,3.402,7.586,7.585v36.38
	h-13.262H196.703c-5.523,0-10,4.478-10,10c0,5.522,4.477,10,10,10h239.185h23.262h8.953v30.536
	c0,16.087-13.088,29.175-29.175,29.175L73.073,418.709L73.073,418.709z"/>
<g>
</g>
<g>
</g>
<g>
</g>
<g>
</g>
<g>
</g>
<g>
</g>
<g>
</g>
<g>
</g>
<g>
</g>
<g>
</g>
<g>
</g>
<g>
</g>
<g>
</g>
<g>
</g>
<g>
</g>
</svg>
