<?xml version="1.0" encoding="iso-8859-1"?>
<!-- Generator: Adobe Illustrator 19.0.0, SVG Export Plug-In . SVG Version: 6.00 Build 0)  -->
<svg version="1.1" id="Capa_1" xmlns="http://www.w3.org/2000/svg" xmlns:xlink="http://www.w3.org/1999/xlink" x="0px" y="0px"
	 viewBox="0 0 512 512" style="enable-background:new 0 0 512 512;" xml:space="preserve">
<g>
	<polygon style="fill:#66B6E0;" points="408.913,297.956 483.185,245.823 408.913,164.555 	"/>
	<path style="fill:#66B6E0;" d="M275.534,18.61c-10.492-11.48-28.574-11.48-39.065,0l-82.585,90.365h204.235L275.534,18.61z"/>
	<polygon style="fill:#66B6E0;" points="103.089,164.555 28.817,245.823 103.089,297.956 	"/>
</g>
<path style="fill:#F4DAAB;" d="M256.001,405.288l152.912-107.333v-133.4v-29.408c0-14.455-11.718-26.172-26.172-26.172h-24.622
	H153.883h-24.622c-14.454,0-26.172,11.717-26.172,26.172v29.408v133.401L256.001,405.288z M242.326,181.114l13.676,5.604
	l13.676-5.604c26.654-10.921,52.741,16.77,40.25,42.726l-53.926,61.248l-53.926-61.249
	C189.584,197.884,215.671,170.193,242.326,181.114z"/>
<path style="fill:#C7E1F0;" d="M256.001,405.288L103.089,297.956l-74.271-52.133v229.762c0,14.589,11.826,26.415,26.415,26.415
	h401.538c14.588,0,26.415-11.826,26.415-26.415V245.823l-74.271,52.133L256.001,405.288z M170.979,449.879
	c0,5.122-4.153,9.275-9.275,9.275H88.195c-5.122,0-9.275-4.153-9.275-9.275v-34.23c0-5.122,4.153-9.275,9.275-9.275h73.508
	c5.122,0,9.275,4.153,9.275,9.275L170.979,449.879L170.979,449.879z"/>
<path style="fill:#CD5C63;" d="M256.001,285.088l53.926-61.249c12.491-25.956-13.596-53.647-40.25-42.726l-13.676,5.605
	l-13.676-5.604c-26.654-10.921-52.741,16.77-40.25,42.726L256.001,285.088z"/>
<path style="fill:#F4DAAB;" d="M161.703,406.374H88.195c-5.122,0-9.275,4.153-9.275,9.275v34.23c0,5.122,4.153,9.275,9.275,9.275
	h73.508c5.122,0,9.275-4.153,9.275-9.275v-34.23C170.979,410.526,166.826,406.374,161.703,406.374z"/>
<path d="M493.099,244.582c-0.016-0.13-0.04-0.257-0.061-0.386c-0.048-0.289-0.107-0.574-0.18-0.856
	c-0.034-0.132-0.067-0.263-0.106-0.394c-0.095-0.314-0.206-0.623-0.331-0.926c-0.031-0.077-0.056-0.156-0.09-0.232
	c-0.165-0.373-0.353-0.733-0.562-1.083c-0.057-0.095-0.122-0.185-0.182-0.278c-0.162-0.253-0.334-0.5-0.519-0.737
	c-0.088-0.113-0.18-0.223-0.273-0.333c-0.079-0.092-0.148-0.19-0.23-0.28l-71.653-78.404v-25.526
	c0-19.946-16.227-36.173-36.172-36.173h-20.215l-79.61-87.11C276.025,4.324,266.215,0,256.001,0s-20.024,4.324-26.915,11.864
	l-79.61,87.11h-20.215c-19.945,0-36.172,16.227-36.172,36.173v25.526l-71.653,78.404c-0.082,0.09-0.151,0.188-0.23,0.28
	c-0.093,0.11-0.185,0.219-0.273,0.333c-0.185,0.238-0.356,0.484-0.519,0.737c-0.06,0.093-0.125,0.183-0.182,0.278
	c-0.208,0.35-0.397,0.71-0.562,1.083c-0.033,0.076-0.058,0.156-0.09,0.232c-0.125,0.303-0.236,0.611-0.331,0.926
	c-0.039,0.13-0.072,0.262-0.106,0.394c-0.072,0.282-0.132,0.567-0.18,0.856c-0.021,0.129-0.045,0.256-0.061,0.386
	c-0.049,0.392-0.08,0.788-0.082,1.189c0,0.018-0.004,0.035-0.004,0.052v0.019v0.002v229.741c0,20.079,16.336,36.415,36.415,36.415
	h401.537c20.079,0,36.415-16.336,36.415-36.415V245.844v-0.002v-0.019c0-0.018-0.003-0.035-0.004-0.052
	C493.18,245.37,493.148,244.974,493.099,244.582z M418.913,190.319l49.217,53.854l-49.217,34.546V190.319z M243.85,25.356
	c3.156-3.454,7.472-5.356,12.151-5.356c4.679,0,8.995,1.902,12.151,5.356l67.28,73.618H176.57L243.85,25.356z M113.089,168.436
	V138.79v-3.642c0-8.918,7.255-16.173,16.172-16.173h1.937h27.094h195.419h27.094h1.937c8.917,0,16.172,7.255,16.172,16.173v3.642
	v29.646v124.322L256.001,393.07L113.089,292.757V168.436z M93.089,190.319v88.4l-49.217-34.546L93.089,190.319z M473.185,475.585
	c0,9.052-7.363,16.415-16.415,16.415H55.232c-9.052,0-16.415-7.363-16.415-16.415V265.06l54.271,38.094l20,14.039l137.167,96.28
	c1.724,1.21,3.734,1.815,5.745,1.815c2.011,0,4.021-0.605,5.745-1.815l137.167-96.28l20-14.039l54.271-38.094v210.525H473.185z"/>
<path d="M398.913,448.844h-65.705c-3.195,0-6.033,1.504-7.864,3.836c-1.334,1.699-2.136,3.836-2.136,6.164c0,5.522,4.478,10,10,10
	h79.066h16.898c5.522,0,10-4.478,10-10s-4.478-10-10-10h-10.259H398.913z"/>
<path d="M290.102,455.02c-0.25-0.6-0.56-1.189-0.92-1.729c-0.142-0.211-0.298-0.411-0.455-0.61c-0.25-0.319-0.512-0.627-0.795-0.91
	c-2.32-2.319-5.76-3.39-9.02-2.729c-0.641,0.13-1.271,0.319-1.87,0.569c-0.61,0.25-1.19,0.561-1.73,0.92
	c-0.55,0.36-1.06,0.78-1.52,1.24c-0.283,0.283-0.544,0.591-0.792,0.91c-0.155,0.199-0.31,0.399-0.448,0.61
	c-0.36,0.54-0.67,1.13-0.92,1.729c-0.25,0.601-0.44,1.23-0.57,1.87s-0.2,1.3-0.2,1.95s0.07,1.31,0.2,1.96
	c0.13,0.64,0.32,1.26,0.57,1.87c0.25,0.6,0.56,1.18,0.92,1.72c0.36,0.55,0.78,1.061,1.24,1.521c0.46,0.47,0.97,0.88,1.52,1.25
	c0.54,0.359,1.12,0.67,1.73,0.92c0.6,0.25,1.229,0.439,1.87,0.569c0.64,0.13,1.3,0.19,1.949,0.19c0.65,0,1.311-0.061,1.96-0.19
	c0.631-0.13,1.261-0.319,1.87-0.569c0.601-0.25,1.181-0.561,1.721-0.92c0.55-0.37,1.06-0.78,1.52-1.25
	c0.46-0.46,0.88-0.971,1.25-1.521c0.36-0.54,0.67-1.12,0.92-1.72c0.25-0.61,0.44-1.23,0.57-1.87c0.13-0.65,0.189-1.31,0.189-1.96
	s-0.06-1.311-0.189-1.95S290.352,455.62,290.102,455.02z"/>
<path d="M289.992,323.48c0-5.522-4.478-10-10-10H232.01c-5.522,0-10,4.478-10,10s4.478,10,10,10h47.982
	C285.516,333.48,289.992,329.003,289.992,323.48z"/>
<path d="M256.001,295.088c2.873,0,5.607-1.235,7.506-3.392l53.926-61.248c0.603-0.686,1.109-1.449,1.505-2.272
	c7.501-15.587,4.684-33.794-7.178-46.385c-11.861-12.592-29.867-16.489-45.874-9.93l-9.885,4.05l-9.884-4.05
	c-16.009-6.56-34.015-2.661-45.875,9.93c-11.861,12.591-14.679,30.798-7.178,46.385c0.396,0.823,0.902,1.587,1.505,2.272
	l53.926,61.248C250.395,293.853,253.128,295.088,256.001,295.088z M214.8,195.505c4.883-5.184,13.683-9.254,23.734-5.138
	l13.676,5.604c2.43,0.996,5.152,0.996,7.582,0l13.677-5.604c10.049-4.116,18.851-0.047,23.733,5.138
	c4.692,4.98,8.145,13.508,4.23,22.85l-45.431,51.6l-45.432-51.601C206.656,209.013,210.107,200.485,214.8,195.505z"/>
<path d="M161.703,396.374h-48.614h-20h-4.894c-10.629,0-19.275,8.646-19.275,19.274v34.23c0,10.628,8.646,19.274,19.275,19.274
	h11.947h61.561c9.674,0,17.684-7.172,19.047-16.474c0.134-0.917,0.227-1.847,0.227-2.801v-34.23
	C180.979,405.021,172.331,396.374,161.703,396.374z M160.979,449.153H113.09h-20h-4.169v-32.779h4.169h20h47.889V449.153z"/>
<g>
</g>
<g>
</g>
<g>
</g>
<g>
</g>
<g>
</g>
<g>
</g>
<g>
</g>
<g>
</g>
<g>
</g>
<g>
</g>
<g>
</g>
<g>
</g>
<g>
</g>
<g>
</g>
<g>
</g>
</svg>
