<?xml version="1.0" encoding="iso-8859-1"?>
<!-- Generator: Adobe Illustrator 19.0.0, SVG Export Plug-In . SVG Version: 6.00 Build 0)  -->
<svg version="1.1" id="Capa_1" xmlns="http://www.w3.org/2000/svg" xmlns:xlink="http://www.w3.org/1999/xlink" x="0px" y="0px"
	 viewBox="0 0 511.998 511.998" style="enable-background:new 0 0 511.998 511.998;" xml:space="preserve">
<path style="fill:#9A84B8;" d="M261.605,194.392L301.643,81.69h-91.289l40.039,112.703
	C252.268,199.669,259.73,199.669,261.605,194.392z"/>
<path style="fill:#EBBF72;" d="M210.355,397.271c0,5.426,6.086,8.627,10.557,5.553l31.332-21.546c2.262-1.556,5.249-1.556,7.511,0
	l31.332,21.546c4.471,3.075,10.557-0.126,10.557-5.553v-99.645c0-8.85-7.174-16.024-16.025-16.024h-59.24
	c-8.85,0-16.025,7.174-16.025,16.024L210.355,397.271L210.355,397.271z"/>
<path style="fill:#CD5C63;" d="M75.95,366.845c0.611,5.566,7.874,7.281,10.911,2.577l64.875-100.48l-88.844-20.986L75.95,366.845z"
	/>
<path style="fill:#EBBF72;" d="M396.985,191.999l25.375-28.32c1.832-2.044,4.735-2.748,7.3-1.769l35.525,13.56
	c5.07,1.935,10.23-2.609,8.952-7.883l-23.47-96.841c-2.085-8.601-10.747-13.884-19.348-11.799L373.745,72.9
	c-8.601,2.085-13.884,10.747-11.799,19.349l23.47,96.841C386.695,194.363,393.364,196.04,396.985,191.999z"/>
<path style="fill:#CD5C63;" d="M425.137,369.423c3.037,4.704,10.3,2.989,10.911-2.577l13.058-118.889l-88.844,20.986
	L425.137,369.423z"/>
<path style="fill:#EBBF72;" d="M138.253,72.9L80.68,58.947c-8.601-2.084-17.264,3.198-19.348,11.799l-23.47,96.841
	c-1.278,5.273,3.883,9.818,8.952,7.883l35.525-13.56c2.565-0.979,5.468-0.275,7.3,1.769l25.375,28.32
	c3.621,4.041,10.29,2.364,11.568-2.91l23.47-96.841C152.136,83.647,146.854,74.985,138.253,72.9z"/>
<path style="fill:#C7E1F0;" d="M100.307,446.03c-0.511,0.993,0.339,2.141,1.438,1.942l27.382-4.949
	c0.436-0.079,0.884,0.062,1.196,0.377l19.6,19.751c0.787,0.792,2.14,0.339,2.291-0.767l3.755-27.571
	c0.06-0.439,0.332-0.821,0.728-1.021l24.841-12.538c0.997-0.503,0.984-1.931-0.022-2.416l-25.062-12.091
	c-0.399-0.193-0.678-0.57-0.746-1.008l-4.248-27.5c-0.17-1.104-1.532-1.532-2.304-0.726l-19.244,20.099
	c-0.307,0.32-0.751,0.469-1.189,0.398l-27.466-4.458c-1.102-0.179-1.931,0.983-1.403,1.967l13.168,24.513
	c0.21,0.391,0.214,0.859,0.011,1.254L100.307,446.03z"/>
<path style="fill:#9A84B8;" d="M355.833,405.739c-0.068,0.438-0.347,0.815-0.746,1.008l-25.062,12.091
	c-1.006,0.485-1.018,1.913-0.022,2.416l24.841,12.538c0.396,0.2,0.668,0.582,0.728,1.021l3.755,27.571
	c0.151,1.106,1.505,1.56,2.291,0.767l19.601-19.751c0.312-0.315,0.759-0.456,1.196-0.377l27.382,4.949
	c1.099,0.199,1.948-0.949,1.438-1.942l-12.728-24.744c-0.203-0.395-0.199-0.863,0.011-1.254l13.168-24.513
	c0.528-0.984-0.301-2.146-1.403-1.967l-27.467,4.458c-0.438,0.071-0.882-0.078-1.189-0.398l-19.244-20.099
	c-0.772-0.806-2.134-0.377-2.304,0.726L355.833,405.739z"/>
<path d="M511.228,44.618c-0.25-0.601-0.56-1.181-0.92-1.721c-0.359-0.55-0.779-1.06-1.24-1.52c-0.46-0.47-0.97-0.88-1.52-1.25
	c-0.54-0.36-1.12-0.67-1.73-0.92c-0.6-0.25-1.229-0.44-1.869-0.57c-1.29-0.26-2.61-0.26-3.9,0c-0.64,0.13-1.27,0.32-1.87,0.57
	c-0.61,0.25-1.189,0.56-1.729,0.92c-0.551,0.37-1.061,0.78-1.521,1.25c-0.46,0.46-0.88,0.97-1.24,1.52
	c-0.359,0.54-0.67,1.12-0.92,1.721c-0.25,0.609-0.45,1.239-0.569,1.87c-0.131,0.649-0.2,1.31-0.2,1.96c0,0.649,0.069,1.31,0.2,1.949
	c0.119,0.641,0.319,1.271,0.569,1.87c0.25,0.61,0.561,1.19,0.92,1.73c0.36,0.55,0.78,1.06,1.24,1.52s0.97,0.88,1.521,1.24
	c0.54,0.36,1.119,0.67,1.729,0.92c0.601,0.25,1.23,0.44,1.87,0.57s1.3,0.2,1.95,0.2c0.649,0,1.31-0.07,1.95-0.2
	s1.27-0.32,1.869-0.57c0.61-0.25,1.19-0.56,1.73-0.92c0.55-0.36,1.06-0.78,1.52-1.24c0.461-0.46,0.881-0.97,1.24-1.52
	c0.36-0.54,0.67-1.12,0.92-1.73c0.25-0.6,0.44-1.229,0.57-1.87c0.13-0.64,0.2-1.3,0.2-1.949c0-0.66-0.07-1.311-0.2-1.96
	C511.669,45.857,511.478,45.227,511.228,44.618z"/>
<path d="M15.549,252.618c0.55-0.37,1.06-0.78,1.52-1.25c0.461-0.46,0.881-0.971,1.24-1.511c0.36-0.55,0.67-1.13,0.92-1.729
	c0.25-0.61,0.45-1.23,0.57-1.87c0.13-0.65,0.2-1.31,0.2-1.96s-0.07-1.31-0.2-1.95c-0.12-0.64-0.32-1.27-0.57-1.87
	c-0.25-0.6-0.56-1.18-0.92-1.729c-0.359-0.54-0.779-1.061-1.24-1.521c-0.46-0.46-0.97-0.88-1.52-1.239
	c-0.54-0.36-1.12-0.671-1.73-0.921c-0.6-0.25-1.229-0.439-1.869-0.569c-1.29-0.26-2.62-0.26-3.9,0c-0.64,0.13-1.27,0.319-1.88,0.569
	c-0.601,0.25-1.18,0.561-1.72,0.921c-0.551,0.359-1.061,0.779-1.521,1.239s-0.88,0.98-1.24,1.521c-0.359,0.55-0.67,1.13-0.92,1.729
	c-0.25,0.601-0.45,1.23-0.569,1.87c-0.131,0.641-0.2,1.3-0.2,1.95s0.069,1.31,0.2,1.96c0.119,0.64,0.319,1.26,0.569,1.87
	c0.25,0.6,0.561,1.18,0.92,1.729c0.36,0.54,0.78,1.051,1.24,1.511c0.46,0.47,0.97,0.88,1.521,1.25c0.54,0.359,1.119,0.67,1.72,0.92
	c0.61,0.25,1.24,0.439,1.88,0.569c0.64,0.131,1.3,0.19,1.95,0.19c0.649,0,1.31-0.06,1.95-0.19c0.64-0.13,1.27-0.319,1.869-0.569
	C14.429,253.288,15.009,252.977,15.549,252.618z"/>
<path d="M433.802,381.717c6.657-1.572,11.44-6.981,12.188-13.78l10.439-95.051c2.232-0.693,4.46-1.396,6.684-2.113l10.763-3.469
	c5.257-1.694,8.145-7.328,6.45-12.585c-1.693-5.256-7.325-8.147-12.585-6.45l-8.924,2.876l0.23-2.097
	c0.354-3.229-0.882-6.431-3.315-8.583c-2.434-2.151-5.759-2.986-8.924-2.241l-88.844,20.986c-3.162,0.747-5.764,2.983-6.978,5.998
	c-1.214,3.014-0.887,6.429,0.875,9.158l1.031,1.597c-15.631,2.309-31.347,4.055-47.105,5.238
	c-4.776-5.854-12.042-9.599-20.168-9.599h-59.24c-8.126,0-15.391,3.746-20.167,9.599c-15.759-1.183-31.474-2.929-47.105-5.237
	l1.031-1.597c1.762-2.729,2.089-6.145,0.875-9.158c-1.214-3.015-3.815-5.251-6.978-5.998l-88.844-20.986
	c-3.161-0.746-6.49,0.089-8.924,2.241s-3.67,5.354-3.315,8.583l0.23,2.097l-8.924-2.876c-5.258-1.697-10.892,1.192-12.585,6.45
	c-1.694,5.257,1.193,10.891,6.45,12.585l10.762,3.469c2.224,0.717,4.453,1.42,6.685,2.113l10.439,95.051
	c0.747,6.799,5.53,12.208,12.188,13.78c1.26,0.298,2.521,0.442,3.764,0.442c5.321,0,10.294-2.654,13.302-7.313l51.988-80.521
	c17.548,2.814,35.26,4.941,53.104,6.376v96.569c0,6.235,3.429,11.913,8.947,14.815c2.456,1.292,5.131,1.931,7.796,1.931
	c3.322,0,6.63-0.993,9.48-2.954l28.224-19.408c0.393,0.047,0.791,0.078,1.197,0.078c0.406,0,0.804-0.031,1.197-0.078l28.224,19.408
	c5.136,3.532,11.756,3.927,17.276,1.023c5.519-2.902,8.947-8.58,8.947-14.815v-96.569c17.845-1.435,35.556-3.562,53.104-6.376
	l51.988,80.521c3.008,4.659,7.979,7.313,13.302,7.313C431.28,382.16,432.542,382.015,433.802,381.717z M125.884,290.547
	l-41.239,63.872l-8.288-75.456l-1.979-18.018l61.273,14.474L125.884,290.547z M291.644,302.017v89.054l-25.645-17.635v-19.703
	c0-5.522-4.478-10-10-10s-10,4.478-10,10v19.703l-25.645,17.635v-89.054v-4.391c0-3.322,2.702-6.024,6.024-6.024h59.24
	c3.322,0,6.024,2.702,6.024,6.024v4.391H291.644z M386.114,290.547l-9.768-15.128l61.273-14.474l-1.979,18.018l-8.288,75.456
	L386.114,290.547z"/>
<path d="M33.348,181.737c4.68,4.12,11.203,5.299,17.032,3.076l33.359-12.733l23.826,26.592c3.224,3.599,7.756,5.573,12.446,5.573
	c1.364,0,2.742-0.167,4.104-0.51c6.047-1.521,10.716-6.23,12.184-12.29l22.379-92.335c16.241,2.32,32.616,4.054,49.1,5.2
	l33.192,93.43c2.289,6.445,8.188,10.609,15.028,10.609c6.841,0,12.739-4.165,15.028-10.609l33.192-93.43
	c16.484-1.146,32.859-2.88,49.1-5.2l22.379,92.334c1.468,6.061,6.137,10.77,12.184,12.291c1.363,0.343,2.739,0.51,4.104,0.51
	c4.689,0,9.223-1.976,12.446-5.573h-0.001l23.827-26.592l33.36,12.733c5.825,2.222,12.352,1.043,17.031-3.076
	c4.679-4.121,6.674-10.445,5.205-16.506l-22.054-90.993c0.437-0.14,0.875-0.274,1.311-0.415l10.763-3.469
	c5.257-1.694,8.145-7.328,6.45-12.585c-1.693-5.256-7.325-8.146-12.585-6.45l-10.764,3.469c-1.216,0.392-2.435,0.773-3.653,1.157
	c-1.402-1.371-2.965-2.597-4.681-3.644c-5.934-3.62-12.923-4.712-19.68-3.073l-57.571,13.953c-8.538,2.07-15.063,8.159-18.07,15.768
	c-13.911,2.063-27.889,3.681-41.905,4.854c0.588-2.717,0.025-5.579-1.601-7.881c-1.873-2.654-4.92-4.232-8.169-4.232h-91.289
	c-3.249,0-6.296,1.578-8.169,4.232c-1.625,2.302-2.189,5.165-1.601,7.881c-14.016-1.172-27.994-2.79-41.905-4.854
	c-3.007-7.609-9.533-13.698-18.071-15.768L83.035,49.228c-6.758-1.64-13.746-0.545-19.68,3.073
	c-1.716,1.046-3.279,2.273-4.681,3.644c-1.219-0.385-2.438-0.766-3.654-1.158l-10.763-3.469c-5.258-1.698-10.892,1.192-12.585,6.45
	c-1.694,5.257,1.193,10.891,6.45,12.585l10.762,3.469c0.436,0.141,0.875,0.276,1.311,0.416l-22.053,90.993
	C26.674,171.292,28.669,177.616,33.348,181.737z M376.101,82.619l57.573-13.953c0.475-0.115,0.954-0.172,1.431-0.172
	c1.093,0,2.168,0.3,3.125,0.883c1.374,0.838,2.339,2.16,2.718,3.725l1.684,6.95l20.326,83.866l-28.216-10.77l-5.096-21.025
	c-1.301-5.366-6.707-8.665-12.074-7.363c-5.367,1.301-8.664,6.707-7.363,12.074l4.852,20.02c-0.048,0.053-0.101,0.101-0.149,0.154
	l-21.237,23.7L373.14,95.979l-1.475-6.085C370.882,86.665,372.872,83.401,376.101,82.619z M287.478,91.689l-4.899,13.789
	l-26.58,74.821l-26.581-74.82l-4.899-13.789L287.478,91.689L287.478,91.689z M69.366,80.052l1.685-6.951
	c0.379-1.563,1.344-2.886,2.718-3.724s2.992-1.092,4.556-0.711l57.573,13.953c3.229,0.782,5.219,4.046,4.436,7.274l-1.475,6.085
	l-20.535,84.729l-20.631-23.024l5.053-20.85c1.301-5.367-1.996-10.773-7.363-12.074c-5.375-1.298-10.772,1.996-12.074,7.363
	l-4.998,20.623l-29.269,11.172L69.366,80.052z"/>
<path d="M92.384,453.397c2.589,3.498,6.861,5.19,11.139,4.416l22.906-4.141l16.396,16.523c2.176,2.191,5.059,3.361,8.023,3.361
	c1.212,0,2.438-0.195,3.636-0.597c4.125-1.382,7.053-4.919,7.638-9.228l3.142-23.063l20.781-10.489
	c3.883-1.96,6.271-5.88,6.232-10.229s-2.495-8.227-6.416-10.12l-20.965-10.114l-3.554-23.008c-0.665-4.299-3.656-7.78-7.805-9.087
	c-4.152-1.305-8.597-0.165-11.604,2.976l-16.098,16.813l-22.978-3.73c-4.299-0.696-8.531,1.071-11.057,4.614
	s-2.815,8.125-0.757,11.957l11.017,20.505l-10.647,20.7C89.424,445.325,89.796,449.9,92.384,453.397z M127.137,407.884
	c3.684,0.589,7.421-0.664,9.999-3.355l7.118-7.435l1.573,10.186c0.575,3.689,2.926,6.857,6.282,8.475l9.271,4.473l-9.183,4.635
	c-3.341,1.683-5.636,4.9-6.137,8.602l-1.39,10.199l-7.256-7.312c-2.149-2.163-5.054-3.349-8.047-3.349
	c-0.671,0-1.348,0.06-2.02,0.181l-10.13,1.831l4.706-9.15c1.711-3.323,1.677-7.273-0.092-10.563l-4.872-9.067L127.137,407.884z"/>
<path d="M419.74,388.296c-2.525-3.543-6.765-5.304-11.059-4.615l-22.976,3.73l-16.098-16.813c-3.009-3.142-7.451-4.28-11.604-2.976
	c-4.148,1.307-7.14,4.788-7.806,9.091l-3.553,23.004l-20.97,10.116c-3.916,1.892-6.373,5.769-6.411,10.118s2.35,8.27,6.233,10.23
	l20.78,10.488l3.141,23.061c0.586,4.311,3.512,7.847,7.636,9.229c1.197,0.402,2.424,0.598,3.637,0.598
	c2.964,0,5.847-1.169,8.026-3.362l16.396-16.522l22.909,4.141c4.277,0.772,8.547-0.918,11.136-4.416
	c2.588-3.497,2.96-8.072,0.97-11.941l-10.647-20.699l11.017-20.505C422.556,396.42,422.266,391.839,419.74,388.296z
	 M389.615,425.859l4.708,9.153l-10.13-1.831c-3.677-0.661-7.446,0.522-10.072,3.173l-7.25,7.307l-1.389-10.193
	c-0.502-3.707-2.797-6.925-6.131-8.604l-9.189-4.638l9.266-4.47c3.361-1.62,5.712-4.788,6.289-8.491l1.571-10.172l7.117,7.434
	c2.579,2.694,6.318,3.943,10.016,3.354l10.16-1.649l-4.871,9.065C387.94,418.59,387.906,422.54,389.615,425.859z"/>
<g>
</g>
<g>
</g>
<g>
</g>
<g>
</g>
<g>
</g>
<g>
</g>
<g>
</g>
<g>
</g>
<g>
</g>
<g>
</g>
<g>
</g>
<g>
</g>
<g>
</g>
<g>
</g>
<g>
</g>
</svg>
