<?xml version="1.0" encoding="iso-8859-1"?>
<!-- Generator: Adobe Illustrator 19.0.0, SVG Export Plug-In . SVG Version: 6.00 Build 0)  -->
<svg version="1.1" id="Capa_1" xmlns="http://www.w3.org/2000/svg" xmlns:xlink="http://www.w3.org/1999/xlink" x="0px" y="0px"
	 viewBox="0 0 512.003 512.003" style="enable-background:new 0 0 512.003 512.003;" xml:space="preserve">
<path style="fill:#EBBF72;" d="M481.451,318.482L481.451,318.482c8.187-2.734,12.607-11.587,9.873-19.773l-32.53-97.41l-29.646,9.9
	l32.53,97.41C464.411,316.796,473.264,321.216,481.451,318.482z"/>
<path style="fill:#CD5C63;" d="M371.773,169.337c0-6.792-5.506-12.297-12.297-12.297H87.05c-6.792,0-12.297,5.505-12.297,12.297
	v28.378c0,82.02,66.49,148.51,148.51,148.51l0,0c82.02,0,148.51-66.49,148.51-148.51V169.337z"/>
<circle style="fill:#C7E1F0;" cx="316.03" cy="465.89" r="35.737"/>
<path d="M404.029,86.648c-4.538,1.517-9.392,1.174-13.671-0.963s-7.471-5.813-8.986-10.35L364.4,24.514
	c-1.75-5.238-7.414-8.066-12.652-6.317c-5.238,1.75-8.067,7.414-6.317,12.653l16.972,50.821c3.208,9.604,9.963,17.385,19.021,21.908
	c5.339,2.665,11.1,4.012,16.897,4.012c0.712,0,1.424-0.028,2.137-0.068l30.86,92.41l-5.338,1.783
	c-2.516,0.841-4.595,2.646-5.779,5.019c-1.185,2.372-1.378,5.119-0.538,7.635l32.53,97.409c2.168,6.492,6.735,11.753,12.859,14.811
	c3.609,1.803,7.504,2.713,11.424,2.713c2.731,0,5.475-0.442,8.142-1.333c6.493-2.168,11.753-6.735,14.812-12.86
	c3.058-6.124,3.548-13.073,1.379-19.566l-32.53-97.409c-1.75-5.238-7.416-8.066-12.652-6.317l-5.339,1.783l-30.862-92.414
	c5.429-3.617,9.853-8.593,12.846-14.586c4.523-9.059,5.248-19.337,2.04-28.941L417.34,6.834c-1.75-5.237-7.413-8.064-12.652-6.317
	c-5.239,1.75-8.067,7.414-6.317,12.653l16.972,50.822c1.515,4.536,1.173,9.392-0.964,13.671S408.567,85.134,404.029,86.648z
	 M452.477,213.952l29.362,87.925c0.476,1.426,0.368,2.951-0.303,4.297c-0.671,1.345-1.827,2.348-3.252,2.823h-0.001
	c-1.426,0.478-2.952,0.368-4.296-0.303c-1.345-0.672-2.348-1.826-2.824-3.253L441.8,217.518L452.477,213.952z"/>
<path d="M64.753,169.338v2.02H40.117c-5.655,0-10.256-4.601-10.256-10.256v-12.027c0-5.522-4.477-10-10-10s-10,4.478-10,10v12.027
	c0,16.684,13.573,30.256,30.256,30.256h24.636v6.358c0,59.116,32.535,110.77,80.634,138.017l-31.412,156.27H61.128
	c-5.523,0-10,4.478-10,10s4.477,10,10,10h373.018c5.523,0,10-4.478,10-10s-4.477-10-10-10h-80.597
	c5.174-7.41,8.22-16.41,8.22-26.113c0-25.219-20.517-45.736-45.736-45.736c-0.797,0-1.59,0.021-2.377,0.062l-9.605-47.781
	l-0.011-0.054l-6.924-34.445c50.299-26.6,84.658-79.468,84.658-140.217v-28.378c0-12.295-10.002-22.298-22.297-22.298H87.05
	C74.755,147.04,64.753,157.043,64.753,169.338z M278.516,492.002h-144.14l7.931-39.455l144.612-63.86l7.426,36.944
	c-14.307,7.739-24.049,22.881-24.049,40.257C270.296,475.592,273.342,484.592,278.516,492.002z M147.129,428.555l16.853-83.84
	c18.323,7.416,38.332,11.511,59.282,11.511c19.382,0,37.959-3.503,55.14-9.899l4.479,22.281L147.129,428.555z M298.629,446.948
	c4.585-4.216,10.698-6.796,17.403-6.796c0.552,0,1.099,0.023,1.642,0.058c13.428,0.85,24.094,12.039,24.094,25.678
	c0,10.085-5.833,18.828-14.3,23.047c-3.448,1.718-7.33,2.689-11.436,2.689c-3.063,0-6.002-0.541-8.73-1.527
	c-9.907-3.583-17.007-13.082-17.007-24.209C290.296,458.403,293.51,451.655,298.629,446.948z M361.773,169.338v28.378
	c0,76.375-62.135,138.51-138.51,138.51l0,0c-68.653,0-125.791-50.21-136.644-115.836h183.869c5.523,0,10-4.478,10-10
	s-4.477-10-10-10H84.787c-0.017-0.89-0.034-1.78-0.034-2.674v-28.378c0-1.267,1.03-2.298,2.297-2.298h272.426
	C360.743,167.04,361.773,168.071,361.773,169.338z"/>
<path d="M141.955,67.527c-5.167-1.957-10.938,0.648-12.892,5.813c-5.713,15.099-1.189,25.49,1.804,32.366
	c2.734,6.282,3.155,7.248-0.314,11.663c-3.412,4.343-2.658,10.629,1.685,14.041c1.832,1.439,4.01,2.137,6.171,2.137
	c2.963,0,5.897-1.311,7.87-3.822c10.846-13.804,6.08-24.755,2.925-32.001c-2.479-5.696-4.271-9.812-1.436-17.306
	C149.723,75.253,147.12,69.481,141.955,67.527z"/>
<path d="M216.389,67.527c-5.167-1.957-10.938,0.648-12.892,5.813c-5.713,15.099-1.189,25.49,1.804,32.366
	c2.735,6.282,3.155,7.248-0.314,11.662c-3.412,4.343-2.658,10.63,1.685,14.042c1.832,1.439,4.009,2.137,6.171,2.137
	c2.963,0,5.897-1.312,7.87-3.821c10.847-13.805,6.08-24.756,2.925-32.002c-2.479-5.696-4.271-9.813-1.436-17.306
	C224.157,75.253,221.554,69.481,216.389,67.527z"/>
<path d="M296.637,80.419c1.954-5.166-0.648-10.938-5.814-12.892c-5.168-1.957-10.938,0.648-12.892,5.813
	c-5.713,15.099-1.189,25.49,1.804,32.366c2.734,6.282,3.155,7.248-0.314,11.663c-3.412,4.343-2.658,10.629,1.685,14.041
	c1.832,1.439,4.01,2.137,6.171,2.137c2.963,0,5.897-1.311,7.87-3.822c10.846-13.804,6.08-24.755,2.925-32.001
	C295.593,92.028,293.802,87.913,296.637,80.419z"/>
<path d="M305.906,214.212c0.25,0.609,0.56,1.189,0.92,1.729c0.36,0.551,0.78,1.061,1.24,1.521s0.97,0.88,1.52,1.24
	c0.54,0.359,1.12,0.67,1.73,0.92c0.6,0.25,1.23,0.439,1.87,0.569c0.64,0.13,1.3,0.2,1.95,0.2c2.63,0,5.21-1.07,7.07-2.93
	c0.46-0.46,0.88-0.97,1.25-1.521c0.36-0.54,0.67-1.12,0.92-1.729c0.25-0.601,0.44-1.23,0.57-1.87s0.19-1.3,0.19-1.95
	c0-2.64-1.07-5.21-2.93-7.07c-2.32-2.319-5.77-3.39-9.02-2.739c-0.64,0.13-1.27,0.319-1.87,0.569c-0.61,0.25-1.19,0.561-1.73,0.92
	c-0.55,0.37-1.06,0.79-1.52,1.25c-1.86,1.86-2.93,4.431-2.93,7.07c0,0.65,0.07,1.311,0.2,1.95S305.656,213.611,305.906,214.212z"/>
<g>
</g>
<g>
</g>
<g>
</g>
<g>
</g>
<g>
</g>
<g>
</g>
<g>
</g>
<g>
</g>
<g>
</g>
<g>
</g>
<g>
</g>
<g>
</g>
<g>
</g>
<g>
</g>
<g>
</g>
</svg>
