<?xml version="1.0" encoding="iso-8859-1"?>
<!-- Generator: Adobe Illustrator 19.0.0, SVG Export Plug-In . SVG Version: 6.00 Build 0)  -->
<svg version="1.1" id="Capa_1" xmlns="http://www.w3.org/2000/svg" xmlns:xlink="http://www.w3.org/1999/xlink" x="0px" y="0px"
	 viewBox="0 0 512 512" style="enable-background:new 0 0 512 512;" xml:space="preserve">
<path style="fill:#CD5C63;" d="M267.838,23.223c1.57,0.834,3.062,1.846,4.443,3.037c0.691,0.595,1.353,1.236,1.984,1.921
	s1.23,1.414,1.792,2.188c0.375,0.516,0.734,1.052,1.076,1.608c0.238,0.386,0.455,0.794,0.676,1.2
	c17.364,3.208,40.004,10.664,54.49,27.974c39.131,46.759,88.325,42.287,88.325,42.287V30.765c0,0-21.243,20.124-78.262-9.246
	c-39.074-20.127-66.595-9.902-79.978-0.393c0.748,0.193,1.491,0.407,2.22,0.669C265.71,22.192,266.791,22.668,267.838,23.223z"/>
<g>
	<path style="fill:#C7E1F0;" d="M347.291,197.642L297.176,78.747c-27.666,41.521-57.003,57.581-114.006,75.097l-45.221,107.284
		C137.953,261.128,248.98,285.03,347.291,197.642z"/>
	<path style="fill:#C7E1F0;" d="M427.187,387.19l9.636,22.861l-79.943-189.66l29.208,69.294
		C274.015,352.008,166.22,358.59,98.753,354.118l20.009-47.469L60.364,445.192c-6.118,14.514,2.34,31.034,17.692,34.555
		l17.659,4.052c15.122,3.469,30.33,6.424,45.597,8.899C329.692,460.963,393.955,421.181,427.187,387.19z"/>
	<path style="fill:#C7E1F0;" d="M276.058,30.369c-0.563-0.774-1.162-1.504-1.792-2.188
		C274.896,28.865,275.495,29.595,276.058,30.369z"/>
	<path style="fill:#C7E1F0;" d="M290.959,63.999l-11.992-28.45c-0.205-0.486-0.429-0.954-0.66-1.414
		c0.228,0.463,0.454,0.927,0.659,1.414L290.959,63.999z"/>
	<path style="fill:#C7E1F0;" d="M277.81,33.178l-0.001-0.001c-0.22-0.405-0.438-0.814-0.676-1.2
		C277.371,32.363,277.589,32.772,277.81,33.178z"/>
</g>
<g>
	<path style="fill:#EBBF72;" d="M386.088,289.686l-29.208-69.294l-9.59-22.75c-98.311,87.389-209.338,63.487-209.342,63.486l0,0
		l-19.188,45.521l-20.009,47.469C166.22,358.59,274.015,352.008,386.088,289.686z"/>
	<path style="fill:#EBBF72;" d="M305.206,500.251c1.821-0.125,3.642-0.268,5.462-0.407c1.315-0.101,2.63-0.198,3.945-0.306
		c1.701-0.14,3.401-0.291,5.1-0.442c1.443-0.129,2.885-0.26,4.327-0.397c1.631-0.155,3.261-0.317,4.891-0.483
		c1.529-0.156,3.058-0.319,4.586-0.486c1.559-0.169,3.117-0.339,4.675-0.519c1.67-0.193,3.339-0.397,5.008-0.602
		c1.421-0.174,2.842-0.343,4.262-0.525c2.291-0.294,4.58-0.607,6.868-0.924c1.332-0.184,2.663-0.371,3.994-0.563
		c2.493-0.359,4.986-0.727,7.476-1.113c1.185-0.184,2.369-0.379,3.554-0.569c1.945-0.312,3.891-0.626,5.834-0.953
		c1.267-0.213,2.533-0.436,3.799-0.656c1.875-0.327,3.749-0.659,5.621-1c1.268-0.231,2.535-0.466,3.802-0.704
		c1.907-0.358,3.812-0.726,5.717-1.1c1.207-0.237,2.415-0.473,3.621-0.716c2.079-0.419,4.155-0.853,6.23-1.291
		c1.018-0.215,2.038-0.423,3.056-0.643c3.086-0.666,6.17-1.347,9.249-2.053l17.659-4.052c0.959-0.22,1.892-0.491,2.796-0.809
		c1.138-0.401,2.225-0.884,3.268-1.426c0.368-0.192,0.731-0.391,1.086-0.599c0.504-0.295,0.996-0.605,1.474-0.932
		c0.22-0.15,0.438-0.302,0.652-0.459c0.589-0.43,1.157-0.881,1.702-1.357c0.397-0.347,0.786-0.701,1.159-1.07
		c7.076-6.999,9.76-17.925,5.554-27.904l-14.812-35.14l-9.636-22.861c-33.232,33.991-97.495,73.773-285.876,105.507l0,0h0.002
		c2.833,0.459,5.668,0.901,8.505,1.326c0.04,0.006,0.081,0.012,0.121,0.018c16.965,2.538,33.999,4.463,51.069,5.778
		c0.24,0.019,0.481,0.038,0.721,0.056c2.637,0.2,5.275,0.386,7.913,0.557c0.325,0.021,0.65,0.041,0.975,0.062
		c2.656,0.168,5.312,0.325,7.969,0.464c0.125,0.007,0.249,0.012,0.374,0.019c4.349,0.225,8.699,0.398,13.051,0.544
		c6.71,0.224,13.422,0.365,20.135,0.402c0.473,0.003,0.946,0.009,1.42,0.01c2.288,0.008,4.575,0,6.863-0.014
		c0.81-0.005,1.621-0.009,2.431-0.017c2.158-0.021,4.316-0.051,6.474-0.091c0.919-0.017,1.838-0.038,2.757-0.058
		c2.116-0.047,4.232-0.1,6.348-0.166c0.905-0.028,1.809-0.064,2.714-0.095c2.162-0.076,4.324-0.153,6.485-0.248
		c0.464-0.021,0.928-0.047,1.392-0.068c4.592-0.211,9.182-0.47,13.769-0.77C303.602,500.351,304.404,500.306,305.206,500.251z"/>
	<path style="fill:#EBBF72;" d="M297.176,78.747l-6.217-14.748l-11.992-28.45c-0.205-0.486-0.432-0.951-0.659-1.414
		c-0.16-0.326-0.327-0.644-0.498-0.958c-0.221-0.406-0.438-0.815-0.676-1.201c-0.342-0.556-0.701-1.091-1.076-1.608
		c-0.563-0.774-1.162-1.504-1.792-2.188c-0.631-0.685-1.294-1.325-1.984-1.921c-1.381-1.191-2.873-2.203-4.443-3.037
		c-1.047-0.556-2.128-1.032-3.234-1.429c-0.729-0.262-1.472-0.476-2.22-0.669c-11.162-2.876-24.082,1.923-29.351,14.424
		L183.17,153.844C240.173,136.329,269.51,120.269,297.176,78.747z"/>
</g>
<path d="M52.258,471.15c4.771,9.318,13.359,16.005,23.562,18.346l17.659,4.051c15.266,3.502,30.655,6.492,46.124,9
	c0.037,0.006,0.072,0.017,0.109,0.023c0.257,0.042,0.515,0.08,0.772,0.121c1.967,0.317,3.934,0.626,5.901,0.926
	c0.935,0.143,1.869,0.279,2.804,0.418c2.668,0.397,5.336,0.778,8.005,1.145c1.803,0.249,3.605,0.494,5.408,0.729
	c1.128,0.146,2.256,0.287,3.384,0.428c2.376,0.298,4.752,0.584,7.129,0.858c0.515,0.059,1.031,0.121,1.546,0.18
	c27.198,3.08,54.425,4.625,81.621,4.625c54.387,0,108.642-6.157,162.24-18.453l17.659-4.051
	c10.203-2.341,18.791-9.028,23.562-18.346c4.771-9.318,5.175-20.196,1.109-29.842l-65.547-155.505l-0.001-0.002l-38.797-92.044
	c0-0.001-0.001-0.001-0.001-0.002L306.393,74.867c0-0.001-0.001-0.003-0.001-0.004l-11.278-26.756
	c10.836,3.964,21.655,10.067,29.517,19.462c35.378,42.274,78.315,45.991,92.315,45.99c2.624,0,4.234-0.13,4.584-0.162
	c5.151-0.469,9.095-4.787,9.095-9.96V30.765c0-4.122-2.286-8.07-6.127-9.566c-3.784-1.476-7.842-0.752-10.628,2.174
	c-1.706,1.221-20.458,13.192-66.929-10.744c-43.423-22.368-74.092-9.76-86.706-2.057c-1.391-0.162-2.8-0.266-4.235-0.266
	c-14.298,0-26.629,8.184-32.183,21.36L173.955,149.96c0,0.001,0,0.001-0.001,0.002L51.149,441.308
	C47.083,450.954,47.487,461.832,52.258,471.15z M337.782,30.409c35.328,18.198,58.77,18.858,72.841,15.632v47.267
	c-14.803-1.235-44.862-7.755-70.655-38.576c-15.187-18.148-37.724-26.61-56.069-30.552c-0.482-0.649-0.982-1.28-1.503-1.889
	C294.953,18.364,313.383,17.841,337.782,30.409z M242.248,39.433c0.582-1.382,1.328-2.626,2.206-3.723
	c2.754-3.439,6.843-5.404,11.546-5.404c6.202,0,11.343,3.411,13.752,9.127l1.148,2.723l2.45,5.812l12.492,29.636
	c-22.413,31.896-46.301,46.519-84.961,59.97L242.248,39.433z M136.395,290.561l7.719-18.312c8.158,1.081,21.928,2.329,39.414,1.698
	c5.52-0.197,9.834-4.831,9.637-10.351c-0.197-5.519-4.824-9.871-10.352-9.636c-12.666,0.447-23.171-0.17-30.604-0.915l38.371-91.033
	c47.597-14.929,77.667-29.608,104.261-63.057l40.41,95.87c-23.728,19.991-50.13,35.186-78.587,45.192
	c-5.21,1.832-7.949,7.541-6.117,12.752c1.832,5.21,7.541,7.947,12.752,6.117c28.85-10.145,55.726-25.196,80.063-44.817
	l29.996,71.163c-22.038,11.755-44.962,21.913-68.27,30.247c-26.266,9.392-53.574,16.669-81.164,21.627
	c-36.557,6.57-73.635,9.17-110.422,7.769L136.395,290.561z M69.58,449.076l35.645-84.566c9.205,0.484,18.429,0.736,27.664,0.736
	c31.582-0.001,63.264-2.827,94.574-8.455c28.674-5.154,57.057-12.717,84.36-22.48c23.656-8.459,46.93-18.727,69.334-30.578
	l34.175,81.077c-15.321,14.52-33.856,26.795-57.796,38.295c-4.979,2.392-7.076,8.366-4.684,13.345s8.367,7.076,13.345,4.684
	c23.104-11.099,41.672-22.966,57.382-36.758l18.841,44.699c0.441,1.047,0.762,2.128,0.961,3.223
	c0.598,3.285,0.111,6.701-1.443,9.735c-0.259,0.506-0.544,0.994-0.853,1.462c-2.162,3.28-5.502,5.614-9.378,6.503l-17.659,4.051
	c-2.995,0.687-5.997,1.35-9.002,1.997c-0.43,0.093-0.86,0.186-1.29,0.277c-63.979,13.656-130.054,18.288-195.459,13.911
	c29.321-6.192,55.943-12.823,79.586-19.828c5.296-1.569,8.316-7.134,6.747-12.429c-1.569-5.296-7.137-8.323-12.43-6.747
	c-38.987,11.552-86.377,22.084-140.856,31.314c-14.557-2.38-29.035-5.2-43.396-8.494L80.292,470
	c-4.43-1.016-8.159-3.919-10.231-7.965S67.814,453.265,69.58,449.076z"/>
<path d="M213.247,263.355c0.25,0.6,0.56,1.19,0.92,1.73c0.37,0.54,0.78,1.061,1.24,1.521s0.98,0.88,1.52,1.24
	c0.55,0.359,1.13,0.67,1.73,0.92c0.6,0.25,1.23,0.439,1.87,0.569c0.65,0.13,1.3,0.2,1.96,0.2c0.65,0,1.3-0.07,1.95-0.2
	c0.64-0.13,1.27-0.319,1.87-0.569c0.6-0.25,1.18-0.561,1.73-0.92c0.54-0.36,1.05-0.78,1.52-1.24c0.46-0.46,0.87-0.981,1.24-1.521
	c0.36-0.54,0.67-1.13,0.92-1.73c0.25-0.601,0.44-1.231,0.57-1.87c0.13-0.64,0.2-1.3,0.2-1.95c0-0.66-0.07-1.31-0.2-1.96
	c-0.13-0.64-0.32-1.26-0.57-1.87c-0.25-0.6-0.56-1.18-0.92-1.72c-0.37-0.55-0.78-1.06-1.24-1.521c-0.47-0.47-0.98-0.88-1.52-1.25
	c-0.55-0.359-1.13-0.67-1.73-0.92c-0.6-0.25-1.23-0.439-1.87-0.569c-1.29-0.261-2.62-0.261-3.91,0c-0.64,0.13-1.27,0.319-1.87,0.569
	c-0.6,0.25-1.18,0.561-1.73,0.92c-0.54,0.37-1.06,0.78-1.52,1.25c-0.46,0.461-0.87,0.971-1.24,1.521c-0.36,0.54-0.67,1.12-0.92,1.72
	c-0.25,0.61-0.44,1.231-0.57,1.87c-0.13,0.65-0.2,1.3-0.2,1.96c0,0.65,0.07,1.311,0.2,1.95
	C212.807,262.124,212.997,262.754,213.247,263.355z"/>
<path d="M314.584,451.866c0.25,0.609,0.56,1.19,0.92,1.73c0.37,0.551,0.79,1.061,1.25,1.521s0.97,0.88,1.52,1.24
	c0.54,0.359,1.12,0.67,1.72,0.92c0.61,0.25,1.24,0.439,1.87,0.569c0.65,0.13,1.31,0.2,1.96,0.2s1.31-0.07,1.95-0.2
	s1.27-0.319,1.87-0.569c0.61-0.25,1.191-0.561,1.73-0.92c0.55-0.36,1.06-0.78,1.52-1.24s0.88-0.97,1.24-1.521
	c0.36-0.54,0.67-1.12,0.92-1.73c0.25-0.601,0.44-1.231,0.57-1.87c0.13-0.64,0.2-1.3,0.2-1.95c0-2.63-1.07-5.21-2.93-7.071
	c-0.46-0.46-0.97-0.88-1.52-1.239c-0.54-0.36-1.12-0.67-1.73-0.92c-0.6-0.25-1.23-0.45-1.87-0.57c-1.29-0.26-2.62-0.26-3.91,0
	c-0.63,0.12-1.26,0.32-1.87,0.57c-0.6,0.25-1.18,0.56-1.72,0.92c-0.55,0.359-1.06,0.779-1.52,1.239
	c-1.87,1.86-2.93,4.441-2.93,7.071c0,0.65,0.06,1.311,0.19,1.95C314.143,450.636,314.334,451.266,314.584,451.866z"/>
<g>
</g>
<g>
</g>
<g>
</g>
<g>
</g>
<g>
</g>
<g>
</g>
<g>
</g>
<g>
</g>
<g>
</g>
<g>
</g>
<g>
</g>
<g>
</g>
<g>
</g>
<g>
</g>
<g>
</g>
</svg>
