<?xml version="1.0" encoding="iso-8859-1"?>
<!-- Generator: Adobe Illustrator 19.0.0, SVG Export Plug-In . SVG Version: 6.00 Build 0)  -->
<svg version="1.1" id="Capa_1" xmlns="http://www.w3.org/2000/svg" xmlns:xlink="http://www.w3.org/1999/xlink" x="0px" y="0px"
	 viewBox="0 0 512 512" style="enable-background:new 0 0 512 512;" xml:space="preserve">
<path style="fill:#F4DAAB;" d="M173.667,481.549c0.435,11.418,9.818,20.451,21.245,20.451h200.53
	c11.427,0,20.809-9.032,21.245-20.451l1.466-38.467H172.201L173.667,481.549z"/>
<polygon style="fill:#EDCB77;" points="172.201,443.082 418.152,443.082 427.046,209.658 163.307,209.658 "/>
<path style="fill:#E2A546;" d="M80.779,87.889c0,43.017,34.872,77.889,77.889,77.889c0.994,0,1.979-0.038,2.965-0.075l-2.49-65.362
	c-0.259-6.799,5.182-12.451,11.986-12.451h65.428c0-43.017-34.872-77.889-77.889-77.889C115.65,10,80.779,44.872,80.779,87.889z"/>
<path d="M162.209,443.463l1.466,38.467c0.643,16.862,14.363,30.07,31.237,30.07h200.53c16.874,0,30.595-13.208,31.237-30.069
	l1.466-38.468l8.895-233.425c0-0.002,0-0.004,0-0.006l4.165-109.311c0.229-6.029-1.949-11.744-6.134-16.091
	c-4.185-4.348-9.812-6.741-15.845-6.741H245.984C241.003,34.119,203.748,0,158.668,0c-48.462,0-87.889,39.427-87.889,87.889
	c0,46.219,35.862,84.218,81.22,87.637l1.315,34.506c0,0.002,0,0.004,0,0.007L162.209,443.463z M406.693,481.17
	c-0.19,5.003-3.579,9.114-8.166,10.407c-0.306,0.086-0.617,0.16-0.933,0.22c-0.337,0.065-0.679,0.114-1.026,0.148
	c-0.37,0.036-0.746,0.055-1.125,0.055h-200.53c-0.38,0-0.755-0.019-1.125-0.055c-0.347-0.034-0.689-0.083-1.026-0.148
	c-0.316-0.061-0.627-0.134-0.933-0.22c-4.587-1.292-7.976-5.403-8.166-10.408l-1.07-28.087h225.173L406.693,481.17z M419.226,97.889
	c0.7,0,1.168,0.332,1.437,0.611s0.583,0.759,0.556,1.459l-3.799,99.698h-15.503c-5.522,0-10,4.478-10,10s4.478,10,10,10h14.741
	l-8.132,213.425H181.828l-8.132-213.425h140.455c5.522,0,10-4.478,10-10s-4.478-10-10-10H172.934l-3.799-99.699
	c-0.027-0.699,0.287-1.179,0.556-1.458c0.269-0.278,0.735-0.611,1.437-0.611h65.429H419.226z M151.217,90.587
	c-0.386,0.819-0.726,1.657-1.006,2.517c-0.031,0.094-0.071,0.185-0.1,0.28c-0.153,0.491-0.278,0.992-0.395,1.494
	c-0.022,0.095-0.054,0.187-0.075,0.283c-0.095,0.434-0.162,0.876-0.231,1.317c-0.026,0.168-0.066,0.334-0.088,0.503
	c-0.042,0.315-0.057,0.636-0.085,0.955c-0.081,0.919-0.124,1.846-0.088,2.785l2.083,54.652
	c-33.948-3.716-60.453-32.564-60.453-67.484C90.779,50.455,121.234,20,158.668,20c34.036,0,62.304,25.18,67.154,57.889h-54.694
	c-6.034,0-11.662,2.395-15.847,6.742c-0.674,0.7-1.276,1.447-1.844,2.214C152.564,88.022,151.833,89.28,151.217,90.587z"/>
<path d="M348.799,213.479c0.25,0.601,0.56,1.181,0.92,1.73c0.36,0.54,0.78,1.06,1.24,1.52s0.979,0.88,1.52,1.24s1.13,0.67,1.73,0.92
	s1.229,0.44,1.87,0.57c0.649,0.13,1.3,0.2,1.95,0.2c0.659,0,1.31-0.07,1.96-0.2c0.64-0.13,1.27-0.32,1.869-0.57
	c0.601-0.25,1.181-0.56,1.73-0.92c0.54-0.36,1.06-0.78,1.52-1.24s0.87-0.979,1.24-1.52c0.36-0.55,0.67-1.13,0.92-1.73
	c0.25-0.6,0.44-1.229,0.57-1.87c0.13-0.64,0.19-1.3,0.19-1.949c0-0.65-0.061-1.311-0.19-1.96c-0.13-0.641-0.32-1.261-0.57-1.87
	c-0.25-0.601-0.56-1.181-0.92-1.721c-0.37-0.55-0.78-1.06-1.24-1.52c-0.46-0.47-0.979-0.88-1.52-1.25
	c-0.55-0.36-1.13-0.67-1.73-0.92s-1.229-0.44-1.869-0.57c-1.29-0.26-2.62-0.26-3.91,0c-0.641,0.13-1.271,0.32-1.87,0.57
	c-0.601,0.25-1.19,0.56-1.73,0.92c-0.54,0.37-1.06,0.78-1.52,1.25c-0.46,0.46-0.88,0.97-1.24,1.52c-0.36,0.54-0.67,1.12-0.92,1.721
	c-0.25,0.609-0.44,1.229-0.57,1.87c-0.13,0.649-0.199,1.31-0.199,1.96c0,0.649,0.069,1.31,0.199,1.949
	C348.359,212.25,348.549,212.88,348.799,213.479z"/>
<path d="M172.424,49.779c0-5.522-4.478-10-10-10c-28.343,0-51.401,23.059-51.401,51.4c0,5.522,4.478,10,10,10s10-4.478,10-10
	c0-17.314,14.087-31.4,31.401-31.4C167.947,59.779,172.424,55.302,172.424,49.779z"/>
<path d="M212.121,364.883c0.106,0,0.214-0.002,0.321-0.005c5.521-0.175,9.854-4.791,9.68-10.311l-2.771-87.722
	c-0.174-5.521-4.782-9.849-10.311-9.68c-5.521,0.175-9.854,4.791-9.68,10.311l2.771,87.722
	C202.302,360.611,206.744,364.883,212.121,364.883z"/>
<path d="M222.75,394.92c-0.25-0.61-0.561-1.19-0.92-1.73c-0.37-0.55-0.79-1.06-1.25-1.52s-0.971-0.88-1.521-1.24
	c-0.54-0.36-1.12-0.67-1.72-0.92c-0.61-0.25-1.24-0.44-1.87-0.57c-1.29-0.26-2.62-0.26-3.91,0c-0.64,0.13-1.27,0.32-1.87,0.57
	c-0.609,0.25-1.189,0.56-1.729,0.92c-0.55,0.36-1.061,0.78-1.521,1.24s-0.88,0.97-1.239,1.52c-0.36,0.54-0.67,1.12-0.92,1.73
	c-0.25,0.6-0.44,1.229-0.57,1.87c-0.13,0.64-0.2,1.3-0.2,1.95c0,2.63,1.07,5.21,2.93,7.069c0.46,0.46,0.971,0.88,1.521,1.25
	c0.54,0.36,1.12,0.67,1.729,0.92c0.601,0.25,1.23,0.44,1.87,0.57c0.641,0.13,1.3,0.2,1.95,0.2s1.31-0.07,1.96-0.2
	c0.63-0.13,1.26-0.32,1.87-0.57c0.6-0.25,1.18-0.56,1.72-0.92c0.55-0.37,1.061-0.79,1.521-1.25s0.88-0.97,1.25-1.52
	c0.359-0.54,0.67-1.12,0.92-1.721c0.25-0.609,0.439-1.239,0.569-1.869c0.131-0.65,0.19-1.301,0.19-1.96c0-0.65-0.06-1.311-0.19-1.95
	C223.189,396.149,223,395.52,222.75,394.92z"/>
<g>
</g>
<g>
</g>
<g>
</g>
<g>
</g>
<g>
</g>
<g>
</g>
<g>
</g>
<g>
</g>
<g>
</g>
<g>
</g>
<g>
</g>
<g>
</g>
<g>
</g>
<g>
</g>
<g>
</g>
</svg>
