<?xml version="1.0" encoding="iso-8859-1"?>
<!-- Generator: Adobe Illustrator 19.0.0, SVG Export Plug-In . SVG Version: 6.00 Build 0)  -->
<svg version="1.1" id="Capa_1" xmlns="http://www.w3.org/2000/svg" xmlns:xlink="http://www.w3.org/1999/xlink" x="0px" y="0px"
	 viewBox="0 0 511.999 511.999" style="enable-background:new 0 0 511.999 511.999;" xml:space="preserve">
<g>
	<path style="fill:#EBBF72;" d="M463.655,12.104L24.5,189.075c-0.625,0.252-1.234,0.529-1.827,0.83
		c0.592-0.301,1.201-0.578,1.827-0.83l42.524-17.136c12.703,65.279,44.306,127.607,94.869,178.17s112.891,82.166,178.17,94.869
		l-17.136,42.524c-0.252,0.625-0.529,1.234-0.829,1.827c0.3-0.593,0.578-1.202,0.83-1.827l176.97-439.156
		C509.074,25.571,486.43,2.927,463.655,12.104z M198.279,237.146c-11.813,11.813-30.966,11.813-42.78,0
		c-11.813-11.813-11.813-30.966,0-42.779c11.813-11.814,30.966-11.814,42.78,0C210.092,206.179,210.092,225.332,198.279,237.146z
		 M346.277,319.312c-11.813,11.813-30.966,11.813-42.78,0c-11.813-11.814-11.813-30.967,0-42.78
		c11.813-11.814,30.966-11.814,42.78,0C358.09,288.345,358.09,307.498,346.277,319.312z M396.883,147.055
		c-10.083,10.083-26.431,10.083-36.515,0c-10.083-10.083-10.083-26.431,0-36.515c10.083-10.083,26.432-10.083,36.515,0
		C406.966,120.624,406.966,136.972,396.883,147.055z"/>
	<path style="fill:#EBBF72;" d="M297.835,501.687c0.059,0.009,0.117,0.02,0.175,0.029c9.887,1.551,19.538-3.525,24.035-12.297
		C317.52,498.239,307.786,503.238,297.835,501.687z"/>
	<path style="fill:#EBBF72;" d="M22.6,189.945c-8.784,4.493-13.868,14.152-12.316,24.046c0.009,0.059,0.02,0.117,0.03,0.177
		C8.762,204.208,13.768,194.466,22.6,189.945z"/>
</g>
<path style="fill:#F4DAAB;" d="M340.062,444.978c-65.279-12.703-127.607-44.306-178.17-94.869s-82.166-112.891-94.869-178.17
	L24.5,189.075c-0.626,0.252-1.235,0.529-1.827,0.83c-0.025,0.013-0.048,0.028-0.073,0.041c-8.832,4.521-13.838,14.263-12.286,24.222
	c0.002,0.013,0.002,0.026,0.004,0.04c0.17,1.077,0.36,2.15,0.54,3.226c0.178,1.066,0.347,2.133,0.535,3.197
	c0.194,1.098,0.408,2.192,0.613,3.288c0.201,1.075,0.392,2.152,0.603,3.225c0.214,1.088,0.448,2.173,0.672,3.26
	c0.223,1.078,0.436,2.158,0.669,3.234c0.232,1.072,0.484,2.14,0.726,3.209c0.247,1.088,0.484,2.178,0.741,3.264
	c0.251,1.06,0.522,2.116,0.783,3.174c0.269,1.091,0.529,2.184,0.809,3.273c0.273,1.062,0.566,2.12,0.849,3.18
	c0.289,1.081,0.568,2.163,0.868,3.242c0.293,1.056,0.607,2.108,0.91,3.162c0.311,1.078,0.612,2.158,0.933,3.234
	c0.31,1.039,0.641,2.074,0.961,3.111c0.335,1.085,0.661,2.173,1.007,3.256c0.33,1.033,0.681,2.061,1.021,3.092
	c0.357,1.081,0.704,2.163,1.072,3.241c0.349,1.022,0.717,2.039,1.076,3.058c0.381,1.082,0.752,2.166,1.143,3.245
	c0.361,0.993,0.741,1.981,1.111,2.972c0.41,1.098,0.811,2.2,1.233,3.295c0.383,0.994,0.785,1.981,1.177,2.972
	c0.43,1.085,0.85,2.173,1.291,3.254c0.405,0.994,0.831,1.982,1.246,2.973c0.449,1.073,0.889,2.149,1.349,3.217
	c0.421,0.977,0.861,1.947,1.291,2.92c0.475,1.076,0.942,2.155,1.428,3.227c0.443,0.976,0.906,1.945,1.359,2.917
	c0.495,1.063,0.98,2.129,1.486,3.188c0.468,0.978,0.955,1.95,1.433,2.924c0.512,1.045,1.014,2.094,1.537,3.135
	c0.487,0.969,0.994,1.931,1.491,2.897c0.535,1.04,1.06,2.082,1.605,3.118c0.504,0.955,1.028,1.903,1.541,2.854
	c0.559,1.037,1.109,2.077,1.68,3.109c0.535,0.967,1.089,1.925,1.634,2.888c0.57,1.008,1.131,2.021,1.712,3.024
	c0.571,0.986,1.162,1.963,1.743,2.944c0.576,0.972,1.141,1.948,1.727,2.916c0.593,0.978,1.206,1.947,1.809,2.92
	c0.596,0.962,1.182,1.929,1.789,2.887c0.616,0.973,1.253,1.936,1.879,2.904c0.614,0.948,1.218,1.901,1.842,2.845
	c0.65,0.983,1.322,1.957,1.983,2.935c0.622,0.919,1.233,1.843,1.864,2.757c0.689,0.997,1.399,1.984,2.099,2.976
	c0.625,0.884,1.239,1.774,1.873,2.654c0.734,1.018,1.489,2.025,2.235,3.037c0.622,0.843,1.233,1.693,1.864,2.532
	c0.72,0.957,1.46,1.904,2.191,2.856c0.678,0.884,1.346,1.772,2.034,2.651c0.705,0.899,1.43,1.788,2.145,2.683
	c0.734,0.918,1.458,1.842,2.204,2.755c0.734,0.899,1.488,1.786,2.232,2.679c0.748,0.897,1.485,1.8,2.242,2.691
	c0.852,1.001,1.726,1.991,2.591,2.985c0.67,0.77,1.329,1.547,2.007,2.312c1.147,1.294,2.317,2.576,3.486,3.857
	c0.415,0.455,0.82,0.916,1.238,1.37c1.29,1.398,2.603,2.783,3.92,4.165c0.313,0.329,0.617,0.663,0.932,0.99
	c1.638,1.706,3.297,3.399,4.977,5.079c1.68,1.68,3.373,3.339,5.078,4.977c0.328,0.315,0.661,0.619,0.99,0.932
	c1.382,1.317,2.766,2.63,4.165,3.92c0.453,0.418,0.915,0.823,1.37,1.238c1.281,1.169,2.562,2.339,3.857,3.486
	c0.766,0.678,1.542,1.337,2.312,2.007c0.994,0.865,1.983,1.739,2.985,2.591c0.891,0.758,1.794,1.495,2.691,2.242
	c0.893,0.745,1.78,1.499,2.679,2.233c0.913,0.745,1.836,1.469,2.755,2.203c0.894,0.715,1.783,1.44,2.683,2.145
	c0.878,0.688,1.767,1.356,2.651,2.035c0.952,0.731,1.898,1.472,2.856,2.191c0.839,0.63,1.688,1.242,2.532,1.864
	c1.012,0.746,2.019,1.501,3.037,2.234c0.88,0.634,1.769,1.248,2.654,1.873c0.992,0.701,1.979,1.411,2.976,2.1
	c0.914,0.631,1.838,1.243,2.757,1.864c0.978,0.662,1.951,1.333,2.935,1.983c0.944,0.624,1.897,1.228,2.845,1.842
	c0.968,0.626,1.931,1.263,2.904,1.879c0.958,0.606,1.925,1.193,2.887,1.789c0.973,0.603,1.942,1.216,2.92,1.809
	c0.967,0.586,1.944,1.152,2.916,1.728c0.981,0.581,1.958,1.172,2.944,1.743c1.004,0.581,2.016,1.142,3.024,1.712
	c0.963,0.544,1.921,1.099,2.888,1.634c1.032,0.571,2.073,1.121,3.109,1.68c0.952,0.513,1.899,1.037,2.854,1.541
	c1.035,0.546,2.078,1.071,3.117,1.605c0.966,0.497,1.928,1.004,2.897,1.491c1.041,0.523,2.09,1.025,3.135,1.537
	c0.975,0.478,1.946,0.965,2.925,1.433c1.059,0.506,2.125,0.992,3.188,1.486c0.972,0.453,1.941,0.915,2.917,1.359
	c1.049,0.477,2.105,0.932,3.158,1.398c0.997,0.44,1.991,0.892,2.992,1.323c1.046,0.451,2.1,0.881,3.149,1.321
	c1.013,0.424,2.023,0.859,3.039,1.273c1.082,0.441,2.169,0.861,3.254,1.291c0.991,0.392,1.978,0.794,2.971,1.177
	c1.074,0.414,2.155,0.807,3.233,1.21c1.012,0.378,2.022,0.767,3.037,1.135c1.058,0.384,2.121,0.748,3.182,1.121
	c1.039,0.366,2.076,0.742,3.118,1.098c1.078,0.368,2.161,0.715,3.241,1.072c1.031,0.34,2.059,0.69,3.092,1.021
	c1.064,0.34,2.133,0.66,3.2,0.99c1.056,0.326,2.11,0.663,3.169,0.978c1.038,0.31,2.08,0.6,3.12,0.9
	c1.092,0.315,2.181,0.639,3.276,0.943c1.059,0.294,2.122,0.568,3.183,0.852c1.079,0.289,2.155,0.586,3.236,0.864
	c1.072,0.276,2.148,0.531,3.222,0.796c1.076,0.266,2.151,0.541,3.229,0.796c1.068,0.252,2.139,0.485,3.208,0.728
	c1.087,0.247,2.173,0.502,3.262,0.738c1.061,0.23,2.124,0.439,3.187,0.659c1.103,0.229,2.205,0.466,3.31,0.683
	c1.04,0.205,2.083,0.39,3.124,0.584c1.13,0.211,2.258,0.432,3.389,0.632c1.032,0.183,2.066,0.346,3.099,0.519
	c1.107,0.186,2.212,0.381,3.321,0.556c0.014,0.002,0.027,0.003,0.041,0.005c9.952,1.55,19.685-3.449,24.21-12.268
	c0.016-0.031,0.035-0.06,0.051-0.091c0.3-0.592,0.577-1.201,0.829-1.827L340.062,444.978z"/>
<circle style="fill:#CD5C63;" cx="176.89" cy="215.752" r="30.25"/>
<circle style="fill:#CE8570;" cx="324.89" cy="297.922" r="30.25"/>
<circle style="fill:#CD5C63;" cx="378.62" cy="128.802" r="25.82"/>
<path d="M205.349,187.295c-15.693-15.693-41.227-15.692-56.922,0.001c-15.693,15.693-15.693,41.228,0,56.921
	c7.602,7.602,17.71,11.79,28.461,11.79c10.752,0,20.859-4.187,28.46-11.79c7.603-7.602,11.791-17.709,11.791-28.461
	C217.139,205.005,212.952,194.897,205.349,187.295z M191.208,230.074C191.207,230.074,191.207,230.074,191.208,230.074
	c-3.826,3.825-8.911,5.932-14.32,5.932s-10.494-2.107-14.319-5.932c-7.895-7.895-7.895-20.742-0.001-28.638
	c3.949-3.948,9.133-5.922,14.32-5.922c5.185,0,10.372,1.975,14.319,5.922c3.825,3.825,5.932,8.91,5.932,14.319
	S195.032,226.249,191.208,230.074z"/>
<path d="M324.887,338.172c10.752,0,20.859-4.187,28.46-11.79c7.603-7.602,11.791-17.709,11.791-28.461
	c0-10.751-4.187-20.859-11.79-28.461c-15.693-15.693-41.227-15.692-56.922,0.001c-15.693,15.694-15.693,41.228,0,56.921
	C304.028,333.985,314.136,338.172,324.887,338.172z M310.567,283.603c3.949-3.948,9.133-5.922,14.32-5.922
	c5.185,0,10.372,1.975,14.319,5.922c3.825,3.825,5.932,8.91,5.932,14.319s-2.107,10.494-5.931,14.319c-0.001,0-0.001,0-0.001,0.001
	c-3.825,3.824-8.91,5.931-14.319,5.931s-10.494-2.107-14.319-5.932C302.673,304.345,302.673,291.498,310.567,283.603z"/>
<path d="M403.952,154.126L403.952,154.126c6.766-6.765,10.493-15.761,10.493-25.328c0-9.568-3.726-18.563-10.492-25.327
	c-6.765-6.766-15.76-10.493-25.328-10.493s-18.563,3.726-25.327,10.492c-6.766,6.765-10.493,15.76-10.493,25.328
	s3.726,18.563,10.492,25.327c6.765,6.766,15.76,10.493,25.328,10.493C388.192,164.618,397.188,160.891,403.952,154.126z
	 M362.805,128.798c0-4.225,1.646-8.198,4.635-11.187c2.988-2.987,6.961-4.634,11.186-4.634s8.198,1.646,11.187,4.635
	c2.987,2.988,4.634,6.961,4.634,11.186c0,4.225-1.646,8.198-4.634,11.186c-0.001,0-0.001,0-0.001,0.001
	c-2.988,2.987-6.961,4.634-11.186,4.634s-8.198-1.646-11.187-4.635C364.451,136.996,362.805,133.023,362.805,128.798z"/>
<path d="M267.702,194.74c0.47,0,0.944-0.033,1.422-0.101l32.734-4.66c5.468-0.778,9.269-5.842,8.491-11.309
	s-5.85-9.256-11.309-8.491l-32.734,4.66c-5.468,0.778-9.269,5.842-8.491,11.309C258.525,191.138,262.803,194.74,267.702,194.74z"/>
<path d="M215.626,338.299c0.47,0,0.944-0.033,1.422-0.101l32.734-4.66c5.468-0.778,9.269-5.842,8.491-11.309
	c-0.779-5.469-5.848-9.263-11.309-8.491l-32.734,4.66c-5.468,0.778-9.269,5.842-8.491,11.309
	C206.45,334.697,210.728,338.299,215.626,338.299z"/>
<path d="M239.138,417.067c0.25,0.61,0.561,1.19,0.92,1.73c0.36,0.55,0.78,1.06,1.24,1.52s0.97,0.881,1.519,1.24
	c0.54,0.36,1.131,0.67,1.73,0.92c0.6,0.25,1.23,0.44,1.87,0.57s1.3,0.2,1.95,0.2c0.66,0,1.31-0.07,1.96-0.2
	c0.64-0.13,1.269-0.32,1.87-0.57c0.6-0.25,1.18-0.56,1.729-0.92c0.54-0.359,1.05-0.78,1.51-1.24c0.471-0.46,0.88-0.97,1.25-1.52
	c0.36-0.54,0.67-1.12,0.92-1.73c0.25-0.6,0.44-1.229,0.57-1.869c0.13-0.641,0.19-1.301,0.19-1.95c0-0.65-0.061-1.31-0.19-1.95
	c-0.13-0.64-0.32-1.27-0.57-1.87c-0.25-0.61-0.56-1.189-0.92-1.729c-0.37-0.551-0.779-1.061-1.25-1.52
	c-0.46-0.46-0.97-0.88-1.51-1.24c-0.55-0.37-1.13-0.67-1.729-0.92c-0.601-0.25-1.23-0.45-1.87-0.58c-1.29-0.25-2.62-0.25-3.91,0
	c-0.64,0.13-1.27,0.33-1.87,0.58c-0.6,0.25-1.19,0.55-1.73,0.92c-0.55,0.36-1.06,0.78-1.519,1.24c-0.46,0.46-0.88,0.97-1.24,1.52
	c-0.359,0.54-0.67,1.119-0.92,1.729c-0.25,0.6-0.439,1.23-0.57,1.87c-0.13,0.64-0.199,1.3-0.199,1.95c0,0.649,0.069,1.31,0.199,1.95
	C238.699,415.837,238.888,416.467,239.138,417.067z"/>
<path d="M346.604,61.51c0.37,0.55,0.79,1.06,1.25,1.519s0.971,0.88,1.52,1.24c0.54,0.36,1.12,0.67,1.72,0.92
	c0.61,0.25,1.24,0.44,1.87,0.57c0.65,0.13,1.31,0.2,1.96,0.2c2.63,0,5.21-1.07,7.07-2.931c0.46-0.46,0.88-0.97,1.24-1.519
	c0.359-0.54,0.67-1.12,0.92-1.73c0.25-0.6,0.439-1.229,0.569-1.87c0.13-0.64,0.2-1.3,0.2-1.949c0-0.65-0.07-1.311-0.2-1.96
	c-0.13-0.631-0.319-1.261-0.569-1.87c-0.25-0.601-0.561-1.181-0.92-1.721c-0.36-0.55-0.78-1.06-1.24-1.519
	c-0.46-0.46-0.97-0.88-1.52-1.25c-0.54-0.36-1.12-0.67-1.729-0.92c-0.601-0.25-1.23-0.44-1.87-0.57c-1.29-0.26-2.62-0.26-3.91,0
	c-0.63,0.13-1.26,0.32-1.87,0.57c-0.6,0.25-1.18,0.56-1.72,0.92c-0.55,0.37-1.061,0.79-1.52,1.25c-0.46,0.46-0.88,0.97-1.25,1.519
	c-0.359,0.54-0.67,1.12-0.92,1.721c-0.25,0.609-0.439,1.239-0.569,1.87c-0.13,0.649-0.19,1.31-0.19,1.96
	c0,0.649,0.061,1.31,0.19,1.949c0.13,0.641,0.319,1.27,0.569,1.87C345.934,60.39,346.245,60.97,346.604,61.51z"/>
<path d="M459.912,2.831l-71.629,28.915c-5.121,2.067-7.596,7.895-5.53,13.016c2.067,5.122,7.898,7.595,13.016,5.53l71.623-28.913
	c6.858-2.764,14.068-1.291,19.295,3.934c5.226,5.226,6.697,12.44,3.934,19.295l-156.707,388.87
	c-13.158-2.898-26.191-6.586-38.845-11.02c-5.209-1.829-10.917,0.918-12.744,6.13c-1.826,5.213,0.918,10.919,6.131,12.745
	c12.357,4.33,25.052,8,37.879,10.952l-12.686,31.48c-2.292,5.688-8.156,8.984-14.266,8.045c-0.975-0.153-1.945-0.325-2.918-0.487
	c-1.205-0.2-2.412-0.392-3.612-0.605c-0.946-0.167-1.887-0.354-2.831-0.529c-1.24-0.231-2.483-0.454-3.719-0.698
	c-0.904-0.179-1.802-0.375-2.703-0.561c-1.27-0.262-2.542-0.516-3.807-0.792c-0.863-0.188-1.721-0.394-2.581-0.589
	c-1.296-0.293-2.594-0.58-3.885-0.888c-0.823-0.196-1.641-0.41-2.462-0.612c-1.322-0.326-2.647-0.646-3.964-0.988
	c-0.768-0.199-1.53-0.415-2.297-0.62c-1.363-0.364-2.727-0.723-4.083-1.104c-0.712-0.2-1.418-0.415-2.128-0.619
	c-1.405-0.404-2.811-0.805-4.209-1.227c-0.642-0.194-1.278-0.402-1.918-0.6c-1.458-0.45-2.918-0.898-4.369-1.368
	c-0.602-0.195-1.198-0.403-1.798-0.601c-1.482-0.489-2.965-0.977-4.438-1.486c-0.572-0.198-1.139-0.409-1.709-0.609
	c-1.496-0.526-2.993-1.052-4.481-1.599c-0.508-0.187-1.011-0.386-1.518-0.575c-1.544-0.577-3.088-1.154-4.622-1.753
	c-0.448-0.175-0.892-0.361-1.34-0.538c-1.585-0.627-3.17-1.257-4.745-1.908c-0.42-0.174-0.835-0.357-1.255-0.533
	c-1.597-0.668-3.193-1.34-4.779-2.033c-0.368-0.161-0.732-0.331-1.1-0.493c-1.63-0.719-3.257-1.443-4.875-2.188
	c-0.381-0.175-0.757-0.36-1.137-0.537c-1.599-0.744-3.196-1.492-4.783-2.261c-0.368-0.179-0.732-0.367-1.1-0.546
	c-1.593-0.78-3.184-1.563-4.764-2.369c-0.349-0.178-0.694-0.364-1.042-0.543c-1.593-0.819-3.183-1.643-4.763-2.487
	c-0.335-0.179-0.666-0.367-1.001-0.548c-1.586-0.855-3.169-1.715-4.742-2.596c-0.387-0.217-0.769-0.444-1.155-0.662
	c-1.514-0.856-3.026-1.716-4.527-2.597c-0.426-0.25-0.845-0.51-1.269-0.761c-1.455-0.863-2.91-1.727-4.353-2.612
	c-0.448-0.275-0.89-0.561-1.337-0.839c-1.411-0.874-2.821-1.75-4.22-2.646c-0.51-0.327-1.013-0.666-1.521-0.996
	c-1.328-0.861-2.656-1.721-3.972-2.602c-0.569-0.381-1.129-0.775-1.696-1.159c-1.247-0.845-2.495-1.687-3.731-2.55
	c-0.644-0.45-1.28-0.915-1.921-1.369c-1.149-0.814-2.3-1.623-3.44-2.452c-0.68-0.495-1.349-1.004-2.025-1.504
	c-1.091-0.807-2.186-1.608-3.269-2.429c-0.769-0.583-1.527-1.183-2.292-1.773c-0.977-0.754-1.959-1.501-2.929-2.267
	c-0.9-0.711-1.789-1.44-2.682-2.16c-0.824-0.665-1.654-1.32-2.472-1.992c-0.957-0.787-1.902-1.593-2.852-2.392
	c-0.742-0.624-1.491-1.238-2.228-1.868c-1.028-0.879-2.043-1.778-3.061-2.67c-0.648-0.568-1.303-1.126-1.948-1.7
	c-1.205-1.072-2.397-2.164-3.589-3.255c-0.447-0.409-0.899-0.809-1.344-1.22c-1.374-1.271-2.734-2.561-4.09-3.858
	c-0.255-0.244-0.515-0.481-0.77-0.726c-1.607-1.546-3.201-3.109-4.782-4.69s-3.145-3.175-4.69-4.782
	c-0.245-0.255-0.482-0.515-0.726-0.77c-1.296-1.356-2.587-2.716-3.858-4.09c-0.411-0.444-0.811-0.897-1.219-1.344
	c-1.091-1.192-2.183-2.383-3.256-3.589c-0.573-0.645-1.131-1.3-1.699-1.948c-0.892-1.019-1.791-2.034-2.67-3.061
	c-0.631-0.737-1.245-1.486-1.869-2.228c-0.798-0.95-1.604-1.894-2.391-2.852c-0.673-0.818-1.328-1.648-1.992-2.472
	c-0.721-0.894-1.45-1.782-2.16-2.682c-0.766-0.97-1.512-1.952-2.267-2.929c-0.59-0.765-1.19-1.523-1.773-2.291
	c-0.821-1.083-1.622-2.178-2.428-3.269c-0.5-0.676-1.01-1.346-1.504-2.026c-0.829-1.139-1.638-2.291-2.452-3.44
	c-0.454-0.641-0.919-1.277-1.369-1.921c-0.888-1.272-1.756-2.557-2.625-3.841c-0.359-0.53-0.727-1.053-1.083-1.585
	c-0.912-1.362-1.802-2.737-2.693-4.112c-0.299-0.462-0.608-0.918-0.905-1.382c-0.923-1.44-1.826-2.892-2.726-4.346
	c-0.251-0.405-0.51-0.805-0.759-1.211c-0.908-1.48-1.794-2.971-2.678-4.464c-0.229-0.387-0.467-0.77-0.695-1.158
	c-0.9-1.535-1.78-3.081-2.655-4.63c-0.199-0.352-0.406-0.7-0.603-1.053c-0.913-1.629-1.805-3.269-2.69-4.913
	c-0.149-0.277-0.305-0.551-0.453-0.828c-0.874-1.634-1.727-3.279-2.573-4.928c-0.151-0.294-0.308-0.584-0.458-0.878
	c-0.831-1.63-1.64-3.271-2.444-4.915c-0.155-0.317-0.317-0.631-0.471-0.949c-0.801-1.652-1.58-3.314-2.354-4.978
	c-0.146-0.315-0.299-0.626-0.444-0.941c-0.775-1.682-1.528-3.374-2.275-5.068c-0.133-0.303-0.274-0.603-0.406-0.906
	c-0.724-1.657-1.427-3.325-2.124-4.994c-0.145-0.347-0.297-0.691-0.441-1.038c-0.681-1.646-1.34-3.301-1.994-4.958
	c-0.149-0.376-0.305-0.749-0.452-1.126c-0.629-1.609-1.235-3.228-1.839-4.848c-0.161-0.431-0.33-0.859-0.489-1.29
	c-0.578-1.571-1.134-3.151-1.689-4.731c-0.171-0.487-0.351-0.97-0.52-1.458c-0.541-1.565-1.06-3.138-1.578-4.712
	c-0.168-0.509-0.344-1.014-0.509-1.524c-0.5-1.544-0.978-3.097-1.456-4.65c-0.168-0.546-0.346-1.089-0.511-1.636
	c-0.449-1.485-0.875-2.978-1.303-4.471c-0.179-0.623-0.368-1.242-0.543-1.867c-0.407-1.449-0.791-2.906-1.179-4.362
	c-0.179-0.673-0.369-1.342-0.544-2.017c-0.365-1.406-0.708-2.82-1.055-4.232c-0.18-0.732-0.371-1.461-0.546-2.195
	c-0.33-1.382-0.638-2.771-0.951-4.158c-0.173-0.77-0.358-1.536-0.526-2.307c-0.296-1.355-0.569-2.717-0.848-4.077
	c-0.167-0.811-0.344-1.619-0.505-2.433c-0.261-1.322-0.501-2.651-0.747-3.977c-0.159-0.858-0.329-1.713-0.481-2.573
	c-0.228-1.283-0.434-2.573-0.647-3.861c-0.148-0.892-0.306-1.781-0.447-2.675c-0.948-6.112,2.355-11.975,8.044-14.268l31.479-12.684
	c14.934,64.974,47.657,124.064,95.107,171.514c12.832,12.831,26.694,24.742,41.205,35.403c4.449,3.269,10.709,2.313,13.979-2.138
	c3.27-4.45,2.313-10.71-2.138-13.979c-13.697-10.064-26.787-21.311-38.905-33.428c-45.534-45.535-76.685-102.421-90.442-164.95
	l181.812-73.261l61.221-24.651c5.123-2.063,7.603-7.888,5.541-13.011c-2.063-5.124-7.889-7.605-13.011-5.541l-61.223,24.652
	L63.305,162.657c-0.006,0.002-0.012,0.004-0.019,0.006l-42.524,17.136c-14.378,5.796-22.749,20.492-20.356,35.743
	c0.009,0.054,0.019,0.108,0.027,0.162c0.003,0.02,0.005,0.04,0.008,0.06c0.155,0.98,0.329,1.955,0.492,2.933
	c0.219,1.318,0.429,2.639,0.662,3.953c0.172,0.971,0.363,1.935,0.543,2.904c0.25,1.347,0.493,2.696,0.758,4.038
	c0.18,0.909,0.377,1.812,0.564,2.718c0.287,1.395,0.567,2.793,0.87,4.182c0.186,0.855,0.39,1.703,0.583,2.556
	c0.323,1.433,0.641,2.868,0.982,4.295c0.197,0.826,0.411,1.646,0.614,2.47c0.356,1.447,0.707,2.896,1.081,4.337
	c0.203,0.781,0.422,1.555,0.63,2.334c0.394,1.477,0.784,2.956,1.197,4.427c0.203,0.722,0.421,1.438,0.628,2.159
	c0.437,1.52,0.871,3.042,1.328,4.554c0.2,0.662,0.415,1.319,0.619,1.98c0.482,1.563,0.962,3.127,1.466,4.682
	c0.199,0.616,0.412,1.226,0.615,1.841c0.525,1.592,1.049,3.185,1.597,4.769c0.202,0.585,0.418,1.164,0.623,1.747
	c0.565,1.606,1.129,3.213,1.717,4.81c0.202,0.549,0.417,1.093,0.622,1.641c0.607,1.624,1.214,3.249,1.845,4.863
	c0.198,0.508,0.408,1.01,0.609,1.517c0.652,1.647,1.306,3.294,1.983,4.931c0.197,0.477,0.406,0.949,0.605,1.424
	c0.695,1.661,1.393,3.32,2.113,4.969c0.185,0.423,0.379,0.84,0.566,1.262c0.749,1.695,1.501,3.388,2.276,5.071
	c0.185,0.402,0.38,0.799,0.567,1.201c0.789,1.697,1.583,3.391,2.399,5.075c0.176,0.362,0.36,0.72,0.537,1.081
	c0.839,1.715,1.683,3.428,2.55,5.129c0.208,0.408,0.426,0.812,0.636,1.219c0.848,1.648,1.7,3.295,2.574,4.93
	c0.226,0.423,0.463,0.841,0.691,1.263c0.871,1.614,1.746,3.226,2.642,4.826c0.216,0.386,0.442,0.766,0.66,1.151
	c0.921,1.629,1.846,3.256,2.794,4.871c0.25,0.426,0.511,0.846,0.763,1.271c0.927,1.565,1.857,3.129,2.808,4.681
	c0.333,0.543,0.679,1.079,1.015,1.62c0.886,1.427,1.772,2.856,2.679,4.271c0.349,0.545,0.712,1.082,1.064,1.625
	c0.91,1.403,1.818,2.806,2.748,4.196c0.395,0.591,0.805,1.173,1.204,1.761c0.903,1.333,1.804,2.667,2.726,3.989
	c0.477,0.683,0.969,1.357,1.451,2.037c0.862,1.217,1.719,2.437,2.597,3.643c0.561,0.771,1.139,1.531,1.707,2.298
	c0.817,1.104,1.627,2.213,2.458,3.309c0.642,0.847,1.303,1.683,1.953,2.525c0.776,1.005,1.543,2.015,2.33,3.012
	c0.728,0.923,1.476,1.832,2.214,2.749c0.728,0.903,1.446,1.812,2.183,2.709c0.934,1.137,1.889,2.259,2.838,3.386
	c0.56,0.665,1.109,1.336,1.674,1.997c1.02,1.194,2.062,2.372,3.1,3.554c0.512,0.583,1.014,1.174,1.53,1.755
	c1.37,1.54,2.76,3.065,4.159,4.584c0.196,0.212,0.385,0.429,0.581,0.641c1.574,1.701,3.167,3.389,4.777,5.064
	c0.027,0.028,0.053,0.057,0.08,0.085c1.638,1.703,3.295,3.392,4.971,5.068s3.365,3.332,5.068,4.971
	c0.028,0.027,0.057,0.053,0.085,0.08c1.675,1.61,3.363,3.203,5.064,4.777c0.212,0.196,0.428,0.386,0.641,0.582
	c1.519,1.399,3.045,2.789,4.585,4.159c0.581,0.517,1.171,1.018,1.755,1.531c1.182,1.038,2.361,2.079,3.554,3.099
	c0.661,0.565,1.333,1.115,1.997,1.675c1.126,0.949,2.249,1.904,3.385,2.838c0.897,0.737,1.806,1.456,2.71,2.183
	c0.916,0.738,1.826,1.486,2.749,2.214c0.997,0.787,2.007,1.555,3.011,2.33c0.842,0.651,1.678,1.311,2.525,1.954
	c1.057,0.801,2.126,1.582,3.191,2.371c0.806,0.598,1.606,1.206,2.417,1.795c1.185,0.862,2.382,1.703,3.576,2.549
	c0.702,0.498,1.398,1.006,2.103,1.498c1.286,0.898,2.585,1.774,3.882,2.654c0.624,0.424,1.242,0.858,1.869,1.277
	c1.377,0.921,2.766,1.82,4.155,2.722c0.557,0.361,1.107,0.732,1.665,1.09c1.388,0.89,2.788,1.757,4.187,2.626
	c0.57,0.354,1.134,0.718,1.706,1.069c1.483,0.91,2.979,1.797,4.474,2.684c0.494,0.293,0.983,0.596,1.479,0.887
	c1.548,0.908,3.108,1.794,4.669,2.678c0.452,0.256,0.9,0.521,1.353,0.776c1.541,0.863,3.094,1.705,4.648,2.544
	c0.482,0.261,0.959,0.531,1.442,0.789c1.579,0.844,3.169,1.666,4.761,2.486c0.464,0.239,0.923,0.487,1.389,0.724
	c1.63,0.831,3.27,1.638,4.913,2.443c0.434,0.212,0.863,0.434,1.298,0.645c1.616,0.783,3.243,1.544,4.87,2.303
	c0.47,0.219,0.935,0.447,1.405,0.664c1.619,0.746,3.249,1.469,4.879,2.19c0.485,0.215,0.966,0.439,1.453,0.651
	c1.579,0.689,3.168,1.356,4.757,2.023c0.547,0.229,1.089,0.469,1.638,0.696c1.566,0.647,3.142,1.272,4.717,1.897
	c0.578,0.229,1.151,0.468,1.73,0.695c1.539,0.601,3.089,1.179,4.637,1.759c0.624,0.233,1.243,0.478,1.868,0.708
	c1.513,0.557,3.036,1.09,4.558,1.626c0.668,0.235,1.331,0.481,2,0.713c1.494,0.517,2.997,1.01,4.499,1.506
	c0.704,0.233,1.405,0.477,2.111,0.706c1.47,0.476,2.949,0.928,4.426,1.385c0.746,0.231,1.488,0.473,2.236,0.699
	c1.422,0.43,2.854,0.836,4.283,1.248c0.811,0.234,1.618,0.479,2.432,0.707c1.381,0.388,2.77,0.753,4.157,1.124
	c0.868,0.232,1.733,0.476,2.604,0.702c1.354,0.352,2.717,0.681,4.077,1.017c0.911,0.225,1.817,0.461,2.731,0.679
	c1.337,0.319,2.681,0.616,4.023,0.919c0.944,0.214,1.883,0.439,2.829,0.645c1.301,0.284,2.609,0.545,3.915,0.814
	c0.996,0.206,1.987,0.422,2.986,0.619c1.254,0.248,2.514,0.474,3.772,0.708c1.057,0.197,2.111,0.405,3.171,0.593
	c1.228,0.218,2.462,0.414,3.694,0.619c1.061,0.177,2.119,0.366,3.183,0.534c0.014,0.002,0.027,0.003,0.041,0.005
	c0.061,0.01,0.121,0.021,0.182,0.03c1.738,0.273,3.47,0.406,5.181,0.406c13.303-0.001,25.426-8.024,30.559-20.763L509.172,52.083
	c5.77-14.319,2.573-29.995-8.343-40.911C489.914,0.256,474.237-2.94,459.912,2.831z"/>
<g>
</g>
<g>
</g>
<g>
</g>
<g>
</g>
<g>
</g>
<g>
</g>
<g>
</g>
<g>
</g>
<g>
</g>
<g>
</g>
<g>
</g>
<g>
</g>
<g>
</g>
<g>
</g>
<g>
</g>
</svg>
