<?xml version="1.0" encoding="iso-8859-1"?>
<!-- Generator: Adobe Illustrator 19.0.0, SVG Export Plug-In . SVG Version: 6.00 Build 0)  -->
<svg version="1.1" id="Capa_1" xmlns="http://www.w3.org/2000/svg" xmlns:xlink="http://www.w3.org/1999/xlink" x="0px" y="0px"
	 viewBox="0 0 512 512" style="enable-background:new 0 0 512 512;" xml:space="preserve">
<path style="fill:#EBBF72;" d="M195.078,65.835c-3.174-0.632-6.454-0.969-9.814-0.969c-27.601,0-49.977,22.375-49.977,49.977
	s22.375,76.025,49.977,76.025c17.583,0,33.043-19.651,41.951-41.052c-19.269-19.702-32.382-55.273-32.382-78.648
	C194.832,69.37,194.926,67.594,195.078,65.835z"/>
<path style="fill:#CD5C63;" d="M278.503,155.483c8.569,19.688,22.918,37.36,39.178,37.36c26.247,0,47.525-46.048,47.525-72.296
	s-21.278-47.525-47.525-47.525c-0.182,0-0.361,0.011-0.542,0.014C316.401,98.928,300.612,138.167,278.503,155.483z"/>
<path style="fill:#F4DAAB;" d="M366.422,298.819c0-12.239-9.921-22.16-22.16-22.16H317.68H185.263h-17.525
	c-12.239,0-22.16,9.921-22.16,22.16V336.6h220.844V298.819z"/>
<path style="fill:#9A84B8;" d="M256,10c-31.984,0-58.218,24.552-60.922,55.835c-0.152,1.759-0.246,3.534-0.246,5.333
	c0,23.375,13.113,58.946,32.382,78.648c8.58,8.772,18.378,14.402,28.786,14.402c7.946,0,15.537-3.28,22.502-8.735
	c22.109-17.316,37.899-56.554,38.636-82.447c0.018-0.63,0.03-1.254,0.03-1.867C317.168,37.386,289.782,10,256,10z"/>
<path style="fill:#CE8570;" d="M414.311,364.102c0-15.189-12.313-27.501-27.501-27.501h-20.387H145.578h-20.387
	c-15.188,0-27.501,12.313-27.501,27.501v44.237h316.621V364.102z"/>
<path style="fill:#C7E1F0;" d="M489.209,408.339H414.31H97.69H22.791c-9.141,0-14.999,9.725-10.727,17.805l15.347,29.025
	l-15.347,29.025C7.792,492.275,13.65,502,22.791,502h466.418c9.141,0,14.999-9.725,10.727-17.805l-15.347-29.025l15.347-29.025
	C504.208,418.064,498.35,408.339,489.209,408.339z"/>
<path d="M508.168,409.052c-4.041-6.708-11.129-10.712-18.959-10.712h-64.898v-34.238c0-20.678-16.823-37.501-37.502-37.501h-10.387
	V298.82c0-17.733-14.427-32.16-32.16-32.16h-16.581v-65.366c11.875-3.699,23.068-13.935,32.25-29.73
	c9.422-16.206,15.274-35.754,15.274-51.017c0-28.625-21.018-52.426-48.43-56.799c-0.226-2.18-0.542-4.346-0.966-6.483
	c-1.074-5.417-6.337-8.937-11.754-7.865c-5.417,1.074-8.938,6.336-7.865,11.754c0.192,0.97,0.347,1.951,0.483,2.937
	c0.322,2.336,0.494,4.705,0.494,7.078c0,4.242-0.49,8.91-1.402,13.804c-3.275,17.581-12.002,38.072-23.107,52.179
	c-5.084,6.459-10.666,11.573-16.451,14.461c-3.354,1.674-6.776,2.606-10.208,2.606c-5.812,0-11.593-2.656-17.065-7.11
	c-5.575-4.538-10.829-10.943-15.466-18.335c-9.157-14.599-15.907-33.021-17.974-48.388c-0.434-3.228-0.663-6.322-0.663-9.217
	c0-4.295,0.539-8.466,1.54-12.456C211.95,36.499,232.082,20,256,20c2.648,0,5.308,0.203,7.904,0.605
	c5.449,0.848,10.566-2.896,11.411-8.354c0.844-5.458-2.896-10.566-8.354-11.411C263.357,0.282,259.668,0,256,0
	c-33.645,0-61.892,23.477-69.271,54.903c-0.489-0.012-0.974-0.037-1.466-0.037c-33.071,0-59.977,26.905-59.977,59.977
	c0,15.722,6.277,36.679,15.993,53.389c9.683,16.656,21.487,27.382,33.984,31.135v67.293h-7.525c-17.733,0-32.16,14.427-32.16,32.16
	v27.781h-10.387c-20.678,0-37.501,16.823-37.501,37.501v34.238H22.791c-7.831,0-14.918,4.005-18.959,10.712
	s-4.268,14.845-0.607,21.767L16.1,455.17L3.225,479.521c-3.661,6.922-3.434,15.06,0.607,21.767C7.872,507.995,14.96,512,22.791,512
	h466.418c7.831,0,14.918-4.005,18.959-10.712c4.041-6.708,4.268-14.845,0.608-21.767L495.9,455.169l12.876-24.352
	C512.436,423.896,512.209,415.759,508.168,409.052z M307.898,135.388c9.212-15.845,15.839-34.82,18.254-51.39
	c16.623,3.852,29.054,18.771,29.054,36.549c0,24.598-20.127,62.296-37.524,62.296c-7.864,0-17.195-7.975-24.961-21.331
	c-0.669-1.151-1.311-2.337-1.939-3.538C296.884,151.987,302.644,144.424,307.898,135.388z M266,172.921
	c2.842-0.734,5.659-1.78,8.439-3.126c0.329,0.591,0.653,1.186,0.991,1.768c9.182,15.795,20.375,26.031,32.251,29.73v65.366H266
	V172.921z M229.247,168.231c0.471-0.811,0.927-1.639,1.382-2.469c4.988,3.401,10.137,5.806,15.371,7.158v93.738h-50.737v-67.293
	C207.76,195.613,219.564,184.887,229.247,168.231z M158.57,158.18c-7.945-13.666-13.283-31.081-13.283-43.337
	c0-21.93,17.752-39.786,39.64-39.968c0.894,18.382,8.22,41.668,19.176,60.513c3.536,6.082,7.301,11.493,11.245,16.211
	c-7.712,15.907-18.949,29.269-30.084,29.269C176.808,180.867,166.829,172.386,158.57,158.18z M107.69,364.102
	c0-9.65,7.851-17.501,17.501-17.501h10.387H175c3.46,0,6.509-1.759,8.305-4.43c1.07-1.592,1.695-3.508,1.695-5.57
	c0-5.434-4.337-9.846-9.737-9.987c-0.088-0.002-0.174-0.013-0.263-0.013h-19.422V298.82c0-6.705,5.455-12.16,12.16-12.16h7.525h20
	H246h20h41.681h20h16.581c6.705,0,12.16,5.455,12.16,12.16v27.781h-28.741h-20H266h-11c-3.967,0-7.384,2.315-9,5.663
	c-0.634,1.313-1,2.781-1,4.337s0.366,3.023,1,4.337v1.233h0.695c1.795,2.671,4.844,4.43,8.305,4.43h121.422h10.387
	c9.65,0,17.502,7.851,17.502,17.501v34.238H107.69V364.102z M491.036,490.968c-0.283,0.471-0.831,1.032-1.827,1.032H22.791
	c-0.997,0-1.544-0.562-1.828-1.033c-0.283-0.471-0.524-1.217-0.058-2.098l15.347-29.025c1.546-2.924,1.546-6.424,0-9.348
	L20.905,421.47c-0.466-0.88-0.226-1.627,0.058-2.098s0.832-1.032,1.828-1.032H87.69h20h296.621h20h64.898
	c0.996,0,1.544,0.562,1.828,1.032c0.283,0.472,0.523,1.218,0.058,2.099l-15.346,29.025c-1.547,2.924-1.547,6.424,0,9.348
	l15.347,29.026C491.561,489.75,491.32,490.496,491.036,490.968z"/>
<path d="M220.55,328.29c-0.54-0.36-1.12-0.67-1.72-0.92c-0.61-0.25-1.24-0.44-1.88-0.57c-1.29-0.26-2.61-0.26-3.9,0
	c-0.64,0.13-1.27,0.32-1.87,0.57c-0.61,0.25-1.19,0.56-1.73,0.92c-0.55,0.359-1.06,0.779-1.52,1.24
	c-1.86,1.859-2.93,4.439-2.93,7.069c0,0.65,0.07,1.311,0.2,1.95c0.12,0.64,0.32,1.27,0.57,1.87c0.25,0.61,0.56,1.189,0.92,1.729
	c0.005,0.007,0.011,0.014,0.016,0.021c0.357,0.542,0.77,1.045,1.224,1.499c0.46,0.46,0.97,0.88,1.52,1.25
	c0.54,0.36,1.12,0.67,1.73,0.92c0.6,0.24,1.23,0.44,1.87,0.56c0.64,0.131,1.3,0.2,1.95,0.2s1.31-0.069,1.95-0.2
	c0.64-0.119,1.27-0.319,1.88-0.56c0.6-0.25,1.18-0.56,1.72-0.92c0.55-0.37,1.06-0.79,1.52-1.25c0.454-0.454,0.867-0.957,1.224-1.499
	c0.005-0.007,0.011-0.014,0.016-0.021c0.36-0.54,0.67-1.119,0.92-1.729c0.25-0.601,0.45-1.23,0.57-1.87c0.13-0.64,0.2-1.3,0.2-1.95
	c0-2.63-1.07-5.21-2.93-7.069C221.61,329.069,221.1,328.649,220.55,328.29z"/>
<path d="M308.609,23.439c-0.359-0.55-0.779-1.06-1.239-1.52s-0.971-0.88-1.521-1.25c-0.54-0.36-1.12-0.67-1.729-0.92
	c-0.601-0.25-1.23-0.44-1.87-0.57c-1.29-0.26-2.62-0.26-3.91,0c-0.63,0.13-1.26,0.32-1.87,0.57c-0.6,0.25-1.18,0.56-1.72,0.92
	c-0.55,0.37-1.061,0.79-1.521,1.25s-0.88,0.97-1.25,1.52c-0.359,0.54-0.67,1.12-0.92,1.721c-0.25,0.609-0.439,1.239-0.569,1.87
	c-0.131,0.649-0.19,1.31-0.19,1.96c0,0.649,0.06,1.31,0.19,1.949c0.13,0.641,0.319,1.271,0.569,1.87c0.25,0.61,0.561,1.19,0.92,1.73
	c0.37,0.55,0.79,1.06,1.25,1.52s0.971,0.88,1.521,1.24c0.54,0.36,1.12,0.67,1.72,0.92c0.61,0.25,1.24,0.44,1.87,0.57
	c0.65,0.13,1.31,0.2,1.96,0.2s1.31-0.07,1.95-0.2s1.27-0.32,1.87-0.57c0.609-0.25,1.189-0.56,1.729-0.92
	c0.55-0.36,1.061-0.78,1.521-1.24s0.88-0.97,1.239-1.52c0.36-0.54,0.671-1.12,0.921-1.73c0.25-0.6,0.439-1.229,0.569-1.87
	c0.13-0.64,0.2-1.3,0.2-1.949c0-0.65-0.07-1.311-0.2-1.96c-0.13-0.631-0.319-1.261-0.569-1.87
	C309.28,24.56,308.97,23.979,308.609,23.439z"/>
<g>
</g>
<g>
</g>
<g>
</g>
<g>
</g>
<g>
</g>
<g>
</g>
<g>
</g>
<g>
</g>
<g>
</g>
<g>
</g>
<g>
</g>
<g>
</g>
<g>
</g>
<g>
</g>
<g>
</g>
</svg>
