<?xml version="1.0" encoding="iso-8859-1"?>
<!-- Generator: Adobe Illustrator 19.0.0, SVG Export Plug-In . SVG Version: 6.00 Build 0)  -->
<svg version="1.1" id="Capa_1" xmlns="http://www.w3.org/2000/svg" xmlns:xlink="http://www.w3.org/1999/xlink" x="0px" y="0px"
	 viewBox="0 0 511.999 511.999" style="enable-background:new 0 0 511.999 511.999;" xml:space="preserve">
<g>
	<path style="fill:#9A84B8;" d="M64.891,60.122c2.031-1.017,4.106-1.965,6.223-2.848C68.997,58.156,66.922,59.106,64.891,60.122z"/>
	<path style="fill:#9A84B8;" d="M108.434,205.389c-3.683,2.087-7.745,3.651-12.107,4.571
		C100.69,209.04,104.752,207.477,108.434,205.389z"/>
	<path style="fill:#9A84B8;" d="M133.639,447.245l11.8,15.153c27.31,35.069,73.523,46.89,113.182,32.087
		c-6.287-6.475-48.452-51.033-89.907-122.925l0.711-0.534l-23.788,17.868c-42.252-48.847-69.579-108.809-78.725-172.728
		l29.415-6.204C66.576,125.907,61.629,61.833,61.629,61.83C24.702,82.069,3.433,124.461,11.838,167.905l1.852,9.573
		c3.578,18.497,6.823,37.063,9.276,55.742c8.471,64.525,34.2,123.628,76.617,172.794
		C111.229,419.514,122.684,433.177,133.639,447.245z"/>
	<path style="fill:#9A84B8;" d="M265.075,491.812c-2.126,0.969-4.276,1.859-6.445,2.669
		C260.8,493.671,262.949,492.782,265.075,491.812z"/>
</g>
<path style="fill:#EBBF72;" d="M449.514,11.251H233.529c-28.987,0-52.486,23.499-52.486,52.486v150.605v23.236v32.976
	c0,19.655,23.442,29.849,37.818,16.447l20.836-19.425c20.68-19.279,47.9-29.999,76.172-29.999h133.645
	c28.987,0,52.486-23.499,52.486-52.486V63.737C502,34.75,478.501,11.251,449.514,11.251z M410.812,186.951
	c0,3.424-2.26,6.437-5.547,7.395l-9.31,2.714c-35.544,10.362-73.312,10.332-108.839-0.087l-8.939-2.622
	c-3.281-0.962-5.535-3.972-5.535-7.392v-33.623c0-25.852,19.123-47.229,43.993-50.781c-4.973-6.168-7.956-14.007-7.956-22.546
	c0-19.857,16.097-35.953,35.953-35.953s35.953,16.097,35.953,35.953c0,8.994-3.311,17.211-8.77,23.516
	c22.389,5.516,38.998,25.72,38.998,49.812v33.614H410.812z"/>
<path style="fill:#C7E1F0;" d="M371.814,103.527c5.459-6.305,8.77-14.521,8.77-23.516c0-19.857-16.097-35.953-35.953-35.953
	c-19.856,0-35.953,16.097-35.953,35.953c0,8.54,2.983,16.379,7.956,22.546c-24.87,3.552-43.993,24.929-43.993,50.781v33.623
	c0,3.419,2.254,6.429,5.535,7.392l8.939,2.622c35.528,10.419,73.295,10.449,108.839,0.087l9.31-2.714
	c3.287-0.958,5.547-3.971,5.547-7.395V153.34C410.812,129.246,394.204,109.042,371.814,103.527z"/>
<g>
	<path style="fill:#F4DAAB;" d="M108.434,205.389c0.526-0.298,1.044-0.607,1.555-0.926c1.75-1.094,3.406-2.31,4.959-3.633
		c4.142-3.528,7.553-7.819,10.058-12.606c3.131-5.983,4.845-12.739,4.803-19.746c-0.017-2.803-0.315-5.645-0.916-8.494
		l-20.102-95.307c-1.91-9.057-10.801-14.851-19.858-12.941l0,0c-0.003,0.001-0.006,0.002-0.01,0.002
		c-1.088,0.229-2.165,0.482-3.236,0.746c-0.272,0.067-0.542,0.135-0.813,0.204c-1.027,0.261-2.049,0.533-3.061,0.825
		c-0.043,0.012-0.086,0.023-0.129,0.036c-1.075,0.312-2.139,0.645-3.196,0.99c-0.216,0.071-0.431,0.143-0.647,0.215
		c-1.024,0.342-2.042,0.696-3.048,1.069c-0.023,0.009-0.046,0.016-0.069,0.025c-1.073,0.399-2.134,0.818-3.187,1.251
		c-0.142,0.058-0.283,0.118-0.425,0.177c-2.116,0.882-4.192,1.831-6.223,2.848c-0.079,0.04-0.157,0.08-0.235,0.12
		c-1.018,0.513-2.027,1.041-3.023,1.586c-0.001,0.001-0.003,0.001-0.004,0.002c0,0.002,4.947,64.077,34.698,148.13
		C100.69,209.04,104.752,207.477,108.434,205.389z"/>
	<path style="fill:#F4DAAB;" d="M258.621,494.484L258.621,494.484c0.003-0.001,0.006-0.002,0.009-0.003
		c2.169-0.81,4.319-1.7,6.445-2.669c0.027-0.012,0.054-0.025,0.081-0.038c1.043-0.477,2.079-0.972,3.11-1.487
		c0.015-0.007,0.029-0.014,0.044-0.021c1.03-0.515,2.054-1.051,3.071-1.605c0.073-0.04,0.145-0.082,0.218-0.121
		c0.895-0.491,1.785-0.999,2.669-1.52c0.156-0.092,0.313-0.183,0.469-0.276c0.946-0.564,1.887-1.144,2.819-1.743
		c0.09-0.058,0.179-0.119,0.269-0.177c0.818-0.529,1.63-1.075,2.438-1.632c0.227-0.156,0.454-0.313,0.68-0.472
		c0.89-0.624,1.775-1.259,2.65-1.916l0.003-0.002l0.049-0.036c7.401-5.559,8.894-16.066,3.335-23.467l-58.498-77.881
		c-4.372-5.821-9.96-10.189-16.145-13.018c-0.619-0.283-1.243-0.551-1.873-0.802c-1.26-0.504-2.541-0.946-3.838-1.325
		c-1.298-0.379-2.612-0.696-3.937-0.949c-1.326-0.253-2.663-0.444-4.007-0.57c-1.344-0.126-2.694-0.188-4.046-0.185
		c-0.676,0.001-1.352,0.019-2.029,0.053c-8.114,0.407-16.198,3.157-23.182,8.404l-0.711,0.534
		C210.169,443.452,252.334,488.009,258.621,494.484z"/>
</g>
<path d="M3.872,179.378c4.116,21.276,7.033,38.799,9.179,55.144c3.776,28.763,10.942,56.63,21.299,82.825
	c8.329,21.065,18.833,41.313,31.221,60.178c7.972,12.142,16.868,23.925,26.44,35.021c13.54,15.695,24.261,28.673,33.738,40.842
	l11.8,15.153c17.737,22.776,43.265,37.42,71.881,41.233c4.894,0.651,9.783,0.975,14.642,0.975c13.011,0,25.798-2.337,37.876-6.841
	c0.056-0.02,0.114-0.034,0.17-0.055c0.17-0.063,0.337-0.135,0.507-0.2c0.767-0.291,1.53-0.593,2.289-0.902
	c0.302-0.123,0.606-0.243,0.907-0.369c1.031-0.431,2.058-0.873,3.076-1.332c0.237-0.107,0.474-0.211,0.71-0.32
	c0.865-0.398,1.721-0.814,2.574-1.234c0.447-0.22,0.893-0.443,1.338-0.669c0.7-0.357,1.396-0.723,2.088-1.095
	c0.618-0.332,1.23-0.672,1.841-1.016c0.548-0.308,1.095-0.618,1.638-0.935c0.786-0.46,1.563-0.935,2.338-1.415
	c0.388-0.24,0.779-0.476,1.164-0.721c0.995-0.633,1.978-1.286,2.952-1.952c0.184-0.126,0.373-0.246,0.556-0.373
	c1.156-0.801,2.3-1.619,3.424-2.464c0.024-0.018,0.088-0.065,0.12-0.089c0.004-0.003,0.008-0.005,0.012-0.008
	c4.055-3.046,6.999-7.032,8.756-11.429c0.319-0.8,0.6-1.613,0.84-2.437c2.165-7.413,1.116-15.676-3.474-22.481
	c-0.255-0.378-0.521-0.751-0.798-1.12l-58.498-77.881c-7.847-10.448-19.069-17.443-31.811-19.893
	c-0.849-0.163-1.706-0.306-2.568-0.429c-11.303-1.61-22.562,0.475-32.391,5.881c-2.17,1.194-4.273,2.544-6.289,4.058L147.2,375.212
	c-35.686-43.697-59.359-95.632-68.933-151.222l20.124-4.244c13.637-2.877,25.338-10.891,32.948-22.569
	c3.745-5.748,6.278-12.043,7.542-18.582c0.181-0.934,0.335-1.873,0.464-2.816c0.343-2.515,0.501-5.058,0.47-7.614
	c-0.041-3.407-0.418-6.836-1.137-10.245l-20.102-95.308c-0.094-0.447-0.2-0.889-0.315-1.328c-0.016-0.06-0.035-0.119-0.052-0.179
	c-0.103-0.381-0.212-0.76-0.331-1.135c-0.004-0.013-0.009-0.026-0.013-0.039c-1.869-5.841-5.654-10.824-10.863-14.218
	c-5.545-3.613-12.088-5.022-18.579-4.039c-0.072,0.011-0.143,0.018-0.215,0.029c-0.255,0.041-0.509,0.093-0.764,0.141
	c-0.192,0.036-0.383,0.065-0.575,0.106c-1.202,0.253-2.394,0.533-3.582,0.825c-0.231,0.057-0.462,0.114-0.693,0.173
	c-2.46,0.622-4.895,1.323-7.299,2.11c-0.059,0.019-0.118,0.039-0.177,0.058c-1.556,0.511-3.094,1.062-4.618,1.639
	c-0.202,0.076-0.4,0.162-0.601,0.24c-1.33,0.514-2.653,1.047-3.962,1.613c-0.21,0.091-0.417,0.189-0.626,0.281
	c-1.306,0.574-2.603,1.168-3.886,1.794c-0.171,0.083-0.341,0.171-0.512,0.256c-1.329,0.657-2.648,1.337-3.95,2.048
	c-0.046,0.025-0.094,0.048-0.141,0.073c-0.018,0.01-0.034,0.023-0.052,0.033c-15.354,8.408-28.554,20.444-38.492,35.419
	C2.308,112.578-3.466,141.448,2.02,169.804L3.872,179.378z M182.457,375.003c0.554-0.23,1.114-0.441,1.679-0.639
	c0.169-0.059,0.34-0.116,0.51-0.172c0.488-0.162,0.979-0.312,1.474-0.45c0.136-0.038,0.271-0.08,0.408-0.116
	c0.625-0.166,1.255-0.313,1.89-0.44c0.105-0.021,0.21-0.037,0.315-0.057c0.537-0.102,1.077-0.189,1.62-0.263
	c0.169-0.023,0.339-0.045,0.509-0.066c0.565-0.068,1.132-0.122,1.702-0.16c0.083-0.005,0.165-0.015,0.248-0.02
	c0.651-0.038,1.305-0.053,1.961-0.052c0.154,0,0.308,0.006,0.462,0.009c0.514,0.009,1.029,0.03,1.544,0.063
	c0.18,0.011,0.359,0.022,0.539,0.037c0.655,0.053,1.31,0.119,1.966,0.212c0.532,0.076,1.06,0.164,1.584,0.265
	c0.491,0.094,0.979,0.2,1.462,0.316c7.253,1.743,13.619,5.913,18.156,11.953l58.498,77.88c2.239,2.98,1.635,7.227-1.397,9.505
	c-1.184,0.889-2.384,1.742-3.598,2.562c-0.039,0.026-0.078,0.055-0.117,0.081c-4.094,2.759-8.361,5.112-12.74,7.107
	c-12.375-13.467-45.462-51.532-78.785-107.513C182.384,375.031,182.421,375.019,182.457,375.003z M82.283,63.826
	c0.018-0.006,0.036-0.011,0.054-0.017c0.658-0.21,1.321-0.412,1.987-0.607c0.188-0.055,0.377-0.106,0.565-0.16
	c0.526-0.15,1.053-0.299,1.583-0.44c0.367-0.097,0.735-0.188,1.103-0.281c0.374-0.094,0.747-0.192,1.124-0.282
	c0.763-0.182,1.529-0.355,2.298-0.518c0.231-0.049,0.461-0.085,0.69-0.109c0.038-0.004,0.077-0.004,0.115-0.007
	c0.195-0.017,0.39-0.03,0.584-0.03c0.007,0,0.015,0.001,0.022,0.001c0.764,0.002,1.508,0.135,2.208,0.38
	c0.022,0.008,0.043,0.015,0.065,0.022c0.337,0.122,0.663,0.27,0.976,0.443c0.023,0.013,0.046,0.027,0.07,0.041
	c0.281,0.16,0.545,0.346,0.801,0.543c0.045,0.035,0.093,0.067,0.137,0.103c0.267,0.218,0.521,0.453,0.753,0.71
	c0.014,0.016,0.029,0.031,0.043,0.046c0.235,0.265,0.448,0.551,0.64,0.854c0.02,0.032,0.04,0.064,0.06,0.097
	c0.184,0.3,0.347,0.616,0.483,0.948c0.014,0.034,0.025,0.07,0.039,0.104c0.135,0.343,0.248,0.699,0.327,1.072l20.102,95.308
	c0.113,0.538,0.212,1.075,0.297,1.612c0.014,0.085,0.022,0.169,0.034,0.254c0.069,0.46,0.134,0.92,0.183,1.379
	c0.002,0.015,0.002,0.031,0.004,0.047c0.082,0.779,0.132,1.555,0.157,2.328c0.001,0.039,0.004,0.079,0.005,0.118
	c0.022,0.714,0.01,1.426-0.016,2.137c-0.013,0.349-0.04,0.695-0.065,1.041c-0.024,0.343-0.051,0.687-0.086,1.029
	c-0.045,0.431-0.096,0.86-0.158,1.286c-0.03,0.212-0.067,0.422-0.102,0.634c-0.389,2.345-1.028,4.626-1.909,6.801
	c-0.009,0.022-0.018,0.045-0.027,0.067c-0.908,2.226-2.064,4.339-3.435,6.305c-0.097,0.139-0.196,0.276-0.295,0.413
	c-0.913,1.267-1.922,2.465-3.012,3.59c-0.261,0.268-0.523,0.534-0.792,0.791c-0.248,0.239-0.498,0.476-0.754,0.707
	c-0.55,0.494-1.107,0.979-1.688,1.433c-0.056,0.044-0.113,0.088-0.169,0.132c-0.527,0.408-1.07,0.798-1.624,1.174
	c-0.09,0.061-0.177,0.124-0.267,0.184c-0.622,0.413-1.259,0.809-1.913,1.18c-0.104,0.059-0.208,0.118-0.312,0.175
	c-0.22,0.121-0.444,0.235-0.667,0.352C81.523,135.153,74.324,85.148,72.29,67.707C75.512,66.226,78.845,64.925,82.283,63.826z
	 M53.575,79.33c3.166,23.116,11.088,68.169,29.605,123.184l-18.332,3.866c-5.154,1.088-8.581,5.987-7.835,11.201
	c9.437,65.955,37.467,127.455,81.061,177.854c3.437,3.975,9.367,4.609,13.569,1.454l14.126-10.61
	c29.53,49.463,58.393,84.807,74.336,102.846c-31.79,5.735-65.755-5.878-86.776-32.871L141.528,441.1
	c-9.688-12.439-20.61-25.664-34.374-41.617c-9.005-10.437-17.37-21.517-24.866-32.934c-11.641-17.728-21.512-36.755-29.34-56.555
	c-9.754-24.67-16.506-50.938-20.068-78.076c-2.2-16.756-5.178-34.657-9.373-56.34l-1.852-9.574
	C15.19,132.584,28.596,99.525,53.575,79.33z"/>
<path d="M449.514,1.251H233.529c-34.455,0-62.486,28.031-62.486,62.485v206.817c0,13.136,7.483,24.55,19.529,29.789
	c4.271,1.857,8.717,2.767,13.108,2.767c7.993-0.001,15.798-3.013,22-8.795l20.836-19.424c18.893-17.613,43.523-27.313,69.354-27.313
	h85.133c5.523,0,10-4.477,10-10c0-5.522-4.477-10-10-10H315.87c-30.91,0-60.383,11.607-82.991,32.684l-20.836,19.424
	c-3.749,3.495-8.794,4.36-13.494,2.317c-4.7-2.045-7.506-6.325-7.506-11.45V63.736c0-23.426,19.059-42.485,42.486-42.485h215.985
	C472.941,21.251,492,40.31,492,63.736v121.355c0,7.248-1.853,14.397-5.36,20.676c-2.53,4.531-5.833,8.525-9.818,11.872
	c-4.228,3.553-4.777,9.86-1.225,14.089c3.551,4.229,9.858,4.778,14.089,1.226c5.848-4.912,10.698-10.778,14.415-17.434
	c5.167-9.253,7.898-19.775,7.898-30.428V63.736C512,29.282,483.969,1.251,449.514,1.251z"/>
<path d="M262.641,153.338v33.623c0,7.804,5.23,14.789,12.722,16.987l8.939,2.621c18.767,5.504,38.074,8.256,57.382,8.256
	c19.2,0,38.4-2.722,57.071-8.164l9.308-2.715c7.507-2.187,12.749-9.177,12.749-16.995v-33.614c0-24.033-13.908-44.869-34.091-54.914
	c2.478-5.641,3.863-11.867,3.863-18.413c0-25.338-20.614-45.953-45.953-45.953s-45.953,20.615-45.953,45.953
	c0,5.714,1.057,11.184,2.972,16.236C278.842,105.187,262.641,127.399,262.641,153.338z M344.631,54.057
	c14.311,0,25.954,11.642,25.954,25.954c0,4.545-1.178,8.819-3.239,12.538c-4.429,7.992-12.949,13.415-22.714,13.415
	c-9.952,0-18.609-5.633-22.962-13.876c-1.906-3.61-2.992-7.718-2.992-12.077C318.677,65.699,330.32,54.057,344.631,54.057z
	 M282.641,153.338c0-19.05,12.966-35.122,30.534-39.874c8.228,7.742,19.294,12.5,31.456,12.5c11.408,0,21.85-4.188,29.893-11.095
	c15.37,6.023,26.289,20.99,26.289,38.469v31.89l-7.656,2.232c-33.774,9.846-69.468,9.818-103.227-0.082l-7.288-2.138v-31.902
	H282.641z"/>
<path d="M435.692,243.124c0.36,0.55,0.78,1.06,1.24,1.519c0.46,0.46,0.97,0.881,1.52,1.25c0.54,0.36,1.12,0.67,1.72,0.92
	c0.61,0.25,1.24,0.44,1.88,0.57s1.3,0.19,1.95,0.19c0.65,0,1.31-0.061,1.95-0.19c0.64-0.13,1.27-0.32,1.87-0.57
	c0.61-0.25,1.19-0.56,1.73-0.92c0.55-0.369,1.06-0.79,1.52-1.25s0.88-0.97,1.24-1.519c0.37-0.54,0.67-1.12,0.92-1.72
	c0.25-0.61,0.45-1.24,0.58-1.87c0.13-0.65,0.19-1.311,0.19-1.96c0-0.65-0.06-1.311-0.19-1.95c-0.13-0.64-0.33-1.27-0.58-1.87
	c-0.25-0.61-0.55-1.19-0.92-1.729c-0.36-0.551-0.78-1.061-1.24-1.52c-0.46-0.46-0.97-0.88-1.52-1.24
	c-0.54-0.359-1.12-0.67-1.73-0.92c-0.6-0.25-1.23-0.439-1.87-0.569c-1.29-0.261-2.61-0.261-3.9,0c-0.64,0.13-1.27,0.319-1.88,0.569
	c-0.6,0.25-1.18,0.561-1.72,0.92c-0.55,0.36-1.06,0.78-1.52,1.24s-0.88,0.97-1.24,1.52c-0.36,0.539-0.67,1.119-0.92,1.729
	c-0.25,0.6-0.45,1.23-0.57,1.87c-0.13,0.64-0.2,1.3-0.2,1.95c0,0.649,0.07,1.31,0.2,1.96c0.13,0.63,0.32,1.26,0.57,1.87
	C435.022,242.004,435.331,242.584,435.692,243.124z"/>
<g>
</g>
<g>
</g>
<g>
</g>
<g>
</g>
<g>
</g>
<g>
</g>
<g>
</g>
<g>
</g>
<g>
</g>
<g>
</g>
<g>
</g>
<g>
</g>
<g>
</g>
<g>
</g>
<g>
</g>
</svg>
