<?xml version="1.0" encoding="iso-8859-1"?>
<!-- Generator: Adobe Illustrator 19.0.0, SVG Export Plug-In . SVG Version: 6.00 Build 0)  -->
<svg version="1.1" id="Capa_1" xmlns="http://www.w3.org/2000/svg" xmlns:xlink="http://www.w3.org/1999/xlink" x="0px" y="0px"
	 viewBox="0 0 512 512" style="enable-background:new 0 0 512 512;" xml:space="preserve">
<path style="fill:#CD5C63;" d="M316.162,469.797V249.24c-3.725,2.093-8.021,3.292-12.598,3.292l0,0
	c-14.229,0-25.764-11.535-25.764-25.764v-10.439c0-13.682-11.091-24.773-24.773-24.773l0,0c-13.682,0-24.773,11.091-24.773,24.773
	v40.697c0,12.587-10.204,22.791-22.791,22.791l0,0c-3.441,0-6.701-0.767-9.625-2.132v192.112L316.162,469.797L316.162,469.797z"/>
<path style="fill:#E2A546;" d="M233.694,103.015c12.319,12.319,32.292,12.319,44.612,0l0,0c9.591-9.591,11.977-24.24,5.926-36.379
	L256,10l-28.232,56.637C221.717,78.776,224.103,93.424,233.694,103.015L233.694,103.015z"/>
<path style="fill:#F4DAAB;" d="M205.464,279.817c12.587,0,22.791-10.204,22.791-22.791v-40.697
	c0-13.682,11.091-24.773,24.773-24.773l0,0c13.682,0,24.773,11.091,24.773,24.773v10.439c0,14.229,11.535,25.764,25.764,25.764l0,0
	c4.577,0,8.873-1.199,12.598-3.292c7.855-4.413,13.166-12.82,13.166-22.472v-58.171c0-17.533-14.214-31.747-31.747-31.747H275.82
	h-47.564h-13.835c-17.533,0-31.747,14.214-31.747,31.747v88.429c0,9.147,5.391,17.03,13.166,20.659
	C198.763,279.05,202.023,279.817,205.464,279.817L205.464,279.817z"/>
<path style="fill:#C7E1F0;" d="M187.995,469.797c-9.507,0-17.213,7.707-17.213,17.213V502h170.437v-14.99
	c0-9.507-7.707-17.213-17.213-17.213h-7.843H195.838H187.995z"/>
<path d="M160.782,487.01V492H137.09c-5.523,0-10,4.478-10,10s4.477,10,10,10h33.691h170.437h33.691c5.523,0,10-4.478,10-10
	s-4.477-10-10-10h-23.691v-4.99c0-14.278-11.057-26.016-25.057-27.12V254.464c8.029-6.564,13.166-16.54,13.166-27.695v-58.172
	c0-23.02-18.728-41.747-41.747-41.747H266v-5.803c7.273-1.789,13.945-5.528,19.377-10.96c12.648-12.649,15.785-31.903,7.805-47.911
	L264.951,5.539C263.258,2.145,259.792,0,256,0s-7.258,2.145-8.95,5.539l-28.232,56.636c-7.98,16.009-4.844,35.263,7.805,47.912
	c5.432,5.432,12.104,9.171,19.377,10.96v5.803h-31.581c-23.02,0-41.747,18.728-41.747,41.747v88.43
	c0,10.728,5.178,20.268,13.166,26.254v176.61C171.838,460.994,160.782,472.731,160.782,487.01z M240.766,95.944
	c-6.56-6.56-8.187-16.545-4.048-24.847L256,32.415l19.282,38.684c4.139,8.301,2.512,18.286-4.048,24.846
	c-1.564,1.564-3.33,2.852-5.234,3.853v-2.831c0-5.522-4.477-10-10-10s-10,4.478-10,10v2.831
	C244.096,98.796,242.33,97.509,240.766,95.944z M192.672,168.597c0-11.991,9.756-21.747,21.747-21.747H246h20h31.581
	c11.991,0,21.747,9.756,21.747,21.747v58.172c0,7.806-5.708,14.286-13.166,15.531c-0.847,0.142-1.711,0.233-2.598,0.233
	c-8.692,0-15.764-7.071-15.764-15.764V216.33c0-19.174-15.599-34.772-34.773-34.772s-34.773,15.599-34.773,34.772v40.697
	c0,6.926-5.537,12.571-12.416,12.772c-0.126,0.004-0.248,0.019-0.375,0.019c-7.053,0-12.791-5.738-12.791-12.791V168.597z
	 M303.564,262.532c0.874,0,1.739-0.042,2.598-0.104v197.369H205.838V289.808c17.908-0.203,32.416-14.826,32.416-32.781V216.33
	c0-8.146,6.627-14.772,14.773-14.772c8.146,0,14.773,6.627,14.773,14.772v10.439C267.8,246.488,283.844,262.532,303.564,262.532z
	 M187.995,479.797h7.844h120.323h7.844c3.977,0,7.213,3.235,7.213,7.213V492H180.782v-4.99
	C180.782,483.032,184.018,479.797,187.995,479.797z"/>
<path d="M285.564,390.366c5.523,0,10-4.478,10-10v-93.813c0-5.522-4.477-10-10-10s-10,4.478-10,10v93.813
	C275.564,385.889,280.042,390.366,285.564,390.366z"/>
<path d="M276.33,423.83c0.25,0.6,0.56,1.18,0.92,1.72c0.36,0.55,0.78,1.06,1.24,1.52c1.87,1.87,4.44,2.931,7.07,2.931
	c2.64,0,5.21-1.061,7.08-2.931c0.46-0.46,0.87-0.97,1.24-1.52c0.36-0.54,0.67-1.12,0.92-1.72c0.25-0.61,0.44-1.24,0.57-1.87
	c0.13-0.65,0.2-1.311,0.2-1.96c0-2.63-1.07-5.21-2.93-7.07c-2.33-2.32-5.78-3.39-9.03-2.729c-0.64,0.13-1.27,0.319-1.87,0.569
	s-1.18,0.561-1.73,0.92c-0.54,0.36-1.06,0.78-1.52,1.24c-1.86,1.86-2.93,4.44-2.93,7.07c0,0.649,0.07,1.31,0.2,1.96
	C275.891,422.59,276.08,423.22,276.33,423.83z"/>
<g>
</g>
<g>
</g>
<g>
</g>
<g>
</g>
<g>
</g>
<g>
</g>
<g>
</g>
<g>
</g>
<g>
</g>
<g>
</g>
<g>
</g>
<g>
</g>
<g>
</g>
<g>
</g>
<g>
</g>
</svg>
