<?xml version="1.0" encoding="iso-8859-1"?>
<!-- Generator: Adobe Illustrator 19.0.0, SVG Export Plug-In . SVG Version: 6.00 Build 0)  -->
<svg version="1.1" id="Capa_1" xmlns="http://www.w3.org/2000/svg" xmlns:xlink="http://www.w3.org/1999/xlink" x="0px" y="0px"
	 viewBox="0 0 511.999 511.999" style="enable-background:new 0 0 511.999 511.999;" xml:space="preserve">
<path style="fill:#ECC6AD;" d="M256.688,281.521L256.688,281.521c-6.609,0-12.733,3.447-16.155,9.101
	c-18.115,29.931-73.196,125.214-60.398,157.039c7.631,18.976,41.74,3.926,75.849,3.926s68.218,15.05,75.849-3.926
	c12.779-31.777-41.053-126.818-58.907-156.902C269.523,285.027,263.354,281.521,256.688,281.521z"/>
<path style="fill:#66B6E0;" d="M225.459,231.919v34.826c19.432-10.227,41.65-10.227,61.082,0v-34.826
	C267.109,221.692,244.891,221.692,225.459,231.919z"/>
<g>
	<path style="fill:#C7E1F0;" d="M17.176,246.678L99.031,63.909c8.853-19.767,27.921-32.36,48.76-33.462
		c8.276-0.438,16.061,3.952,19.965,11.264l0.948,1.776c5.508,10.318,0.78,23.132-10.11,27.399l0,0
		c-12.752,4.996-23.022,14.816-28.584,27.332L70.078,233.073L17.176,246.678z"/>
	<path style="fill:#C7E1F0;" d="M499.496,246.678L417.642,63.909c-8.853-19.767-27.921-32.36-48.76-33.462
		c-8.276-0.438-16.061,3.952-19.965,11.264l-0.948,1.776c-5.508,10.318-0.78,23.132,10.11,27.399l0,0
		c12.752,4.996,23.022,14.816,28.584,27.332l59.931,134.855L499.496,246.678z"/>
</g>
<g>
	<circle style="fill:#9A84B8;" cx="117.73" cy="260.349" r="107.73"/>
	<circle style="fill:#9A84B8;" cx="394.27" cy="260.349" r="107.73"/>
</g>
<path d="M480.92,180.734L426.769,59.822c-10.279-22.951-32.258-38.033-57.357-39.36c-12.088-0.615-23.61,5.852-29.313,16.539
	l-0.949,1.776c-3.97,7.435-4.572,16.233-1.655,24.14s9.091,14.205,16.939,17.28c10.369,4.063,18.57,11.905,23.093,22.083
	l17.932,40.35c-0.396-0.004-0.79-0.015-1.187-0.015c-50.621,0-93.879,32.115-110.478,77.041c-18.006-7.21-37.584-7.209-55.589,0.002
	c-16.219-43.894-57.885-75.559-107.005-76.988l17.95-40.391c4.521-10.177,12.723-18.019,23.094-22.082
	c7.848-3.075,14.021-9.373,16.938-17.28c2.917-7.906,2.314-16.705-1.656-24.141l-0.947-1.774
	c-5.706-10.689-17.209-17.196-29.314-16.54c-25.101,1.327-47.078,16.409-57.357,39.359l-50.47,112.681
	C15.255,194.079,0,225.462,0,260.345c0,64.916,52.813,117.729,117.729,117.729c31.198,0,59.598-12.199,80.684-32.076
	c-2.778,5.556-5.515,11.219-8.137,16.905c-3.997,8.667-7.501,16.898-10.413,24.466c-4.178,10.857-7.267,20.681-9.18,29.198
	c-3.335,14.849-3.278,26.24,0.174,34.824c8.026,19.965,31.134,16.565,53.476,13.285c10.335-1.52,21.021-3.09,31.651-3.09
	s21.315,1.57,31.65,3.09c8.465,1.244,17.038,2.504,24.86,2.504c12.825,0,23.629-3.388,28.616-15.788
	c6.614-16.45,0.688-44.876-18.117-86.901c-2.597-5.803-5.318-11.592-8.088-17.276c20.945,19.155,48.811,30.86,79.365,30.86
	c64.916,0,117.729-52.813,117.729-117.729C512,229.674,500.206,201.708,480.92,180.734z M361.729,61.576
	c-2.572-1.008-4.516-2.99-5.472-5.582s-0.767-5.36,0.533-7.796l0.95-1.777c2.064-3.868,6.226-6.225,10.613-5.986
	c17.575,0.929,32.964,11.49,40.161,27.563l39.164,87.446c-9.123-4.664-18.931-8.168-29.229-10.327l-22.646-50.959
	C389.129,79.141,377.027,67.57,361.729,61.576z M235.459,238.293c13.303-5.357,27.779-5.357,41.082,0v13.688
	c-6.743-1.943-13.642-2.915-20.541-2.915s-13.798,0.972-20.541,2.915V238.293z M277.274,273.447
	c0.299,2.687,0.691,5.346,1.168,7.976c-5.429-6.199-13.373-9.902-21.753-9.902c-9.354,0-18.205,4.63-23.575,12.203
	c0.683-3.376,1.226-6.803,1.613-10.277C248.475,267.686,263.525,267.686,277.274,273.447z M70.257,152.622l37.901-84.626
	c7.197-16.071,22.586-26.633,40.161-27.562c0.199-0.011,0.396-0.016,0.595-0.016c4.161,0,8.048,2.309,10.021,6.004l0.947,1.774
	c1.301,2.437,1.49,5.205,0.534,7.797s-2.899,4.574-5.471,5.582c-15.302,5.994-27.403,17.565-34.075,32.581l-22.226,50.013
	c-9.934,1.626-19.452,4.499-28.391,8.454C70.254,152.623,70.256,152.623,70.257,152.622z M117.729,358.075
	c-53.888,0-97.729-43.841-97.729-97.73s43.841-97.73,97.729-97.73s97.729,43.842,97.729,97.73S171.618,358.075,117.729,358.075z
	 M322.555,443.93c-0.441,1.097-1.107,2.756-6.983,3.213c-6.326,0.492-15.413-0.841-25.028-2.255
	c-10.531-1.548-22.467-3.302-34.559-3.302s-24.028,1.754-34.56,3.302c-9.615,1.413-18.699,2.748-25.028,2.255
	c-5.875-0.457-6.541-2.115-6.983-3.214c-1.049-2.608-2.342-9.063,0.784-22.979c1.7-7.567,4.503-16.449,8.332-26.397
	c2.758-7.166,6.092-14.997,9.909-23.273c14.025-30.411,31.488-60.344,40.65-75.479c1.597-2.639,4.509-4.278,7.6-4.278
	c3.121,0,6.048,1.664,7.638,4.342C306.316,366.618,329.717,426.122,322.555,443.93z M394.271,358.075
	c-53.889,0-97.729-43.841-97.729-97.729s43.841-97.73,97.729-97.73S492,206.457,492,260.345S448.159,358.075,394.271,358.075z"/>
<circle style="fill:#C7E1F0;" cx="117.73" cy="260.349" r="74.37"/>
<path d="M117.729,344.716c-11.386,0-22.437-2.232-32.844-6.635c-5.087-2.151-7.466-8.02-5.314-13.105s8.019-7.468,13.105-5.314
	c7.93,3.354,16.358,5.055,25.053,5.055c35.494,0,64.37-28.876,64.37-64.37s-28.876-64.371-64.37-64.371s-64.37,28.877-64.37,64.371
	c0,3.556,0.292,7.122,0.867,10.601c0.9,5.449-2.786,10.597-8.234,11.498c-5.46,0.9-10.598-2.786-11.498-8.234
	c-0.753-4.555-1.135-9.219-1.135-13.864c0-46.522,37.849-84.371,84.37-84.371s84.37,37.849,84.37,84.371
	C202.1,306.867,164.251,344.716,117.729,344.716z"/>
<circle style="fill:#C7E1F0;" cx="394.27" cy="260.349" r="74.37"/>
<path d="M394.271,344.716c-46.521,0-84.37-37.849-84.37-84.37c0-46.522,37.849-84.371,84.37-84.371c5.522,0,10,4.478,10,10
	s-4.478,10-10,10c-35.494,0-64.37,28.877-64.37,64.371s28.876,64.37,64.37,64.37s64.37-28.876,64.37-64.37
	c0-9.747-2.12-19.105-6.302-27.816c-2.39-4.979-0.291-10.952,4.688-13.343c4.979-2.386,10.952-0.291,13.343,4.688
	c5.487,11.433,8.271,23.703,8.271,36.471C478.641,306.867,440.792,344.716,394.271,344.716z"/>
<path d="M433.21,206.975c-2.63,0-5.21-1.07-7.07-2.931c-1.859-1.859-2.93-4.439-2.93-7.069s1.07-5.21,2.93-7.07s4.44-2.93,7.07-2.93
	s5.21,1.069,7.07,2.93c1.859,1.86,2.93,4.44,2.93,7.07s-1.07,5.21-2.93,7.069C438.42,205.905,435.84,206.975,433.21,206.975z"/>
<path d="M60.01,317.235c-2.63,0-5.21-1.06-7.07-2.92c-1.859-1.87-2.93-4.44-2.93-7.08c0-2.63,1.07-5.21,2.93-7.07
	c1.86-1.859,4.44-2.93,7.07-2.93s5.21,1.07,7.07,2.93c1.859,1.87,2.93,4.44,2.93,7.07s-1.07,5.21-2.93,7.08
	C65.22,316.176,62.64,317.235,60.01,317.235z"/>
<path d="M198.931,491.582c-5.522,0-10-4.478-10-10v-24.334c0-5.522,4.478-10,10-10s10,4.478,10,10v24.334
	C208.931,487.104,204.453,491.582,198.931,491.582z"/>
<path d="M236.977,491.582c-5.522,0-10-4.478-10-10v-24.334c0-5.522,4.478-10,10-10s10,4.478,10,10v24.334
	C246.977,487.104,242.499,491.582,236.977,491.582z"/>
<path d="M275.023,491.582c-5.522,0-10-4.478-10-10v-24.334c0-5.522,4.478-10,10-10s10,4.478,10,10v24.334
	C285.023,487.104,280.546,491.582,275.023,491.582z"/>
<path d="M313.069,491.582c-5.522,0-10-4.478-10-10v-24.334c0-5.522,4.478-10,10-10s10,4.478,10,10v24.334
	C323.069,487.104,318.592,491.582,313.069,491.582z"/>
<g>
</g>
<g>
</g>
<g>
</g>
<g>
</g>
<g>
</g>
<g>
</g>
<g>
</g>
<g>
</g>
<g>
</g>
<g>
</g>
<g>
</g>
<g>
</g>
<g>
</g>
<g>
</g>
<g>
</g>
</svg>
