<?xml version="1.0" encoding="iso-8859-1"?>
<!-- Generator: Adobe Illustrator 19.0.0, SVG Export Plug-In . SVG Version: 6.00 Build 0)  -->
<svg version="1.1" id="Capa_1" xmlns="http://www.w3.org/2000/svg" xmlns:xlink="http://www.w3.org/1999/xlink" x="0px" y="0px"
	 viewBox="0 0 512 512" style="enable-background:new 0 0 512 512;" xml:space="preserve">
<path style="fill:#F4DAAB;" d="M300.154,350.073c8.155-13.236,22.749-20.07,37.252-18.973V72.289
	c0-9.443-7.655-17.097-17.097-17.097h-40.972c-5.109,6.455-13.008,10.601-21.88,10.601h-88.969c-8.872,0-16.77-4.146-21.88-10.601
	h-40.972c-9.443,0-17.097,7.655-17.097,17.097V386.12c0,9.443,7.655,17.097,17.097,17.097h195.782l2.794-5.525
	C292.832,384.789,290.661,365.483,300.154,350.073z"/>
<g>
	<path style="fill:#C7E1F0;" d="M53.491,57.504v368.954c0,19.343,15.681,35.024,35.024,35.024h186.307
		c-0.315-3.008,0.214-6.097,1.628-8.893l24.968-49.373H105.637c-9.443,0-17.097-7.655-17.097-17.097V72.289
		c0-9.443,7.655-17.097,17.097-17.097h40.972c-3.764-4.755-6.017-10.76-6.017-17.295c0-5.701,1.713-11,4.648-15.417H88.516
		C69.172,22.48,53.491,38.161,53.491,57.504z"/>
	<path style="fill:#C7E1F0;" d="M279.337,55.192h40.972c9.443,0,17.097,7.655,17.097,17.097V331.1
		c6.186,0.468,12.355,2.369,18.001,5.847c4.555,2.806,8.346,6.381,11.324,10.447c1.87-0.624,3.785-1.099,5.724-1.443V57.504
		c0-19.344-15.681-35.024-35.024-35.024h-56.725c2.935,4.417,4.648,9.716,4.648,15.417
		C285.354,44.432,283.101,50.437,279.337,55.192z"/>
</g>
<path style="fill:#EBBF72;" d="M366.842,438.468c-8.001,1.414-16.531,0.018-23.993-4.579c-8.689-5.353-14.154-13.949-15.808-23.265
	c-4.743-0.876-9.408-2.616-13.761-5.298c-3.473-2.14-6.502-4.726-9.067-7.634l-2.794,5.525l-24.968,49.373
	c-1.414,2.795-1.943,5.884-1.628,8.893c0.27,2.583,1.16,5.105,2.671,7.33c12.342,18.172,31.865,30.2,53.647,33.051
	c5.772,0.756,11.5-1.681,14.959-6.364l30.752-41.639C371.703,449.922,368.283,444.434,366.842,438.468z"/>
<path style="fill:#CE8570;" d="M355.407,336.948c-5.646-3.478-11.815-5.38-18.001-5.847c-14.503-1.097-29.097,5.737-37.252,18.973
	c-9.494,15.409-7.322,34.715,4.059,47.619c2.565,2.908,5.594,5.494,9.067,7.634c4.353,2.682,9.018,4.422,13.761,5.298
	c1.654,9.316,7.119,17.912,15.808,23.265c7.462,4.597,15.991,5.993,23.993,4.579c1.441,5.966,4.862,11.454,10.01,15.393
	c0.737,0.564,1.509,1.096,2.317,1.594c12.955,7.981,29.927,3.949,37.908-9.005c7.398-12.008,4.469-27.462-6.315-36.014
	c1.003-1.259,1.949-2.582,2.814-3.986c11.615-18.853,5.748-43.553-13.105-55.168c-8.713-5.368-18.672-6.988-28.014-5.33
	c-1.94,0.344-3.855,0.82-5.724,1.443C363.753,343.328,359.963,339.754,355.407,336.948z"/>
<path style="fill:#CD5C63;" d="M433.878,334.894c11.245-2.671,19.595-12.124,20.86-23.612l3.7-33.615
	c1.045-9.49-9.408-15.93-17.415-10.729l-28.359,18.422c-9.692,6.296-14.379,18.006-11.708,29.25l0,0
	C404.445,329.303,419.185,338.384,433.878,334.894z"/>
<path style="fill:#EBBF72;" d="M146.609,55.192c5.109,6.455,13.008,10.601,21.88,10.601h88.969c8.872,0,16.77-4.146,21.88-10.601
	c3.764-4.755,6.017-10.76,6.017-17.295c0-5.701-1.714-11-4.648-15.417C275.709,14.959,267.164,10,257.458,10h-88.969
	c-9.706,0-18.251,4.959-23.248,12.48c-2.935,4.417-4.648,9.716-4.648,15.417C140.592,44.432,142.845,50.437,146.609,55.192z"/>
<path d="M43.491,57.504v368.955c0,24.826,20.198,45.024,45.024,45.024h178.979c0.508,1.011,1.082,1.997,1.728,2.948
	c13.934,20.516,36.029,34.129,60.621,37.348c1.129,0.148,2.255,0.221,3.376,0.221c8.185-0.001,15.984-3.871,20.925-10.56
	l25.543-34.586c4.427,1.78,9.114,2.709,13.864,2.708c2.911,0,5.845-0.341,8.748-1.03c9.759-2.318,18.031-8.298,23.291-16.837
	c8.302-13.474,7.126-30.357-2.087-42.445c10.855-20.042,6.607-44.669-9.426-60.013l3.117-5.06c3.345,0.972,6.804,1.472,10.294,1.472
	c2.896,0,5.813-0.34,8.701-1.025c15.317-3.64,26.767-16.599,28.489-32.248l3.698-33.613c0.911-8.27-2.924-16.118-10.007-20.482
	c-7.084-4.363-15.819-4.261-22.795,0.272l-28.359,18.422c-13.203,8.576-19.629,24.629-15.99,39.947
	c1.513,6.37,4.603,12.094,8.943,16.761l-3.006,4.879c-4.734-1.795-9.691-2.846-14.707-3.146V57.504
	c0-24.826-20.198-45.023-45.024-45.023h-51.889C278.603,4.82,268.583,0,257.457,0h-88.969c-11.125,0-21.146,4.82-28.084,12.48
	H88.516C63.689,12.48,43.491,32.678,43.491,57.504z M353.645,468.451l-15.589,21.108c-1.298,1.758-3.456,2.674-5.616,2.391
	c-0.001,0-0.001,0-0.001,0c-15.391-2.016-29.512-9.319-40.02-20.466c-2.418-2.565-4.645-5.333-6.652-8.287
	c-1.229-1.809-1.379-4.143-0.393-6.093l2.842-5.62l19.23-38.025c0.198,0.126,0.389,0.26,0.589,0.383
	c3.418,2.105,7.039,3.779,10.82,5.005c3.297,9.732,9.899,18.106,18.747,23.557c4.039,2.488,8.412,4.272,12.945,5.357
	c3.133,0.75,6.339,1.176,9.572,1.229c1.03,2.04,2.257,3.963,3.637,5.772L353.645,468.451z M418.11,293.746l28.359-18.422
	c0.13-0.084,0.369-0.239,0.701-0.239c0.202,0,0.439,0.058,0.708,0.223c0.71,0.438,0.646,1.018,0.618,1.267l-3.699,33.614
	c-0.8,7.268-6.117,13.286-13.231,14.977c-0.97,0.231-1.946,0.36-2.92,0.424l3.173-5.15c2.897-4.702,1.434-10.862-3.269-13.759
	c-4.702-2.898-10.862-1.435-13.759,3.269l-3.172,5.149c-0.382-0.899-0.705-1.829-0.935-2.798
	C408.994,305.186,411.978,297.729,418.11,293.746z M369.896,356.881c4.103-1.369,8.378-1.82,12.56-1.401
	c1.307,0.131,2.605,0.345,3.886,0.647l-3.886,6.307l-0.662,1.075c-2.261,3.67-1.856,8.221,0.662,11.423
	c0.708,0.9,1.574,1.7,2.606,2.336c1.635,1.008,3.446,1.487,5.235,1.487c3.356,0,6.634-1.688,8.523-4.756l4.358-7.073
	c7.485,9.631,8.647,23.297,1.882,34.278c-0.619,1.005-1.313,1.986-2.121,3c-1.655,2.077-2.416,4.728-2.114,7.367
	c0.302,2.639,1.641,5.049,3.722,6.699c6.948,5.511,8.675,15.37,4.014,22.934c-2.458,3.991-6.324,6.786-10.885,7.869
	c-1.738,0.413-3.498,0.555-5.231,0.44c-2.815-0.186-5.561-1.052-8.033-2.574c-3.967-2.443-6.755-6.286-7.85-10.819
	c-1.101-4.555-5.174-7.653-9.711-7.653c-0.578,0-1.163,0.05-1.75,0.153c-5.882,1.042-11.924-0.113-17.008-3.245
	c-5.906-3.639-9.991-9.652-11.207-16.499c-0.729-4.106-3.929-7.328-8.029-8.086c-3.672-0.678-7.148-2.017-10.333-3.978
	c-4.361-2.687-7.886-6.354-10.357-10.682c-1.415-2.478-2.487-5.17-3.164-8.023c-1.862-7.837-0.561-15.931,3.665-22.789
	c4.367-7.087,11.213-11.734,18.738-13.515c6.549-1.549,13.61-0.926,20,2.151c0.934,0.45,1.854,0.95,2.755,1.506
	c3.336,2.056,6.196,4.693,8.501,7.842c1.008,1.376,2.322,2.43,3.793,3.125C364.732,357.505,367.388,357.716,369.896,356.881z
	 M294.961,32.48h42.47c13.799,0,25.024,11.226,25.024,25.023v272.118c-0.595-0.403-1.188-0.81-1.803-1.188
	c-4.222-2.602-8.685-4.488-13.246-5.716V72.289c0-14.941-12.156-27.098-27.098-27.098h-25.667c0.463-2.362,0.712-4.8,0.712-7.295
	C295.354,36.057,295.215,34.25,294.961,32.48z M151.435,32.48c2.301-7.228,9.073-12.48,17.054-12.48h88.969
	c7.98,0,14.753,5.252,17.054,12.48c0.544,1.71,0.843,3.528,0.843,5.416c0,2.599-0.569,5.064-1.57,7.295
	c-2.799,6.239-9.057,10.602-16.326,10.602H168.49c-7.269,0-13.527-4.363-16.326-10.602c-1.001-2.231-1.57-4.696-1.57-7.295
	C150.592,36.009,150.891,34.19,151.435,32.48z M142.24,65.191c6.816,6.557,16.066,10.602,26.249,10.602h88.969
	c10.183,0,19.433-4.044,26.249-10.602h36.603c3.914,0,7.098,3.184,7.098,7.098v249.196c-14.292,2.01-27.622,10.124-35.766,23.343
	c-7.028,11.406-9.192,24.867-6.097,37.901c0.872,3.671,2.146,7.178,3.761,10.488H105.638c-3.914,0-7.098-3.184-7.098-7.098V72.289
	c0-3.914,3.184-7.098,7.098-7.098H142.24z M63.491,57.504c0-13.798,11.226-25.023,25.024-25.023h42.47
	c-0.254,1.77-0.393,3.577-0.393,5.416c0,2.495,0.249,4.933,0.712,7.295h-25.666c-14.942,0-27.098,12.156-27.098,27.098v313.83
	c0,14.941,12.156,27.098,27.098,27.098h179.519l-17.629,34.86c-0.561,1.109-1.031,2.248-1.423,3.405H88.516
	c-13.798,0-25.024-11.226-25.024-25.024L63.491,57.504L63.491,57.504z"/>
<path d="M132.927,183.671h156.999c5.522,0,10-4.478,10-10s-4.478-10-10-10H132.927c-5.523,0-10,4.478-10,10
	S127.404,183.671,132.927,183.671z"/>
<path d="M289.926,226.228h-106c-5.523,0-10,4.478-10,10s4.477,10,10,10h106c5.522,0,10-4.478,10-10S295.449,226.228,289.926,226.228
	z"/>
<path d="M141.24,230.68c-0.36-0.55-0.78-1.06-1.24-1.52c-0.46-0.471-0.97-0.88-1.52-1.25c-0.54-0.36-1.12-0.67-1.73-0.92
	c-0.6-0.25-1.23-0.44-1.87-0.57c-1.29-0.26-2.62-0.26-3.91,0c-0.64,0.13-1.26,0.32-1.87,0.57c-0.6,0.25-1.18,0.56-1.72,0.92
	c-0.55,0.37-1.06,0.779-1.53,1.25c-0.46,0.46-0.87,0.97-1.24,1.52c-0.36,0.54-0.67,1.12-0.92,1.72c-0.25,0.61-0.44,1.24-0.57,1.87
	c-0.13,0.65-0.19,1.311-0.19,1.96c0,0.65,0.06,1.311,0.19,1.95c0.13,0.64,0.32,1.271,0.57,1.87c0.25,0.61,0.56,1.19,0.92,1.73
	c0.37,0.55,0.79,1.06,1.25,1.52s0.97,0.88,1.52,1.24c0.54,0.359,1.12,0.67,1.72,0.92c0.61,0.25,1.23,0.439,1.87,0.57
	c0.65,0.13,1.3,0.199,1.96,0.199c0.65,0,1.31-0.069,1.95-0.199c0.64-0.131,1.27-0.32,1.87-0.57c0.61-0.25,1.19-0.561,1.73-0.92
	c0.55-0.36,1.06-0.78,1.52-1.24s0.88-0.97,1.24-1.52c0.36-0.54,0.67-1.131,0.92-1.73s0.44-1.23,0.57-1.87s0.2-1.3,0.2-1.95
	c0-0.649-0.07-1.31-0.2-1.96c-0.13-0.63-0.32-1.26-0.57-1.87C141.91,231.8,141.6,231.22,141.24,230.68z"/>
<path d="M132.927,309.785h156.999c5.522,0,10-4.478,10-10s-4.478-10-10-10H132.927c-5.523,0-10,4.478-10,10
	S127.404,309.785,132.927,309.785z"/>
<path d="M272.161,359.52c-0.25-0.609-0.561-1.189-0.92-1.729c-0.36-0.55-0.78-1.061-1.24-1.521c-0.47-0.46-0.98-0.88-1.521-1.239
	c-0.55-0.36-1.13-0.671-1.729-0.921c-0.601-0.25-1.23-0.439-1.87-0.569c-1.29-0.26-2.62-0.26-3.91,0
	c-0.64,0.13-1.27,0.319-1.87,0.569s-1.18,0.561-1.729,0.921c-0.541,0.359-1.05,0.779-1.51,1.239c-0.47,0.46-0.88,0.971-1.25,1.521
	c-0.36,0.54-0.67,1.12-0.92,1.729c-0.25,0.601-0.44,1.23-0.57,1.87c-0.13,0.641-0.19,1.3-0.19,1.95s0.06,1.31,0.19,1.96
	c0.13,0.63,0.32,1.26,0.57,1.87c0.25,0.6,0.56,1.18,0.92,1.72c0.37,0.55,0.78,1.061,1.25,1.521c0.46,0.46,0.97,0.88,1.51,1.25
	c0.55,0.359,1.13,0.67,1.729,0.92c0.601,0.239,1.23,0.439,1.87,0.569c0.65,0.12,1.3,0.19,1.96,0.19c0.65,0,1.3-0.07,1.95-0.19
	c0.64-0.13,1.27-0.33,1.87-0.569c0.6-0.25,1.18-0.561,1.729-0.92c0.54-0.37,1.051-0.79,1.521-1.25c0.46-0.46,0.88-0.971,1.24-1.521
	c0.359-0.54,0.67-1.12,0.92-1.72c0.25-0.61,0.439-1.24,0.569-1.87c0.13-0.65,0.2-1.31,0.2-1.96s-0.07-1.31-0.2-1.95
	C272.6,360.75,272.411,360.12,272.161,359.52z"/>
<path d="M132.927,373.342h77.667c5.523,0,10-4.478,10-10s-4.477-10-10-10h-77.667c-5.523,0-10,4.478-10,10
	S127.404,373.342,132.927,373.342z"/>
<path d="M132.927,124.223h156.999c5.522,0,10-4.478,10-10s-4.478-10-10-10H132.927c-5.523,0-10,4.478-10,10
	S127.404,124.223,132.927,124.223z"/>
<g>
</g>
<g>
</g>
<g>
</g>
<g>
</g>
<g>
</g>
<g>
</g>
<g>
</g>
<g>
</g>
<g>
</g>
<g>
</g>
<g>
</g>
<g>
</g>
<g>
</g>
<g>
</g>
<g>
</g>
</svg>
