<?xml version="1.0" encoding="iso-8859-1"?>
<!-- Generator: Adobe Illustrator 19.0.0, SVG Export Plug-In . SVG Version: 6.00 Build 0)  -->
<svg version="1.1" id="Capa_1" xmlns="http://www.w3.org/2000/svg" xmlns:xlink="http://www.w3.org/1999/xlink" x="0px" y="0px"
	 viewBox="0 0 512 512" style="enable-background:new 0 0 512 512;" xml:space="preserve">
<g>
	<path style="fill:#9A84B8;" d="M217.153,346.365l-57.802-84.492h-38.385c-15.152,0-28.234,10.61-31.361,25.436l-12.719,60.298
		c2.577-0.806,5.319-1.243,8.165-1.243h132.102V346.365z"/>
	<path style="fill:#9A84B8;" d="M426.949,346.365c2.023,0,3.991,0.225,5.886,0.641l-12.592-59.697
		c-3.127-14.826-16.209-25.436-31.361-25.436h-36.234l-57.802,84.492H426.949z"/>
</g>
<path style="fill:#C7E1F0;" d="M294.847,346.365l57.802-84.492l82.152-120.085c11.914-17.414,10.58-40.674-3.245-56.613
	l-38.575-44.472c-8.879-10.236-21.762-16.116-35.312-16.116H154.331c-13.55,0-26.434,5.88-35.312,16.116L80.444,85.175
	c-13.825,15.939-15.159,39.198-3.245,56.613l82.152,120.085l57.802,84.492H294.847z"/>
<path style="fill:#CD5C63;" d="M451.701,474.225l2.56-99.839c0.342-13.336-8.922-24.635-21.425-27.38
	c-1.896-0.416-3.864-0.641-5.886-0.641H294.847h-77.693H85.051c-2.846,0-5.588,0.437-8.165,1.243
	c-11.333,3.544-19.467,14.266-19.147,26.779l2.56,99.839c0.188,7.337,6.19,13.187,13.529,13.187H438.17
	C445.511,487.412,451.512,481.562,451.701,474.225z M256,461.822c-24.816,0-44.933-20.117-44.933-44.933
	s20.117-44.933,44.933-44.933s44.933,20.117,44.933,44.933S280.816,461.822,256,461.822z"/>
<circle style="fill:#EBBF72;" cx="256" cy="416.889" r="44.933"/>
<path d="M310.94,210.999c0.25,0.609,0.56,1.189,0.92,1.729c0.37,0.551,0.79,1.061,1.25,1.521s0.97,0.88,1.52,1.24
	c0.54,0.359,1.12,0.67,1.72,0.92c0.61,0.25,1.24,0.449,1.88,0.569c0.64,0.13,1.3,0.2,1.95,0.2c0.65,0,1.31-0.07,1.95-0.2
	c0.64-0.12,1.27-0.319,1.87-0.569c0.61-0.25,1.19-0.561,1.73-0.92c0.55-0.36,1.06-0.78,1.52-1.24s0.88-0.97,1.24-1.521
	c0.36-0.54,0.67-1.12,0.92-1.729c0.25-0.601,0.44-1.23,0.57-1.87s0.2-1.3,0.2-1.95c0-0.649-0.07-1.31-0.2-1.95s-0.32-1.27-0.57-1.88
	c-0.25-0.6-0.56-1.18-0.92-1.72c-0.36-0.55-0.78-1.061-1.24-1.521s-0.97-0.88-1.52-1.25c-0.54-0.359-1.12-0.67-1.73-0.92
	c-0.6-0.25-1.23-0.439-1.87-0.569c-1.29-0.261-2.62-0.261-3.9,0c-0.64,0.13-1.27,0.319-1.88,0.569c-0.6,0.25-1.18,0.561-1.72,0.92
	c-0.55,0.37-1.06,0.79-1.52,1.25s-0.88,0.971-1.25,1.521c-0.36,0.54-0.67,1.12-0.92,1.72c-0.25,0.61-0.44,1.24-0.57,1.88
	c-0.13,0.641-0.19,1.301-0.19,1.95c0,0.65,0.06,1.311,0.19,1.95C310.5,209.769,310.69,210.398,310.94,210.999z"/>
<path d="M502,477.412h-40.563c0.142-0.959,0.234-1.936,0.26-2.932l2.56-99.839c0.26-10.146-3.499-19.737-10.583-27.006
	c-3.552-3.645-7.711-6.468-12.253-8.377l-11.393-54.014c-4.079-19.338-21.383-33.373-41.146-33.373h-17.276l71.448-104.438
	c14.472-21.153,12.85-49.45-3.944-68.812l-38.575-44.472c-10.784-12.433-26.408-19.563-42.867-19.563h-57.305
	c-0.014,0-0.029,0-0.043,0h-88.84c-0.029,0-0.057,0-0.086,0h-42.713c-5.523,0-10,4.478-10,10s4.477,10,10,10h25.825l-38.577,70.359
	H80.686c1.452-4.762,3.894-9.277,7.312-13.218l19.683-22.692c3.619-4.173,3.17-10.488-1.002-14.107
	c-4.173-3.618-10.488-3.17-14.106,1.002L72.89,78.622c-16.794,19.361-18.416,47.658-3.944,68.812l71.448,104.438h-19.428
	c-19.762,0-37.067,14.035-41.146,33.373l-11.629,55.131c-3.614,1.834-6.946,4.265-9.865,7.26
	c-7.084,7.269-10.843,16.859-10.583,27.006l2.56,99.839c0.026,0.996,0.118,1.973,0.26,2.932H10c-5.523,0-10,4.478-10,10
	s4.477,10,10,10h63.829h364.342H502c5.523,0,10-4.478,10-10S507.523,477.412,502,477.412z M388.882,271.872
	c10.363,0,19.438,7.36,21.577,17.5l9.912,46.992H313.804l44.12-64.492H388.882z M357.668,34.586
	c10.658,0,20.775,4.617,27.758,12.669l38.575,44.473c3.418,3.941,5.86,8.456,7.312,13.218h-75.462l-38.577-70.359L357.668,34.586
	L357.668,34.586z M217.315,34.586h77.151l38.577,70.359H178.737L217.315,34.586z M336.241,124.945l-8.001,25.063l-2.67,8.217
	c-1.707,5.252,1.168,10.894,6.42,12.601c1.027,0.333,2.068,0.492,3.092,0.492c4.215,0,8.136-2.687,9.509-6.913l2.686-8.266
	l9.958-31.194h74.443c-1.04,3.917-2.744,7.707-5.131,11.195l-79.173,115.731l-13.682,20l-44.12,64.492h-1.24l21.266-64.492
	l5.176-15.698c0.473-1.434,0.592-2.896,0.426-4.302c-0.444-3.739-2.98-7.07-6.791-8.327c-5.241-1.729-10.899,1.12-12.628,6.365
	l-0.647,1.962l-6.595,20l-21.266,64.492h-22.569l-21.068-64.492l-6.534-20l-41.464-126.927L336.241,124.945L336.241,124.945z
	 M85.453,136.141c-2.386-3.488-4.091-7.278-5.131-11.195h74.275l41.464,126.927l6.534,20l21.068,64.492h-1.234l-44.12-64.492
	l-13.682-20L85.453,136.141z M99.389,289.373c2.139-10.141,11.213-17.501,21.577-17.501h33.11l44.12,64.492H89.477L99.389,289.373z
	 M441.704,473.969c-0.05,1.931-1.602,3.443-3.533,3.443H73.829c-1.932,0-3.483-1.513-3.533-3.443l-2.56-99.839
	c-0.121-4.71,1.624-9.161,4.912-12.534c1.719-1.764,3.749-3.102,5.963-3.988c2.02-0.809,4.193-1.243,6.44-1.243h126.827h18.318
	h21.041h9.44h21.06h18.385h126.827c2.226,0,4.379,0.429,6.383,1.222c2.236,0.886,4.286,2.23,6.02,4.009
	c3.288,3.373,5.033,7.824,4.912,12.533L441.704,473.969z"/>
<path d="M288.83,372.871c-3.243-2.425-6.768-4.487-10.506-6.156c-6.017-2.688-12.595-4.338-19.514-4.688
	c-0.931-0.047-1.868-0.071-2.81-0.071c-0.977,0-1.947,0.028-2.911,0.078c-6.915,0.363-13.488,2.022-19.499,4.72
	c-3.706,1.663-7.202,3.711-10.42,6.117c-13.408,10.026-22.104,26.026-22.104,44.018c0,30.29,24.643,54.933,54.933,54.933
	s54.933-24.643,54.933-54.933C310.933,398.897,302.238,382.897,288.83,372.871z M266,450.355v-33.466
	c0-2.659-1.045-5.07-2.739-6.862c-0.038-0.041-0.073-0.084-0.112-0.124c-1.816-1.858-4.346-3.015-7.149-3.015
	c-2.918,0-5.535,1.257-7.363,3.25c-1.632,1.78-2.637,4.145-2.637,6.75v33.467c-14.403-4.312-24.933-17.679-24.933-33.467
	c0-11.149,5.256-21.086,13.412-27.487c1.676-1.315,3.473-2.48,5.374-3.476c3.758-1.968,7.913-3.274,12.315-3.756
	c1.259-0.138,2.537-0.214,3.832-0.214c5.769,0,11.211,1.415,16.012,3.902c1.951,1.011,3.793,2.199,5.509,3.545
	c8.157,6.401,13.412,16.338,13.412,27.487C290.933,432.676,280.403,446.043,266,450.355z"/>
<path d="M136.09,27.318c-0.37-0.55-0.79-1.06-1.25-1.52c-2.32-2.32-5.77-3.39-9.02-2.74c-0.64,0.13-1.27,0.33-1.87,0.58
	c-0.61,0.25-1.19,0.561-1.73,0.92c-0.55,0.36-1.06,0.78-1.52,1.24s-0.88,0.97-1.24,1.52c-0.36,0.54-0.67,1.12-0.92,1.721
	c-0.25,0.609-0.44,1.24-0.57,1.88s-0.2,1.3-0.2,1.95c0,0.649,0.07,1.31,0.2,1.949c0.13,0.641,0.32,1.271,0.57,1.87
	c0.25,0.61,0.56,1.19,0.92,1.73c0.36,0.55,0.78,1.06,1.24,1.52s0.97,0.88,1.52,1.24c0.54,0.36,1.12,0.67,1.73,0.92
	c0.6,0.25,1.23,0.45,1.87,0.57c0.64,0.13,1.3,0.2,1.95,0.2c2.64,0,5.21-1.07,7.07-2.931c0.46-0.46,0.88-0.97,1.25-1.52
	c0.36-0.54,0.67-1.12,0.92-1.73c0.25-0.6,0.44-1.229,0.57-1.87c0.13-0.64,0.19-1.3,0.19-1.949c0-0.65-0.06-1.311-0.19-1.95
	c-0.13-0.64-0.32-1.271-0.57-1.88C136.76,28.439,136.45,27.858,136.09,27.318z"/>
<g>
</g>
<g>
</g>
<g>
</g>
<g>
</g>
<g>
</g>
<g>
</g>
<g>
</g>
<g>
</g>
<g>
</g>
<g>
</g>
<g>
</g>
<g>
</g>
<g>
</g>
<g>
</g>
<g>
</g>
</svg>
