<?xml version="1.0" encoding="iso-8859-1"?>
<!-- Generator: Adobe Illustrator 19.0.0, SVG Export Plug-In . SVG Version: 6.00 Build 0)  -->
<svg version="1.1" id="Capa_1" xmlns="http://www.w3.org/2000/svg" xmlns:xlink="http://www.w3.org/1999/xlink" x="0px" y="0px"
	 viewBox="0 0 512 512" style="enable-background:new 0 0 512 512;" xml:space="preserve">
<path style="fill:#F4DAAB;" d="M412.494,455.494H99.506c-14.641,0-26.51-11.869-26.51-26.51l0,0c0-14.641,11.869-26.51,26.51-26.51
	h312.988c14.641,0,26.51,11.869,26.51,26.51l0,0C439.004,443.625,427.135,455.494,412.494,455.494z"/>
<path style="fill:#EBBF72;" d="M439.599,181.324l-118.443,43.23l-51.991-104.826c-4.033,1.758-8.483,2.74-13.164,2.74
	s-9.131-0.981-13.164-2.74l-51.991,104.826l-118.443-43.23c-3.55,6.996-9.516,12.555-16.805,15.576l45.48,205.575h93.777h45.694
	h170.377l45.48-205.575C449.115,193.879,443.149,188.319,439.599,181.324z"/>
<g>
	<path style="fill:#C7E1F0;" d="M72.401,181.324c2.272-4.477,3.561-9.537,3.561-14.901c0-18.215-14.766-32.981-32.981-32.981
		S10,148.208,10,166.423s14.766,32.981,32.981,32.981c4.469,0,8.728-0.893,12.615-2.504
		C62.885,193.879,68.851,188.319,72.401,181.324z"/>
	<path style="fill:#C7E1F0;" d="M469.019,133.442c-18.215,0-32.981,14.766-32.981,32.981c0,5.364,1.289,10.424,3.561,14.901
		c3.55,6.996,9.516,12.555,16.805,15.576c3.886,1.611,8.146,2.504,12.615,2.504c18.215,0,32.981-14.766,32.981-32.981
		S487.234,133.442,469.019,133.442z"/>
</g>
<path style="fill:#CD5C63;" d="M269.164,119.728c11.661-5.083,19.817-16.708,19.817-30.241c0-18.215-14.766-32.981-32.981-32.981
	s-32.981,14.766-32.981,32.981c0,13.534,8.155,25.158,19.817,30.241c4.033,1.758,8.483,2.74,13.164,2.74
	C260.681,122.468,265.131,121.486,269.164,119.728z"/>
<circle style="fill:#9A84B8;" cx="256" cy="289.25" r="38.813"/>
<path d="M256,338.061c-26.915,0-48.813-21.897-48.813-48.813s21.897-48.813,48.813-48.813s48.813,21.897,48.813,48.813
	S282.915,338.061,256,338.061z M256,260.436c-15.888,0-28.813,12.925-28.813,28.813s12.925,28.813,28.813,28.813
	s28.813-12.925,28.813-28.813S271.888,260.436,256,260.436z"/>
<path d="M469.02,123.441c-23.7,0-42.981,19.281-42.981,42.981c0,3.04,0.322,6.005,0.925,8.868l-65.678,23.972
	c-0.377,0.091-0.753,0.198-1.125,0.335l-13.568,4.994c-12.025,3.734-25.048-1.764-30.7-13.158l-33.685-67.915
	c10.191-7.866,16.773-20.192,16.773-34.032c0-23.699-19.281-42.98-42.98-42.98s-42.98,19.281-42.98,42.98
	c0,13.841,6.582,26.166,16.773,34.032l-33.685,67.915c-5.84,11.776-19.561,17.255-31.906,12.752l-12.384-4.52l-0.184-0.068
	c-0.003-0.001-0.007-0.002-0.011-0.003l-66.586-24.303c0.603-2.863,0.925-5.828,0.925-8.868c0-23.7-19.281-42.981-42.981-42.981
	C19.281,123.441,0,142.723,0,166.423c0,23.699,19.281,42.98,42.98,42.98c1.717,0,3.407-0.113,5.072-0.31l40.915,184.938
	c-15.009,4.534-25.971,18.484-25.971,34.953c0,20.132,16.378,36.51,36.51,36.51h312.988c20.132,0,36.51-16.378,36.51-36.51
	c0-16.468-10.962-30.418-25.971-34.953l40.915-184.938c1.665,0.197,3.355,0.31,5.072,0.31c23.699,0,42.98-19.281,42.98-42.98
	C512,142.723,492.719,123.441,469.02,123.441z M256,66.506c12.672,0,22.98,10.309,22.98,22.98c0,5.946-2.27,11.371-5.988,15.455
	c-4.206,4.621-10.267,7.526-16.993,7.526c-6.727,0-12.787-2.905-16.993-7.526c-3.718-4.084-5.987-9.51-5.987-15.455
	C233.02,76.814,243.328,66.506,256,66.506z M65.879,168.298c-0.939,11.563-10.471,20.728-22.187,21.087
	c-0.237,0.007-0.473,0.018-0.711,0.018c-12.672,0-22.98-10.309-22.98-22.98s10.309-22.981,22.98-22.981s22.981,10.31,22.981,22.981
	C65.962,167.055,65.929,167.679,65.879,168.298z M429.004,428.984c0,9.104-7.406,16.51-16.51,16.51H99.506
	c-9.104,0-16.51-7.406-16.51-16.51s7.406-16.51,16.51-16.51h1.57h309.848h1.57C421.598,412.475,429.004,419.881,429.004,428.984z
	 M411.631,352.986H180.787c-5.522,0-10,4.478-10,10s4.478,10,10,10h226.419l-4.312,19.488H109.105L66.98,202.063
	c3.55-2.398,6.719-5.317,9.408-8.638l68.326,24.938c0.004,0.001,0.007,0.003,0.011,0.005l59.82,22.018
	c1.14,0.419,2.306,0.618,3.453,0.618c4.071,0,7.897-2.506,9.386-6.549c1.907-5.183-0.748-10.931-5.931-12.839l-11.852-4.362
	c5.954-4.245,10.968-9.964,14.424-16.933l34.025-68.602c2.578,0.484,5.232,0.749,7.949,0.749s5.371-0.265,7.949-0.749l34.025,68.602
	c3.443,6.941,8.431,12.642,14.355,16.882l-11.99,4.413c-5.183,1.908-7.838,7.656-5.931,12.839c1.488,4.044,5.314,6.549,9.386,6.549
	c1.147,0,2.314-0.199,3.453-0.618l46.143-16.984c0.422-0.14,0.844-0.275,1.265-0.428l80.957-29.548
	c2.69,3.322,5.858,6.24,9.408,8.638L411.631,352.986z M469.02,189.403c-0.239,0-0.475-0.011-0.711-0.018
	c-11.716-0.359-21.248-9.523-22.187-21.087c-0.05-0.619-0.083-1.243-0.083-1.875c0-12.672,10.31-22.981,22.981-22.981
	S492,153.751,492,166.423S481.691,189.403,469.02,189.403z"/>
<path d="M144.17,359.16c-0.25-0.601-0.561-1.181-0.92-1.721c-0.36-0.55-0.78-1.06-1.24-1.529c-0.46-0.46-0.979-0.87-1.52-1.24
	c-0.551-0.36-1.131-0.67-1.73-0.92s-1.229-0.44-1.87-0.57c-3.25-0.649-6.71,0.41-9.03,2.73c-0.46,0.47-0.88,0.979-1.239,1.529
	c-0.36,0.54-0.67,1.12-0.92,1.721c-0.25,0.609-0.44,1.239-0.57,1.87c-0.13,0.649-0.19,1.3-0.19,1.96c0,0.649,0.061,1.31,0.19,1.949
	c0.13,0.641,0.32,1.271,0.57,1.87c0.25,0.601,0.56,1.181,0.92,1.73c0.37,0.55,0.779,1.06,1.239,1.52
	c1.87,1.86,4.44,2.931,7.08,2.931c0.65,0,1.301-0.07,1.95-0.2c0.641-0.13,1.271-0.32,1.87-0.57s1.18-0.56,1.73-0.92
	c0.54-0.36,1.06-0.78,1.52-1.24s0.87-0.97,1.24-1.52c0.359-0.55,0.67-1.13,0.92-1.73s0.439-1.229,0.57-1.87
	c0.13-0.64,0.199-1.3,0.199-1.949c0-0.65-0.069-1.311-0.199-1.96C144.609,360.399,144.42,359.77,144.17,359.16z"/>
<g>
</g>
<g>
</g>
<g>
</g>
<g>
</g>
<g>
</g>
<g>
</g>
<g>
</g>
<g>
</g>
<g>
</g>
<g>
</g>
<g>
</g>
<g>
</g>
<g>
</g>
<g>
</g>
<g>
</g>
</svg>
