<?xml version="1.0" encoding="iso-8859-1"?>
<!-- Generator: Adobe Illustrator 19.0.0, SVG Export Plug-In . SVG Version: 6.00 Build 0)  -->
<svg version="1.1" id="Capa_1" xmlns="http://www.w3.org/2000/svg" xmlns:xlink="http://www.w3.org/1999/xlink" x="0px" y="0px"
	 viewBox="0 0 512 512" style="enable-background:new 0 0 512 512;" xml:space="preserve">
<g>
	<path style="fill:#EBBF72;" d="M79.306,291.065c0,24.93-27.745,53.675-52.675,53.675c24.93,0,52.675,26.745,52.675,51.675
		c0-24.93,27.745-52.675,52.675-52.675C107.051,343.74,79.306,315.995,79.306,291.065z"/>
	<path style="fill:#EBBF72;" d="M415.12,412.887c-24.93,0-52.675-27.745-52.675-52.675c0,24.93-27.745,52.675-52.675,52.675
		c24.93,0,52.675,27.745,52.675,52.675C362.445,440.632,390.19,412.887,415.12,412.887z"/>
</g>
<path style="fill:#CD5C63;" d="M203.859,240.448c18.456-2.256,34.262-14.303,41.327-31.502l1.617-3.936
	c3.376-8.22,15.018-8.22,18.394,0l1.617,3.936c7.065,17.199,22.871,29.246,41.327,31.502
	c209.386,25.594,193.58-199.032,193.58-199.032s-30.222,64.723-138.886,37.989C303.823,64.888,272.401,84.398,256,105.257
	c-16.401-20.859-47.823-40.369-106.834-25.851C40.501,106.14,10.279,41.417,10.279,41.417S-5.526,266.043,203.859,240.448z
	 M441.928,126.47c0,0,4.976,109.889-150.83,44.54C291.098,171.009,358.082,113.454,441.928,126.47z M70.072,126.47
	c83.846-13.015,150.83,44.54,150.83,44.54C65.097,236.359,70.072,126.47,70.072,126.47z"/>
<path d="M131.981,333.74c-19.543,0-42.675-23.132-42.675-42.675c0-5.522-4.477-10-10-10s-10,4.477-10,10
	c0,19.593-23.532,43.675-42.675,43.675c-5.522,0-10,4.477-10,10c0,5.522,4.477,10,10,10c19.543,0,42.675,22.59,42.675,41.676
	c0,5.522,4.477,10,10,10s10-4.477,10-10c0-19.543,23.132-42.675,42.675-42.675c5.522,0,10-4.477,10-10
	S137.504,333.74,131.981,333.74z M79.229,365.942c-2.789-4.16-6.115-8.153-9.93-11.874c-3.781-3.687-7.829-6.902-12.035-9.596
	c4.262-2.87,8.368-6.3,12.211-10.238c3.824-3.919,7.152-8.096,9.934-12.422c5.675,8.623,13.347,16.277,21.981,21.927
	C92.663,349.451,84.92,357.206,79.229,365.942z"/>
<path d="M352.445,465.561c0,5.522,4.477,10,10,10c5.522,0,10-4.477,10-10c0-19.543,23.132-42.675,42.675-42.675
	c5.522,0,10-4.477,10-10c0-5.522-4.477-10-10-10c-19.543,0-42.675-23.132-42.675-42.675c0-5.522-4.477-10-10-10
	c-5.522,0-10,4.477-10,10c0,19.543-23.132,42.675-42.675,42.675c-5.522,0-10,4.477-10,10c0,5.522,4.477,10,10,10
	C329.313,422.886,352.445,446.018,352.445,465.561z M362.445,390.803c5.684,8.686,13.397,16.399,22.083,22.083
	c-8.686,5.684-16.399,13.397-22.083,22.083c-5.684-8.686-13.397-16.399-22.083-22.083
	C349.048,407.202,356.761,399.489,362.445,390.803z"/>
<path d="M503.544,31.585c-4.483-0.832-8.956,1.472-10.883,5.6c-0.268,0.574-27.898,57.002-127.438,32.51
	c-56.477-13.892-89.932,1.698-109.219,20.6c-10.258-10.062-22.611-17.283-36.85-21.522c-5.298-1.582-10.862,1.438-12.437,6.73
	c-1.576,5.294,1.437,10.862,6.73,12.437c14.05,4.182,25.723,12.089,34.692,23.496c1.896,2.411,4.794,3.819,7.861,3.819
	c3.067,0,5.965-1.408,7.861-3.819c20.146-25.623,52.645-33.129,96.585-22.322c59.464,14.63,96.866,2.566,117.772-10.133
	c5.043-3.062,9.406-6.313,13.151-9.538c-2.234,33.566-11.998,90.551-50.662,127.278c-30.857,29.31-75.052,40.676-131.353,33.799
	c-14.851-1.815-27.607-11.539-33.29-25.377l-1.617-3.933c-3.085-7.512-10.326-12.366-18.447-12.366s-15.362,4.853-18.447,12.364
	l-1.617,3.937c-5.683,13.837-18.439,23.56-33.29,25.375c-56.265,6.877-100.43-4.472-131.282-33.731
	c-38.623-36.63-48.431-93.695-50.701-127.314c2.902,2.495,6.174,5.006,9.843,7.43c18.764,12.399,52.267,25.163,105.312,15.576
	c5.434-0.983,9.044-6.185,8.061-11.62c-0.983-5.434-6.189-9.038-11.62-8.061c-36.254,6.555-67.276,2.434-89.719-11.924
	C25.757,50.141,19.371,37.25,19.339,37.186c-1.928-4.129-6.401-6.432-10.883-5.6c-4.479,0.83-7.832,4.585-8.152,9.13
	c-0.078,1.113-1.85,27.66,4.143,61.816c8.026,45.752,26.379,83.336,53.073,108.692c28.887,27.44,67.26,41.259,114.382,41.257
	c10.614,0,21.677-0.701,33.17-2.106c22.022-2.691,40.936-17.11,49.364-37.627l1.567-3.802l1.561,3.8
	c8.427,20.519,27.342,34.937,49.363,37.629c11.497,1.405,22.554,2.107,33.171,2.106c47.118,0,85.497-13.819,114.382-41.257
	c3.367-3.198,6.6-6.592,9.698-10.171v221.941c0,5.522,4.477,10,10,10c5.522,0,10-4.477,10-10V173.616
	c0-0.494-0.048-0.976-0.117-1.45c10.951-20.045,18.908-43.505,23.492-69.635c5.993-34.156,4.222-60.703,4.143-61.816
	C511.376,36.17,508.024,32.415,503.544,31.585z"/>
<path d="M68.538,116.588c-4.703,0.73-8.24,4.675-8.456,9.429c-0.075,1.66-1.484,40.906,29.485,62.525
	c12.622,8.811,28.467,13.212,47.444,13.212c24.231,0,53.563-7.18,87.759-21.524c3.196-1.341,5.47-4.241,6.01-7.665
	s-0.732-6.883-3.361-9.141c-0.726-0.624-18.105-15.43-46.246-28.62C143.742,117.259,104.793,110.963,68.538,116.588z
	 M101.155,172.241c-14.722-10.194-19.19-26.968-20.532-37.011c52.596-4.917,97.721,18.827,119.624,33.14
	C155.239,184.726,121.184,186.107,101.155,172.241z"/>
<path d="M287.23,180.23c34.2,14.344,63.526,21.524,87.759,21.524c18.974,0,34.824-4.402,47.444-13.212
	c30.97-21.619,29.561-60.865,29.485-62.525c-0.216-4.755-3.753-8.699-8.456-9.429c-36.258-5.627-75.205,0.671-112.635,18.216
	c-28.141,13.19-45.52,27.996-46.246,28.62c-2.629,2.259-3.901,5.718-3.361,9.141S284.033,178.889,287.23,180.23z M431.426,135.236
	c-1.291,9.966-5.687,26.609-20.442,36.908c-20.014,13.971-54.116,12.621-99.232-3.773
	C333.67,154.047,378.807,130.299,431.426,135.236z"/>
<path d="M467.204,476.135c0.359,0.55,0.78,1.061,1.24,1.52c0.46,0.46,0.97,0.88,1.52,1.25c0.54,0.359,1.13,0.67,1.73,0.92
	s1.229,0.439,1.869,0.569c0.641,0.131,1.301,0.19,1.95,0.19c0.65,0,1.311-0.06,1.96-0.19c0.63-0.13,1.261-0.319,1.87-0.569
	c0.601-0.25,1.181-0.561,1.72-0.92c0.551-0.37,1.061-0.79,1.52-1.25c0.46-0.46,0.88-0.971,1.25-1.52c0.36-0.54,0.67-1.12,0.92-1.72
	c0.25-0.61,0.44-1.24,0.57-1.87c0.13-0.65,0.189-1.31,0.189-1.96s-0.06-1.31-0.189-1.95c-0.13-0.64-0.32-1.269-0.57-1.87
	c-0.25-0.609-0.56-1.189-0.92-1.729c-0.37-0.55-0.79-1.061-1.25-1.52c-0.46-0.46-0.97-0.88-1.52-1.239
	c-0.539-0.36-1.119-0.671-1.72-0.921c-0.609-0.25-1.24-0.439-1.87-0.569c-1.29-0.26-2.62-0.26-3.91,0
	c-0.64,0.13-1.269,0.319-1.869,0.569c-0.601,0.25-1.19,0.561-1.73,0.921c-0.55,0.359-1.06,0.779-1.52,1.239
	c-0.46,0.46-0.881,0.971-1.24,1.52c-0.36,0.54-0.67,1.12-0.92,1.729c-0.25,0.601-0.44,1.23-0.57,1.87c-0.13,0.641-0.2,1.3-0.2,1.95
	c0,0.65,0.07,1.31,0.2,1.96c0.13,0.63,0.32,1.26,0.57,1.87C466.534,475.015,466.843,475.595,467.204,476.135z"/>
<path d="M186.282,70.958c-0.25-0.601-0.561-1.181-0.921-1.721c-0.359-0.55-0.779-1.06-1.239-1.529c-2.33-2.32-5.78-3.381-9.03-2.73
	c-0.64,0.13-1.27,0.32-1.87,0.57s-1.18,0.56-1.729,0.92c-0.54,0.37-1.051,0.78-1.511,1.24c-0.47,0.47-0.88,0.979-1.25,1.529
	c-0.359,0.54-0.67,1.12-0.92,1.721c-0.25,0.609-0.439,1.239-0.569,1.869c-0.131,0.65-0.2,1.301-0.2,1.961
	c0,0.649,0.069,1.3,0.2,1.949c0.13,0.641,0.319,1.27,0.569,1.87c0.25,0.601,0.561,1.181,0.92,1.73c0.37,0.54,0.78,1.06,1.25,1.519
	c0.46,0.46,0.971,0.88,1.511,1.24c0.55,0.36,1.13,0.67,1.729,0.92s1.23,0.44,1.87,0.57c0.65,0.13,1.3,0.189,1.96,0.189
	c2.63,0,5.21-1.06,7.07-2.92c0.46-0.46,0.87-0.979,1.239-1.519c0.36-0.55,0.671-1.13,0.921-1.73c0.25-0.6,0.439-1.229,0.569-1.87
	c0.13-0.649,0.2-1.3,0.2-1.949c0-0.66-0.07-1.311-0.2-1.961C186.722,72.197,186.532,71.568,186.282,70.958z"/>
<g>
</g>
<g>
</g>
<g>
</g>
<g>
</g>
<g>
</g>
<g>
</g>
<g>
</g>
<g>
</g>
<g>
</g>
<g>
</g>
<g>
</g>
<g>
</g>
<g>
</g>
<g>
</g>
<g>
</g>
</svg>
