<?xml version="1.0" encoding="iso-8859-1"?>
<!-- Generator: Adobe Illustrator 19.0.0, SVG Export Plug-In . SVG Version: 6.00 Build 0)  -->
<svg version="1.1" id="Capa_1" xmlns="http://www.w3.org/2000/svg" xmlns:xlink="http://www.w3.org/1999/xlink" x="0px" y="0px"
	 viewBox="0 0 512 512" style="enable-background:new 0 0 512 512;" xml:space="preserve">
<path style="fill:#CE8570;" d="M335.598,148.117c-37.909-6.333-60.558,23.031-72.221,45.969
	c-11.663-22.938-34.312-52.303-72.221-45.969c-60.079,10.037-44.659,62.679-132.273,64.65c0,0,72.049,100.585,204.494,13.46
	c132.446,87.126,204.494-13.46,204.494-13.46C380.258,210.797,395.677,158.154,335.598,148.117z"/>
<path d="M451.752,512c-5.523,0-10-4.478-10-10v-67.08c0-5.522,4.477-10,10-10s10,4.478,10,10V502
	C461.752,507.522,457.275,512,451.752,512z"/>
<path d="M489.004,145.977c-3.258-4.458-9.515-5.433-13.975-2.173c-4.458,3.259-5.432,9.515-2.173,13.974
	c7.006,9.587,9.625,18.349,7.784,26.042c-2.341,9.783-11.275,16.348-15.283,18.861c-43.268-1.561-57.42-16.323-72.364-31.942
	c-12.367-12.927-26.384-27.579-55.748-32.484c-28.938-4.837-54.708,7.918-73.874,36.129c-11.19-16.467-27.736-32.336-51.07-36.245
	c-5.444-0.912-10.603,2.763-11.515,8.21s2.764,10.603,8.21,11.515c22.355,3.745,37.063,24.231,45.465,40.757
	c1.706,3.354,5.15,5.468,8.914,5.468c3.763,0,7.208-2.113,8.914-5.468c10.89-21.419,30.432-45.853,61.659-40.639
	c22.805,3.81,32.901,14.363,44.592,26.583c14.171,14.813,29.956,31.313,67.74,36.562c-8.074,7.143-19.725,15.582-34.803,21.8
	c-42.631,17.582-90.61,9.151-142.606-25.053c-3.335-2.193-7.656-2.193-10.991,0c-51.634,33.966-99.329,42.51-141.756,25.399
	c-15.384-6.205-27.337-14.853-35.598-22.154c37.744-5.257,53.522-21.749,67.686-36.555c1.67-1.745,3.333-3.483,5.027-5.193
	c3.887-3.924,3.858-10.255-0.065-14.143c-3.923-3.887-10.254-3.856-14.142,0.064c-1.777,1.794-3.521,3.616-5.272,5.446
	c-14.944,15.621-29.097,30.385-72.372,31.944c-3.964-2.483-12.863-9.005-15.249-18.755c-1.89-7.721,0.72-16.519,7.758-26.148
	c3.259-4.459,2.286-10.715-2.173-13.974c-4.459-3.26-10.716-2.287-13.975,2.173c-10.682,14.616-14.396,28.984-11.037,42.705
	c4.376,17.875,19.683,28.387,25.495,31.813c5.156,6.493,23.839,27.887,55.442,40.92c21.643,8.926,44.856,12.089,69.004,9.404
	c27.926-3.105,57.075-14.103,86.722-32.705c29.647,18.603,58.796,29.6,86.723,32.705c5.551,0.617,11.053,0.926,16.499,0.926
	c18.239,0,35.839-3.457,52.506-10.33c8.488-3.5,16.034-7.607,22.647-11.865v105.203c0,5.522,4.477,10,10,10s10-4.478,10-10V234.083
	c6.438-5.94,10.716-10.971,12.794-13.589c5.812-3.425,21.119-13.938,25.495-31.813C503.4,174.96,499.686,160.593,489.004,145.977z"
	/>
<path d="M451.756,404.84c-2.64,0-5.21-1.07-7.08-2.93c-1.86-1.86-2.93-4.44-2.93-7.07c0-2.64,1.07-5.21,2.93-7.07
	c1.86-1.87,4.44-2.93,7.08-2.93c2.63,0,5.2,1.06,7.07,2.93c1.86,1.86,2.93,4.431,2.93,7.07c0,2.63-1.07,5.21-2.93,7.07
	C456.956,403.77,454.386,404.84,451.756,404.84z"/>
<path d="M175.026,162.02c-2.63,0-5.21-1.069-7.07-2.93c-1.86-1.87-2.93-4.44-2.93-7.08c0-2.63,1.07-5.2,2.93-7.07
	c1.86-1.859,4.44-2.93,7.07-2.93s5.21,1.07,7.07,2.93c1.86,1.87,2.93,4.44,2.93,7.07c0,2.64-1.07,5.21-2.93,7.08
	C180.236,160.95,177.656,162.02,175.026,162.02z"/>
<path style="fill:#EBBF72;" d="M381.743,62.108L381.743,62.108c25.126,6.638,44.651,26.419,50.962,51.629l0,0l0,0
	c6.311-25.21,25.836-44.991,50.962-51.629h0.001c0.246-0.065,0.246-0.414,0-0.479l0,0C458.542,54.991,439.016,35.21,432.705,10l0,0
	l0,0c-6.311,25.21-25.836,44.991-50.962,51.629l0,0C381.497,61.694,381.497,62.043,381.743,62.108z"/>
<path d="M432.705,123.737c-4.587,0-8.586-3.121-9.701-7.571c-5.425-21.671-22.21-38.679-43.808-44.389
	c-4.489-1.182-7.629-5.247-7.638-9.89c-0.009-4.648,3.123-8.729,7.615-9.923c21.616-5.711,38.405-22.72,43.831-44.394
	c1.114-4.449,5.113-7.57,9.701-7.57s8.586,3.121,9.701,7.571c5.426,21.674,22.215,38.683,43.816,44.39
	c4.509,1.201,7.639,5.281,7.63,9.927c-0.008,4.646-3.153,8.713-7.646,9.893c-21.585,5.703-38.375,22.712-43.8,44.385
	C441.292,120.616,437.293,123.737,432.705,123.737z M406.25,61.868c10.751,6.642,19.816,15.708,26.455,26.45
	c6.638-10.742,15.701-19.808,26.453-26.448c-10.749-6.641-19.814-15.708-26.453-26.451C426.066,46.161,417.002,55.228,406.25,61.868
	z"/>
<path style="fill:#EBBF72;" d="M20.948,372.459L20.948,372.459c25.126,6.638,44.651,26.419,50.962,51.629l0,0l0,0
	c6.311-25.21,25.836-44.991,50.962-51.629h0.001c0.246-0.065,0.246-0.414,0-0.479l0,0c-25.126-6.638-44.652-26.419-50.963-51.629
	l0,0l0,0c-6.311,25.21-25.836,44.991-50.962,51.629l0,0C20.702,372.045,20.702,372.394,20.948,372.459z"/>
<path d="M71.91,434.088c-4.587,0-8.587-3.121-9.701-7.571c-5.424-21.669-22.207-38.675-43.8-44.385l0,0
	c-4.502-1.182-7.646-5.258-7.646-9.912s3.144-8.73,7.646-9.912c21.585-5.703,38.375-22.712,43.8-44.385
	c1.114-4.45,5.113-7.571,9.701-7.571s8.586,3.121,9.701,7.571c5.426,21.674,22.215,38.683,43.816,44.39
	c4.477,1.175,7.622,5.242,7.63,9.888c0.009,4.646-3.121,8.726-7.61,9.922c-21.622,5.712-38.411,22.721-43.836,44.395
	C80.497,430.967,76.497,434.088,71.91,434.088z M45.455,372.22c10.751,6.641,19.816,15.707,26.455,26.449
	c6.639-10.742,15.705-19.81,26.456-26.45c-10.754-6.643-19.817-15.706-26.456-26.449C65.272,356.512,56.207,365.578,45.455,372.22z"
	/>
<g>
</g>
<g>
</g>
<g>
</g>
<g>
</g>
<g>
</g>
<g>
</g>
<g>
</g>
<g>
</g>
<g>
</g>
<g>
</g>
<g>
</g>
<g>
</g>
<g>
</g>
<g>
</g>
<g>
</g>
</svg>
