<?xml version="1.0" encoding="iso-8859-1"?>
<!-- Generator: Adobe Illustrator 19.0.0, SVG Export Plug-In . SVG Version: 6.00 Build 0)  -->
<svg version="1.1" id="Capa_1" xmlns="http://www.w3.org/2000/svg" xmlns:xlink="http://www.w3.org/1999/xlink" x="0px" y="0px"
	 viewBox="0 0 512 512" style="enable-background:new 0 0 512 512;" xml:space="preserve">
<path style="fill:#CD5C63;" d="M240.95,206.088c-53.03,0-96.019-11.157-96.019-24.921V477.08c0,13.763,42.989,24.921,96.019,24.921
	s96.019-11.157,96.019-24.921V181.167C336.969,194.93,293.98,206.088,240.95,206.088z M336.969,435.825L336.969,435.825
	c-62.041,22.468-129.997,22.468-192.038,0l0,0v-55.276l0,0c62.041,22.468,129.997,22.468,192.038,0l0,0V435.825z M336.969,257.255
	v55.277l0,0c-62.041,22.468-129.997,22.468-192.038,0l0,0v-55.277l0,0C206.972,279.723,274.928,279.723,336.969,257.255
	L336.969,257.255z"/>
<path style="fill:#F4DAAB;" d="M144.931,181.167L144.931,181.167c0,13.764,42.989,24.921,96.019,24.921s96.019-11.157,96.019-24.921
	l0,0c0-13.763-42.989-24.921-96.019-24.921S144.931,167.403,144.931,181.167z"/>
<g>
	<path style="fill:#EBBF72;" d="M144.931,257.255L144.931,257.255v55.277l0,0c62.041,22.468,129.997,22.468,192.038,0l0,0v-55.277
		l0,0C274.928,279.723,206.972,279.723,144.931,257.255z"/>
	<path style="fill:#EBBF72;" d="M144.931,380.549L144.931,380.549v55.276l0,0c62.041,22.468,129.997,22.468,192.038,0l0,0v-55.276
		l0,0C274.928,403.017,206.972,403.017,144.931,380.549z"/>
	<path style="fill:#EBBF72;" d="M312.467,10.001c0,25.842-28.76,54.602-54.602,54.602c25.842,0,54.602,28.76,54.602,54.602
		c0-25.842,28.76-54.602,54.602-54.602C341.227,64.603,312.467,35.843,312.467,10.001z"/>
</g>
<path d="M293.19,95.398c5.636,7.417,9.277,15.891,9.277,23.806c0,5.522,4.477,10,10,10s10-4.478,10-10
	c0-20.425,24.177-44.602,44.602-44.602c5.523,0,10-4.478,10-10s-4.477-10-10-10c-20.425,0-44.602-24.177-44.602-44.602
	c0-5.522-4.477-10-10-10s-10,4.478-10,10c0,20.425-24.177,44.602-44.602,44.602c-5.523,0-10,4.478-10,10s4.477,10,10,10
	c6.654,0,13.702,2.576,20.186,6.742c-24.947,17.116-36.686,43.562-42.206,64.953c-22.701,0.419-100.915,4.099-100.915,34.869v76.088
	v123.294v96.531c0,33.941,95.167,34.921,106.019,34.921s106.019-0.979,106.019-34.921v-41.255v-55.276v-68.017v-55.276v-76.088
	c0-27.022-60.319-33.151-90.389-34.528C261.971,128.601,272.526,107.765,293.19,95.398z M312.467,41.06
	c5.989,9.307,14.236,17.554,23.543,23.543c-9.307,5.989-17.554,14.236-23.543,23.543c-5.989-9.307-14.236-17.554-23.543-23.543
	C298.231,58.613,306.478,50.366,312.467,41.06z M326.969,476.163c-1.599,1.8-8.354,6.198-25.556,10.045
	c-16.704,3.735-38.177,5.793-60.463,5.793s-43.759-2.058-60.463-5.793c-17.201-3.847-23.957-8.245-25.556-10.045v-26.459
	c27.981,8.618,56.999,12.938,86.019,12.938c29.021,0,58.039-4.32,86.019-12.938V476.163z M326.969,373.429
	c-5.319,1.773-10.705,3.396-16.091,4.829c-5.337,1.421-8.513,6.898-7.092,12.235c1.42,5.337,6.899,8.508,12.235,7.093
	c3.655-0.973,7.311-2.022,10.948-3.145v34.273c-55.738,18.572-116.3,18.572-172.038,0v-34.27
	c27.868,8.602,56.74,12.955,86.019,12.955c5.523,0,10-4.478,10-10s-4.477-10-10-10c-29.344,0-58.245-4.703-86.019-13.97v-47.021
	c27.981,8.618,56.999,12.938,86.019,12.938c29.021,0,58.039-4.32,86.019-12.938L326.969,373.429L326.969,373.429z M326.969,250.138
	c-28.82,9.615-58.812,14.297-89.272,13.949c-0.041-0.001-0.081-0.001-0.122-0.001c-5.467,0-9.931,4.399-9.997,9.881
	c-0.066,5.522,4.358,10.053,9.88,10.118c30.469,0.368,60.517-3.983,89.511-12.934v34.27c-55.738,18.572-116.3,18.572-172.038,0
	v-34.273c3.806,1.173,7.632,2.269,11.459,3.279c5.342,1.408,10.812-1.775,12.222-7.116c1.41-5.339-1.775-10.812-7.115-12.222
	c-5.548-1.465-11.093-3.129-16.566-4.953v-46.823c28.534,12.282,78.347,12.775,86.019,12.775s57.485-0.493,86.019-12.775V250.138z
	 M297.243,171.167c1.417,0.281,2.815,0.569,4.171,0.872c14.753,3.3,21.823,7.005,24.545,9.128
	c-2.722,2.123-9.792,5.828-24.545,9.128c-1.356,0.303-2.754,0.591-4.171,0.872c-16.036,3.18-35.815,4.921-56.292,4.921
	s-40.257-1.741-56.292-4.921c-1.417-0.281-2.815-0.569-4.171-0.872c-14.753-3.3-21.823-7.005-24.545-9.128
	c2.722-2.123,9.792-5.828,24.545-9.128c1.356-0.303,2.754-0.591,4.171-0.872c13.692-2.715,30.112-4.379,47.369-4.808
	c-0.216,1.726-0.389,3.333-0.528,4.808c-0.534,5.695-0.551,9.387-0.549,10.034c0.019,5.511,4.492,9.966,9.999,9.966h0.035
	c5.522-0.019,9.984-4.511,9.966-10.034c-0.001-0.154,0.019-3.958,0.683-9.966c0.161-1.458,0.36-3.042,0.606-4.739
	C268.629,166.944,284.178,168.577,297.243,171.167z"/>
<path d="M268.19,398.86c0.25,0.601,0.56,1.181,0.92,1.721c0.36,0.55,0.78,1.06,1.24,1.52s0.97,0.88,1.52,1.25
	c0.54,0.36,1.12,0.67,1.73,0.92c0.6,0.25,1.23,0.44,1.87,0.57c0.64,0.13,1.3,0.19,1.95,0.19s1.31-0.061,1.95-0.19
	c0.64-0.13,1.27-0.32,1.87-0.57c0.61-0.25,1.19-0.56,1.73-0.92c0.55-0.37,1.06-0.79,1.52-1.25s0.88-0.97,1.24-1.52
	c0.37-0.54,0.67-1.12,0.92-1.721c0.25-0.609,0.45-1.239,0.58-1.88c0.13-0.64,0.19-1.3,0.19-1.949c0-0.65-0.06-1.311-0.19-1.95
	c-0.13-0.641-0.32-1.271-0.57-1.87c-0.25-0.61-0.56-1.19-0.92-1.73c-0.37-0.55-0.79-1.06-1.25-1.52s-0.97-0.88-1.52-1.24
	c-0.54-0.36-1.12-0.67-1.72-0.92c-0.61-0.25-1.24-0.45-1.88-0.57c-1.29-0.26-2.62-0.26-3.9,0c-0.64,0.12-1.27,0.32-1.87,0.57
	c-0.61,0.25-1.19,0.56-1.73,0.92c-0.55,0.36-1.06,0.78-1.52,1.24s-0.88,0.97-1.24,1.52c-0.36,0.54-0.67,1.12-0.92,1.73
	c-0.25,0.6-0.45,1.229-0.57,1.87c-0.13,0.64-0.2,1.3-0.2,1.95c0,0.649,0.07,1.31,0.2,1.949
	C267.74,397.621,267.94,398.251,268.19,398.86z"/>
<path d="M210.53,267.471c-0.25-0.6-0.56-1.18-0.92-1.729c-0.36-0.54-0.78-1.051-1.24-1.521c-0.46-0.46-0.97-0.88-1.52-1.24
	c-0.54-0.359-1.12-0.67-1.73-0.92c-0.6-0.25-1.23-0.439-1.87-0.569c-1.29-0.261-2.61-0.261-3.9,0c-0.64,0.13-1.27,0.319-1.88,0.569
	c-0.6,0.25-1.18,0.561-1.72,0.92c-0.55,0.36-1.06,0.78-1.52,1.24c-0.46,0.47-0.88,0.98-1.25,1.521c-0.36,0.55-0.67,1.13-0.92,1.729
	s-0.44,1.23-0.57,1.87c-0.13,0.65-0.19,1.3-0.19,1.96c0,0.65,0.06,1.3,0.2,1.95c0.12,0.64,0.32,1.27,0.57,1.87s0.56,1.18,0.92,1.729
	c0.36,0.54,0.78,1.05,1.24,1.521c0.46,0.46,0.97,0.88,1.52,1.239c0.54,0.36,1.12,0.671,1.73,0.921c0.6,0.25,1.23,0.439,1.87,0.569
	s1.3,0.19,1.95,0.19s1.31-0.061,1.95-0.19c0.64-0.13,1.27-0.319,1.87-0.569c0.61-0.25,1.19-0.561,1.73-0.921
	c0.55-0.359,1.06-0.779,1.52-1.239c0.46-0.471,0.88-0.98,1.24-1.521c0.36-0.55,0.67-1.13,0.92-1.729c0.25-0.601,0.45-1.23,0.57-1.87
	c0.13-0.65,0.2-1.3,0.2-1.95c0-0.66-0.07-1.31-0.2-1.96C210.98,268.701,210.78,268.07,210.53,267.471z"/>
<g>
</g>
<g>
</g>
<g>
</g>
<g>
</g>
<g>
</g>
<g>
</g>
<g>
</g>
<g>
</g>
<g>
</g>
<g>
</g>
<g>
</g>
<g>
</g>
<g>
</g>
<g>
</g>
<g>
</g>
</svg>
