<?xml version="1.0" encoding="iso-8859-1"?>
<!-- Generator: Adobe Illustrator 19.0.0, SVG Export Plug-In . SVG Version: 6.00 Build 0)  -->
<svg version="1.1" id="Capa_1" xmlns="http://www.w3.org/2000/svg" xmlns:xlink="http://www.w3.org/1999/xlink" x="0px" y="0px"
	 viewBox="0 0 511.997 511.997" style="enable-background:new 0 0 511.997 511.997;" xml:space="preserve">
<path style="fill:#C7E1F0;" d="M105.08,325.072c0,78.203,63.396,141.599,141.599,141.599s141.599-63.396,141.599-141.599
	s-63.396-141.599-141.599-141.599C168.476,183.473,105.08,246.869,105.08,325.072z M246.679,236.435
	c48.953,0,88.636,39.684,88.636,88.636s-39.684,88.636-88.636,88.636s-88.637-39.684-88.637-88.636S197.726,236.435,246.679,236.435
	z"/>
<circle style="fill:#66B6E0;" cx="246.682" cy="325.07" r="88.637"/>
<path style="fill:#9A84B8;" d="M67.289,224.528c-7.356-1.067-14.124-4.358-20.232-9.259L11.627,418.375
	c-2.641,15.142,7.744,29.474,22.955,31.68c15.211,2.206,29.24-8.586,31.009-23.854l23.726-204.803
	C82.068,224.362,74.644,225.595,67.289,224.528z"/>
<g>
	<path style="fill:#F4DAAB;" d="M47.056,215.269c6.109,4.901,12.877,8.193,20.232,9.259c7.356,1.067,14.78-0.167,22.029-3.13
		c31.723-12.969,60.103-59.13,64.771-91.316c5.735-39.542-21.672-76.246-61.214-81.981s-76.246,21.672-81.981,61.214
		C6.225,141.502,20.324,193.824,47.056,215.269z"/>
	<path style="fill:#F4DAAB;" d="M408.815,54.421L408.815,54.421c-18.405,29.45-25.578,64.548-20.201,98.857l21.035,134.23
		c0.698,4.458,4.878,7.505,9.335,6.806l60.26-9.444L444.264,61.664C441.498,44.005,418.288,39.262,408.815,54.421z"/>
</g>
<path style="fill:#9A84B8;" d="M460.689,434.863c1.777,11.337,12.407,19.086,23.743,17.309c11.337-1.777,19.086-12.407,17.31-23.743
	l-22.498-143.558l-41.054,6.434L460.689,434.863z"/>
<path d="M95.08,325.072c0,83.593,68.007,151.6,151.6,151.6s151.599-68.007,151.599-151.6c0-83.592-68.007-151.599-151.6-151.599
	S95.08,241.48,95.08,325.072z M246.679,193.473c72.564,0,131.6,59.035,131.6,131.599s-59.035,131.6-131.6,131.6
	s-131.6-59.035-131.6-131.6C115.079,252.508,174.114,193.473,246.679,193.473z"/>
<path d="M246.679,423.708c54.388,0,98.637-44.249,98.637-98.637s-44.249-98.636-98.637-98.636c-13.366,0-26.333,2.63-38.543,7.817
	c-5.083,2.16-7.453,8.031-5.294,13.114c2.161,5.083,8.031,7.454,13.114,5.294c9.723-4.131,20.059-6.225,30.723-6.225
	c43.361,0,78.638,35.276,78.638,78.637s-35.276,78.638-78.638,78.638s-78.638-35.277-78.638-78.638
	c0-7.401,1.025-14.724,3.048-21.763c1.524-5.308-1.542-10.847-6.851-12.372c-5.305-1.527-10.848,1.542-12.372,6.851
	c-2.538,8.836-3.825,18.015-3.825,27.285C148.042,379.46,192.291,423.708,246.679,423.708z"/>
<path d="M175.114,274.25c0.54,0.36,1.12,0.66,1.721,0.91c0.609,0.25,1.229,0.45,1.87,0.58c0.649,0.13,1.31,0.19,1.96,0.19
	c0.649,0,1.31-0.06,1.949-0.19c0.641-0.13,1.271-0.32,1.87-0.58c0.601-0.25,1.19-0.55,1.73-0.91c0.55-0.37,1.06-0.79,1.52-1.25
	c0.46-0.46,0.88-0.97,1.24-1.52c0.36-0.54,0.67-1.12,0.92-1.72c0.25-0.61,0.44-1.24,0.57-1.87c0.13-0.65,0.2-1.31,0.2-1.96
	c0-0.65-0.07-1.31-0.2-1.95c-0.13-0.64-0.32-1.27-0.57-1.87c-0.25-0.61-0.56-1.19-0.92-1.73c-0.36-0.55-0.78-1.06-1.24-1.52
	c-0.46-0.46-0.97-0.88-1.52-1.24c-0.54-0.36-1.13-0.67-1.73-0.92c-0.6-0.25-1.229-0.44-1.87-0.57c-1.29-0.26-2.619-0.26-3.909,0
	c-0.641,0.13-1.261,0.32-1.87,0.57c-0.601,0.25-1.181,0.56-1.721,0.92c-0.55,0.36-1.06,0.78-1.52,1.24
	c-0.47,0.46-0.88,0.97-1.25,1.52c-0.36,0.54-0.67,1.12-0.92,1.73c-0.25,0.6-0.44,1.23-0.57,1.87c-0.13,0.64-0.189,1.3-0.189,1.95
	c0,2.63,1.06,5.21,2.93,7.07C174.055,273.46,174.565,273.88,175.114,274.25z"/>
<path d="M36.238,219.088L1.776,416.656c-1.746,10.008,0.575,20.05,6.536,28.276c5.962,8.227,14.781,13.561,24.835,15.019
	c1.823,0.264,3.642,0.395,5.447,0.395c8.158,0,16.039-2.668,22.631-7.74c8.053-6.194,13.131-15.164,14.3-25.254l23.078-199.216
	c11.111-5.713,22.114-14.965,32.467-27.476c17.117-20.687,29.729-47.181,32.914-69.142c6.517-44.936-24.739-86.795-69.675-93.311
	C49.359,31.692,7.512,62.948,0.997,107.882c-3.185,21.961,1.382,50.945,11.918,75.643C19.287,198.462,27.209,210.455,36.238,219.088
	z M55.658,425.05c-0.542,4.677-2.896,8.834-6.627,11.705c-3.732,2.872-8.357,4.082-13.014,3.404
	c-4.66-0.676-8.748-3.148-11.511-6.961c-2.763-3.813-3.839-8.467-3.029-13.105l32.94-188.842c3.71,1.538,7.528,2.607,11.435,3.174
	c2.23,0.323,4.475,0.483,6.736,0.483c1.702,0,3.413-0.097,5.128-0.278L55.658,425.05z M20.789,110.75
	c4.496-31.002,31.21-53.403,61.661-53.403c2.966,0,5.97,0.212,8.988,0.65c34.022,4.934,57.686,36.627,52.753,70.649
	c-2.647,18.253-13.846,41.516-28.529,59.262c-4.655,5.626-9.43,10.433-14.21,14.371c-7.229,5.954-14.471,9.906-21.334,11.628
	c-3.948,0.991-7.772,1.25-11.394,0.724c-3.624-0.525-7.217-1.861-10.721-3.933c-6.092-3.602-11.913-9.448-17.152-17.209
	c-3.465-5.133-6.677-11.098-9.542-17.813C22.272,154.489,18.142,129.005,20.789,110.75z"/>
<path d="M45.03,128.411c0.487,0.071,0.971,0.105,1.448,0.105c4.887,0,9.162-3.587,9.884-8.566
	c0.916-6.319,4.238-11.903,9.354-15.723c5.115-3.82,11.412-5.421,17.73-4.503c5.472,0.795,10.54-2.996,11.332-8.461
	c0.793-5.466-2.995-10.539-8.461-11.332c-11.61-1.683-23.171,1.253-32.567,8.271c-9.396,7.016-15.498,17.27-17.181,28.876
	C35.776,122.545,39.564,127.618,45.03,128.411z"/>
<path d="M465.907,143.154c-0.37-0.55-0.79-1.06-1.25-1.52c-0.46-0.46-0.971-0.88-1.521-1.24c-0.54-0.36-1.12-0.67-1.72-0.92
	c-0.61-0.25-1.24-0.44-1.88-0.57c-1.29-0.26-2.61-0.26-3.9,0c-0.64,0.13-1.27,0.32-1.87,0.57c-0.609,0.25-1.189,0.56-1.729,0.92
	c-0.55,0.36-1.061,0.78-1.521,1.24c-0.46,0.46-0.88,0.97-1.239,1.52c-0.36,0.54-0.671,1.12-0.921,1.73
	c-0.25,0.6-0.449,1.23-0.569,1.87c-0.13,0.64-0.2,1.3-0.2,1.95s0.07,1.31,0.2,1.96c0.12,0.63,0.319,1.26,0.569,1.87
	c0.25,0.6,0.561,1.18,0.921,1.72c0.359,0.55,0.779,1.06,1.239,1.52c0.46,0.46,0.971,0.88,1.521,1.25c0.54,0.36,1.12,0.67,1.729,0.92
	c0.601,0.25,1.23,0.44,1.87,0.57c0.641,0.13,1.3,0.19,1.95,0.19c0.65,0,1.31-0.06,1.95-0.19c0.64-0.13,1.27-0.32,1.88-0.57
	c0.6-0.25,1.18-0.56,1.72-0.92c0.55-0.37,1.061-0.79,1.521-1.25c0.46-0.46,0.88-0.97,1.25-1.52c0.359-0.54,0.67-1.12,0.92-1.72
	c0.25-0.61,0.439-1.24,0.569-1.87c0.131-0.65,0.19-1.31,0.19-1.96s-0.06-1.31-0.19-1.95c-0.13-0.64-0.319-1.27-0.569-1.87
	C466.577,144.274,466.267,143.694,465.907,143.154z"/>
<path d="M476.19,203.402l-2.439-15.726c-0.847-5.458-5.957-9.194-11.415-8.349c-5.457,0.847-9.195,5.957-8.349,11.415l2.455,15.822
	l7.926,47.966l3.449,22.009l-31.174,4.885c-0.002,0-0.004,0.001-0.006,0.001l-17.393,2.726l-20.751-132.422
	c-5.004-31.927,1.674-64.603,18.802-92.009c3.179-5.086,8.273-4.49,9.758-4.188c1.485,0.304,6.405,1.755,7.333,7.68l1.54,9.825
	l3.666,24.88l1.833,11.817c0.846,5.458,5.953,9.194,11.415,8.349c5.457-0.847,9.195-5.957,8.349-11.415l-1.821-11.742l-3.668-24.895
	l-1.554-9.916c-1.914-12.213-10.978-21.703-23.088-24.177c-12.108-2.476-24.17,2.699-30.722,13.183
	c-19.677,31.485-27.349,69.025-21.601,105.705l21.036,134.232c1.403,8.948,9.152,15.356,17.939,15.356
	c0.932,0,1.874-0.072,2.822-0.221l9.328-1.462l20.95,133.68c2.376,15.16,15.501,26.014,30.387,26.014
	c1.578,0,3.177-0.122,4.783-0.374c8.122-1.272,15.263-5.632,20.105-12.275c4.843-6.643,6.809-14.775,5.536-22.895l-22.497-143.559
	v-0.001l-5.01-31.969L476.19,203.402z M491.863,429.978c0.445,2.844-0.243,5.691-1.938,8.018c-1.696,2.326-4.196,3.853-7.041,4.298
	c0,0,0,0-0.001,0c-5.863,0.922-11.396-3.109-12.315-8.979l-20.949-133.679l12.843-2.013l8.453-1.324L491.863,429.978z"/>
<g>
</g>
<g>
</g>
<g>
</g>
<g>
</g>
<g>
</g>
<g>
</g>
<g>
</g>
<g>
</g>
<g>
</g>
<g>
</g>
<g>
</g>
<g>
</g>
<g>
</g>
<g>
</g>
<g>
</g>
</svg>
