<?xml version="1.0" encoding="iso-8859-1"?>
<!-- Generator: Adobe Illustrator 19.0.0, SVG Export Plug-In . SVG Version: 6.00 Build 0)  -->
<svg version="1.1" id="Capa_1" xmlns="http://www.w3.org/2000/svg" xmlns:xlink="http://www.w3.org/1999/xlink" x="0px" y="0px"
	 viewBox="0 0 512.001 512.001" style="enable-background:new 0 0 512.001 512.001;" xml:space="preserve">
<path style="fill:#C7E1F0;" d="M277.081,475.201v-81.549h1.087c-12.89,0-23.34-10.449-23.34-23.34
	c0-12.89,10.449-23.339,23.34-23.339h84.489L352.053,145.77c-0.566-10.735-9.435-19.15-20.186-19.15H92.77
	c-10.75,0-19.62,8.414-20.185,19.15L54.931,480.724c-0.609,11.565,8.604,21.277,20.186,21.277h228.764
	C289.08,502.001,277.081,490.002,277.081,475.201z M299.781,156.214c12.537,0,22.7,10.163,22.7,22.7s-10.163,22.7-22.7,22.7
	c-12.537,0-22.7-10.163-22.7-22.7S287.244,156.214,299.781,156.214z M122.413,201.614c-12.537,0-22.7-10.163-22.7-22.7
	s10.163-22.7,22.7-22.7s22.7,10.163,22.7,22.7C145.113,191.451,134.95,201.614,122.413,201.614z M160.026,297.092
	c-12.112-25.169,13.184-52.021,39.031-41.431l13.262,5.434l13.262-5.434c25.847-10.59,51.143,16.262,39.031,41.431l-52.292,59.393
	L160.026,297.092z"/>
<g>
	<circle style="fill:#F4DAAB;" cx="122.41" cy="178.91" r="22.7"/>
	<circle style="fill:#F4DAAB;" cx="299.78" cy="178.91" r="22.7"/>
</g>
<path style="fill:#E2A546;" d="M277.081,393.653v81.549c0,14.801,11.999,26.8,26.8,26.8h45.64h58.525
	c14.801,0,26.8-11.999,26.8-26.8v-81.549h-1.087H278.168H277.081z"/>
<path style="fill:#EBBF72;" d="M457.098,370.313c0-12.89-10.449-23.339-23.339-23.339h-71.101h-84.489
	c-12.89,0-23.34,10.449-23.34,23.339c0,12.89,10.449,23.34,23.34,23.34H433.76C446.648,393.653,457.098,383.203,457.098,370.313z"/>
<path style="fill:#CD5C63;" d="M225.58,255.661l-13.262,5.434l-13.262-5.434c-25.847-10.59-51.143,16.262-39.031,41.431
	l52.292,59.393l52.292-59.393C276.723,271.922,251.427,245.07,225.58,255.661z"/>
<path d="M349.521,512.001h6.442h52.082c20.291,0,36.8-16.508,36.8-36.8V401.75c12.949-4.58,22.253-16.939,22.253-31.437
	c0-18.383-14.956-33.339-33.34-33.339h-38.115c-0.041,0-0.081-0.001-0.122,0h-23.377l-10.105-191.729
	c-0.846-16.051-14.099-28.624-30.172-28.624h-20.756V98.587c0-25.074-9.406-48.982-26.487-67.32
	c-3.765-4.041-10.091-4.267-14.133-0.501c-4.042,3.764-4.267,10.092-0.502,14.133c13.621,14.624,21.122,33.69,21.122,53.688v18.034
	H133.525V98.587c0-41.286,32.226-75.815,73.365-78.609c5.51-0.374,9.674-5.145,9.299-10.655c-0.374-5.51-5.135-9.678-10.654-9.299
	c-51.594,3.503-92.01,46.798-92.01,98.563v18.034H92.77c-16.072,0-29.325,12.573-30.172,28.624L44.944,480.197
	c-0.434,8.24,2.574,16.398,8.253,22.385c5.679,5.986,13.668,9.419,21.919,9.419h228.765H349.521z M424.845,475.201
	c0,9.264-7.536,16.8-16.8,16.8h-30.107h-11.975v-88.348h9.695h6.096c0.011,0,0.023,0.002,0.034,0.002c0.02,0,0.04-0.002,0.06-0.002
	h42.996L424.845,475.201L424.845,475.201z M403.148,356.974h30.61c7.355,0,13.34,5.984,13.34,13.339s-5.984,13.34-13.34,13.34
	h-38.559L403.148,356.974z M373.198,356.974h9.08l-7.715,25.895l-0.234,0.785h-18.366h-1.387h-16.979l-7.949-26.679h23.522
	L373.198,356.974L373.198,356.974z M293.07,168.152c1.821,2.466,4.74,4.073,8.041,4.073c2.729,0,5.201-1.096,7.005-2.869
	c2.668,2.33,4.365,5.746,4.365,9.559c0,7.003-5.697,12.7-12.7,12.7s-12.7-5.697-12.7-12.7
	C287.081,174.377,289.481,170.398,293.07,168.152z M115.553,168.243c1.826,2.415,4.713,3.982,7.973,3.982
	c2.782,0,5.297-1.138,7.11-2.972c2.735,2.331,4.478,5.794,4.478,9.661c0,7.003-5.697,12.7-12.7,12.7s-12.7-5.697-12.7-12.7
	C109.713,174.439,112.045,170.506,115.553,168.243z M75.116,492.001c-2.83,0-5.462-1.131-7.409-3.184
	c-1.948-2.053-2.939-4.741-2.79-7.567L82.57,146.297c0.286-5.426,4.767-9.677,10.199-9.677h20.756v10.831
	c-13.724,3.883-23.813,16.512-23.813,31.463c0,18.031,14.669,32.7,32.7,32.7s32.7-14.669,32.7-32.7
	c0-14.131-9.011-26.195-21.588-30.753V136.62H291.11v10.77c-13.835,3.81-24.03,16.495-24.03,31.524c0,18.031,14.669,32.7,32.7,32.7
	s32.7-14.669,32.7-32.7c0-14.049-8.907-26.056-21.37-30.674v-11.62h20.756c5.434,0,9.914,4.25,10.199,9.676l10.049,190.677h-35.732
	c-0.025,0-0.05,0-0.075,0h-38.14c-18.384,0-33.34,14.956-33.34,33.339c0,14.498,9.304,26.857,22.253,31.437V475.2
	c0,6.051,1.477,11.759,4.075,16.8H75.116V492.001z M264.828,370.313c0-7.355,5.984-13.339,13.34-13.339h30.61l7.949,26.679h-38.559
	C270.813,383.653,264.828,377.668,264.828,370.313z M287.081,475.201v-71.548h42.996c0.02,0,0.04,0.002,0.06,0.002
	c0.011,0,0.023-0.002,0.034-0.002h15.791v88.348H303.88C294.617,492.001,287.081,484.465,287.081,475.201z"/>
<path d="M273.622,301.428c7.329-15.229,4.576-33.018-7.013-45.319c-11.589-12.302-29.182-16.11-44.821-9.702l-9.47,3.88l-9.471-3.88
	c-15.635-6.408-33.23-2.6-44.819,9.702s-14.342,30.09-7.013,45.319c0.396,0.822,0.902,1.587,1.505,2.271l52.292,59.393
	c1.898,2.156,4.633,3.392,7.506,3.392s5.607-1.236,7.506-3.392l52.293-59.393C272.72,303.015,273.227,302.25,273.622,301.428z
	 M256.114,291.61l-43.796,49.742l-43.795-49.742c-3.708-8.908-0.413-17.036,4.063-21.787c4.666-4.954,13.075-8.846,22.679-4.909
	l13.262,5.434c2.43,0.995,5.154,0.995,7.584,0l13.261-5.434c9.609-3.938,18.015-0.043,22.681,4.91
	C256.527,274.574,259.822,282.702,256.114,291.61z"/>
<path d="M237.38,22.021c0.37,0.55,0.79,1.06,1.25,1.52c0.46,0.46,0.97,0.88,1.52,1.24c0.54,0.36,1.12,0.67,1.721,0.92
	c0.609,0.25,1.229,0.45,1.87,0.57c0.649,0.13,1.31,0.2,1.96,0.2c0.649,0,1.31-0.07,1.949-0.2c0.641-0.12,1.271-0.32,1.87-0.57
	c0.61-0.25,1.19-0.56,1.73-0.92c0.55-0.36,1.06-0.78,1.52-1.24s0.88-0.97,1.24-1.52c0.36-0.54,0.67-1.12,0.92-1.73
	c0.25-0.6,0.44-1.23,0.57-1.87s0.2-1.3,0.2-1.95c0-0.65-0.07-1.31-0.2-1.95c-0.13-0.64-0.32-1.27-0.57-1.88
	c-0.25-0.6-0.56-1.18-0.92-1.72c-0.36-0.55-0.78-1.06-1.24-1.52s-0.97-0.88-1.52-1.25c-0.54-0.36-1.13-0.66-1.73-0.91
	c-0.6-0.25-1.229-0.45-1.87-0.58c-1.29-0.26-2.619-0.26-3.909,0c-0.641,0.13-1.261,0.33-1.87,0.58
	c-0.601,0.25-1.181,0.55-1.721,0.91c-0.55,0.37-1.06,0.79-1.52,1.25c-0.47,0.46-0.88,0.97-1.25,1.52c-0.36,0.54-0.67,1.12-0.92,1.72
	c-0.25,0.61-0.44,1.24-0.57,1.88s-0.189,1.3-0.189,1.95c0,0.65,0.06,1.31,0.189,1.95s0.32,1.27,0.57,1.87
	C236.71,20.901,237.02,21.481,237.38,22.021z"/>
<g>
</g>
<g>
</g>
<g>
</g>
<g>
</g>
<g>
</g>
<g>
</g>
<g>
</g>
<g>
</g>
<g>
</g>
<g>
</g>
<g>
</g>
<g>
</g>
<g>
</g>
<g>
</g>
<g>
</g>
</svg>
