<?xml version="1.0" encoding="iso-8859-1"?>
<!-- Generator: Adobe Illustrator 19.0.0, SVG Export Plug-In . SVG Version: 6.00 Build 0)  -->
<svg version="1.1" id="Capa_1" xmlns="http://www.w3.org/2000/svg" xmlns:xlink="http://www.w3.org/1999/xlink" x="0px" y="0px"
	 viewBox="0 0 512.001 512.001" style="enable-background:new 0 0 512.001 512.001;" xml:space="preserve">
<path style="fill:#C7E1F0;" d="M205.319,269.435v213.449c0,10.557,8.558,19.116,19.115,19.116s19.116-8.558,19.116-19.116V270.56
	c-5.004,0.582-10.091,0.89-15.251,0.89C220.458,271.45,212.779,270.758,205.319,269.435z"/>
<path style="fill:#CD5C63;" d="M205.319,269.435c7.461,1.323,15.139,2.015,22.98,2.015c5.16,0,10.247-0.309,15.251-0.89
	c65.01-7.555,115.474-62.797,115.474-129.835C359.024,68.528,300.496,10,228.299,10S97.574,68.528,97.574,140.725
	C97.574,205.082,144.08,258.575,205.319,269.435z M228.299,54.465c14.312,0,27.811,3.486,39.692,9.655
	c17.292,8.978,31.159,23.639,39.128,41.508c4.781,10.722,7.439,22.599,7.439,35.097c0,47.64-38.62,86.26-86.26,86.26
	s-86.26-38.62-86.26-86.26C142.039,93.085,180.659,54.465,228.299,54.465z"/>
<path style="fill:#F4DAAB;" d="M228.299,226.985c47.64,0,86.26-38.62,86.26-86.26c0-12.498-2.658-24.375-7.439-35.097
	c-7.969-17.87-21.836-32.531-39.128-41.508c-11.882-6.169-25.38-9.655-39.692-9.655c-47.64,0-86.26,38.62-86.26,86.26
	C142.039,188.365,180.659,226.985,228.299,226.985z M228.299,108.881c17.587,0,31.844,14.257,31.844,31.844
	s-14.257,31.844-31.844,31.844s-31.844-14.257-31.844-31.844C196.454,123.138,210.711,108.881,228.299,108.881z"/>
<circle style="fill:#CD5C63;" cx="228.3" cy="140.72" r="31.844"/>
<path style="fill:#EBBF72;" d="M382.071,263.95c-8.385-7.47-21.238-6.729-28.708,1.656l-40.8,45.795
	c-7.47,8.385-6.729,21.237,1.656,28.708l9.707,8.648l9.706,8.648c8.385,7.47,21.238,6.729,28.708-1.656l40.8-45.795
	c7.47-8.385,6.729-21.237-1.655-28.707l-9.707-8.648L382.071,263.95z"/>
<g>
	<path style="fill:#E2A546;" d="M442.953,253.619l-27.227-7.9l-10.978-26.138c-0.967-2.302-4.203-2.374-5.27-0.116l-19.961,42.21
		l2.555,2.276l9.707,8.648l9.707,8.648l2.554,2.276l39.635-24.682C445.794,257.521,445.351,254.314,442.953,253.619z"/>
	<path style="fill:#E2A546;" d="M311.664,337.833l-39.635,24.682c-2.12,1.32-1.677,4.526,0.721,5.222l27.227,7.9l10.978,26.138
		c0.967,2.302,4.203,2.373,5.27,0.116l19.961-42.21l-12.261-10.924l-9.707-8.648L311.664,337.833z"/>
</g>
<circle style="fill:#9A84B8;" cx="110.3" cy="329.02" r="43.33"/>
<path d="M195.319,277.538v205.347c0,16.054,13.061,29.116,29.116,29.116c16.054,0,29.115-13.062,29.115-29.116V279.177
	c65.588-11.932,115.474-69.474,115.474-138.452C369.024,63.129,305.895,0,228.299,0S87.574,63.129,87.574,140.725
	C87.574,206.966,133.582,262.655,195.319,277.538z M233.55,482.884c0,5.026-4.089,9.116-9.115,9.116s-9.116-4.089-9.116-9.116
	V280.846c4.276,0.393,8.603,0.604,12.98,0.604c1.759,0,3.508-0.044,5.251-0.108V482.884z M228.299,20
	c66.568,0,120.725,54.157,120.725,120.725c0,57.909-40.988,106.419-95.474,118.06c-6.491,1.387-13.172,2.25-20,2.544
	c-1.742,0.075-3.491,0.121-5.251,0.121c-4.385,0-8.714-0.241-12.98-0.699c-6.852-0.736-13.537-2.042-20-3.879
	c-50.589-14.385-87.745-61.008-87.745-116.146C107.574,74.157,161.731,20,228.299,20z"/>
<path d="M195.319,231.164c10.292,3.765,21.4,5.821,32.98,5.821c8.735,0,17.2-1.177,25.251-3.367
	c40.868-11.121,71.008-48.55,71.008-92.892c0-13.633-2.794-26.811-8.306-39.17c-8.85-19.842-24.353-36.289-43.653-46.31
	c-13.583-7.052-28.901-10.78-44.3-10.78c-7.403,0-14.782,0.845-21.931,2.512c-5.378,1.254-8.722,6.63-7.468,12.009
	c1.254,5.378,6.634,8.724,12.009,7.468c5.662-1.32,11.513-1.989,17.39-1.989c12.379,0,24.183,2.87,35.083,8.53
	c15.302,7.944,27.591,20.98,34.604,36.706c4.36,9.778,6.571,20.216,6.571,31.024c0,42.05-34.21,76.26-76.259,76.26
	c-42.05,0-76.26-34.21-76.26-76.26c0-14.154,3.903-27.969,11.287-39.949c2.897-4.702,1.435-10.862-3.266-13.76
	c-4.702-2.897-10.862-1.435-13.76,3.266c-9.33,15.137-14.261,32.58-14.261,50.443C132.039,182.223,158.435,217.671,195.319,231.164z
	"/>
<path d="M268.105,127.797c-5.614-17.295-21.611-28.916-39.806-28.916c-23.073,0-41.845,18.771-41.845,41.844
	c0,18.543,11.909,34.631,29.635,40.033c0.972,0.296,1.953,0.437,2.918,0.437c4.285,0,8.249-2.776,9.563-7.087
	c1.61-5.283-1.368-10.871-6.651-12.481c-9.25-2.818-15.465-11.218-15.465-20.901c0-12.045,9.799-21.844,21.845-21.844
	c9.501,0,17.853,6.064,20.783,15.091c1.705,5.254,7.344,8.129,12.599,6.424C266.934,138.69,269.81,133.05,268.105,127.797z"/>
<path d="M168.46,74.7c0.25,0.6,0.56,1.18,0.92,1.72c0.36,0.55,0.78,1.06,1.24,1.52s0.97,0.88,1.52,1.25
	c0.54,0.36,1.12,0.66,1.73,0.91c0.6,0.25,1.23,0.45,1.87,0.58c0.64,0.13,1.3,0.19,1.95,0.19s1.31-0.06,1.95-0.19
	c0.64-0.13,1.27-0.33,1.88-0.58c0.6-0.24,1.18-0.55,1.72-0.91c0.55-0.37,1.06-0.79,1.52-1.25c1.86-1.86,2.93-4.44,2.93-7.07
	c0-0.65-0.06-1.31-0.19-1.95s-0.33-1.27-0.58-1.87c-0.25-0.61-0.56-1.19-0.92-1.73c-0.36-0.55-0.78-1.06-1.24-1.52
	s-0.97-0.88-1.52-1.24c-0.54-0.36-1.12-0.67-1.72-0.92c-0.61-0.25-1.24-0.44-1.88-0.57c-3.24-0.66-6.7,0.41-9.02,2.73
	c-0.46,0.46-0.88,0.97-1.24,1.52c-0.36,0.54-0.67,1.12-0.92,1.73c-0.25,0.6-0.45,1.23-0.57,1.87c-0.13,0.64-0.2,1.3-0.2,1.95
	c0,0.65,0.07,1.31,0.2,1.95C168.01,73.46,168.21,74.09,168.46,74.7z"/>
<path d="M260.75,155.93c-0.36-0.55-0.78-1.06-1.24-1.52s-0.979-0.88-1.52-1.24c-0.551-0.36-1.13-0.67-1.73-0.92
	s-1.23-0.44-1.87-0.57c-1.29-0.26-2.62-0.26-3.91,0c-0.64,0.13-1.27,0.32-1.87,0.57s-1.18,0.56-1.73,0.92
	c-0.54,0.36-1.06,0.78-1.52,1.24s-0.88,0.97-1.24,1.52c-0.36,0.54-0.67,1.13-0.92,1.73c-0.25,0.6-0.44,1.23-0.57,1.87
	s-0.19,1.3-0.19,1.95c0,0.66,0.06,1.31,0.19,1.96c0.13,0.64,0.32,1.27,0.57,1.87c0.25,0.6,0.56,1.18,0.92,1.73
	c0.36,0.54,0.78,1.05,1.24,1.52c0.46,0.46,0.98,0.87,1.52,1.24c0.55,0.36,1.13,0.67,1.73,0.92s1.23,0.44,1.87,0.57
	c0.65,0.13,1.3,0.19,1.96,0.19c0.65,0,1.3-0.06,1.95-0.19c0.64-0.13,1.27-0.32,1.87-0.57c0.6-0.25,1.18-0.56,1.73-0.92
	c0.54-0.37,1.06-0.78,1.52-1.24c0.46-0.47,0.88-0.98,1.24-1.52c0.359-0.55,0.67-1.13,0.92-1.73c0.25-0.6,0.439-1.23,0.57-1.87
	c0.13-0.65,0.199-1.3,0.199-1.96c0-0.65-0.069-1.31-0.199-1.95c-0.131-0.64-0.32-1.27-0.57-1.87S261.11,156.47,260.75,155.93z"/>
<path d="M454.914,254.626c-0.695-5.031-4.297-9.197-9.175-10.612l-22.642-6.569l-9.13-21.737c-1.966-4.682-6.517-7.78-11.594-7.894
	c-5.071-0.102-9.763,2.78-11.937,7.375l-16.147,34.146c-2.439-0.466-4.951-0.634-7.491-0.486
	c-8.09,0.466-15.513,4.055-20.902,10.104l-40.799,45.795c-5.391,6.049-8.103,13.836-7.636,21.925
	c0.147,2.542,0.602,5.017,1.345,7.385l-32.064,19.967c0,0,0,0-0.001,0c-4.311,2.685-6.647,7.671-5.952,12.702
	s4.297,9.197,9.175,10.612l22.642,6.569l9.13,21.737c1.966,4.683,6.518,7.781,11.596,7.894c0.096,0.002,0.19,0.003,0.285,0.003
	c4.967,0,9.518-2.871,11.648-7.377l16.149-34.15c1.865,0.356,3.772,0.542,5.703,0.542c0.594,0,1.189-0.017,1.786-0.052
	c8.09-0.466,15.513-4.055,20.902-10.104l40.799-45.794c5.391-6.049,8.103-13.836,7.636-21.925c-0.147-2.542-0.603-5.018-1.345-7.385
	l32.064-19.967c0,0,0,0,0.001,0C453.272,264.644,455.609,259.658,454.914,254.626z M314.002,383.202l-4.805-11.438
	c-1.169-2.784-3.533-4.89-6.433-5.731l-11.915-3.457l19.749-12.298l6.675,5.947l6.674,5.947L314.002,383.202z M395.673,303.302
	l-40.8,45.795c-1.836,2.061-4.364,3.283-7.12,3.442c-2.751,0.158-5.408-0.765-7.469-2.601l-14.201-12.651l-5.216-4.646
	c-2.059-1.836-3.28-4.363-3.439-7.118s0.765-5.408,2.602-7.469l14.104-15.831l16.895,15.766c1.928,1.799,4.376,2.689,6.82,2.689
	c2.675,0,5.344-1.067,7.313-3.177c3.768-4.038,3.549-10.366-0.489-14.134l-17.232-16.081l13.388-15.028
	c1.836-2.061,4.364-3.283,7.12-3.442c0.203-0.012,0.406-0.018,0.608-0.018c2.535,0,4.952,0.918,6.86,2.618l19.413,17.296
	c2.061,1.836,3.283,4.365,3.442,7.121C398.434,298.588,397.51,301.241,395.673,303.302z M405.105,271.078l-13.349-11.894
	l9.945-21.032l4.805,11.439c1.169,2.784,3.533,4.89,6.433,5.731l11.915,3.457L405.105,271.078z"/>
<path d="M56.965,329.019c0,29.408,23.925,53.333,53.333,53.333c13.766,0,26.33-5.243,35.802-13.837
	c0.347-0.284,0.667-0.597,0.973-0.924c10.19-9.719,16.559-23.412,16.559-38.573c0-29.408-23.925-53.333-53.334-53.333
	S56.965,299.611,56.965,329.019z M110.299,295.686c18.38,0,33.334,14.953,33.334,33.333c0,8.103-2.909,15.537-7.733,21.321
	c-3.591-0.633-8.872-2.175-12.243-5.918c-2.964-3.292-4.081-7.989-3.412-14.358c0.577-5.493-3.409-10.413-8.901-10.989
	c-5.495-0.575-10.413,3.409-10.989,8.901c-1.589,15.143,3.713,24.58,8.441,29.83c1.502,1.668,3.117,3.117,4.789,4.384
	c-1.081,0.106-2.176,0.163-3.284,0.163c-18.38,0-33.333-14.953-33.333-33.333C76.965,310.639,91.918,295.686,110.299,295.686z"/>
<g>
</g>
<g>
</g>
<g>
</g>
<g>
</g>
<g>
</g>
<g>
</g>
<g>
</g>
<g>
</g>
<g>
</g>
<g>
</g>
<g>
</g>
<g>
</g>
<g>
</g>
<g>
</g>
<g>
</g>
</svg>
