<?xml version="1.0" encoding="iso-8859-1"?>
<!-- Generator: Adobe Illustrator 19.0.0, SVG Export Plug-In . SVG Version: 6.00 Build 0)  -->
<svg version="1.1" id="Capa_1" xmlns="http://www.w3.org/2000/svg" xmlns:xlink="http://www.w3.org/1999/xlink" x="0px" y="0px"
	 viewBox="0 0 511.999 511.999" style="enable-background:new 0 0 511.999 511.999;" xml:space="preserve">
<path style="fill:#66B6E0;" d="M380.429,33.921c0-15.647-14.784-27.075-29.927-23.132L113.539,72.492h266.89V33.921z"/>
<path style="fill:#C7E1F0;" d="M398.461,502H113.539c-14.03,0-25.404-11.374-25.404-25.404v-378.7
	c0-14.03,11.374-25.404,25.404-25.404h284.922c14.03,0,25.404,11.374,25.404,25.404v378.701
	C423.865,490.626,412.491,502,398.461,502z"/>
<path d="M398.461,62.492h-8.032V33.92c0-10.578-4.8-20.355-13.169-26.824c-8.37-6.468-19.042-8.65-29.277-5.985L112.12,62.528
	c-18.865,0.748-33.985,16.321-33.985,35.367v378.701c0,19.521,15.882,35.403,35.403,35.403h284.923
	c19.521,0,35.403-15.882,35.403-35.403V97.895C433.865,78.374,417.983,62.492,398.461,62.492z M353.022,20.466
	c4.198-1.093,8.575-0.198,12.006,2.455c3.432,2.653,5.4,6.662,5.4,11v28.573H191.625L353.022,20.466z M413.865,476.596
	c0,8.493-6.91,15.403-15.403,15.403H113.538c-8.494,0-15.403-6.91-15.403-15.403V97.895c0-8.493,6.91-15.403,15.403-15.403h284.923
	c8.494,0,15.403,6.91,15.403,15.403v378.701H413.865z"/>
<path d="M378.967,441.114h-40.163c-5.523,0-10-4.477-10-10s4.477-10,10-10h40.163c5.523,0,10,4.477,10,10
	S384.49,441.114,378.967,441.114z"/>
<path d="M378.967,474.849h-96.401c-5.523,0-10-4.477-10-10s4.477-10,10-10h96.401c5.523,0,10,4.477,10,10
	S384.49,474.849,378.967,474.849z"/>
<path d="M242.41,474.849c-0.66,0-1.31-0.07-1.96-0.2c-0.64-0.13-1.27-0.32-1.87-0.57c-0.6-0.25-1.18-0.56-1.73-0.92
	c-0.54-0.36-1.06-0.78-1.52-1.24c-0.46-0.46-0.88-0.97-1.24-1.52c-0.36-0.54-0.67-1.12-0.92-1.73c-0.25-0.6-0.44-1.23-0.57-1.87
	c-0.13-0.64-0.2-1.3-0.2-1.95c0-2.63,1.07-5.21,2.93-7.07c0.46-0.46,0.98-0.88,1.52-1.25c0.55-0.36,1.13-0.67,1.73-0.92
	s1.23-0.44,1.87-0.57c1.29-0.26,2.62-0.26,3.91,0c0.64,0.13,1.27,0.32,1.87,0.57s1.18,0.56,1.73,0.92c0.54,0.37,1.05,0.79,1.52,1.25
	c1.86,1.86,2.92,4.44,2.92,7.07c0,0.65-0.06,1.31-0.19,1.95c-0.13,0.64-0.32,1.27-0.57,1.87c-0.25,0.61-0.56,1.19-0.92,1.73
	c-0.37,0.55-0.78,1.06-1.24,1.52c-0.47,0.46-0.98,0.88-1.52,1.24c-0.55,0.36-1.13,0.67-1.73,0.92c-0.6,0.25-1.23,0.44-1.87,0.57
	C243.71,474.78,243.06,474.849,242.41,474.849z"/>
<ellipse style="fill:#CD5C63;" cx="209.328" cy="228.898" rx="61.029" ry="75.249"/>
<ellipse style="fill:#EDCB77;" cx="298.697" cy="201.458" rx="66.229" ry="81.659"/>
<path d="M355.638,169.722c-0.66,0-1.31-0.06-1.96-0.19c-0.64-0.13-1.27-0.32-1.87-0.57c-0.6-0.25-1.18-0.56-1.73-0.92
	c-0.54-0.37-1.06-0.79-1.52-1.25c-0.46-0.46-0.87-0.97-1.24-1.52c-0.36-0.54-0.67-1.12-0.92-1.72c-0.25-0.61-0.44-1.24-0.57-1.87
	c-0.13-0.65-0.19-1.31-0.19-1.96c0-0.65,0.06-1.31,0.19-1.95c0.13-0.64,0.32-1.27,0.57-1.87s0.56-1.19,0.92-1.73
	c0.37-0.55,0.78-1.06,1.24-1.52c0.46-0.46,0.98-0.88,1.52-1.24c0.55-0.36,1.13-0.67,1.73-0.92c0.6-0.25,1.23-0.44,1.87-0.57
	c1.29-0.26,2.62-0.26,3.91,0c0.64,0.13,1.27,0.32,1.87,0.57c0.6,0.25,1.19,0.56,1.73,0.92c0.54,0.36,1.06,0.78,1.52,1.24
	s0.88,0.97,1.24,1.52c0.36,0.54,0.67,1.13,0.92,1.73s0.44,1.23,0.57,1.87c0.13,0.64,0.2,1.3,0.2,1.95c0,0.65-0.07,1.31-0.2,1.96
	c-0.13,0.63-0.32,1.26-0.57,1.87c-0.25,0.6-0.56,1.18-0.92,1.72c-0.36,0.55-0.78,1.06-1.24,1.52s-0.98,0.88-1.52,1.25
	c-0.54,0.36-1.13,0.67-1.73,0.92c-0.6,0.25-1.23,0.44-1.87,0.57C356.948,169.662,356.288,169.722,355.638,169.722z"/>
<path d="M374.927,201.453c0-5.523-4.477-10-10-10c-5.523,0-10,4.477-10,10c0,39.513-25.224,71.659-56.227,71.659
	s-56.227-32.146-56.227-71.659s25.224-71.658,56.227-71.658c9.185,0,17.949,2.757,26.049,8.195
	c4.586,3.078,10.798,1.857,13.876-2.729c3.078-4.585,1.856-10.798-2.729-13.876c-11.295-7.582-24.157-11.59-37.197-11.59
	c-26.11,0-49.192,15.869-62.935,40.004c0,0,0,0,0.001-0.001c-8.179-3.952-17.097-6.15-26.44-6.15
	c-39.166,0-71.029,38.244-71.029,85.25c0,37.075,19.828,68.68,47.419,80.388l-5.726,3.347c-4.768,2.787-6.375,8.911-3.587,13.679
	c1.859,3.182,5.205,4.956,8.643,4.956c1.713,0,3.451-0.441,5.037-1.368l2.807-1.641c-0.367,11.409,2.496,21.227,5.31,30.854
	c4.449,15.215,9.048,30.948,1.528,56.75c-1.545,5.302,1.5,10.854,6.802,12.399c0.935,0.272,1.876,0.402,2.803,0.402
	c4.332,0,8.323-2.836,9.596-7.204c9.154-31.409,3.229-51.676-1.533-67.96c-2.672-9.141-4.905-16.786-4.491-25.285l2.518,1.557
	c4.698,2.905,10.86,1.452,13.765-3.246c2.905-4.698,1.451-10.86-3.246-13.765l-1.086-0.671
	c15.649-4.205,29.367-14.621,39.249-28.977c-0.001-0.001-0.002-0.001-0.003-0.002c4.394,2.703,9.033,4.907,13.866,6.552l-5.714,3.34
	c-4.768,2.787-6.375,8.912-3.588,13.68c1.86,3.182,5.206,4.956,8.643,4.956c1.713,0,3.451-0.441,5.037-1.368l1.701-0.994
	c0.437,9.839,2.959,18.378,5.316,26.354c4.446,15.047,8.646,29.259-0.039,52.795c-1.912,5.182,0.739,10.932,5.92,12.844
	c1.142,0.421,2.311,0.621,3.461,0.621c4.068,0,7.892-2.501,9.383-6.541c10.981-29.762,5.389-48.688,0.455-65.385
	c-2.291-7.754-4.316-14.624-4.565-22.113l3.708,2.293c4.698,2.905,10.86,1.451,13.765-3.246c2.905-4.697,1.451-10.86-3.246-13.765
	l-3.379-2.089C349.136,282.124,374.927,245.346,374.927,201.453z M209.326,294.148c-28.138,0-51.029-29.271-51.029-65.25
	s22.892-65.25,51.029-65.25c6.482,0,12.68,1.57,18.39,4.401l0,0c-3.382,10.356-5.242,21.624-5.242,33.405
	c0,27.51,10.133,52.224,26.143,69.039c-0.001-0.001-0.002-0.002-0.003-0.003C239.247,284.932,225.113,294.148,209.326,294.148z
	 M231.367,158.529c-0.029,0.065-0.057,0.131-0.086,0.197C231.31,158.66,231.338,158.594,231.367,158.529z M229.456,163.156
	c-0.023,0.059-0.046,0.117-0.069,0.176C229.41,163.273,229.433,163.215,229.456,163.156z"/>
<g>
</g>
<g>
</g>
<g>
</g>
<g>
</g>
<g>
</g>
<g>
</g>
<g>
</g>
<g>
</g>
<g>
</g>
<g>
</g>
<g>
</g>
<g>
</g>
<g>
</g>
<g>
</g>
<g>
</g>
</svg>
