<?xml version="1.0" encoding="iso-8859-1"?>
<!-- Generator: Adobe Illustrator 19.0.0, SVG Export Plug-In . SVG Version: 6.00 Build 0)  -->
<svg version="1.1" id="Capa_1" xmlns="http://www.w3.org/2000/svg" xmlns:xlink="http://www.w3.org/1999/xlink" x="0px" y="0px"
	 viewBox="0 0 512 512" style="enable-background:new 0 0 512 512;" xml:space="preserve">
<path style="fill:#EBBF72;" d="M256,192.239c-11.675,0-22.11-5.303-29.034-13.629c-21.348,14.299-44.415,21.263-64.647,24.432
	c-13.203,18.68-20.963,41.48-20.963,66.095v53.22c0,30.337-3.35,60.581-9.988,90.182l-2.31,10.301
	c-2.042,9.106,4.884,17.758,14.217,17.758h63.883h97.684h63.883c9.333,0,16.259-8.652,14.217-17.758l-2.31-10.301
	c-6.638-29.601-9.988-59.845-9.988-90.182v-53.22c0-24.615-7.76-47.415-20.963-66.095c-20.232-3.168-43.298-10.133-64.647-24.432
	C278.11,186.937,267.675,192.239,256,192.239z"/>
<path style="fill:#E2A546;" d="M207.158,453.158C207.158,480.133,229.025,502,256,502l0,0c26.975,0,48.842-21.867,48.842-48.842
	v-12.56h-97.684L207.158,453.158L207.158,453.158z"/>
<g>
	<path style="fill:#9A84B8;" d="M218.255,154.494c0-9.171,3.273-17.576,8.712-24.117c-45.359-30.382-98.492-27.649-115.653-25.768
		c-3.524,0.386-6.689,2.305-8.667,5.247c-18.146,26.992-18.146,62.283,0,89.275c1.978,2.942,5.142,4.861,8.667,5.247
		c9.084,0.995,28.251,2.228,51.007-1.336c20.232-3.168,43.298-10.133,64.647-24.432C221.528,172.07,218.255,163.665,218.255,154.494
		z"/>
	<path style="fill:#9A84B8;" d="M400.687,204.379c3.524-0.386,6.689-2.305,8.667-5.247c18.146-26.992,18.146-62.283,0-89.275
		c-1.978-2.942-5.142-4.861-8.667-5.247c-17.161-1.881-70.294-4.614-115.653,25.768c5.439,6.541,8.712,14.946,8.712,24.117
		s-3.273,17.576-8.712,24.116c21.348,14.299,44.415,21.263,64.647,24.432C372.436,206.606,391.602,205.374,400.687,204.379z"/>
</g>
<path style="fill:#CD5C63;" d="M226.966,178.611c6.924,8.326,17.358,13.629,29.034,13.629s22.11-5.303,29.034-13.629
	c5.439-6.54,8.712-14.946,8.712-24.116c0-9.171-3.273-17.576-8.712-24.117c-6.924-8.326-17.358-13.629-29.034-13.629
	s-22.11,5.303-29.034,13.629c-5.439,6.541-8.712,14.946-8.712,24.117C218.255,163.665,221.528,172.07,226.966,178.611z"/>
<path d="M176.619,279.373c-5.523,0-10,4.477-10,10v36.85c0,20.237-2.245,40.509-6.674,60.255l-1.599,7.132
	c-1.208,5.389,2.181,10.737,7.57,11.946c0.737,0.165,1.473,0.244,2.197,0.244c4.577,0,8.706-3.162,9.749-7.814l1.599-7.132
	c4.75-21.18,7.158-42.925,7.158-64.631v-36.85C186.619,283.85,182.142,279.373,176.619,279.373z"/>
<path d="M110.224,94.669c-6.46,0.708-12.247,4.21-15.876,9.608c-20.507,30.505-20.507,69.928,0,100.433
	c3.629,5.398,9.416,8.901,15.876,9.609c4.514,0.495,11.729,1.071,20.797,1.071c3.913,0,8.181-0.114,12.715-0.381
	c-7.929,16.379-12.379,34.744-12.379,54.128v53.219c0,29.553-3.279,59.158-9.746,87.994l-2.31,10.301
	c-1.641,7.319,0.106,14.876,4.794,20.731c4.688,5.856,11.679,9.214,19.18,9.214h53.883v2.56C197.158,485.604,223.554,512,256,512
	s58.842-26.396,58.842-58.842v-2.56h53.883c7.501,0,14.492-3.358,19.18-9.214c4.688-5.855,6.436-13.412,4.794-20.732l-2.31-10.301
	c-6.467-28.835-9.746-58.441-9.746-87.994v-53.219c0-19.385-4.45-37.749-12.379-54.128c4.533,0.268,8.801,0.381,12.715,0.381
	c9.065,0,16.284-0.577,20.797-1.071c6.46-0.708,12.247-4.21,15.876-9.609c20.507-30.505,20.507-69.928,0-100.434
	c-3.629-5.398-9.416-8.9-15.876-9.608c-16.416-1.799-68.611-4.675-115.372,23.04c-2.854-2.363-5.99-4.395-9.344-6.051
	c3.982-6.472,7.656-15.042,11.054-25.773c1.667-5.265-1.249-10.885-6.514-12.552c-5.264-1.669-10.885,1.249-12.552,6.514
	c-5.615,17.729-10.783,24.688-13.049,26.545c-2.319-1.897-7.632-9.092-13.354-27.525c-4.701-15.145-7.51-31.215-7.51-38.002
	C235.135,29.36,244.495,20,256,20c4.47,0,8.73,1.391,12.318,4.022c4.454,3.265,10.712,2.302,13.978-2.151
	c3.266-4.454,2.303-10.712-2.151-13.978C273.102,2.729,264.753,0,256,0c-22.533,0-40.865,18.332-40.865,40.865
	c0,10.657,4.105,31.07,9.549,47.482c3.18,9.586,6.59,17.341,10.26,23.309c-3.356,1.656-6.493,3.689-9.349,6.053
	C178.835,89.995,126.639,92.87,110.224,94.669z M112.402,194.438c-0.591-0.065-1.122-0.388-1.457-0.886
	c-15.951-23.727-15.951-54.39,0-78.116c0.335-0.499,0.866-0.821,1.457-0.886c4.087-0.448,10.647-0.974,18.884-0.974
	c20.884,0,52.52,3.394,81.806,19.998c-1.622,3.312-2.863,6.841-3.685,10.526c-15.616-5.132-43.579-12.27-73.814-10.199
	c-5.51,0.377-9.671,5.15-9.293,10.66c0.377,5.51,5.15,9.668,10.66,9.293c22.078-1.51,43.234,2.674,57.816,6.747
	c6.292,1.757,11.353,3.489,14.736,4.738c0.701,3.007,1.686,5.904,2.927,8.664c0.214,0.477,0.429,0.953,0.658,1.421
	c-5.826,3.303-11.745,6.083-17.654,8.417c-13.314,5.26-26.575,8.254-38.606,9.873C136.783,196.412,120.148,195.287,112.402,194.438z
	 M294.842,453.158C294.842,474.575,277.417,492,256,492s-38.842-17.425-38.842-38.842v-2.56h77.685v2.56H294.842z M376.407,133.901
	c-30.236-2.07-58.199,5.067-73.814,10.199c-0.823-3.689-2.066-7.221-3.69-10.536c40.837-23.156,86.241-20.599,100.695-19.015
	c0.591,0.065,1.122,0.388,1.457,0.886c15.951,23.727,15.951,54.39,0,78.117c-0.335,0.499-0.866,0.821-1.457,0.886
	c-7.744,0.848-24.38,1.973-44.436-0.725c-12.031-1.619-25.291-4.613-38.605-9.873c-5.909-2.334-11.828-5.114-17.654-8.417
	c0.229-0.468,0.444-0.944,0.658-1.421c1.243-2.763,2.228-5.664,2.93-8.674c3.374-1.252,8.422-2.985,14.705-4.743
	c14.548-4.072,35.677-8.25,57.845-6.731c5.501,0.377,10.282-3.783,10.66-9.293C386.078,139.051,381.917,134.279,376.407,133.901z
	 M243.173,129.904c3.839-2.011,8.201-3.155,12.827-3.155c4.626,0,8.988,1.144,12.827,3.155c8.857,4.639,14.919,13.918,14.919,24.591
	c0,10.67-6.058,19.947-14.912,24.587c-3.841,2.013-8.205,3.158-12.833,3.158s-8.992-1.145-12.833-3.158
	c-8.854-4.64-14.912-13.917-14.912-24.587C228.254,143.821,234.315,134.543,243.173,129.904z M256,202.239
	c11.54,0,22.136-4.116,30.4-10.957c19.129,11.338,39.162,17.55,57.289,20.816c10.716,16.418,16.955,36.012,16.955,57.039v53.219
	c0,31.022,3.442,62.101,10.23,92.371l2.31,10.3c0.418,1.864-0.379,3.216-0.892,3.856c-0.512,0.64-1.657,1.714-3.567,1.714h-63.883
	h-97.685h-63.883c-1.91,0-3.055-1.074-3.567-1.714c-0.513-0.64-1.31-1.992-0.892-3.856l2.31-10.3
	c6.789-30.27,10.23-61.348,10.23-92.371v-53.219c0-21.027,6.239-40.621,16.955-57.039c18.127-3.267,38.161-9.479,57.288-20.816
	C233.864,198.123,244.46,202.239,256,202.239z"/>
<path d="M166.81,251.33c0.13,0.63,0.32,1.26,0.57,1.87c0.25,0.6,0.56,1.18,0.92,1.72c0.37,0.55,0.79,1.06,1.25,1.52
	c0.46,0.46,0.97,0.88,1.52,1.25c0.54,0.36,1.12,0.67,1.72,0.92c0.61,0.25,1.24,0.44,1.88,0.57s1.3,0.19,1.95,0.19
	s1.31-0.06,1.95-0.19s1.27-0.32,1.87-0.57c0.61-0.25,1.19-0.56,1.73-0.92c0.55-0.37,1.06-0.79,1.52-1.25s0.88-0.97,1.24-1.52
	c0.36-0.54,0.67-1.12,0.92-1.72c0.25-0.61,0.44-1.24,0.57-1.87c0.13-0.65,0.2-1.31,0.2-1.96c0-2.63-1.07-5.21-2.93-7.07
	c-0.46-0.46-0.97-0.88-1.52-1.24c-0.54-0.36-1.12-0.67-1.73-0.92c-0.6-0.25-1.23-0.44-1.87-0.57c-1.29-0.26-2.62-0.26-3.9,0
	c-0.64,0.13-1.27,0.32-1.88,0.57c-0.6,0.25-1.18,0.56-1.72,0.92c-0.55,0.36-1.06,0.78-1.52,1.24c-1.86,1.86-2.93,4.44-2.93,7.07
	C166.62,250.02,166.68,250.68,166.81,251.33z"/>
<path d="M278.78,41.35c-0.54,0.37-1.06,0.78-1.52,1.24c-0.46,0.47-0.88,0.98-1.24,1.52c-0.36,0.55-0.67,1.13-0.92,1.73
	s-0.44,1.23-0.57,1.87c-0.13,0.65-0.2,1.31-0.2,1.96s0.07,1.31,0.2,1.95s0.32,1.27,0.57,1.87s0.56,1.19,0.92,1.73
	c0.36,0.55,0.78,1.06,1.24,1.52s0.98,0.88,1.52,1.24c0.55,0.36,1.13,0.67,1.73,0.92s1.23,0.44,1.87,0.57s1.3,0.2,1.95,0.2
	c0.66,0,1.31-0.07,1.96-0.2c0.64-0.13,1.27-0.32,1.87-0.57s1.18-0.56,1.72-0.92c0.55-0.36,1.06-0.78,1.52-1.24s0.88-0.97,1.25-1.52
	c0.36-0.54,0.67-1.13,0.92-1.73s0.44-1.23,0.57-1.87s0.19-1.3,0.19-1.95s-0.06-1.31-0.19-1.96c-0.13-0.64-0.32-1.27-0.57-1.87
	s-0.56-1.18-0.92-1.73c-0.37-0.54-0.79-1.05-1.25-1.52c-0.46-0.46-0.97-0.87-1.52-1.24c-0.54-0.36-1.12-0.67-1.72-0.92
	s-1.23-0.44-1.87-0.57c-1.29-0.26-2.62-0.26-3.91,0c-0.64,0.13-1.27,0.32-1.87,0.57S279.33,40.99,278.78,41.35z"/>
<g>
</g>
<g>
</g>
<g>
</g>
<g>
</g>
<g>
</g>
<g>
</g>
<g>
</g>
<g>
</g>
<g>
</g>
<g>
</g>
<g>
</g>
<g>
</g>
<g>
</g>
<g>
</g>
<g>
</g>
</svg>
