<?xml version="1.0" encoding="iso-8859-1"?>
<!-- Generator: Adobe Illustrator 19.0.0, SVG Export Plug-In . SVG Version: 6.00 Build 0)  -->
<svg version="1.1" id="Capa_1" xmlns="http://www.w3.org/2000/svg" xmlns:xlink="http://www.w3.org/1999/xlink" x="0px" y="0px"
	 viewBox="0 0 511.999 511.999" style="enable-background:new 0 0 511.999 511.999;" xml:space="preserve">
<g>
	<path style="fill:#C7E1F0;" d="M329.083,131.696c-0.747,4.677-1.803,9.251-3.146,13.701
		C327.28,140.947,328.336,136.373,329.083,131.696z"/>
	<path style="fill:#C7E1F0;" d="M305.319,183.122c2.364-2.771,4.585-5.667,6.655-8.676c-2.073,3.014-4.315,5.9-6.683,8.676H305.319z
		"/>
	<path style="fill:#C7E1F0;" d="M320.727,159.063c-1.181,2.552-2.45,5.056-3.825,7.492
		C318.277,164.119,319.545,161.616,320.727,159.063z"/>
	<path style="fill:#C7E1F0;" d="M133.888,166.556c-2.235-3.96-4.221-8.078-5.935-12.336
		C129.667,158.477,131.653,162.596,133.888,166.556z"/>
	<path style="fill:#C7E1F0;" d="M124.853,145.397c-1.007-3.337-1.853-6.744-2.528-10.213
		C123,138.653,123.845,142.06,124.853,145.397z"/>
	<path style="fill:#C7E1F0;" d="M330.408,115.013C330.408,57.016,283.392,10,225.395,10S120.382,57.016,120.382,115.013
		c0,5.676,0.457,11.245,1.323,16.677h207.379C329.951,126.258,330.408,120.689,330.408,115.013z"/>
	<path style="fill:#C7E1F0;" d="M138.816,174.446c2.07,3.009,4.291,5.904,6.655,8.676h0.028
		C143.131,180.346,140.888,177.46,138.816,174.446z"/>
</g>
<path style="fill:#66B6E0;" d="M305.291,183.122c2.368-2.776,4.61-5.661,6.683-8.676c0.031-0.045,0.063-0.09,0.094-0.135
	c0.825-1.203,1.625-2.426,2.4-3.665c0.042-0.067,0.084-0.135,0.126-0.202c0.776-1.247,1.528-2.51,2.253-3.791
	c0.018-0.033,0.036-0.065,0.055-0.098c1.375-2.436,2.644-4.94,3.825-7.492c0.739-1.595,1.45-3.206,2.11-4.844
	c0.005-0.014,0.011-0.027,0.017-0.041c0.563-1.398,1.094-2.812,1.597-4.239c0.018-0.052,0.036-0.103,0.055-0.155
	c0.5-1.426,0.971-2.865,1.411-4.318c0.007-0.023,0.014-0.047,0.021-0.07c1.343-4.45,2.399-9.024,3.146-13.701
	c0-0.002,0.001-0.004,0.001-0.006H121.706c0,0.002,0.001,0.004,0.001,0.006c0.187,1.169,0.393,2.332,0.618,3.488
	c0.675,3.468,1.521,6.875,2.528,10.213c0.007,0.023,0.014,0.047,0.021,0.07c0.44,1.453,0.911,2.892,1.411,4.318
	c0.018,0.052,0.036,0.103,0.055,0.155c0.503,1.427,1.035,2.841,1.597,4.239c0.006,0.014,0.011,0.027,0.017,0.041
	c1.715,4.257,3.7,8.376,5.935,12.336c0.018,0.033,0.036,0.065,0.055,0.098c0.725,1.281,1.477,2.544,2.253,3.791
	c0.042,0.067,0.084,0.135,0.126,0.202c0.775,1.239,1.575,2.461,2.4,3.665c0.031,0.045,0.063,0.09,0.094,0.135
	c2.073,3.014,4.315,5.9,6.683,8.676H305.291z"/>
<path style="fill:#EBBF72;" d="M173.114,437.69c1.583,13.216,12.794,23.165,26.105,23.165h1.489h49.375h0.603
	c13.276,0,24.469-9.898,26.094-23.075l31.391-254.658h-2.85h-0.028H145.499h-0.028h-2.851L173.114,437.69z M203.793,289.072
	c0-11.93,9.671-21.601,21.601-21.601l0,0c11.93,0,21.601,9.671,21.601,21.601v54.518c0,11.93-9.671,21.601-21.601,21.601l0,0
	c-11.93,0-21.601-9.671-21.601-21.601V289.072z"/>
<path style="fill:#9A84B8;" d="M200.708,480.913c0,11.646,9.441,21.087,21.087,21.087h7.2c11.646,0,21.087-9.441,21.087-21.087
	v-20.058h-49.375L200.708,480.913L200.708,480.913z"/>
<path style="fill:#CD5C63;" d="M225.395,365.191L225.395,365.191c11.93,0,21.602-9.671,21.602-21.601v-54.518
	c0-11.93-9.671-21.601-21.601-21.601l0,0c-11.93,0-21.601,9.671-21.601,21.601v54.518
	C203.793,355.52,213.465,365.191,225.395,365.191z"/>
<path d="M113.468,141.51c3.594,15.183,10.207,29.21,19.166,41.414c-0.009,0.461,0.002,0.923,0.058,1.387l30.493,254.568
	c1.835,15.326,13.079,27.48,27.523,30.963v11.07c0,17.142,13.945,31.087,31.087,31.087h7.2h43.5c29.233,0,53.867-21.893,57.3-50.924
	l28.495-240.987c0.847-7.164,6.926-12.566,14.141-12.566c4.076,0,7.826,1.665,10.561,4.688c2.734,3.024,4.015,6.923,3.606,10.979
	l-14.799,146.828c-0.555,5.495,3.451,10.399,8.946,10.953c5.503,0.554,10.397-3.453,10.952-8.947l14.799-146.828
	c0.969-9.611-2.191-19.233-8.671-26.398c-6.479-7.165-15.735-11.274-25.395-11.274c-17.348,0-31.966,12.991-34.002,30.218
	l-28.495,240.986C307.69,477.696,291.596,492,272.495,492h-14.464c1.32-3.446,2.051-7.182,2.051-11.087v-11.304
	c13.965-3.754,24.78-15.664,26.622-30.606l31.391-254.658c0.059-0.475,0.07-0.949,0.061-1.422
	c8.923-12.156,15.518-26.12,19.122-41.234h0.24c5.522,0,10-4.477,10-10c0-4.597-3.106-8.46-7.332-9.629
	c0.142-2.332,0.222-4.681,0.222-7.048C340.407,51.595,288.813,0,225.395,0S110.382,51.595,110.382,115.013
	c0,2.635,0.097,5.249,0.273,7.84c-3.166,1.679-5.324,5.004-5.324,8.837C105.33,136.576,108.836,140.637,113.468,141.51z
	 M240.082,480.913c0,6.113-4.974,11.087-11.087,11.087h-7.2c-6.113,0-11.087-4.974-11.087-11.087v-10.059h29.374L240.082,480.913
	L240.082,480.913z M295.234,206.327l-28.379,230.229c-1.005,8.152-7.957,14.299-16.17,14.299h-0.603h-49.374h-1.49
	c-8.241,0-15.195-6.171-16.176-14.354l-24.224-202.233h90.775c5.328,0,9.67-4.17,9.971-9.423c0.011-0.192,0.029-0.382,0.029-0.577
	c0-5.523-4.478-10-10-10H167.35h-10.927l-0.96-8.012l-1.573-13.134h17.475h108.06h17.437L295.234,206.327z M225.395,20
	c52.391,0,95.013,42.623,95.013,95.013c0,2.245-0.084,4.471-0.238,6.677h-85.517c-5.522,0-10,4.477-10,10c0,5.523,4.478,10,10,10
	h81.937c-3.379,11.533-8.89,22.162-16.078,31.432H150.277c-7.187-9.27-12.698-19.899-16.078-31.432h18.162c5.522,0,10-4.477,10-10
	s-4.478-10-10-10H130.62c-0.154-2.207-0.238-4.432-0.238-6.677C130.382,62.623,173.004,20,225.395,20z"/>
<path d="M225.395,257.47c-17.425,0-31.602,14.176-31.602,31.602v27.201v27.316c0,17.425,14.177,31.602,31.602,31.602
	s31.602-14.176,31.602-31.602v-27.316v-27.201C256.996,271.646,242.819,257.47,225.395,257.47z M236.996,343.589
	c0,6.397-5.204,11.602-11.602,11.602s-11.602-5.205-11.602-11.602v-17.316h23.203v17.316H236.996z M236.996,306.273h-23.203v-17.201
	c0-6.397,5.204-11.602,11.602-11.602s11.602,5.205,11.602,11.602v17.201H236.996z"/>
<path d="M384.921,404.9c-0.37-0.55-0.78-1.06-1.25-1.52c-2.32-2.32-5.78-3.39-9.021-2.73c-0.64,0.13-1.27,0.32-1.869,0.57
	c-0.61,0.25-1.19,0.56-1.73,0.92c-0.55,0.36-1.06,0.78-1.52,1.24c-0.461,0.46-0.881,0.97-1.24,1.52c-0.36,0.54-0.67,1.12-0.92,1.73
	c-0.25,0.6-0.44,1.23-0.57,1.87c-0.13,0.64-0.2,1.3-0.2,1.95s0.07,1.31,0.2,1.96c0.13,0.63,0.32,1.26,0.57,1.87
	c0.25,0.6,0.56,1.18,0.92,1.72c0.359,0.55,0.779,1.06,1.24,1.52c0.46,0.46,0.97,0.88,1.52,1.25c0.54,0.36,1.12,0.66,1.73,0.91
	c0.6,0.25,1.229,0.45,1.869,0.57c0.641,0.13,1.301,0.2,1.96,0.2c2.631,0,5.2-1.07,7.061-2.93c0.47-0.46,0.88-0.97,1.25-1.52
	c0.36-0.54,0.67-1.12,0.92-1.72c0.25-0.61,0.44-1.24,0.57-1.87c0.13-0.65,0.199-1.31,0.199-1.96s-0.069-1.31-0.199-1.95
	s-0.32-1.27-0.57-1.87C385.591,406.02,385.281,405.44,384.921,404.9z"/>
<path d="M184.271,135.51c0.25,0.61,0.561,1.19,0.92,1.73c0.37,0.55,0.78,1.06,1.24,1.52c0.47,0.46,0.98,0.88,1.53,1.24
	c0.54,0.36,1.12,0.67,1.72,0.92c0.61,0.25,1.23,0.45,1.87,0.58c0.65,0.12,1.31,0.19,1.96,0.19s1.3-0.07,1.95-0.19
	c0.64-0.13,1.27-0.33,1.87-0.58c0.6-0.25,1.18-0.56,1.729-0.92c0.54-0.36,1.061-0.78,1.521-1.24s0.88-0.97,1.239-1.52
	c0.36-0.54,0.671-1.12,0.921-1.73c0.25-0.6,0.439-1.23,0.569-1.87s0.19-1.3,0.19-1.95s-0.061-1.31-0.19-1.95s-0.319-1.27-0.569-1.87
	c-0.25-0.61-0.561-1.19-0.921-1.73c-0.359-0.55-0.779-1.06-1.239-1.52c-0.46-0.46-0.98-0.88-1.521-1.25
	c-0.55-0.35-1.13-0.66-1.729-0.91c-0.601-0.25-1.23-0.45-1.87-0.57c-1.29-0.26-2.62-0.26-3.91,0c-0.64,0.12-1.26,0.32-1.87,0.57
	c-0.6,0.25-1.18,0.56-1.72,0.91c-0.55,0.37-1.061,0.79-1.53,1.25c-0.46,0.46-0.87,0.97-1.24,1.52c-0.359,0.54-0.67,1.12-0.92,1.73
	c-0.25,0.6-0.439,1.23-0.569,1.87c-0.131,0.64-0.19,1.3-0.19,1.95s0.06,1.31,0.19,1.95
	C183.831,134.28,184.021,134.91,184.271,135.51z"/>
<g>
</g>
<g>
</g>
<g>
</g>
<g>
</g>
<g>
</g>
<g>
</g>
<g>
</g>
<g>
</g>
<g>
</g>
<g>
</g>
<g>
</g>
<g>
</g>
<g>
</g>
<g>
</g>
<g>
</g>
</svg>
