<?xml version="1.0" encoding="iso-8859-1"?>
<!-- Generator: Adobe Illustrator 19.0.0, SVG Export Plug-In . SVG Version: 6.00 Build 0)  -->
<svg version="1.1" id="Capa_1" xmlns="http://www.w3.org/2000/svg" xmlns:xlink="http://www.w3.org/1999/xlink" x="0px" y="0px"
	 viewBox="0 0 512 512" style="enable-background:new 0 0 512 512;" xml:space="preserve">
<path style="fill:#F4DAAB;" d="M51.883,412.707h291.138c-10.238-7.463-18.97-17.319-25.243-29.302
	c-21.823-41.69-5.717-93.177,35.973-114.999c15.627-8.18,32.629-11.03,48.93-9.202V129.062H26.903v258.663
	C26.903,401.522,38.086,412.707,51.883,412.707z M184.732,229.162l30.06-60.91l30.06,60.91l67.218,9.767l-48.639,47.411
	l11.482,66.947l-60.122-31.607l-60.122,31.607l11.482-66.947l-48.639-47.411L184.732,229.162z"/>
<path style="fill:#CD5C63;" d="M402.681,76.357c0-13.438-10.893-24.331-24.331-24.331H51.233c-13.438,0-24.331,10.893-24.331,24.331
	v52.707h375.78V76.357H402.681z"/>
<polygon style="fill:#EBBF72;" points="154.671,353.287 214.792,321.679 274.914,353.287 263.431,286.34 312.07,238.929 
	244.852,229.162 214.792,168.252 184.732,229.162 117.514,238.929 166.153,286.34 "/>
<path style="fill:#66B6E0;" d="M414.887,426.297l34.269,65.47c4.881,9.326,16.399,12.928,25.724,8.047
	c9.326-4.882,12.928-16.399,8.047-25.725l-34.269-65.47c-4.781,4.085-10.073,7.718-15.881,10.759
	C426.97,422.418,420.969,424.696,414.887,426.297z"/>
<path style="fill:#C7E1F0;" d="M353.751,268.405c-41.69,21.823-57.796,73.31-35.973,114.999
	c6.273,11.984,15.005,21.84,25.243,29.302c20.417,14.883,46.842,20.179,71.867,13.59c6.082-1.601,12.083-3.879,17.891-6.919
	c5.808-3.04,11.099-6.674,15.881-10.759c29.54-25.237,38.875-68.359,20.093-104.241c-13.643-26.063-38.88-42.127-66.069-45.175
	C386.381,257.375,369.378,260.226,353.751,268.405z"/>
<path d="M51.883,422.707h288.023c15.776,10.642,34.471,16.375,53.517,16.375c5.372,0,10.771-0.463,16.141-1.392l30.733,58.714
	c3.6,6.877,9.662,11.94,17.07,14.258c2.863,0.896,5.794,1.339,8.71,1.339c4.63,0,9.223-1.119,13.442-3.328l0,0
	c14.196-7.432,19.699-25.026,12.269-39.221l-30.723-58.694c10.533-10.657,18.459-23.732,23.062-38.443
	c7.592-24.271,5.278-50.043-6.516-72.574c-13.719-26.208-38.012-43.372-64.929-49.007V129.062V76.357
	c0-18.93-15.4-34.33-34.33-34.33h-16.318C360.073,18.067,345.214,0,326.592,0c-17.984,0-32.836,17.102-35.315,40.663
	c-0.048,0.46-0.053,0.913-0.04,1.363h-43.417C245.858,18.067,231,0,212.376,0c-17.984,0-32.836,17.102-35.314,40.664
	c-0.048,0.46-0.053,0.913-0.04,1.362h-43.418C131.643,18.067,116.784,0,98.161,0C80.178,0,65.325,17.102,62.846,40.663
	c-0.048,0.46-0.053,0.913-0.04,1.363H51.233c-18.931,0-34.33,15.401-34.33,34.33v52.707v258.663
	C16.903,407.014,32.596,422.707,51.883,422.707z M474.069,478.727c2.316,4.425,0.601,9.911-3.825,12.228
	c-2.146,1.122-4.597,1.342-6.906,0.62c-2.309-0.722-4.199-2.301-5.321-4.445l-28.827-55.072c2.774-1.133,5.519-2.403,8.226-3.819
	c2.698-1.412,5.304-2.947,7.826-4.584L474.069,478.727z M412.681,271.281c19.618,5.255,37.071,18.366,47.21,37.735
	c9.315,17.797,11.144,38.155,5.146,57.327c-2.969,9.491-7.685,18.125-13.845,25.558c-4.391,5.299-9.529,9.974-15.286,13.922
	c-2.48,1.7-5.062,3.281-7.767,4.697c-2.718,1.423-5.488,2.64-8.288,3.701c-6.598,2.499-13.38,4.024-20.168,4.596
	c-2.158,0.182-4.315,0.256-6.468,0.251c-16.917-0.039-33.468-5.794-46.779-16.359c-7.97-6.326-14.785-14.36-19.801-23.941
	c-19.23-36.738-4.986-82.271,31.752-101.502c10.959-5.737,22.699-8.489,34.292-8.56c0.153-0.001,0.305-0.007,0.458-0.007
	C399.765,268.699,406.335,269.582,412.681,271.281z M326.592,20c6.553,0,13.763,8.811,15.346,22.027h-30.684
	C312.76,29.815,319.546,20,326.592,20z M212.376,20c6.554,0,13.764,8.811,15.347,22.027h-30.684
	C198.544,29.815,205.33,20,212.376,20z M98.161,20c6.553,0,13.763,8.811,15.346,22.027H82.824C84.329,29.815,91.116,20,98.161,20z
	 M36.902,76.357c0-7.902,6.429-14.331,14.331-14.331h60.322c-3.059,9.618-8.662,16.491-13.395,16.491c-5.522,0-10,4.477-10,10
	s4.478,10,10,10c17.125,0,29.729-17.018,34.041-36.49h93.568c-3.059,9.618-8.662,16.491-13.395,16.491c-5.522,0-10,4.477-10,10
	s4.478,10,10,10c17.125,0,29.73-17.018,34.042-36.49h93.567c-3.059,9.618-8.662,16.491-13.395,16.491c-5.522,0-10,4.477-10,10
	s4.478,10,10,10c17.125,0,29.729-17.018,34.041-36.49h17.719c7.902,0,14.331,6.429,14.331,14.331v42.707H36.902V76.357z
	 M36.902,139.062h355.779v109.644c-14.726,0.066-29.645,3.552-43.567,10.839c-46.508,24.345-64.54,81.988-40.195,128.496
	c2.754,5.262,5.941,10.153,9.483,14.666H51.883c-8.26,0-14.98-6.72-14.98-14.981L36.902,139.062L36.902,139.062z"/>
<path d="M155.408,289.831l-10.594,61.765c-0.644,3.751,0.899,7.543,3.979,9.781c3.079,2.237,7.163,2.533,10.531,0.761l55.468-29.16
	l55.469,29.161c1.463,0.769,3.061,1.148,4.652,1.148c2.073,0,4.137-0.644,5.879-1.91c3.079-2.238,4.622-6.029,3.979-9.781
	l-10.594-61.765l44.874-43.742c2.726-2.657,3.706-6.631,2.53-10.251c-1.177-3.62-4.306-6.258-8.073-6.806l-62.015-9.012
	l-27.733-56.195c-1.685-3.413-5.161-5.574-8.968-5.574s-7.283,2.161-8.968,5.574l-27.732,56.195l-62.016,9.012
	c-3.768,0.547-6.896,3.186-8.073,6.806c-1.176,3.62-0.195,7.594,2.53,10.251L155.408,289.831z M186.17,239.057
	c3.257-0.473,6.072-2.519,7.529-5.47l21.093-42.74l21.094,42.74c1.457,2.951,4.272,4.997,7.529,5.47l47.167,6.854l-34.13,33.269
	c-2.356,2.297-3.432,5.607-2.876,8.851l8.058,46.976l-42.187-22.18c-1.457-0.766-3.055-1.148-4.653-1.148s-3.197,0.383-4.653,1.148
	l-42.187,22.179l8.058-46.976c0.556-3.244-0.52-6.554-2.876-8.851l-34.131-33.269L186.17,239.057z"/>
<path d="M365.951,291.71c-4.893,2.562-6.783,8.604-4.222,13.498c2.562,4.894,8.604,6.786,13.497,4.222
	c5.485-2.871,11.441-4.355,17.456-4.44c4.08-0.057,8.188,0.524,12.195,1.778c2.753,0.861,5.361,2.015,7.805,3.417
	c6.357,3.646,11.564,9.019,15.045,15.668c1.786,3.413,5.266,5.365,8.868,5.365c1.563,0,3.148-0.367,4.629-1.142
	c4.893-2.562,6.783-8.604,4.222-13.497c-6.995-13.365-18.586-23.335-32.763-28.274c-0.609-0.212-1.215-0.429-1.833-0.623
	c-5.97-1.867-12.087-2.749-18.167-2.696C383.472,285.066,374.347,287.316,365.951,291.71z"/>
<path d="M443.679,338.263c-0.61,0.25-1.189,0.56-1.729,0.92c-0.551,0.36-1.061,0.78-1.521,1.24c-1.86,1.86-2.93,4.44-2.93,7.07
	c0,0.65,0.06,1.31,0.189,1.95c0.13,0.64,0.33,1.27,0.58,1.87c0.25,0.61,0.561,1.19,0.92,1.73c0.36,0.55,0.78,1.06,1.24,1.52
	c0.46,0.46,0.97,0.88,1.521,1.24c0.54,0.36,1.119,0.67,1.729,0.92c0.601,0.25,1.23,0.45,1.87,0.57c0.64,0.13,1.3,0.2,1.95,0.2
	c0.649,0,1.31-0.07,1.95-0.2c0.64-0.12,1.27-0.32,1.869-0.57c0.61-0.25,1.19-0.56,1.73-0.92c0.55-0.36,1.06-0.78,1.52-1.24
	c0.461-0.46,0.881-0.97,1.24-1.52c0.36-0.54,0.67-1.12,0.92-1.73c0.25-0.6,0.45-1.23,0.58-1.87s0.19-1.3,0.19-1.95
	c0-2.63-1.07-5.21-2.931-7.07c-0.46-0.46-0.97-0.88-1.52-1.24c-0.54-0.36-1.12-0.67-1.73-0.92c-0.6-0.25-1.229-0.45-1.869-0.57
	c-1.29-0.26-2.62-0.26-3.9,0C444.91,337.813,444.28,338.013,443.679,338.263z"/>
<g>
</g>
<g>
</g>
<g>
</g>
<g>
</g>
<g>
</g>
<g>
</g>
<g>
</g>
<g>
</g>
<g>
</g>
<g>
</g>
<g>
</g>
<g>
</g>
<g>
</g>
<g>
</g>
<g>
</g>
</svg>
