<?xml version="1.0" encoding="iso-8859-1"?>
<!-- Generator: Adobe Illustrator 19.0.0, SVG Export Plug-In . SVG Version: 6.00 Build 0)  -->
<svg version="1.1" id="Capa_1" xmlns="http://www.w3.org/2000/svg" xmlns:xlink="http://www.w3.org/1999/xlink" x="0px" y="0px"
	 viewBox="0 0 512 512" style="enable-background:new 0 0 512 512;" xml:space="preserve">
<path style="fill:#C7E1F0;" d="M293.02,10c-39.175,0-71.822,27.908-79.17,64.924c33.534,4.535,61.301,27.223,73.086,57.848
	c12.172-10.098,27.803-16.173,44.854-16.173c12.387,0,24.018,3.215,34.125,8.839c5.017-10.516,7.831-22.285,7.831-34.712
	C373.746,46.142,337.604,10,293.02,10z"/>
<path style="fill:#CE8570;" d="M268.635,217.786c-4.57-9.325-7.143-19.805-7.143-30.889c0-21.773,9.901-41.23,25.443-54.125
	c-11.785-30.625-39.552-53.313-73.086-57.848c-4.051-0.548-8.183-0.837-12.384-0.837c-50.564,0-91.553,40.99-91.553,91.553
	c0,23.986,9.228,45.813,24.322,62.137l-1.514-9.991L268.635,217.786L268.635,217.786z"/>
<path style="fill:#CD5C63;" d="M286.936,132.772c-15.542,12.895-25.443,32.352-25.443,54.125c0,11.084,2.574,21.565,7.143,30.889
	h121.628l-1.376,10.093c8.297-11.54,13.199-25.684,13.199-40.982c0-26.438-14.602-49.455-36.173-61.458
	c-10.107-5.624-21.738-8.839-34.125-8.839C314.739,116.6,299.108,122.674,286.936,132.772z"/>
<path style="fill:#EBBF72;" d="M239.737,296.602h-56.013h-10.202l19.081,182.329C193.975,492.043,205.029,502,218.212,502h21.525
	h43.511h21.525c13.183,0,24.237-9.957,25.609-23.069l19.081-182.329h-9.598h-56.617H239.737z"/>
<path style="fill:#F4DAAB;" d="M268.635,217.786H132.721l1.514,9.991l4.576,30.204c3.365,22.207,22.453,38.62,44.913,38.62h56.013
	h43.511h56.617c22.716,0,41.94-16.78,45.009-39.288l4.014-29.435l1.376-10.093H268.635V217.786z"/>
<path d="M293.02,0c-40.803,0-75.396,27.076-86.768,64.203c-1.586-0.074-3.181-0.116-4.786-0.116
	c-55.997,0-101.553,45.557-101.553,101.553c0,25.415,9.385,48.678,24.871,66.509l4.141,27.33
	c1.986,13.104,8.614,25.081,18.663,33.722c4.938,4.246,10.55,7.548,16.552,9.816l18.519,176.955
	C184.568,498.231,199.853,512,218.212,512h86.562c18.359,0,33.645-13.769,35.555-32.028l18.498-176.755
	c18.81-6.913,33.126-23.787,35.957-44.552l3.695-27.096c8.589-12.78,13.609-28.15,13.609-44.672
	c0-26.925-13.335-50.78-33.733-65.355c3.487-9.625,5.392-20.002,5.392-30.816C383.746,40.7,343.046,0,293.02,0z M293.02,20
	c38.999,0,70.727,31.728,70.727,70.726c0,7.383-1.141,14.503-3.25,21.199c-8.921-3.427-18.594-5.325-28.707-5.325
	c-14.882,0-28.822,4.084-40.784,11.169c-13.337-24.845-36.711-43.53-64.665-50.595C236.066,39.722,262.277,20,293.02,20z
	 M132.721,207.787c-0.342,0-0.681,0.021-1.017,0.055c-7.48-12.319-11.792-26.766-11.792-42.201
	c0-44.969,36.584-81.553,81.553-81.553c0.359,0,0.712,0.022,1.069,0.027c6.859,0.089,13.516,1.021,19.87,2.711
	c23.148,6.156,42.286,22.251,52.528,43.429c-6.483,6.508-11.85,14.123-15.812,22.527c-2.856,6.058-4.967,12.529-6.235,19.296
	c-0.901,4.807-1.394,9.755-1.394,14.82c0,7.225,0.975,14.225,2.773,20.89L132.721,207.787L132.721,207.787z M330.411,382.58
	l-61.437,76.329c-3.463,4.302-2.782,10.597,1.52,14.06c1.849,1.487,4.063,2.21,6.265,2.21c2.923,0,5.82-1.276,7.796-3.73
	l42.02-52.206l-6.137,58.647c-0.842,8.043-7.576,14.109-15.664,14.109h-86.562c-7.588,0-13.983-5.339-15.44-12.642L318.181,344.38
	c3.589-4.198,3.096-10.51-1.102-14.099s-10.511-3.096-14.1,1.102L199.839,452.01L184.621,306.6h63.781l-39.646,48.89
	c-3.479,4.29-2.821,10.587,1.469,14.065c1.853,1.502,4.08,2.233,6.292,2.233c2.911,0,5.797-1.265,7.773-3.702l49.862-61.487h64.208
	L330.411,382.58z M376.163,247.194H357.26c-5.522,0-10,4.477-10,10c0,3.093,1.405,5.856,3.611,7.691
	c1.733,1.441,3.959,2.309,6.389,2.309h14.177c-5.916,11.582-17.987,19.408-31.572,19.408H183.724
	c-13.779,0-25.778-7.719-31.637-19.408H277.26c5.522,0,10-4.477,10-10c0-1.478-0.329-2.876-0.905-4.139
	c-1.338-2.934-4.047-5.105-7.312-5.693c-0.58-0.104-1.174-0.168-1.783-0.168h-15.347h-60.447h-54.175l-2.94-19.408h4.391h105.449
	h8.532h24.804h88.526h2.755L376.163,247.194z M392.087,186.897c0,7.341-1.323,14.378-3.735,20.89h-94.5h-18.623
	c-0.546-1.472-1.022-2.977-1.453-4.501c-1.475-5.215-2.282-10.708-2.282-16.389c0-2.679,0.194-5.313,0.534-7.901
	c0.896-6.815,2.931-13.272,5.913-19.178c1.211-2.398,2.569-4.709,4.078-6.911c4.453-6.499,10.145-12.08,16.731-16.412
	c9.497-6.247,20.848-9.895,33.04-9.895c7.01,0,13.738,1.215,20.001,3.424c6.408,2.26,12.319,5.574,17.532,9.734
	C383.182,150.815,392.087,167.831,392.087,186.897z"/>
<path d="M293.02,54.873c10.617,0,20.629,4.668,27.468,12.808c1.978,2.354,4.81,3.567,7.661,3.567c2.271,0,4.554-0.769,6.428-2.343
	c4.229-3.553,4.776-9.861,1.224-14.089c-10.647-12.674-26.24-19.943-42.78-19.943c-5.522,0-10,4.477-10,10
	S287.497,54.873,293.02,54.873z"/>
<path d="M176.323,108.16c-17.089,7.484-29.877,22.031-35.086,39.911c-1.544,5.302,1.502,10.853,6.804,12.398
	c0.934,0.272,1.875,0.401,2.801,0.401c4.332,0,8.324-2.837,9.597-7.206c3.546-12.175,12.261-22.083,23.907-27.184
	c5.059-2.216,7.364-8.113,5.148-13.172C187.279,108.25,181.382,105.945,176.323,108.16z"/>
<path d="M362.802,148.641c-3.702-2.966-7.864-5.378-12.363-7.106c-5.157-1.98-10.94,0.593-12.921,5.749s0.594,10.94,5.749,12.921
	c1.73,0.665,3.374,1.508,4.908,2.505c4.564,2.966,8.161,7.303,10.198,12.428c1.559,3.921,5.319,6.309,9.296,6.309
	c1.229,0,2.479-0.228,3.691-0.71c5.132-2.04,7.639-7.854,5.599-12.986C373.96,160.206,369.036,153.636,362.802,148.641z"/>
<path d="M217.84,100.57c-0.54-0.36-1.12-0.67-1.72-0.92c-0.61-0.25-1.24-0.45-1.87-0.57c-1.29-0.26-2.62-0.26-3.91,0
	c-0.64,0.12-1.27,0.32-1.87,0.57s-1.19,0.56-1.73,0.92c-0.55,0.36-1.06,0.78-1.52,1.24c-0.777,0.777-1.406,1.683-1.887,2.662
	c-0.67,1.365-1.043,2.876-1.043,4.407c0,0.65,0.07,1.31,0.2,1.95c0.13,0.64,0.32,1.27,0.57,1.88c0.25,0.6,0.56,1.18,0.92,1.72
	c0.36,0.55,0.78,1.06,1.24,1.52c0.272,0.272,0.567,0.525,0.873,0.765c0.21,0.166,0.423,0.329,0.647,0.475
	c0.54,0.36,1.13,0.67,1.73,0.92s1.23,0.45,1.87,0.57c0.64,0.13,1.3,0.2,1.95,0.2s1.31-0.07,1.96-0.2c0.63-0.12,1.26-0.32,1.87-0.57
	c0.6-0.25,1.18-0.56,1.72-0.92c0.55-0.36,1.06-0.78,1.52-1.24c0.47-0.46,0.88-0.97,1.25-1.52c0.36-0.54,0.67-1.12,0.92-1.72
	c0.25-0.61,0.44-1.24,0.57-1.88s0.19-1.3,0.19-1.95c0-2.63-1.06-5.21-2.93-7.07C218.9,101.35,218.39,100.93,217.84,100.57z"/>
<path d="M322.81,248.88c-0.54-0.36-1.12-0.67-1.729-0.92c-0.601-0.25-1.23-0.44-1.87-0.57c-1.29-0.26-2.62-0.26-3.9,0
	c-0.64,0.13-1.27,0.32-1.88,0.57c-0.6,0.25-1.18,0.56-1.72,0.92c-0.55,0.36-1.061,0.78-1.521,1.24c-1.859,1.86-2.93,4.44-2.93,7.08
	c0,0.65,0.07,1.3,0.2,1.95c0.12,0.64,0.32,1.27,0.57,1.87s0.55,1.18,0.909,1.72c0.356,0.529,0.76,1.019,1.2,1.465
	c0.017,0.018,0.033,0.038,0.05,0.055c0.46,0.47,0.971,0.88,1.521,1.25c0.54,0.36,1.12,0.67,1.72,0.92c0.61,0.25,1.24,0.44,1.88,0.57
	c0.641,0.13,1.3,0.19,1.95,0.19s1.31-0.06,1.95-0.19c0.619-0.126,1.227-0.311,1.81-0.549c0.02-0.008,0.041-0.013,0.06-0.021
	c0.609-0.25,1.189-0.56,1.729-0.92c0.55-0.37,1.061-0.78,1.521-1.25c1.859-1.86,2.93-4.43,2.93-7.06c0-2.64-1.07-5.22-2.93-7.08
	C323.87,249.66,323.359,249.24,322.81,248.88z"/>
<g>
</g>
<g>
</g>
<g>
</g>
<g>
</g>
<g>
</g>
<g>
</g>
<g>
</g>
<g>
</g>
<g>
</g>
<g>
</g>
<g>
</g>
<g>
</g>
<g>
</g>
<g>
</g>
<g>
</g>
</svg>
