<?xml version="1.0" encoding="iso-8859-1"?>
<!-- Generator: Adobe Illustrator 19.0.0, SVG Export Plug-In . SVG Version: 6.00 Build 0)  -->
<svg version="1.1" id="Capa_1" xmlns="http://www.w3.org/2000/svg" xmlns:xlink="http://www.w3.org/1999/xlink" x="0px" y="0px"
	 viewBox="0 0 512.001 512.001" style="enable-background:new 0 0 512.001 512.001;" xml:space="preserve">
<g>
	<path style="fill:#CD5C63;" d="M43.044,245.197c14.156-3.936,26.784-18.138,23.381-30.38s-21.55-17.889-35.706-13.953
		s-22.872,17.05-19.469,29.292S28.888,249.132,43.044,245.197z"/>
	<path style="fill:#CD5C63;" d="M456.809,343.536c1.275-11.376-11.991-22.2-25.145-23.674s-24.851,6.553-26.126,17.929
		s8.356,21.793,21.51,23.267S455.534,354.912,456.809,343.536z"/>
</g>
<path style="fill:#EBBF72;" d="M355.214,77.43H136.962c-11.637,0-21.112,9.355-21.26,20.99l-4.873,382.048
	c-0.151,11.848,9.411,21.533,21.26,21.533h227.998c11.849,0,21.411-9.685,21.26-21.533L376.474,98.42
	C376.325,86.785,366.85,77.43,355.214,77.43z M246.088,116.664c36.354,0,65.825,29.471,65.825,65.825s-29.471,65.825-65.825,65.825
	s-65.825-29.471-65.825-65.825S209.733,116.664,246.088,116.664z M246.088,463.01c-48.452,0-87.73-39.278-87.73-87.73
	s39.278-87.73,87.73-87.73s87.73,39.278,87.73,87.73S294.54,463.01,246.088,463.01z"/>
<path style="fill:#C7E1F0;" d="M246.088,287.549c-48.452,0-87.73,39.278-87.73,87.73s39.278,87.73,87.73,87.73
	s87.73-39.278,87.73-87.73S294.54,287.549,246.088,287.549z M246.088,412.646c-20.637,0-37.367-16.729-37.367-37.367
	s16.73-37.367,37.367-37.367s37.367,16.729,37.367,37.367S266.725,412.646,246.088,412.646z"/>
<circle style="fill:#F4DAAB;" cx="246.091" cy="375.28" r="37.37"/>
<path style="fill:#C7E1F0;" d="M246.088,248.315c36.354,0,65.825-29.471,65.825-65.825s-29.471-65.825-65.825-65.825
	s-65.825,29.471-65.825,65.825S209.733,248.315,246.088,248.315z M246.088,159.188c12.869,0,23.301,10.432,23.301,23.301
	s-10.432,23.301-23.301,23.301c-12.869,0-23.301-10.432-23.301-23.301S233.219,159.188,246.088,159.188z"/>
<circle style="fill:#F4DAAB;" cx="246.091" cy="182.49" r="23.301"/>
<path d="M28.04,191.229c-9.16,2.547-16.962,8.098-21.969,15.631c-5.31,7.988-6.892,17.213-4.456,25.975
	c2.436,8.762,8.553,15.847,17.223,19.948c4.971,2.352,10.448,3.542,16.038,3.542c3.604,0,7.255-0.496,10.847-1.494
	c8.946-2.487,17.466-8.11,23.375-15.426c6.875-8.512,9.412-18.45,6.961-27.267l0,0c-0.542-1.948-2.263-8.141-2.623-9.434
	l-17.709-63.698c7.431-0.306,17.629-1.07,29.951-2.851c5.466-0.79,9.257-5.861,8.467-11.327c-0.79-5.466-5.863-9.258-11.327-8.467
	c-24.162,3.492-39.549,2.766-39.689,2.758c-3.211-0.169-6.315,1.215-8.331,3.725c-2.015,2.51-2.699,5.837-1.837,8.939l16.327,58.729
	C42.24,189.133,34.785,189.354,28.04,191.229z M56.79,217.495C56.79,217.496,56.79,217.496,56.79,217.495
	c0.689,2.478-0.526,5.971-3.25,9.343c-3.301,4.087-8.226,7.348-13.174,8.724c-4.533,1.261-9.141,0.955-12.974-0.858
	c-3.34-1.58-5.65-4.146-6.507-7.226c-0.856-3.08-0.202-6.47,1.844-9.547c2.348-3.532,6.137-6.172,10.669-7.432
	c2.115-0.588,4.403-0.879,6.716-0.879c3.1,0,6.243,0.522,9.07,1.551C53.258,212.654,56.101,215.018,56.79,217.495z"/>
<path d="M511.216,277.894c1.309-5.366-1.98-10.776-7.346-12.085c-21.255-5.184-33.802-10.933-33.914-10.984
	c-2.917-1.36-6.312-1.231-9.119,0.344c-2.807,1.576-4.684,4.407-5.042,7.606l-5.94,53.013c-5.238-3.136-11.174-5.203-17.078-5.865
	c-8.751-0.98-17.375,1.093-24.29,5.839c-7.366,5.055-11.943,12.483-12.888,20.915c-0.945,8.433,1.875,16.689,7.939,23.249
	c5.693,6.158,13.647,10.089,22.396,11.069c1.457,0.163,2.934,0.244,4.42,0.244c7.203,0,14.618-1.888,20.898-5.39
	c8.893-4.958,14.54-12.686,15.494-21.2c0.2-1.788,0.846-7.549,0.982-8.766l6.493-57.954c6.24,2.179,14.642,4.805,24.909,7.31
	C504.502,286.549,509.908,283.259,511.216,277.894z M446.871,342.423L446.871,342.423c-0.222,1.985-2.225,4.213-5.357,5.959
	c-3.96,2.208-8.952,3.234-13.352,2.738c-3.918-0.438-7.54-2.178-9.937-4.771c-1.194-1.291-3.138-3.975-2.749-7.445
	s2.879-5.657,4.329-6.652c2.425-1.665,5.547-2.563,8.787-2.563c0.65,0,1.304,0.036,1.958,0.11c4.401,0.493,9.042,2.596,12.415,5.626
	C445.634,337.822,447.094,340.438,446.871,342.423z"/>
<path d="M386.473,98.293c-0.217-17.018-14.24-30.863-31.259-30.863H136.962c-17.02,0-31.042,13.845-31.259,30.863l-4.873,382.048
	c-0.052,4.054,0.67,7.993,2.085,11.66h-20.01c-5.523,0-10,4.477-10,10s4.477,10,10,10h49.184h227.998h49.184c5.523,0,10-4.477,10-10
	s-4.477-10-10-10h-20.01c1.415-3.667,2.136-7.606,2.085-11.66L386.473,98.293z M368.101,488.652c-2.132,2.16-4.979,3.35-8.014,3.35
	H132.089c-3.035,0-5.881-1.189-8.014-3.35c-2.132-2.16-3.286-5.021-3.247-8.056l4.873-382.048c0.078-6.13,5.13-11.118,11.261-11.118
	h218.252c6.131,0,11.183,4.987,11.261,11.118l4.873,382.049C371.386,483.631,370.233,486.492,368.101,488.652z"/>
<path d="M246.088,277.55c-15.109,0-29.6,3.357-43.068,9.979c-4.956,2.437-6.999,8.43-4.562,13.386c2.438,4.957,8.431,7,13.386,4.562
	c10.699-5.26,22.221-7.927,34.244-7.927c42.86,0,77.73,34.87,77.73,77.73c0,42.861-34.87,77.73-77.73,77.73
	c-42.861,0-77.73-34.87-77.73-77.73c0-6.804,0.878-13.553,2.611-20.06c1.421-5.337-1.754-10.815-7.091-12.236
	c-5.337-1.419-10.815,1.754-12.236,7.091c-2.179,8.184-3.284,16.665-3.284,25.205c0,53.889,43.842,97.73,97.73,97.73
	s97.73-43.842,97.73-97.73S299.976,277.55,246.088,277.55z"/>
<path d="M293.455,375.28c0-26.118-21.249-47.367-47.367-47.367s-47.367,21.249-47.367,47.367s21.249,47.367,47.367,47.367
	S293.455,401.398,293.455,375.28z M218.721,375.28c0-15.09,12.277-27.367,27.367-27.367s27.367,12.277,27.367,27.367
	s-12.277,27.367-27.367,27.367S218.721,390.369,218.721,375.28z"/>
<path d="M246.088,258.315c41.81,0,75.825-34.015,75.825-75.826c0-41.81-34.015-75.825-75.825-75.825
	c-41.811,0-75.826,34.015-75.826,75.825C170.262,224.3,204.277,258.315,246.088,258.315z M246.088,126.664
	c30.782,0,55.825,25.043,55.825,55.825s-25.043,55.826-55.825,55.826s-55.826-25.043-55.826-55.826S215.306,126.664,246.088,126.664
	z"/>
<path d="M246.088,215.791c18.362,0,33.301-14.939,33.301-33.301s-14.938-33.301-33.301-33.301s-33.301,14.938-33.301,33.301
	S227.726,215.791,246.088,215.791z M246.088,169.189c7.334,0,13.301,5.967,13.301,13.301s-5.967,13.301-13.301,13.301
	s-13.301-5.967-13.301-13.301C232.787,175.155,238.753,169.189,246.088,169.189z"/>
<path d="M168.537,324.061c0.25,0.61,0.56,1.19,0.92,1.73c0.37,0.55,0.79,1.06,1.25,1.52s0.97,0.88,1.52,1.24
	c0.54,0.36,1.12,0.67,1.72,0.92c0.61,0.25,1.24,0.44,1.87,0.57c0.65,0.13,1.31,0.2,1.96,0.2c0.65,0,1.31-0.07,1.95-0.2
	s1.27-0.32,1.87-0.57c0.61-0.25,1.19-0.56,1.73-0.92c0.55-0.36,1.06-0.78,1.52-1.24s0.88-0.97,1.24-1.52
	c0.36-0.54,0.67-1.12,0.92-1.73c0.25-0.6,0.44-1.23,0.57-1.87c0.13-0.64,0.2-1.3,0.2-1.95s-0.07-1.31-0.2-1.96
	c-0.13-0.63-0.32-1.26-0.57-1.87c-0.25-0.6-0.56-1.18-0.92-1.72c-0.36-0.55-0.78-1.06-1.24-1.52s-0.97-0.88-1.52-1.25
	c-0.54-0.36-1.12-0.67-1.73-0.92c-0.6-0.25-1.23-0.44-1.87-0.57c-1.29-0.26-2.62-0.26-3.91,0c-0.63,0.13-1.26,0.32-1.87,0.57
	c-0.6,0.25-1.18,0.56-1.72,0.92c-0.55,0.37-1.06,0.79-1.52,1.25s-0.88,0.97-1.25,1.52c-0.36,0.54-0.67,1.12-0.92,1.72
	c-0.25,0.61-0.44,1.24-0.57,1.87c-0.13,0.65-0.19,1.31-0.19,1.96s0.06,1.31,0.19,1.95
	C168.097,322.831,168.287,323.461,168.537,324.061z"/>
<path d="M412.223,103.545c0.317,0,0.638-0.015,0.96-0.045c5.498-0.524,9.53-5.405,9.007-10.903
	c-2.565-26.938-17.255-41.151-29.126-48.332c-12.426-7.516-24.071-8.88-25.357-9.011c-5.491-0.566-10.431,3.439-10.989,8.934
	c-0.559,5.495,3.414,10.398,8.908,10.957c0.087,0.01,8.839,1.058,17.68,6.598c11.188,7.011,17.572,18.03,18.974,32.75
	C402.773,99.668,407.127,103.545,412.223,103.545z"/>
<path d="M450.56,90.403c0.317,0,0.638-0.015,0.96-0.045c5.498-0.524,9.53-5.405,9.007-10.903
	c-3.556-37.342-23.843-56.999-40.235-66.914C402.754,1.932,385.97,0.124,385.264,0.052c-5.494-0.561-10.401,3.442-10.96,8.937
	s3.442,10.402,8.937,10.96c0.128,0.013,13.189,1.531,26.701,9.704c18.133,10.967,28.454,28.36,30.676,51.697
	C441.11,86.526,445.465,90.403,450.56,90.403z"/>
<g>
</g>
<g>
</g>
<g>
</g>
<g>
</g>
<g>
</g>
<g>
</g>
<g>
</g>
<g>
</g>
<g>
</g>
<g>
</g>
<g>
</g>
<g>
</g>
<g>
</g>
<g>
</g>
<g>
</g>
</svg>
