<?xml version="1.0" encoding="iso-8859-1"?>
<!-- Generator: Adobe Illustrator 19.0.0, SVG Export Plug-In . SVG Version: 6.00 Build 0)  -->
<svg version="1.1" id="Capa_1" xmlns="http://www.w3.org/2000/svg" xmlns:xlink="http://www.w3.org/1999/xlink" x="0px" y="0px"
	 viewBox="0 0 512 512" style="enable-background:new 0 0 512 512;" xml:space="preserve">
<g>
	<path style="fill:#C7E1F0;" d="M166.822,210.647V139.15H67.948c-11.887,0-21.523,9.636-21.523,21.523v28.451
		c0,11.887,9.636,21.523,21.523,21.523h9.969l9.469,270.519c0.407,11.622,9.946,20.833,21.575,20.833H212.03l-6.119-291.352H166.822
		z"/>
	<path style="fill:#C7E1F0;" d="M345.176,139.15v71.497h-39.089l-6.119,291.352h103.07c11.629,0,21.168-9.211,21.575-20.833
		l9.469-270.519h9.969c11.887,0,21.523-9.636,21.523-21.523v-28.451c0-11.887-9.636-21.523-21.523-21.523H345.176z"/>
</g>
<polygon style="fill:#CD5C63;" points="345.176,210.647 345.176,139.15 166.822,139.15 166.822,210.647 205.911,210.647 
	212.03,501.999 299.968,501.999 306.088,210.647 "/>
<path d="M36.424,160.673v28.451c0,17.382,14.142,31.523,31.523,31.523h0.313l9.132,260.869C77.991,498.61,91.858,512,108.962,512
	H212.03h87.938h103.07c17.105,0,30.971-13.39,31.568-30.483l9.132-260.869h0.313c17.383,0,31.523-14.142,31.523-31.523v-28.451
	c0-17.382-14.142-31.523-31.523-31.523h-98.874h-48.019c25.261-11.928,41.841-28.236,43.901-45.152
	c1.636-13.43-6.187-25.057-21.46-31.901c-9.063-4.061-18.756-4.055-28.032,0.02c-16.293,7.156-29.584,26.221-38.937,43.908
	c-0.725-4.365-1.552-8.898-2.501-13.516c-8.299-40.406-21.455-66.291-39.102-76.934c-8.279-4.994-21.935-9.179-39.968-0.765
	c-5.005,2.336-7.169,8.286-4.833,13.292c2.335,5.004,8.283,7.168,13.291,4.833c10.895-5.085,17.303-2.57,21.176-0.236
	c12.283,7.405,22.865,29.99,29.795,63.596c2.539,12.314,4.193,24.182,5.244,33.516c-19.38-12.12-50.901-33.82-66.582-55.464
	c-3.241-4.474-9.492-5.471-13.967-2.231c-4.472,3.24-5.471,9.492-2.231,13.966c14.642,20.211,40.214,39.643,60.322,53.071h-46.45
	H67.95C50.565,129.149,36.424,143.29,36.424,160.673z M355.177,149.15h88.874c6.354,0,11.523,5.169,11.523,11.523v28.451
	c0,6.353-5.169,11.523-11.523,11.523h-9.969h-78.905V149.15z M423.725,220.647l-9.107,260.17c-0.219,6.27-5.306,11.181-11.58,11.181
	h-92.856l0.11-5.244l1.787-68.091c0.145-5.521-4.214-10.114-9.734-10.259c-5.551-0.155-10.115,4.214-10.259,9.734l-1.788,68.143
	l-0.12,5.717h-68.353l-5.699-271.351h79.761l-2.247,111.474c-0.111,5.522,4.274,10.088,9.797,10.2
	c5.521,0.144,10.087-4.275,10.199-9.796l2.255-111.877h29.287h78.548V220.647z M299.617,70.424c2.093-0.918,4.088-1.377,6.06-1.377
	c1.915,0,3.807,0.434,5.74,1.3c7.018,3.145,10.31,6.924,9.785,11.232c-1.275,10.476-20.524,28.483-58.069,38.859
	C271.398,101.549,284.983,76.844,299.617,70.424z M176.823,149.15h158.353v51.496h-29.088H205.911h-29.088L176.823,149.15
	L176.823,149.15z M196.119,220.647l5.699,271.351h-92.856c-6.273,0-11.361-4.911-11.58-11.182l-9.107-260.169h78.549
	L196.119,220.647L196.119,220.647z M56.425,160.673c0-6.353,5.169-11.523,11.523-11.523h88.874v51.496H77.917h-9.969
	c-6.354,0-11.523-5.169-11.523-11.523V160.673z"/>
<path d="M312.092,371.533c-0.25-0.6-0.56-1.18-0.92-1.72c-0.36-0.55-0.78-1.06-1.24-1.52c-2.33-2.32-5.78-3.39-9.03-2.74
	c-0.63,0.13-1.26,0.32-1.869,0.57c-0.601,0.26-1.181,0.56-1.721,0.93c-0.55,0.36-1.06,0.78-1.529,1.24
	c-0.461,0.46-0.881,0.97-1.24,1.52c-0.36,0.54-0.67,1.12-0.92,1.72c-0.25,0.61-0.44,1.24-0.57,1.87c-0.13,0.65-0.19,1.31-0.19,1.96
	s0.061,1.31,0.19,1.95c0.129,0.64,0.32,1.27,0.57,1.87c0.25,0.61,0.56,1.19,0.92,1.73c0.359,0.55,0.779,1.06,1.24,1.52
	c0.47,0.46,0.979,0.88,1.529,1.24c0.54,0.36,1.12,0.67,1.721,0.92c0.609,0.25,1.239,0.44,1.869,0.57c0.65,0.13,1.311,0.2,1.96,0.2
	c2.631,0,5.2-1.07,7.07-2.93c0.46-0.46,0.88-0.97,1.24-1.52c0.36-0.54,0.67-1.12,0.92-1.73c0.25-0.6,0.44-1.23,0.57-1.87
	c0.13-0.64,0.199-1.3,0.199-1.95c0-0.65-0.069-1.31-0.199-1.96C312.533,372.772,312.342,372.142,312.092,371.533z"/>
<path d="M157.776,30.647c-0.36-0.55-0.78-1.06-1.24-1.52c-0.471-0.46-0.98-0.88-1.521-1.24c-0.55-0.37-1.13-0.67-1.729-0.92
	c-0.601-0.25-1.23-0.45-1.87-0.57c-1.29-0.26-2.62-0.26-3.91,0c-0.64,0.12-1.27,0.32-1.87,0.57c-0.6,0.25-1.18,0.55-1.729,0.92
	c-0.54,0.36-1.051,0.78-1.511,1.24c-0.47,0.46-0.88,0.97-1.25,1.52c-0.359,0.54-0.67,1.12-0.92,1.73
	c-0.25,0.6-0.439,1.23-0.569,1.87c-0.13,0.64-0.19,1.3-0.19,1.95c0,2.63,1.061,5.21,2.93,7.07c0.46,0.46,0.971,0.88,1.511,1.24
	c0.55,0.36,1.13,0.67,1.729,0.92c0.601,0.25,1.23,0.44,1.87,0.57c0.65,0.13,1.3,0.2,1.96,0.2c0.65,0,1.3-0.07,1.95-0.2
	c0.64-0.13,1.27-0.32,1.87-0.57c0.6-0.25,1.18-0.56,1.729-0.92c0.54-0.36,1.05-0.78,1.521-1.24c0.46-0.46,0.88-0.97,1.24-1.52
	c0.359-0.54,0.67-1.12,0.92-1.73c0.25-0.6,0.439-1.23,0.569-1.87c0.13-0.64,0.2-1.3,0.2-1.95c0-0.65-0.07-1.31-0.2-1.95
	c-0.13-0.64-0.319-1.27-0.569-1.87C158.445,31.768,158.135,31.188,157.776,30.647z"/>
<g>
</g>
<g>
</g>
<g>
</g>
<g>
</g>
<g>
</g>
<g>
</g>
<g>
</g>
<g>
</g>
<g>
</g>
<g>
</g>
<g>
</g>
<g>
</g>
<g>
</g>
<g>
</g>
<g>
</g>
</svg>
