<?xml version="1.0" encoding="iso-8859-1"?>
<!-- Generator: Adobe Illustrator 19.0.0, SVG Export Plug-In . SVG Version: 6.00 Build 0)  -->
<svg version="1.1" id="Capa_1" xmlns="http://www.w3.org/2000/svg" xmlns:xlink="http://www.w3.org/1999/xlink" x="0px" y="0px"
	 viewBox="0 0 512 512" style="enable-background:new 0 0 512 512;" xml:space="preserve">
<path style="fill:#EBBF72;" d="M343.742,161.018c-22.376,0-40.515-18.139-40.515-40.515c0-4.339-54.459,50.235-118.589,5.896
	c-9.02,11.715-23.177,19.272-39.105,19.272c-10.106,0-19.499-3.044-27.322-8.258v297.806h235.622V159.75
	C350.607,160.577,347.226,161.018,343.742,161.018z"/>
<path style="fill:#C7E1F0;" d="M108.466,476.505C105.393,489.523,115.268,502,128.643,502h214.758
	c13.375,0,23.25-12.477,20.177-25.495l-9.745-41.287H118.211L108.466,476.505z"/>
<path style="fill:#F4DAAB;" d="M184.638,126.399c64.13,44.338,118.589-10.235,118.589-5.896c0,22.376,18.139,40.515,40.515,40.515
	c3.484,0,6.865-0.441,10.091-1.268c17.493-4.485,30.424-20.355,30.424-39.247c0-22.376-18.139-40.515-40.515-40.515
	c-2.469,0-4.882,0.233-7.229,0.656c0.398-2.078,0.614-4.221,0.614-6.415c0-18.722-15.178-33.9-33.9-33.9
	c-8.506,0-16.274,3.14-22.226,8.315C271.113,25.906,248.46,10,222.083,10c-26.909,0-49.94,16.555-59.498,40.03
	c-5.314-1.958-11.058-3.029-17.052-3.029c-27.247,0-49.335,22.088-49.335,49.335c0,17.141,8.745,32.234,22.013,41.077
	c7.823,5.214,17.216,8.258,27.322,8.258C161.462,145.671,175.618,138.115,184.638,126.399z"/>
<path d="M176.004,223.581c-5.522,0-10,4.477-10,10v157.451c0,5.523,4.478,10,10,10s10-4.477,10-10V233.581
	C186.004,228.058,181.526,223.581,176.004,223.581z"/>
<path d="M166.77,193.86c0.25,0.61,0.561,1.19,0.92,1.73c0.36,0.55,0.78,1.06,1.24,1.52s0.97,0.88,1.521,1.24
	c0.54,0.36,1.119,0.67,1.729,0.92c0.601,0.25,1.23,0.45,1.87,0.57c0.64,0.13,1.3,0.2,1.95,0.2c2.64,0,5.21-1.07,7.069-2.93
	c0.471-0.46,0.881-0.97,1.25-1.52c0.36-0.54,0.671-1.12,0.921-1.73c0.25-0.6,0.439-1.23,0.569-1.87s0.19-1.3,0.19-1.95
	c0-2.64-1.061-5.21-2.931-7.07c-2.319-2.33-5.779-3.39-9.02-2.74c-0.64,0.13-1.27,0.32-1.87,0.58c-0.61,0.25-1.189,0.55-1.729,0.91
	c-0.551,0.37-1.061,0.79-1.521,1.25c-1.86,1.86-2.93,4.43-2.93,7.07c0,0.65,0.069,1.31,0.2,1.95
	C166.33,192.63,166.52,193.26,166.77,193.86z"/>
<path d="M239.766,180.039c-5.522,0-10,4.477-10,10v200.993c0,5.523,4.478,10,10,10s10-4.477,10-10V190.039
	C249.766,184.516,245.288,180.039,239.766,180.039z"/>
<path d="M312.76,387.21c-0.25-0.61-0.56-1.19-0.92-1.73c-0.36-0.55-0.78-1.06-1.24-1.52s-0.97-0.88-1.52-1.24
	c-0.54-0.36-1.12-0.67-1.73-0.92c-0.6-0.25-1.229-0.44-1.87-0.57c-1.29-0.26-2.62-0.26-3.91,0c-0.63,0.13-1.26,0.32-1.869,0.57
	c-0.601,0.25-1.181,0.56-1.721,0.92c-0.55,0.36-1.06,0.78-1.52,1.24c-0.47,0.46-0.88,0.97-1.25,1.52c-0.36,0.54-0.67,1.12-0.92,1.73
	c-0.25,0.6-0.44,1.23-0.57,1.87c-0.13,0.64-0.189,1.3-0.189,1.95s0.06,1.31,0.189,1.96c0.13,0.63,0.32,1.26,0.57,1.87
	c0.25,0.6,0.56,1.18,0.92,1.72c0.37,0.55,0.78,1.06,1.25,1.52c0.46,0.46,0.97,0.88,1.52,1.25c0.54,0.36,1.12,0.67,1.721,0.92
	c0.609,0.25,1.239,0.44,1.869,0.57c0.65,0.13,1.311,0.19,1.961,0.19c0.649,0,1.31-0.06,1.949-0.19c0.641-0.13,1.271-0.32,1.87-0.57
	c0.61-0.25,1.19-0.56,1.73-0.92c0.55-0.37,1.06-0.79,1.52-1.25s0.88-0.97,1.24-1.52c0.36-0.54,0.67-1.12,0.92-1.72
	c0.25-0.61,0.44-1.24,0.57-1.87c0.13-0.65,0.2-1.31,0.2-1.96s-0.07-1.31-0.2-1.95C313.2,388.44,313.01,387.81,312.76,387.21z"/>
<path d="M303.527,357.49c5.522,0,10-4.477,10-10V190.039c0-5.523-4.478-10-10-10s-10,4.477-10,10V347.49
	C293.527,353.013,298.005,357.49,303.527,357.49z"/>
<path d="M405.935,362.193c12.255-5.271,19.867-15.735,19.867-27.308V231.302c0-16.962-16.595-30.762-36.992-30.762h-24.977v-33.701
	c17.884-7.784,30.424-25.62,30.424-46.336c0-26.783-20.949-48.764-47.323-50.415c-2.094-22.272-20.896-39.758-43.706-39.758
	c-6.436,0-12.74,1.416-18.49,4.089C271.258,13.199,247.74,0,222.083,0c-27.301,0-51.897,14.713-64.881,38.15
	c-3.822-0.764-7.724-1.148-11.669-1.148c-32.718,0-59.335,26.618-59.335,59.335c0,18.585,8.595,35.195,22.013,46.082v291.636
	l-9.478,40.153c-2.171,9.197-0.054,18.722,5.812,26.132c5.864,7.41,14.647,11.66,24.098,11.66H343.4
	c9.45,0,18.233-4.25,24.098-11.66c5.864-7.41,7.983-16.935,5.813-26.132l-9.478-40.153V380.3L405.935,362.193z M388.81,220.54
	c10.014,0,16.992,5.671,16.992,10.762v103.584c0,3.397-3.05,6.905-7.77,8.935l-34.199,14.708V220.54H388.81z M351.815,487.928
	C349.768,490.516,346.7,492,343.4,492H128.643c-3.3,0-6.367-1.484-8.415-4.072c-2.048-2.587-2.787-5.914-2.029-9.125l7.927-33.584
	H345.92l7.927,33.583C354.604,482.014,353.863,485.341,351.815,487.928z M128.211,425.219V153.085
	c5.483,1.677,11.298,2.586,17.322,2.586c15.43,0,29.887-5.845,40.839-16.287c22.509,13.33,46.34,17.501,70.956,12.392
	c16.188-3.358,29.446-10.125,38.429-15.477c6.647,20.141,25.646,34.718,47.985,34.718c0.031,0,0.06-0.002,0.091-0.002v254.203
	L128.211,425.219L128.211,425.219z M343.833,151.015c-0.031,0-0.06,0.002-0.091,0.002c-15.879,0-28.958-12.193-30.38-27.707
	c-0.085-0.925-0.134-1.861-0.134-2.808c0-3.767-2.041-7.217-5.326-9.003c-1.684-0.916-3.265-1.301-4.792-1.301
	c-3.598,0-6.896,2.137-10.544,4.499c-3.55,2.299-8.478,5.491-14.546,8.613c-18.295,9.414-46.956,18.193-79.464,0
	c-2.291-1.282-4.601-2.701-6.928-4.26c-1.869-2.573-6.36-9.158-8.517-15.74c-0.225-0.686-0.427-1.372-0.596-2.053
	c-1.325-5.361-6.746-8.636-12.107-7.309c-4.44,1.098-7.439,5.006-7.588,9.362c-0.031,0.903,0.052,1.825,0.279,2.746
	c1.572,6.359,4.594,12.48,7.412,17.254c0.461,0.781,0.917,1.529,1.359,2.233c-7.169,6.499-16.45,10.127-26.336,10.127
	c-5.873,0-11.445-1.303-16.455-3.621c-6.318-2.923-11.732-7.471-15.706-13.109c-4.513-6.401-7.174-14.196-7.174-22.605
	c0-21.689,17.646-39.335,39.335-39.335c4.676,0,9.25,0.812,13.596,2.412c5.06,1.863,10.686-0.62,12.718-5.613
	C180.207,33.268,199.927,20,222.083,20c19.751,0,37.762,10.714,47.293,27.703c-2.384,3.933-5.046,9.668-6.133,16.916
	c-0.819,5.462,2.944,10.554,8.406,11.373c0.503,0.076,1.002,0.112,1.496,0.112c4.866,0,9.133-3.56,9.877-8.518
	c0.931-6.204,3.993-10.491,4.992-11.753c4.28-3.543,9.652-5.504,15.214-5.504c13.178,0,23.899,10.721,23.899,23.9
	c0,1.5-0.146,3.025-0.436,4.531c-0.62,3.236,0.394,6.571,2.711,8.915c2.316,2.343,5.641,3.393,8.883,2.811
	c1.833-0.33,3.669-0.498,5.457-0.498c16.826,0,30.515,13.689,30.515,30.515c0,9.136-4.041,17.341-10.424,22.938
	C358.482,148.134,351.487,150.993,343.833,151.015z"/>
<g>
</g>
<g>
</g>
<g>
</g>
<g>
</g>
<g>
</g>
<g>
</g>
<g>
</g>
<g>
</g>
<g>
</g>
<g>
</g>
<g>
</g>
<g>
</g>
<g>
</g>
<g>
</g>
<g>
</g>
</svg>
