<?xml version="1.0" encoding="iso-8859-1"?>
<!-- Generator: Adobe Illustrator 19.0.0, SVG Export Plug-In . SVG Version: 6.00 Build 0)  -->
<svg version="1.1" id="Capa_1" xmlns="http://www.w3.org/2000/svg" xmlns:xlink="http://www.w3.org/1999/xlink" x="0px" y="0px"
	 viewBox="0 0 512 512" style="enable-background:new 0 0 512 512;" xml:space="preserve">
<g>
	<path style="fill:#C7E1F0;" d="M122.848,283.423c0-59.356,30.151-111.667,75.97-142.461h-32.433H137.24H46.255H34.758
		C21.084,140.962,10,152.046,10,165.72v235.407c0,13.673,11.084,24.758,24.758,24.758h164.06
		C152.999,395.09,122.848,342.779,122.848,283.423z M70.305,249.998c-15.042,0-27.235-12.194-27.235-27.235
		s12.194-27.235,27.235-27.235c15.042,0,27.235,12.194,27.235,27.235S85.347,249.998,70.305,249.998z"/>
	<path style="fill:#C7E1F0;" d="M477.242,140.962h-54.874h-32.433c45.819,30.795,75.97,83.106,75.97,142.461
		c0,59.356-30.151,111.667-75.97,142.461h87.307c13.673,0,24.758-11.084,24.758-24.758V165.72
		C502,152.046,490.916,140.962,477.242,140.962z"/>
</g>
<path style="fill:#66B6E0;" d="M294.377,111.894c35.377,0,68.25,10.713,95.559,29.067h32.433L409.871,84.49
	c-3.548-16.031-17.76-27.443-34.179-27.443h-162.63c-16.419,0-30.632,11.411-34.179,27.443l-12.497,56.471h32.433
	C226.127,122.608,259,111.894,294.377,111.894z"/>
<path style="fill:#9A84B8;" d="M465.906,283.423c0-59.356-30.151-111.667-75.97-142.461c-27.309-18.354-60.182-29.067-95.559-29.067
	s-68.25,10.713-95.559,29.067c-45.819,30.795-75.97,83.106-75.97,142.461c0,59.356,30.151,111.667,75.97,142.461
	c27.309,18.354,60.182,29.068,95.559,29.068s68.25-10.713,95.559-29.068C435.755,395.09,465.906,342.779,465.906,283.423z
	 M294.377,404.712c-66.986,0-121.289-54.303-121.289-121.289s54.303-121.289,121.289-121.289s121.289,54.303,121.289,121.289
	C415.666,350.409,361.363,404.712,294.377,404.712z"/>
<circle style="fill:#F4DAAB;" cx="294.38" cy="283.42" r="121.29"/>
<path style="fill:#CD5C63;" d="M137.241,110.212c0-6.19-5.018-11.207-11.207-11.207H57.462c-6.19,0-11.207,5.018-11.207,11.207
	v30.75h90.986V110.212z"/>
<circle style="fill:#EBBF72;" cx="70.31" cy="222.76" r="27.23"/>
<path d="M477.242,130.962h-46.845l-10.762-48.631c-4.596-20.774-22.666-35.283-43.942-35.283h-162.63
	c-21.276,0-39.346,14.508-43.943,35.282l-10.762,48.632h-11.116v-20.75c0-11.693-9.514-21.207-21.208-21.207H57.462
	c-11.694,0-21.208,9.514-21.208,21.207v20.75h-1.497C15.592,130.962,0,146.554,0,165.72v235.407
	c0,19.166,15.592,34.758,34.758,34.758h35.547h125.649c28.374,18.38,62.172,29.067,98.423,29.067s70.05-10.687,98.423-29.067h84.442
	c19.166,0,34.758-15.592,34.758-34.758V165.72C512,146.554,496.408,130.962,477.242,130.962z M188.646,86.651
	c2.555-11.542,12.595-19.604,24.416-19.604h162.63c11.821,0,21.861,8.061,24.415,19.604l9.806,44.311H392.8
	c-28.374-18.38-62.172-29.067-98.423-29.067s-70.049,10.687-98.423,29.067H178.84L188.646,86.651z M56.254,110.212
	c0-0.666,0.542-1.207,1.208-1.207h68.571c0.666,0,1.208,0.542,1.208,1.207v20.75H56.254V110.212z M80.305,415.885V307.267
	c0-5.523-4.477-10-10-10s-10,4.477-10,10v108.618H34.758c-8.137,0-14.758-6.621-14.758-14.758V165.72
	c0-8.138,6.621-14.758,14.758-14.758h11.497h90.986h29.145h4.008c-35.391,33.146-57.546,80.262-57.546,132.461
	s22.155,99.315,57.546,132.461H80.305V415.885z M386.707,415.885c-11.92,8.334-25.011,15.099-38.974,20
	c-16.712,5.866-34.666,9.067-53.356,9.067s-36.645-3.202-53.356-9.067c-13.963-4.901-27.053-11.666-38.974-20
	c-41.801-29.225-69.199-77.7-69.199-132.461s27.398-103.236,69.199-132.461c11.92-8.334,25.011-15.099,38.974-20
	c16.712-5.866,34.666-9.067,53.356-9.067s36.645,3.202,53.356,9.067c13.963,4.901,27.053,11.666,38.974,20
	c41.801,29.225,69.199,77.7,69.199,132.461S428.508,386.66,386.707,415.885z M492,401.126c0,8.138-6.62,14.758-14.758,14.758H418.36
	c35.391-33.146,57.546-80.262,57.546-132.461s-22.155-99.315-57.546-132.461h4.008h54.874c8.138,0,14.758,6.62,14.758,14.758
	L492,401.126L492,401.126z"/>
<path d="M294.377,152.134c-72.393,0-131.289,58.896-131.289,131.29c0,72.393,58.896,131.289,131.289,131.289
	c10.548,0,21.047-1.256,31.205-3.733c5.366-1.309,8.654-6.719,7.346-12.084c-1.308-5.366-6.719-8.656-12.084-7.346
	c-8.609,2.1-17.514,3.164-26.467,3.164c-61.365,0-111.289-49.924-111.289-111.289s49.924-111.29,111.289-111.29
	s111.289,49.924,111.289,111.29c0,22.366-6.604,43.931-19.101,62.364c-3.099,4.571-1.905,10.79,2.666,13.889
	c4.568,3.098,10.789,1.906,13.889-2.666c14.75-21.757,22.546-47.203,22.546-73.586C425.666,211.03,366.77,152.134,294.377,152.134z"
	/>
<path d="M70.305,185.527c-20.532,0-37.235,16.704-37.235,37.235s16.704,37.235,37.235,37.235s37.235-16.704,37.235-37.235
	S90.836,185.527,70.305,185.527z M70.305,239.998c-9.503,0-17.235-7.732-17.235-17.235s7.732-17.235,17.235-17.235
	s17.235,7.732,17.235,17.235S79.809,239.998,70.305,239.998z"/>
<path d="M374.52,378c-0.25-0.6-0.56-1.18-0.92-1.72c-0.359-0.55-0.78-1.06-1.24-1.52s-0.979-0.88-1.52-1.25
	c-0.55-0.36-1.13-0.67-1.73-0.92s-1.229-0.44-1.869-0.57c-1.29-0.26-2.62-0.26-3.91,0c-0.641,0.13-1.271,0.32-1.87,0.57
	c-0.601,0.25-1.18,0.56-1.73,0.92c-0.54,0.37-1.05,0.79-1.52,1.25c-0.46,0.46-0.88,0.97-1.24,1.52c-0.36,0.54-0.67,1.12-0.92,1.72
	c-0.25,0.61-0.44,1.24-0.57,1.87c-0.13,0.65-0.199,1.31-0.199,1.96s0.069,1.31,0.199,1.95s0.32,1.27,0.57,1.87
	c0.25,0.61,0.56,1.19,0.92,1.73c0.36,0.55,0.78,1.06,1.24,1.52c0.47,0.46,0.979,0.88,1.52,1.24c0.551,0.36,1.13,0.67,1.73,0.92
	s1.229,0.44,1.87,0.57c0.649,0.13,1.3,0.2,1.95,0.2c0.659,0,1.31-0.07,1.96-0.2c0.64-0.13,1.27-0.32,1.869-0.57
	c0.601-0.25,1.181-0.56,1.73-0.92c0.54-0.36,1.06-0.78,1.52-1.24c1.86-1.86,2.921-4.44,2.921-7.07c0-0.65-0.061-1.31-0.19-1.96
	C374.96,379.24,374.77,378.61,374.52,378z"/>
<g>
</g>
<g>
</g>
<g>
</g>
<g>
</g>
<g>
</g>
<g>
</g>
<g>
</g>
<g>
</g>
<g>
</g>
<g>
</g>
<g>
</g>
<g>
</g>
<g>
</g>
<g>
</g>
<g>
</g>
</svg>
