<?xml version="1.0" encoding="iso-8859-1"?>
<!-- Generator: Adobe Illustrator 19.0.0, SVG Export Plug-In . SVG Version: 6.00 Build 0)  -->
<svg version="1.1" id="Capa_1" xmlns="http://www.w3.org/2000/svg" xmlns:xlink="http://www.w3.org/1999/xlink" x="0px" y="0px"
	 viewBox="0 0 512.001 512.001" style="enable-background:new 0 0 512.001 512.001;" xml:space="preserve">
<g>
	<path style="fill:#CD5C63;" d="M278.263,502h46.982c11.652,0,21.404-8.838,22.548-20.433l32.028-324.708h-85.527L278.263,502z"/>
	<path style="fill:#CD5C63;" d="M132.19,156.859l32.977,324.773C166.341,493.199,176.081,502,187.708,502h46.029l-16.03-345.142
		L132.19,156.859L132.19,156.859z"/>
</g>
<path style="fill:#EBBF72;" d="M105.165,138.637L105.165,138.637c0,10.063,8.158,18.221,18.221,18.221h8.803h85.517l-0.161-3.458
	h76.907l-0.161,3.458h85.527h8.793c10.063,0,18.221-8.158,18.221-18.221l0,0c0-10.063-8.158-18.221-18.221-18.221H123.387
	C113.323,120.416,105.165,128.574,105.165,138.637z"/>
<polygon style="fill:#F4DAAB;" points="294.453,153.4 217.547,153.4 217.707,156.859 233.738,502 278.263,502 294.293,156.859 "/>
<path style="fill:#C7E1F0;" d="M344.327,44.09l38.929-7.779V10l-40.034,4.54c-14.123,1.602-26.421,10.374-32.533,23.205
	l-37.733,79.212h34.406l32.452-69.328C340.67,45.799,342.346,44.486,344.327,44.09z"/>
<path d="M123.387,126.958h19.277c5.523,0,10-4.477,10-10s-4.477-10-10-10h-19.277c-15.561,0-28.221,12.66-28.221,28.222
	c0,15.365,12.345,27.893,27.636,28.206l32.417,319.256c1.699,16.737,15.667,29.359,32.49,29.359h46.029h44.525h46.982
	c16.871,0,30.843-12.661,32.5-29.452l31.481-319.163c15.279-0.328,27.61-12.85,27.61-28.206c0-15.561-12.66-28.221-28.221-28.221
	h-65.53l25.007-53.422l37.125-7.419c4.675-0.934,8.041-5.039,8.041-9.806V10c0-2.849-1.215-5.562-3.339-7.459
	c-2.124-1.896-4.955-2.798-7.788-2.478l-40.034,4.541c-17.671,2.004-32.786,12.786-40.434,28.841l-35.018,73.513h-43.024
	c-5.523,0-10,4.477-10,10s4.477,10,10,10h49.337h34.406h81.252c4.533,0,8.221,3.688,8.221,8.222s-3.688,8.221-8.221,8.221h-8.452
	h-85.708H217.55h-85.708h-8.452c-4.533,0-8.221-3.688-8.221-8.222S118.854,126.958,123.387,126.958z M301.001,106.958h-12.205
	l30.921-64.912c4.659-9.78,13.867-16.348,24.632-17.569l28.907-3.279v6.913l-30.89,6.172c-5.074,1.015-9.415,4.418-11.609,9.107
	L301.001,106.958z M284.012,163.401l-5.831,135.068c-0.238,5.518,4.042,10.184,9.56,10.422c5.514,0.231,10.184-4.042,10.422-9.56
	l5.868-135.93h65.096l-31.286,317.185c-0.642,6.508-6.057,11.415-12.596,11.415h-36.507l5.187-111.793
	c0.256-5.517-4.009-10.197-9.526-10.453c-5.517-0.251-10.197,4.009-10.453,9.526L268.716,492h-25.432l-15.262-328.6h55.99V163.401z
	 M208.001,163.401L223.262,492h-35.554c-6.52,0-11.934-4.892-12.592-11.379L142.906,163.4h65.095V163.401z"/>
<path d="M276.82,343.15c0.25,0.6,0.56,1.18,0.92,1.72c0.36,0.55,0.78,1.06,1.24,1.52s0.97,0.88,1.52,1.24
	c0.54,0.37,1.12,0.67,1.73,0.92c0.6,0.25,1.23,0.45,1.87,0.57c0.64,0.13,1.3,0.2,1.95,0.2c0.66,0,1.31-0.07,1.96-0.2
	c0.64-0.12,1.27-0.32,1.87-0.57s1.18-0.55,1.72-0.92c0.55-0.36,1.06-0.78,1.52-1.24c0.47-0.46,0.88-0.97,1.25-1.52
	c0.36-0.54,0.67-1.12,0.92-1.72c0.25-0.61,0.44-1.24,0.57-1.88s0.19-1.3,0.19-1.95s-0.06-1.31-0.19-1.95s-0.32-1.27-0.57-1.87
	c-0.25-0.61-0.56-1.19-0.92-1.73c-0.37-0.55-0.78-1.06-1.25-1.52c-0.46-0.46-0.97-0.88-1.52-1.24c-0.54-0.36-1.12-0.67-1.72-0.92
	s-1.23-0.44-1.87-0.57c-1.29-0.26-2.62-0.26-3.91,0c-0.64,0.13-1.27,0.32-1.87,0.57c-0.61,0.25-1.19,0.56-1.73,0.92
	c-0.55,0.36-1.06,0.78-1.52,1.24s-0.88,0.97-1.24,1.52c-0.36,0.54-0.67,1.12-0.92,1.73c-0.25,0.6-0.44,1.23-0.57,1.87
	c-0.13,0.64-0.2,1.3-0.2,1.95s0.07,1.31,0.2,1.95S276.57,342.54,276.82,343.15z"/>
<path d="M174.83,122.51c0.36,0.55,0.78,1.06,1.24,1.52s0.97,0.88,1.52,1.24c0.54,0.36,1.12,0.67,1.73,0.92
	c0.6,0.25,1.23,0.44,1.87,0.57s1.3,0.2,1.95,0.2s1.31-0.07,1.95-0.2s1.27-0.32,1.88-0.57c0.6-0.25,1.18-0.56,1.72-0.92
	c0.55-0.36,1.06-0.78,1.52-1.24s0.88-0.97,1.25-1.52c0.36-0.54,0.66-1.12,0.91-1.73c0.25-0.6,0.45-1.23,0.57-1.87
	c0.13-0.64,0.2-1.3,0.2-1.95s-0.07-1.31-0.2-1.96c-0.12-0.63-0.32-1.26-0.57-1.87c-0.25-0.6-0.55-1.18-0.91-1.72
	c-0.37-0.55-0.79-1.06-1.25-1.52s-0.97-0.88-1.52-1.25c-0.54-0.36-1.12-0.67-1.72-0.92c-0.61-0.25-1.24-0.44-1.88-0.57
	c-1.28-0.26-2.61-0.26-3.9,0c-0.64,0.13-1.27,0.32-1.87,0.57c-0.61,0.25-1.19,0.56-1.73,0.92c-0.55,0.37-1.06,0.79-1.52,1.25
	s-0.88,0.97-1.24,1.52c-0.36,0.54-0.67,1.12-0.92,1.72c-0.25,0.61-0.44,1.24-0.57,1.87c-0.13,0.65-0.2,1.31-0.2,1.96
	s0.07,1.31,0.2,1.95c0.13,0.64,0.32,1.27,0.57,1.87C174.16,121.39,174.47,121.97,174.83,122.51z"/>
<g>
</g>
<g>
</g>
<g>
</g>
<g>
</g>
<g>
</g>
<g>
</g>
<g>
</g>
<g>
</g>
<g>
</g>
<g>
</g>
<g>
</g>
<g>
</g>
<g>
</g>
<g>
</g>
<g>
</g>
</svg>
