<?xml version="1.0" encoding="iso-8859-1"?>
<!-- Generator: Adobe Illustrator 19.0.0, SVG Export Plug-In . SVG Version: 6.00 Build 0)  -->
<svg version="1.1" id="Capa_1" xmlns="http://www.w3.org/2000/svg" xmlns:xlink="http://www.w3.org/1999/xlink" x="0px" y="0px"
	 viewBox="0 0 512 512" style="enable-background:new 0 0 512 512;" xml:space="preserve">
<g>
	<path style="fill:#F4DAAB;" d="M23.242,174.423L23.242,174.423c18.945,5.005,33.666,19.919,38.425,38.927l0,0l0,0
		c4.758-19.008,19.48-33.922,38.424-38.927h0.001c0.185-0.049,0.185-0.312,0-0.361l0,0c-18.945-5.005-33.666-19.919-38.425-38.927
		l0,0l0,0c-4.758,19.008-19.48,33.922-38.424,38.927l0,0C23.057,174.111,23.057,174.374,23.242,174.423z"/>
	<path style="fill:#F4DAAB;" d="M257.393,49.288L257.393,49.288c18.945,5.005,33.666,19.919,38.425,38.927l0,0l0,0
		c4.758-19.008,19.48-33.922,38.424-38.927h0.001c0.185-0.049,0.185-0.312,0-0.361l0,0C315.298,43.923,300.576,29.008,295.818,10
		l0,0l0,0c-4.758,19.008-19.48,33.922-38.424,38.927l0,0C257.208,48.976,257.208,49.239,257.393,49.288z"/>
</g>
<path style="fill:#C7E1F0;" d="M376.336,489.559l-2.87,0.761c-58.846,15.601-120.742,15.601-179.588,0l-2.87-0.761
	c-8.013-2.124-13.707-9.223-14.041-17.507l-10.723-266.011H401.1l-10.723,266.011C390.043,480.337,384.349,487.435,376.336,489.559z
	"/>
<g>
	<path style="fill:#EBBF72;" d="M395.131,354.131l2.279-56.542l0,0c-74.534,16.775-151.855,16.855-226.424,0.234l-1.051-0.234
		l2.279,56.542l0,0C245.67,370.018,321.674,370.018,395.131,354.131L395.131,354.131z"/>
	<path style="fill:#EBBF72;" d="M268.007,160.822L30.975,45.962c-2.248-1.089-3.92-3.091-4.593-5.496L25.6,37.668
		c0.261-10.027,4.83-19.456,12.538-25.874l2.681-1.12c2.305-0.963,4.912-0.89,7.16,0.199l237.032,114.86
		c3.08,1.492,5.001,4.649,4.912,8.07l0,0c-0.261,10.027-4.83,19.456-12.537,25.874l0,0
		C274.754,161.867,271.086,162.315,268.007,160.822z"/>
</g>
<path style="fill:#F4DAAB;" d="M285.01,125.733l-49.231-23.856l-17.004,35.089l49.231,23.856c3.08,1.492,6.747,1.044,9.377-1.145
	c7.708-6.418,12.276-15.847,12.537-25.874C290.011,130.381,288.089,127.225,285.01,125.733z"/>
<path d="M299.92,134.063c0.048-1.832-0.176-3.632-0.64-5.35c-1.394-5.155-4.96-9.581-9.908-11.979c0,0,0,0-0.001,0l-49.231-23.855
	l0,0L52.338,1.874c-4.824-2.338-10.43-2.493-15.376-0.427l-2.681,1.12c-0.92,0.385-1.777,0.904-2.543,1.542
	c-9.919,8.259-15.801,20.396-16.137,33.299c-0.025,0.997,0.098,1.992,0.366,2.952l0.781,2.795c1.442,5.165,5.038,9.468,9.864,11.805
	l209.914,101.72l27.117,13.141c2.588,1.253,5.376,1.867,8.148,1.867c1.075,0,2.148-0.092,3.206-0.275
	c1.587-0.274,3.141-0.753,4.619-1.43c1.478-0.677,2.88-1.553,4.164-2.623c2.818-2.346,5.296-5.014,7.428-7.915
	C296.583,152.136,299.679,143.3,299.92,134.063z M35.671,36.549c0.505-6.172,3.299-11.937,7.83-16.158l0.638-0.266l178.28,86.391
	l-8.281,17.091L35.857,37.215L35.671,36.549z M232.137,132.327l8.281-17.09l39.473,19.127c-0.39,6.566-3.369,12.715-8.282,17.09
	L232.137,132.327z"/>
<path style="fill:#CD5C63;" d="M433.748,168.88l-66.285-28.648c-3.43-1.482-5.008-5.464-3.526-8.894l45.709-105.76
	c1.482-3.43,5.464-5.008,8.894-3.526l66.285,28.648c3.43,1.482,5.008,5.464,3.526,8.894l-45.709,105.761
	C441.161,168.784,437.179,170.363,433.748,168.88z"/>
<path style="fill:#EBBF72;" d="M485.103,50.818l-66.838-28.887c-3.277-1.416-7.175,0.308-8.707,3.851l-4.83,11.176l41.683,119.68
	l41.854-96.84C489.795,56.254,488.38,52.234,485.103,50.818z"/>
<path d="M498.365,52.773c-0.041-0.164-0.072-0.33-0.118-0.492c-0.014-0.051-0.034-0.1-0.049-0.15
	c-1.318-4.568-4.518-8.5-9.128-10.492h-0.001l-0.273-0.118c-0.001,0-0.001-0.001-0.002-0.001l-66.286-28.649
	c-0.002-0.001-0.004-0.002-0.007-0.002l-0.269-0.116c-4.113-1.777-8.86-1.741-13.022,0.099c-0.267,0.118-0.52,0.259-0.779,0.39
	c-0.146,0.072-0.293,0.142-0.436,0.218c-0.206,0.111-0.406,0.231-0.606,0.35c-3.067,1.789-5.489,4.481-6.923,7.8l-3.998,9.251
	l-0.921,2.13c0,0.001,0,0.002-0.001,0.002l-40.79,94.377c-3.667,8.486,0.253,18.374,8.739,22.042l66.284,28.647
	c2.136,0.923,4.391,1.385,6.648,1.385c2.089,0,4.182-0.396,6.182-1.189c4.163-1.65,7.434-4.823,9.211-8.934l45.71-105.76
	C499.061,60.022,499.255,56.246,498.365,52.773z M447.412,129.111l-31.959-91.761l2.09-4.836l60.345,26.081L447.412,129.111z
	 M374.4,132.336l29.324-67.85l31.959,91.762l-0.937,2.169L374.4,132.336z"/>
<ellipse style="fill:#66B6E0;" cx="284.221" cy="212.959" rx="160.567" ry="18.505"/>
<path d="M434.801,196.109c-8.572-2.335-20.649-4.411-35.895-6.168c-30.694-3.537-71.423-5.485-114.683-5.485
	s-83.987,1.948-114.683,5.485c-15.246,1.757-27.322,3.833-35.895,6.168c-5.981,1.63-19.989,5.447-19.989,16.852
	c0,11.404,14.008,15.222,19.989,16.852c6.147,1.675,14.105,3.215,23.732,4.6l9.595,238.043c0.514,12.744,9.143,23.502,21.47,26.77
	l2.871,0.761c30.21,8.008,61.284,12.013,92.358,12.013c31.072,0,62.148-4.004,92.358-12.013l2.869-0.761
	c12.328-3.267,20.956-14.026,21.471-26.77l4.753-117.91c0-0.004,0.001-0.009,0.001-0.013l2.279-56.542c0-0.004,0-0.008,0-0.012
	l2.556-63.407c10.13-1.427,18.46-3.021,24.843-4.76c5.981-1.63,19.989-5.447,19.989-16.852
	C454.79,201.555,440.783,197.739,434.801,196.109z M385.452,345.932c-4.505,0.904-9.033,1.75-13.532,2.529
	c-5.441,0.942-9.09,6.118-8.147,11.56c0.943,5.442,6.117,9.086,11.56,8.147c3.089-0.535,6.191-1.107,9.291-1.7l-4.24,105.18
	c-0.158,3.924-2.814,7.236-6.609,8.242c-0.001,0-0.002,0-0.002,0l-2.869,0.761c-57.067,15.13-117.395,15.129-174.462,0l-2.871-0.761
	c-3.796-1.006-6.452-4.318-6.61-8.242l-4.24-105.182c33.246,6.357,67.134,9.579,100.973,9.579c1.029,0,2.066-0.003,3.096-0.009
	c5.523-0.032,9.975-4.535,9.942-10.058c-0.032-5.503-4.503-9.942-9.999-9.942c-0.02,0-0.039,0-0.059,0
	c-35.115,0.211-70.332-3.193-104.78-10.104l-1.447-35.897c67.791,13.479,138.658,13.477,206.454,0.001L385.452,345.932z
	 M179.614,289.452l-2.121-52.614c29.611,2.993,67.106,4.629,106.73,4.629c39.13,0,76.186-1.594,105.621-4.516l-2.116,52.501
	C319.489,303.706,247.851,303.71,179.614,289.452z M388.028,217.03c-28.783,2.86-65.649,4.435-103.804,4.435
	s-75.021-1.575-103.804-4.435c-13.447-1.336-23.282-2.754-30.446-4.069c7.164-1.315,17-2.733,30.446-4.069
	c28.783-2.86,65.649-4.435,103.804-4.435s75.021,1.575,103.804,4.435c13.447,1.336,23.282,2.754,30.446,4.069
	C411.311,214.276,401.475,215.695,388.028,217.03z"/>
<path d="M330.429,373.965c-2.63,0-5.21-1.07-7.07-2.93c-1.859-1.86-2.93-4.44-2.93-7.07c0-2.63,1.07-5.21,2.93-7.07
	c1.86-1.86,4.44-2.93,7.07-2.93c2.63,0,5.21,1.07,7.07,2.93c1.859,1.86,2.93,4.43,2.93,7.07c0,2.63-1.07,5.21-2.93,7.07
	C335.639,372.895,333.059,373.965,330.429,373.965z"/>
<path d="M61.666,223.35c-4.588,0-8.587-3.122-9.701-7.572c-3.872-15.472-15.857-27.613-31.276-31.686
	c-0.01-0.002-0.019-0.005-0.027-0.007c-4.45-1.189-7.558-5.236-7.558-9.842c0-4.606,3.107-8.653,7.558-9.842
	c15.447-4.081,27.432-16.223,31.304-31.693c1.114-4.45,5.113-7.572,9.701-7.572c4.588,0,8.587,3.122,9.701,7.572
	c3.872,15.472,15.857,27.613,31.277,31.687c4.462,1.174,7.584,5.225,7.584,9.849c0,4.624-3.122,8.674-7.594,9.851
	c-15.411,4.071-27.396,16.213-31.268,31.684C70.254,220.229,66.254,223.35,61.666,223.35z M46.187,174.242
	c6.013,4.229,11.251,9.468,15.48,15.477c4.228-6.009,9.467-11.248,15.48-15.478c-6.013-4.229-11.252-9.468-15.48-15.477
	C57.438,164.775,52.2,170.014,46.187,174.242z"/>
<path d="M295.817,98.215c-4.588,0-8.587-3.122-9.701-7.572c-3.872-15.472-15.857-27.613-31.276-31.686
	c-4.466-1.18-7.584-5.229-7.584-9.849c0-4.624,3.122-8.675,7.594-9.852c15.41-4.071,27.395-16.213,31.267-31.684
	c1.113-4.448,5.112-7.57,9.7-7.57c4.587,0,8.587,3.121,9.7,7.571c3.874,15.472,15.859,27.613,31.277,31.687
	c4.46,1.174,7.583,5.222,7.586,9.843c0.003,4.62-3.114,8.672-7.581,9.854c-15.425,4.075-27.409,16.217-31.281,31.687
	C304.404,95.094,300.405,98.215,295.817,98.215z M280.338,49.108c6.013,4.229,11.251,9.467,15.48,15.477
	c4.228-6.009,9.467-11.247,15.48-15.477c-6.013-4.229-11.251-9.468-15.48-15.478C291.59,39.64,286.35,44.879,280.338,49.108z"/>
<g>
</g>
<g>
</g>
<g>
</g>
<g>
</g>
<g>
</g>
<g>
</g>
<g>
</g>
<g>
</g>
<g>
</g>
<g>
</g>
<g>
</g>
<g>
</g>
<g>
</g>
<g>
</g>
<g>
</g>
</svg>
