<?xml version="1.0" encoding="iso-8859-1"?>
<!-- Generator: Adobe Illustrator 19.0.0, SVG Export Plug-In . SVG Version: 6.00 Build 0)  -->
<svg version="1.1" id="Capa_1" xmlns="http://www.w3.org/2000/svg" xmlns:xlink="http://www.w3.org/1999/xlink" x="0px" y="0px"
	 viewBox="0 0 512.001 512.001" style="enable-background:new 0 0 512.001 512.001;" xml:space="preserve">
<g>
	<path style="fill:#EBBF72;" d="M447.473,310.252c0.183,0.979,0.303,1.963,0.36,2.945
		C447.775,312.215,447.656,311.231,447.473,310.252z"/>
	<path style="fill:#EBBF72;" d="M17.326,452.991c-2.133,4.264-1.358,9.407,1.936,12.853l31.231,32.674
		c3.294,3.446,8.397,4.452,12.753,2.514l105.494-46.943L49.691,388.285L17.326,452.991z"/>
	<path style="fill:#EBBF72;" d="M198.805,90.174L54.678,378.314l32.795-65.565l177.905,98.338l-61.967,27.573l186.955-83.191
		l-0.911,0.405L130.48,226.77l37.529-75.03l266.721,132.968c-48.685-84.477-118.577-154.954-202.938-204.33l0,0
		C220.032,73.493,204.901,77.987,198.805,90.174z"/>
	<path style="fill:#EBBF72;" d="M434.853,284.915c1.71,2.97,3.397,5.957,5.057,8.96C438.252,290.87,436.563,287.886,434.853,284.915
		z"/>
	<path style="fill:#EBBF72;" d="M445.158,303.596L445.158,303.596c-1.669-3.171-3.373-6.32-5.099-9.454
		C441.788,297.275,443.489,300.425,445.158,303.596L445.158,303.596z"/>
</g>
<polygon style="fill:#CD5C63;" points="87.474,312.75 54.678,378.314 49.691,388.285 168.741,454.09 168.742,454.09 
	203.412,438.662 265.379,411.088 "/>
<path style="fill:#C7E1F0;" d="M130.48,226.77l258.976,129.107l0.911-0.405l43.515-19.363c1.945-0.866,3.713-1.96,5.287-3.237
	c0.614-0.498,1.196-1.024,1.75-1.574c0.015-0.014,0.03-0.028,0.045-0.042c0.567-0.566,1.101-1.158,1.602-1.773
	c3.715-4.56,5.61-10.393,5.267-16.285c-0.057-0.982-0.176-1.965-0.36-2.945c-0.183-0.98-0.431-1.955-0.744-2.921
	c-0.077-0.236-0.159-0.471-0.244-0.706c-0.168-0.468-0.353-0.933-0.553-1.395c-0.238-0.549-0.49-1.095-0.774-1.633l0,0
	c-1.669-3.171-3.37-6.322-5.099-9.454c-0.049-0.089-0.1-0.177-0.149-0.266c-1.66-3.003-3.347-5.989-5.057-8.96
	c-0.039-0.068-0.077-0.137-0.116-0.205l-0.006-0.003L168.01,151.74L130.48,226.77z"/>
<path d="M236.844,71.746c-7.983-4.673-17.649-5.843-26.516-3.208c-8.868,2.634-16.328,8.89-20.466,17.163l-30.792,61.561
	c-0.001,0.002-0.002,0.003-0.003,0.005l-18.554,37.093L50.411,364.492l-9.663,19.318v0.001L8.382,448.518
	c-4.01,8.017-2.542,17.757,3.651,24.236l31.231,32.674c4.098,4.287,9.714,6.572,15.418,6.572c2.917,0,5.857-0.598,8.629-1.831
	l105.494-46.943l0,0l12.005-5.342l253.136-112.641c8.451-3.761,15.037-10.93,18.069-19.67c0.568-1.639,1.004-3.311,1.309-5.002
	c0.203-1.127,0.348-2.262,0.436-3.399c0.087-1.138,0.116-2.278,0.088-3.417c-0.127-5.125-1.419-10.211-3.842-14.817
	c-1.285-2.441-2.622-4.92-3.985-7.414c-0.495-0.906-0.989-1.811-1.493-2.723c-0.94-1.699-1.897-3.406-2.867-5.118
	c-0.748-1.32-1.499-2.642-2.262-3.966c-0.049-0.085-0.113-0.159-0.165-0.242C393.669,193.542,322.711,122.005,236.844,71.746z
	 M59.18,491.897c-0.496,0.22-1.083,0.105-1.458-0.288l-31.231-32.674l0,0c-0.375-0.393-0.464-0.983-0.222-1.469l27.704-55.388
	l92.345,51.045L59.18,491.897z M201.397,428.613l-32.173,14.316L62.928,384.175l28.827-57.632l151.201,83.577L201.397,428.613z
	 M428.37,293.735c0.812,1.437,1.62,2.875,2.42,4.32c0.451,0.813,0.904,1.627,1.347,2.435c1.408,2.576,2.803,5.161,4.172,7.763
	c0.663,1.259,1.118,2.584,1.362,3.937c0.163,0.902,0.232,1.817,0.206,2.733c-0.038,1.374-0.29,2.752-0.756,4.097
	c-0.777,2.241-2.082,4.184-3.797,5.703c-1.029,0.911-2.207,1.67-3.507,2.249l-40.201,17.889l-60.147-28.865l-8.178-4.114
	c-4.933-2.482-10.945-0.494-13.428,4.439c-2.481,4.934-0.494,10.945,4.439,13.427l8.261,4.156c0.056,0.028,0.111,0.056,0.168,0.083
	l44.9,21.547l-99.768,44.395l-165.151-91.288l34.218-68.409l86.065,43.579c4.926,2.494,10.943,0.524,13.438-4.404
	c2.495-4.928,0.523-10.944-4.404-13.439l-86.153-43.623l21.342-42.667l7.268-14.53l255.079,127.164
	C427.837,292.785,428.101,293.259,428.37,293.735z M181.433,147.258l26.315-52.61c1.698-3.394,4.636-5.858,8.273-6.938
	c1.288-0.382,2.596-0.572,3.896-0.572c2.37,0,4.708,0.631,6.824,1.869c72.871,42.653,134.628,101.178,180.996,171.07
	L181.433,147.258z"/>
<path d="M261.917,301.676c0.25,0.6,0.56,1.18,0.92,1.73c0.37,0.54,0.78,1.06,1.25,1.52c0.46,0.46,0.97,0.88,1.51,1.24
	c0.55,0.36,1.13,0.67,1.73,0.92c0.6,0.25,1.229,0.44,1.87,0.57c0.649,0.13,1.3,0.19,1.96,0.19c0.649,0,1.3-0.06,1.949-0.19
	c0.641-0.13,1.271-0.32,1.87-0.57c0.601-0.25,1.181-0.56,1.73-0.92c0.54-0.36,1.06-0.78,1.52-1.24c0.46-0.46,0.88-0.98,1.24-1.52
	c0.36-0.55,0.67-1.13,0.92-1.73c0.25-0.6,0.44-1.23,0.57-1.87c0.13-0.65,0.2-1.3,0.2-1.95c0-0.66-0.07-1.31-0.2-1.96
	c-0.13-0.64-0.32-1.27-0.57-1.87c-0.25-0.6-0.56-1.18-0.92-1.73c-0.36-0.54-0.78-1.05-1.24-1.52c-0.46-0.46-0.979-0.87-1.52-1.24
	c-0.55-0.36-1.13-0.67-1.73-0.92s-1.229-0.44-1.87-0.57c-1.29-0.26-2.619-0.26-3.909,0c-0.641,0.13-1.271,0.32-1.87,0.57
	c-0.601,0.25-1.181,0.56-1.73,0.92c-0.54,0.37-1.05,0.78-1.51,1.24c-0.47,0.47-0.88,0.98-1.25,1.52c-0.36,0.55-0.67,1.13-0.92,1.73
	c-0.25,0.6-0.44,1.23-0.57,1.87c-0.13,0.65-0.189,1.3-0.189,1.96c0,0.65,0.06,1.3,0.189,1.95
	C261.476,300.446,261.667,301.076,261.917,301.676z"/>
<path d="M270.046,70.303c3.864,0,7.546-2.254,9.181-6.026l21.798-50.298c2.195-5.067-0.132-10.956-5.199-13.152
	c-5.067-2.196-10.956,0.132-13.152,5.199l-21.798,50.298c-2.195,5.067,0.132,10.956,5.199,13.152
	C267.37,70.037,268.719,70.303,270.046,70.303z"/>
<path d="M365.28,64.941c-7.825-1.713-15.851-0.278-22.595,4.042c-6.746,4.321-11.405,11.01-13.119,18.834
	c-3.539,16.153,6.723,32.175,22.876,35.714c2.154,0.472,4.304,0.699,6.424,0.699c13.778,0,26.223-9.576,29.291-23.575
	c1.715-7.825,0.279-15.85-4.042-22.595C379.795,71.315,373.105,66.656,365.28,64.941z M368.62,96.375
	c-1.179,5.381-6.521,8.795-11.896,7.621c-5.381-1.179-8.8-6.516-7.62-11.898c0.57-2.606,2.123-4.834,4.369-6.273
	c1.629-1.043,3.48-1.582,5.369-1.582c0.718,0,1.44,0.078,2.158,0.235c2.606,0.571,4.835,2.123,6.274,4.37
	C368.713,91.095,369.191,93.769,368.62,96.375z"/>
<path d="M482.285,216.327c-16.151-3.54-32.174,6.723-35.715,22.876c-1.715,7.825-0.279,15.85,4.042,22.595
	c4.32,6.746,11.01,11.405,18.834,13.119c2.155,0.472,4.325,0.706,6.479,0.706c5.668,0,11.229-1.616,16.116-4.747
	c6.746-4.321,11.405-11.01,13.119-18.836v0.001C508.701,235.888,498.439,219.866,482.285,216.327z M485.624,247.76L485.624,247.76
	c-0.57,2.607-2.123,4.835-4.369,6.275c-2.248,1.439-4.922,1.917-7.527,1.346c-2.606-0.571-4.835-2.123-6.274-4.37
	c-1.439-2.247-1.917-4.92-1.346-7.527c1.021-4.664,5.167-7.854,9.757-7.854c0.706,0,1.423,0.076,2.14,0.232
	c2.606,0.571,4.835,2.124,6.274,4.371C485.718,242.48,486.195,245.153,485.624,247.76z"/>
<path d="M469.148,136.697l-58.995,34.157c-4.779,2.768-6.411,8.885-3.644,13.665c1.854,3.202,5.212,4.991,8.664,4.991
	c1.7,0,3.424-0.434,5.001-1.347l58.995-34.157c4.779-2.768,6.411-8.885,3.644-13.665S473.927,133.93,469.148,136.697z"/>
<g>
</g>
<g>
</g>
<g>
</g>
<g>
</g>
<g>
</g>
<g>
</g>
<g>
</g>
<g>
</g>
<g>
</g>
<g>
</g>
<g>
</g>
<g>
</g>
<g>
</g>
<g>
</g>
<g>
</g>
</svg>
