<?xml version="1.0" encoding="iso-8859-1"?>
<!-- Generator: Adobe Illustrator 19.0.0, SVG Export Plug-In . SVG Version: 6.00 Build 0)  -->
<svg version="1.1" id="Capa_1" xmlns="http://www.w3.org/2000/svg" xmlns:xlink="http://www.w3.org/1999/xlink" x="0px" y="0px"
	 viewBox="0 0 511.999 511.999" style="enable-background:new 0 0 511.999 511.999;" xml:space="preserve">
<path style="fill:#EBBF72;" d="M317.006,132.06c-10.639,4.575-19.982,11.711-27.194,20.773l-11.281,14.175l-34.474,43.315h50.248
	h7.606h58.179l0.759-0.953c7.212-9.062,12.069-19.768,14.14-31.162l8.045-44.282l59.322-74.535l-24.682-19.644l-59.32,74.535
	L317.006,132.06z"/>
<path style="fill:#CD5C63;" d="M459.94,59.947l6.977-8.767c3.616-4.544,2.865-11.16-1.68-14.777L434.939,12.29
	c-4.544-3.616-11.16-2.865-14.777,1.68l-6.977,8.767c-3.616,4.544-2.865,11.16,1.68,14.777l30.298,24.113
	C449.708,65.243,456.324,64.491,459.94,59.947z"/>
<path style="fill:#C7E1F0;" d="M294.307,210.324h-50.248h-9.815H203.84h-30.697h-9.829h-14.68h-42.016H98.84
	c-10.086,0-17.817,8.961-16.339,18.938l36.314,245.164c1.206,8.14,7.327,14.682,15.37,16.425l0,0
	c68.106,14.763,138.584,14.763,206.689,0l0,0c8.042-1.743,14.164-8.286,15.37-16.425l36.314-245.164
	c1.478-9.977-6.253-18.938-16.339-18.938h-16.124h-58.179L294.307,210.324L294.307,210.324z"/>
<path style="fill:#F4DAAB;" d="M163.312,210.324h9.829h30.697h30.403h9.815l34.474-43.315c-7.916-6.803-18.203-10.923-29.458-10.923
	l0,0c-11.976,0-22.857,4.662-30.949,12.261c-7.319-5.846-16.591-9.349-26.686-9.349l0,0c-16.835,0-31.394,9.723-38.384,23.857
	c-4.908-4.072-11.212-6.522-18.089-6.522l0,0c-15.657,0-28.348,12.692-28.348,28.348v5.643h42.016L163.312,210.324L163.312,210.324z
	"/>
<path d="M313.057,122.876c-12.114,5.208-22.856,13.415-31.067,23.732l-5.436,6.831c-8.1-4.667-17.479-7.353-27.48-7.353
	c-11.689,0-22.533,3.66-31.47,9.88c-7.72-4.424-16.648-6.968-26.165-6.968c-16.88,0-31.925,7.972-41.598,20.339
	c-4.576-1.934-9.602-3.004-14.875-3.004c-19.699,0-35.97,14.934-38.103,34.074c-6.979,0.521-13.491,3.77-18.099,9.112
	c-4.192,4.858-6.441,11.022-6.433,17.349H45.289c-4.7,0-8.766,3.273-9.768,7.865c-0.347,1.587-8.339,39.361,4.84,82.225
	c7.679,24.976,23.671,54.597,56.59,78.102l11.973,80.83c1.804,12.184,11.104,22.122,23.141,24.732
	c34.99,7.585,70.226,11.377,105.462,11.377s70.474-3.792,105.463-11.377c12.037-2.609,21.337-12.548,23.141-24.731l11.973-80.831
	c32.919-23.504,48.91-53.127,56.59-78.102c13.179-42.864,5.187-80.637,4.84-82.225c-1.003-4.591-5.068-7.865-9.768-7.865h-27.042
	c0.008-6.327-2.241-12.491-6.433-17.349c-4.61-5.344-11.126-8.595-18.109-9.113c3.108-6.464,5.359-13.337,6.644-20.411l7.596-41.809
	l52.176-65.56c2.295,0.847,4.695,1.277,7.091,1.277c6.04,0,12.027-2.649,16.072-7.731l6.978-8.768
	c7.044-8.851,5.574-21.782-3.276-28.826l0,0L441.165,4.466c-4.288-3.412-9.647-4.951-15.092-4.331
	c-5.445,0.619-10.322,3.321-13.734,7.608l-6.978,8.767c-5.649,7.099-5.809,16.816-1.091,24.021l-52.177,65.559L313.057,122.876z
	 M249.073,166.083c5.288,0,10.306,1.176,14.813,3.272l-20.141,25.307c-1.259-9.27-4.927-17.78-10.359-24.879
	C238.114,167.421,243.439,166.083,249.073,166.083z M165.586,181.629c6.01-7.684,15.363-12.633,25.851-12.633
	c4.029,0,7.889,0.738,11.458,2.073c6.47,2.42,11.974,6.824,15.774,12.472c3.257,4.841,5.266,10.589,5.542,16.784h-10.359h-19.985
	h-20.81h-14.393C158.977,193.295,161.515,186.835,165.586,181.629z M134.965,186.331c2,0,3.92,0.334,5.723,0.928
	c-1.197,4.169-1.891,8.547-2.016,13.067h-21.535C119.097,192.302,126.347,186.331,134.965,186.331z M59.705,311.821
	c-8.517-27.164-7.258-52.581-5.83-64.955h21.125l17.606,118.865C77.328,350.909,66.321,332.925,59.705,311.821z M346.351,472.962
	c-0.592,3.999-3.645,7.262-7.597,8.119c-67.169,14.561-135.285,14.561-202.453,0c-3.951-0.856-7.004-4.119-7.597-8.119
	l-9.544-64.439c15.695,8.045,34.237,14.824,56.156,19.687c20.35,4.515,41.281,6.772,62.212,6.772s41.862-2.258,62.212-6.772
	c21.92-4.863,40.462-11.642,56.155-19.687L346.351,472.962z M400.056,246.865h21.124c1.43,12.383,2.687,37.796-5.829,64.955
	c-6.616,21.105-17.623,39.088-32.902,53.91L400.056,246.865z M381.152,222.582c0.729,0.844,1.894,2.645,1.513,5.214L359.59,383.578
	c-17.741,11.158-39.146,19.555-64.182,25.109c-37.866,8.402-77.896,8.402-115.762,0c-25.036-5.555-46.441-13.952-64.182-25.11
	L99.952,278.849h99.836h23.755h69.233h2.613c5.522,0,9.998-4.476,9.998-9.998c0-1.619-0.393-3.143-1.076-4.495
	c-1.647-3.261-5.019-5.503-8.923-5.503h-77.175h-23.861H96.99l-4.6-31.056c-0.381-2.57,0.785-4.369,1.513-5.214
	c0.729-0.844,2.339-2.261,4.936-2.261h7.778h42.016h14.68h40.527h19.483h10.919h14.638h45.427h45.05h25.557h11.303
	C378.814,220.322,380.424,221.738,381.152,222.582z M421.009,28.962l6.978-8.767c0.102-0.128,0.253-0.195,0.405-0.195
	c0.113,0,0.227,0.037,0.322,0.113l30.298,24.113c0.224,0.178,0.261,0.504,0.083,0.728l-6.978,8.768
	c-0.178,0.224-0.503,0.26-0.728,0.083l-2.797-2.226c-0.004-0.003-0.007-0.007-0.011-0.01l-24.683-19.644
	c-0.002-0.001-0.004-0.003-0.005-0.004l-2.803-2.231C420.868,29.512,420.831,29.185,421.009,28.962z M366.176,120.508l53.094-66.711
	l4.518,3.595l4.518,3.595l-53.093,66.711c-1.028,1.291-1.72,2.816-2.015,4.438l-8.045,44.283
	c-1.56,8.583-5.004,16.777-10.018,23.904h-50.855h-19.985h-19.5l14.113-17.733l12.297-15.451l3.275,2.785l16.401,13.946
	c1.881,1.6,4.182,2.382,6.472,2.382c2.832,0,5.645-1.196,7.622-3.521c3.577-4.207,3.066-10.517-1.141-14.094l-19.553-16.625
	c4.921-4.466,10.555-8.136,16.674-10.766l41.347-17.779C363.818,122.816,365.15,121.799,366.176,120.508z"/>
<path d="M348.117,260.541c-0.54-0.36-1.13-0.67-1.73-0.92c-0.6-0.25-1.23-0.45-1.87-0.57c-1.29-0.26-2.62-0.26-3.909,0
	c-0.64,0.12-1.27,0.32-1.87,0.57c-0.6,0.25-1.18,0.56-1.72,0.92c-0.55,0.36-1.06,0.78-1.53,1.24c-1.86,1.86-2.92,4.439-2.92,7.069
	s1.06,5.209,2.92,7.069c0.47,0.46,0.98,0.88,1.53,1.24c0.54,0.36,1.12,0.67,1.72,0.92s1.23,0.45,1.87,0.57
	c0.65,0.13,1.3,0.2,1.96,0.2c0.65,0,1.31-0.07,1.95-0.2c0.64-0.12,1.27-0.32,1.87-0.57s1.19-0.56,1.73-0.92
	c0.54-0.36,1.06-0.78,1.52-1.24c1.86-1.86,2.93-4.439,2.93-7.069s-1.07-5.209-2.93-7.069
	C349.177,261.321,348.657,260.901,348.117,260.541z"/>
<g>
</g>
<g>
</g>
<g>
</g>
<g>
</g>
<g>
</g>
<g>
</g>
<g>
</g>
<g>
</g>
<g>
</g>
<g>
</g>
<g>
</g>
<g>
</g>
<g>
</g>
<g>
</g>
<g>
</g>
</svg>
