<?xml version="1.0" encoding="iso-8859-1"?>
<!-- Generator: Adobe Illustrator 19.0.0, SVG Export Plug-In . SVG Version: 6.00 Build 0)  -->
<svg version="1.1" id="Capa_1" xmlns="http://www.w3.org/2000/svg" xmlns:xlink="http://www.w3.org/1999/xlink" x="0px" y="0px"
	 viewBox="0 0 512 512" style="enable-background:new 0 0 512 512;" xml:space="preserve">
<g>
	<path style="fill:#C7E1F0;" d="M264.805,215.481c-12.103,3.112-24.361-1.018-32.209-9.675c-4.551,5.471-14.954,16.947-30,27.49
		l-0.738,1.375c-7.897,14.716-12.029,31.157-12.029,47.858v196.436c0,2.82,1.596,5.44,4.223,6.934l0,0
		c37.97,21.588,84.503,21.588,122.474,0c2.627-1.494,4.224-4.115,4.224-6.934V282.528c0-16.701-4.133-33.142-12.029-47.858
		l-21.363-39.812C283.857,204.702,275.685,212.684,264.805,215.481z M290.963,341.57c0,30.46-15.971,55.152-35.673,55.152
		s-35.673-24.693-35.673-55.152s15.971-55.152,35.673-55.152S290.963,311.11,290.963,341.57z"/>
	<path style="fill:#C7E1F0;" d="M248.61,152.49c10.752-2.765,21.628,0.188,29.425,6.95V44.118h-45.489v118.104
		C236.682,157.622,242.17,154.146,248.61,152.49z"/>
</g>
<g>
	<path style="fill:#EBBF72;" d="M289.924,44.118v-30.31c0-2.102-1.704-3.807-3.807-3.807h-61.654c-2.102,0-3.807,1.704-3.807,3.807
		v30.31h11.889h45.489H289.924z"/>
	<path style="fill:#EBBF72;" d="M159.547,252.952c16.789-3.796,31.327-11.442,43.05-19.656c15.046-10.543,25.448-22.019,30-27.49
		c-3.431-3.785-6.024-8.431-7.384-13.722s-1.331-10.612-0.15-15.582c-11.788-4.622-48.967-16.964-86.731-6.065l0,0
		C131.195,199.758,139.152,230.708,159.547,252.952L159.547,252.952z"/>
	<path style="fill:#EBBF72;" d="M288.145,192.301c12.958,4.921,48.966,16.149,85.522,5.599l0,0
		c7.137-29.322-0.821-60.273-21.216-82.517l0,0c-37.112,8.391-63.238,35.594-72.216,46.155c3.722,3.894,6.531,8.762,7.968,14.349
		C289.64,181.475,289.527,187.095,288.145,192.301z"/>
</g>
<path style="fill:#CD5C63;" d="M225.212,192.083c1.361,5.292,3.953,9.938,7.384,13.722c7.848,8.657,20.106,12.787,32.209,9.675
	c10.879-2.797,19.052-10.779,22.553-20.622c0.299-0.839,0.556-1.694,0.786-2.558c1.382-5.206,1.495-10.825,0.058-16.413
	c-1.437-5.588-4.246-10.456-7.968-14.349c-0.702-0.735-1.436-1.435-2.201-2.098c-7.797-6.762-18.672-9.715-29.425-6.95
	c-6.44,1.656-11.928,5.132-16.064,9.732c-3.637,4.045-6.221,8.96-7.484,14.279C223.882,181.472,223.852,186.792,225.212,192.083z"/>
<ellipse style="fill:#EBBF72;" cx="255.289" cy="341.57" rx="35.673" ry="55.15"/>
<path d="M159.547,262.955c0.734,0,1.473-0.081,2.205-0.247c7.579-1.714,14.716-4.136,21.377-7.012
	c-2.178,8.76-3.301,17.783-3.301,26.833v196.435c0,6.386,3.557,12.375,9.282,15.629c20.413,11.606,43.293,17.408,66.181,17.407
	c22.882-0.001,45.771-5.804,66.179-17.406c5.726-3.254,9.283-9.243,9.283-15.63v-11.691c0-5.524-4.478-10.002-10.002-10.002
	c-5.523,0-10.002,4.478-10.002,10.002v10.401c-34.299,19.116-76.616,19.116-110.917,0V282.528c0-14.728,3.623-29.37,10.467-42.407
	c9.896-7.154,17.77-14.576,23.34-20.441c6.775,4.375,14.769,6.831,23.075,6.831c3.495,0,7.045-0.435,10.582-1.344
	c7.497-1.928,14.005-5.758,19.163-10.831l13.449,25.063c7.092,13.216,10.841,28.129,10.841,43.128v104.73
	c0,5.524,4.478,10.002,10.002,10.002c5.523,0,10.002-4.478,10.002-10.002v-104.73c0-18.288-4.571-36.473-13.218-52.587
	l-11.733-21.865c10.05,2.332,22.274,4.215,35.594,4.215c11.137,0,23.034-1.315,35.045-4.782c3.447-0.995,6.097-3.759,6.946-7.244
	c7.941-32.631-0.868-66.889-23.563-91.641c-2.425-2.644-6.08-3.787-9.578-2.996c-26.809,6.061-48.109,20.96-62.209,33.623V54.12
	h1.888c5.523,0,10.002-4.478,10.002-10.002v-30.31C299.926,6.194,293.731,0,286.117,0h-61.653c-7.615,0-13.809,6.194-13.809,13.809
	v30.31c0,5.524,4.478,10.002,10.002,10.002h1.887v104.59c-1.206,1.633-2.294,3.35-3.256,5.137
	c-17.784-5.656-50.31-12.665-83.73-3.02c-3.447,0.995-6.097,3.759-6.946,7.244c-7.941,32.631,0.868,66.889,23.563,91.641
	C154.092,261.802,156.777,262.955,159.547,262.955z M348.903,126.63c4.163,5.261,7.589,10.972,10.283,16.973
	c-13.578,0.873-33.073,5.402-47.021,22.407c-3.503,4.271-2.88,10.573,1.391,14.076c1.861,1.526,4.105,2.269,6.337,2.269
	c2.892,0,5.762-1.249,7.74-3.659c10.973-13.379,28.158-15.303,37.527-15.248c1.416,8.62,1.451,17.499-0.025,26.31
	c-26.111,5.807-51.589,0.231-65.939-4.251c0.145-3.986-0.263-8.056-1.306-12.111c-1.032-4.014-2.617-7.79-4.683-11.253
	C303.623,151.292,323.245,134.135,348.903,126.63z M276.093,195.442c-0.229,0.387-0.487,0.748-0.736,1.118
	c-3.08,4.58-7.653,7.849-13.043,9.235c-6.053,1.556-12.175,0.485-17.157-2.495c-4.915-2.939-8.723-7.735-10.259-13.707
	c-1.488-5.788-0.643-11.807,2.37-16.963c0.02-0.033,0.034-0.068,0.053-0.101c1.388-2.348,3.168-4.368,5.226-6.035
	c2.48-2.01,5.37-3.499,8.553-4.317c1.87-0.481,3.764-0.719,5.646-0.719c3.54,0,7.032,0.847,10.235,2.495
	c0.398,0.205,0.793,0.417,1.182,0.647c5.178,3.06,8.854,7.954,10.352,13.779C280.014,184.204,279.154,190.264,276.093,195.442z
	 M242.547,143.901V54.12h25.485v88.873c-7.087-1.97-14.597-2.07-21.913-0.189C244.9,143.117,243.713,143.49,242.547,143.901z
	 M230.659,30.299V20.004h49.264V30.3v3.817h-49.264V30.299z M192.319,191.119c-17.536-3.015-34.872,2.629-46.238,7.828
	c-0.595-6.731-0.356-13.572,0.783-20.371c26.983-5.999,53.287,0.153,67.336,4.693c-0.037,2.156,0.09,4.333,0.393,6.518
	c0.221,1.594,0.524,3.191,0.934,4.786c0.972,3.782,2.433,7.309,4.287,10.544c-5.516,5.862-13.988,13.89-24.846,21.243
	c-9.071,6.143-19.801,11.814-31.872,15.344c-5.457-6.897-9.667-14.558-12.581-22.65c8.411-4.321,23.934-10.714,38.416-8.221
	c5.448,0.939,10.616-2.718,11.552-8.163C201.417,197.227,197.763,192.055,192.319,191.119z"/>
<path d="M329.062,421.715c-0.36-0.55-0.78-1.06-1.24-1.52s-0.97-0.88-1.52-1.24c-0.54-0.36-1.12-0.67-1.731-0.92
	c-0.6-0.25-1.23-0.45-1.87-0.57c-1.29-0.26-2.621-0.26-3.9,0c-0.641,0.12-1.271,0.32-1.87,0.57c-0.61,0.25-1.191,0.56-1.731,0.92
	c-0.55,0.36-1.06,0.78-1.52,1.24c-0.46,0.461-0.88,0.97-1.24,1.52c-0.37,0.54-0.67,1.12-0.92,1.73c-0.25,0.6-0.45,1.231-0.57,1.87
	c-0.13,0.64-0.199,1.301-0.199,1.951c0,2.63,1.07,5.211,2.93,7.071c0.46,0.46,0.97,0.88,1.52,1.24c0.54,0.36,1.12,0.67,1.731,0.92
	c0.6,0.25,1.23,0.45,1.87,0.57c0.64,0.13,1.3,0.2,1.951,0.2c0.65,0,1.31-0.07,1.95-0.2c0.641-0.12,1.271-0.32,1.87-0.57
	c0.61-0.25,1.191-0.56,1.731-0.92c0.55-0.36,1.06-0.78,1.52-1.24c1.861-1.86,2.931-4.441,2.931-7.071c0-0.65-0.07-1.31-0.2-1.951
	c-0.12-0.64-0.32-1.27-0.57-1.87C329.732,422.835,329.422,422.255,329.062,421.715z"/>
<path d="M255.29,276.415c-25.612,0-45.674,28.619-45.674,65.154s20.062,65.154,45.674,65.154s45.675-28.619,45.675-65.154
	S280.902,276.415,255.29,276.415z M255.29,386.72c-12.142,0-25.671-18.542-25.671-45.15s13.529-45.151,25.671-45.151
	c13.675,0,25.672,21.098,25.672,45.151S268.965,386.72,255.29,386.72z"/>
<g>
</g>
<g>
</g>
<g>
</g>
<g>
</g>
<g>
</g>
<g>
</g>
<g>
</g>
<g>
</g>
<g>
</g>
<g>
</g>
<g>
</g>
<g>
</g>
<g>
</g>
<g>
</g>
<g>
</g>
</svg>
