<?xml version="1.0" encoding="iso-8859-1"?>
<!-- Generator: Adobe Illustrator 19.0.0, SVG Export Plug-In . SVG Version: 6.00 Build 0)  -->
<svg version="1.1" id="Capa_1" xmlns="http://www.w3.org/2000/svg" xmlns:xlink="http://www.w3.org/1999/xlink" x="0px" y="0px"
	 viewBox="0 0 511.999 511.999" style="enable-background:new 0 0 511.999 511.999;" xml:space="preserve">
<g>
	<path style="fill:#EBBF72;" d="M195.87,314.874c-21.182-1.643-39.161-16.567-57.153-20.739
		c-15.775-3.659-32.681-2.309-46.575-5.228l15.164,164.924c1.394,15.157,12.342,27.715,27.167,31.162l26.075,6.063
		c18.623,4.33,37.468,7.366,56.403,9.127L202.64,314.878C200.363,315.031,198.106,315.047,195.87,314.874z"/>
	<path style="fill:#EBBF72;" d="M316.129,314.874c-2.235,0.173-4.493,0.157-6.769,0.004l-14.312,185.305
		c18.934-1.762,37.779-4.797,56.403-9.127l26.075-6.063c14.825-3.447,25.773-16.005,27.167-31.162l15.164-164.924
		c-13.893,2.919-30.8,1.57-46.577,5.229C355.289,298.307,337.311,313.231,316.129,314.874z"/>
</g>
<path style="fill:#CD5C63;" d="M256,304.588c-18.249,0-36.341,9.14-53.36,10.289l14.312,185.305v0.006
	c0.188,0.017,0.375,0.029,0.563,0.046c3.035,0.279,6.073,0.53,9.112,0.742c0.095,0.007,0.191,0.012,0.286,0.018
	c2.943,0.204,5.888,0.372,8.833,0.514c0.369,0.018,0.737,0.038,1.106,0.055c2.919,0.133,5.839,0.233,8.76,0.305
	c0.49,0.012,0.979,0.021,1.469,0.031c5.946,0.126,11.894,0.126,17.839,0c0.49-0.01,0.979-0.019,1.469-0.031
	c2.921-0.072,5.841-0.172,8.76-0.305c0.369-0.017,0.737-0.037,1.106-0.055c2.946-0.142,5.89-0.31,8.833-0.514
	c0.095-0.007,0.191-0.012,0.286-0.018c3.039-0.213,6.076-0.464,9.112-0.742c0.187-0.017,0.375-0.028,0.563-0.046v-0.006
	l14.312-185.305C292.341,313.728,274.248,304.588,256,304.588z"/>
<path style="fill:#CE8570;" d="M78.658,283.763c3.989,2.533,8.548,4.104,13.485,5.141c13.893,2.919,30.799,1.57,46.575,5.228
	c17.991,4.172,35.969,19.096,57.153,20.739c2.236,0.173,4.493,0.157,6.77,0.004c17.018-1.149,35.111-10.289,53.36-10.289
	s36.341,9.14,53.36,10.289c2.276,0.154,4.534,0.17,6.769-0.004c21.182-1.643,39.16-16.567,57.152-20.739
	c15.776-3.659,32.682-2.309,46.577-5.229c4.936-1.037,9.496-2.608,13.484-5.141c9.685-6.15,15.168-15.577,19.263-26.019
	c6.108-15.575,8.455-32.371,7.465-49.072l-0.399-6.722C453.277,94.149,363.99,10,256,10l0,0C148.009,10,58.722,94.149,52.33,201.95
	l-0.399,6.723c-0.99,16.7,1.357,33.496,7.464,49.072C63.491,268.187,68.973,277.613,78.658,283.763z"/>
<path d="M311.411,410.745c-0.25-0.6-0.551-1.18-0.91-1.72c-0.37-0.55-0.79-1.06-1.25-1.52c-0.46-0.46-0.97-0.88-1.521-1.25
	c-0.54-0.36-1.12-0.67-1.729-0.92c-0.601-0.25-1.23-0.44-1.87-0.57c-1.29-0.26-2.62-0.26-3.9,0c-0.64,0.13-1.27,0.32-1.87,0.57
	c-0.609,0.25-1.189,0.56-1.729,0.92c-0.55,0.37-1.061,0.79-1.521,1.25c-0.46,0.46-0.88,0.97-1.239,1.52
	c-0.36,0.54-0.67,1.12-0.92,1.72c-0.25,0.61-0.45,1.24-0.57,1.87c-0.13,0.65-0.2,1.31-0.2,1.96c0,0.65,0.07,1.31,0.2,1.95
	c0.12,0.64,0.32,1.27,0.57,1.87c0.25,0.61,0.56,1.19,0.92,1.73c0.359,0.55,0.779,1.06,1.239,1.52c0.46,0.46,0.971,0.88,1.521,1.24
	c0.54,0.36,1.12,0.67,1.729,0.92c0.601,0.25,1.23,0.44,1.87,0.57c0.641,0.13,1.301,0.2,1.95,0.2c0.65,0,1.311-0.07,1.95-0.2
	c0.64-0.13,1.27-0.32,1.87-0.57c0.609-0.25,1.189-0.56,1.729-0.92c0.551-0.36,1.061-0.78,1.521-1.24c0.46-0.46,0.88-0.97,1.25-1.52
	c0.359-0.54,0.66-1.12,0.91-1.73c0.25-0.6,0.449-1.23,0.569-1.87c0.13-0.64,0.2-1.3,0.2-1.95c0-0.65-0.07-1.31-0.2-1.96
	C311.86,411.985,311.661,411.355,311.411,410.745z"/>
<path d="M73.297,292.205c3.002,1.907,6.198,3.362,9.521,4.499l14.53,158.041c1.793,19.485,15.802,35.554,34.86,39.986l26.075,6.063
	c18.674,4.342,37.662,7.406,56.779,9.211c0.316,0.061,0.636,0.109,0.961,0.139c13.263,1.235,26.618,1.854,39.975,1.854
	c13.357,0,26.712-0.618,39.975-1.854c0.326-0.03,0.646-0.079,0.961-0.139c19.116-1.805,38.104-4.869,56.779-9.211l26.075-6.063
	c19.059-4.432,33.067-20.501,34.86-39.987l14.531-158.041c3.323-1.137,6.518-2.592,9.519-4.498
	c13.284-8.435,19.609-21.624,23.212-30.81c6.513-16.605,9.251-34.543,8.138-53.315l-0.398-6.723C462.957,88.447,369.109,0,256,0
	S49.043,88.447,42.346,201.358l-0.398,6.723c-1.113,18.77,1.625,36.707,8.137,53.314C53.689,270.582,60.015,283.771,73.297,292.205z
	 M162.814,481.315l-26.075-6.063c-10.646-2.476-18.472-11.453-19.474-22.337l-14.013-152.423c3.103,0.263,6.218,0.454,9.31,0.641
	c8.019,0.483,16.311,0.983,23.896,2.742c6.477,1.502,13.45,4.873,20.832,8.44c10.63,5.138,22.625,10.92,36.076,12.356l12.686,164.25
	C191.509,487.157,177.066,484.629,162.814,481.315z M394.735,452.913c-1.002,10.885-8.827,19.862-19.474,22.338l-26.075,6.063
	c-14.236,3.31-28.664,5.837-43.193,7.601l3.046-31.821c0.526-5.498-3.504-10.381-9.001-10.908
	c-5.485-0.522-10.382,3.504-10.907,9.001l-3.293,34.399c-0.006,0.061-0.012,0.122-0.017,0.183l-0.085,1.108
	c-19.787,1.419-39.685,1.419-59.473,0l-12.927-167.384c5.339-1.038,10.616-2.478,15.81-3.901c9.396-2.573,18.271-5.004,26.854-5.004
	s17.458,2.431,26.854,5.004c5.208,1.427,10.5,2.872,15.855,3.911l-1.19,19.027l-2.215,29.732c-0.41,5.507,3.723,10.305,9.229,10.715
	c5.495,0.414,10.305-3.722,10.716-9.229l2.219-29.79c0.003-0.04,0.005-0.079,0.008-0.119l1.199-19.172
	c13.433-1.443,25.413-7.219,36.031-12.351c7.383-3.568,14.355-6.938,20.832-8.44c7.587-1.76,15.879-2.26,23.897-2.743
	c3.093-0.187,6.208-0.378,9.312-0.641L394.735,452.913z M61.914,209.265l0.398-6.723C68.383,100.182,153.46,20,256,20
	s187.617,80.182,193.688,182.542l0.398,6.723c0.94,15.857-1.345,30.939-6.792,44.83c-3.386,8.635-7.151,14.58-11.913,18.698
	c-1.08,0.934-2.211,1.775-3.401,2.53c-4.473,2.841-10.546,4.145-17.367,4.9c-3.932,0.435-8.11,0.689-12.378,0.946
	c-8.844,0.533-17.988,1.084-27.212,3.224c-8.652,2.006-16.972,6.027-25.018,9.916c-8.403,4.062-17.048,8.23-25.791,9.919
	c-1.616,0.312-3.235,0.55-4.857,0.676c-4.699,0.364-9.786-0.336-15.138-1.509c-3.9-0.854-7.94-1.958-12.079-3.092
	c-10.259-2.81-20.865-5.715-32.138-5.715c-11.273,0-21.88,2.905-32.138,5.715c-4.139,1.134-8.179,2.238-12.079,3.092
	c-5.354,1.173-10.44,1.873-15.139,1.509c-1.622-0.126-3.24-0.363-4.856-0.675c-8.744-1.689-17.39-5.858-25.794-9.92
	c-8.045-3.888-16.365-7.909-25.017-9.916c-9.224-2.139-18.368-2.69-27.212-3.223c-4.267-0.257-8.445-0.511-12.376-0.946
	c-6.821-0.755-12.895-2.059-17.369-4.9c-1.189-0.755-2.319-1.596-3.399-2.529c-4.762-4.117-8.527-10.063-11.914-18.699
	C63.259,240.205,60.973,225.122,61.914,209.265z"/>
<path d="M388.391,217.033c0.25,0.6,0.561,1.18,0.92,1.72c0.37,0.55,0.78,1.06,1.25,1.52c0.46,0.46,0.971,0.88,1.521,1.25
	c0.54,0.36,1.12,0.67,1.72,0.92s1.23,0.44,1.87,0.57c0.649,0.13,1.31,0.19,1.96,0.19c2.63,0,5.21-1.07,7.07-2.93
	c0.46-0.46,0.88-0.97,1.239-1.52c0.36-0.54,0.67-1.12,0.92-1.72c0.25-0.61,0.44-1.24,0.57-1.87c0.13-0.65,0.2-1.31,0.2-1.96
	s-0.07-1.31-0.2-1.95c-0.13-0.64-0.32-1.27-0.57-1.87c-0.25-0.61-0.56-1.19-0.92-1.73c-0.359-0.55-0.779-1.06-1.239-1.52
	c-2.32-2.32-5.771-3.39-9.03-2.73c-0.64,0.12-1.271,0.32-1.87,0.57s-1.18,0.56-1.72,0.92c-0.55,0.36-1.061,0.78-1.521,1.24
	c-0.47,0.46-0.88,0.97-1.25,1.52c-0.359,0.54-0.67,1.12-0.92,1.73c-0.25,0.6-0.439,1.23-0.57,1.87c-0.13,0.64-0.189,1.3-0.189,1.95
	c0,0.65,0.06,1.31,0.189,1.96C387.952,215.793,388.141,216.423,388.391,217.033z"/>
<path d="M195.068,99.151c0.25,0.61,0.561,1.19,0.921,1.73c0.359,0.55,0.779,1.06,1.239,1.52c0.46,0.46,0.98,0.88,1.521,1.24
	c0.55,0.36,1.13,0.67,1.729,0.92c0.601,0.25,1.23,0.45,1.87,0.57c0.65,0.13,1.3,0.2,1.95,0.2c0.66,0,1.31-0.07,1.96-0.2
	c0.64-0.12,1.271-0.32,1.87-0.57c0.599-0.25,1.18-0.56,1.729-0.92c0.54-0.36,1.051-0.78,1.521-1.24c0.46-0.46,0.87-0.97,1.24-1.52
	c0.359-0.54,0.67-1.12,0.92-1.73c0.25-0.6,0.439-1.23,0.569-1.87c0.131-0.64,0.19-1.3,0.19-1.95c0-0.65-0.06-1.31-0.19-1.95
	c-0.13-0.64-0.319-1.27-0.569-1.87c-0.25-0.61-0.561-1.19-0.92-1.73c-0.37-0.55-0.78-1.06-1.24-1.52
	c-0.47-0.46-0.98-0.88-1.521-1.24c-0.55-0.36-1.13-0.67-1.729-0.92c-0.599-0.25-1.23-0.45-1.87-0.57c-1.29-0.26-2.62-0.26-3.91,0
	c-0.64,0.12-1.27,0.32-1.87,0.57c-0.6,0.25-1.18,0.56-1.729,0.92c-0.54,0.36-1.061,0.78-1.521,1.24c-0.46,0.46-0.88,0.97-1.239,1.52
	c-0.36,0.54-0.671,1.12-0.921,1.73c-0.25,0.6-0.439,1.23-0.569,1.87s-0.19,1.3-0.19,1.95c0,0.65,0.061,1.31,0.19,1.95
	S194.818,98.551,195.068,99.151z"/>
<path d="M257.8,234.973c0.54,0.36,1.12,0.67,1.72,0.92c0.61,0.25,1.24,0.44,1.88,0.57c0.641,0.13,1.301,0.2,1.95,0.2
	c0.65,0,1.311-0.07,1.95-0.2c0.639-0.13,1.27-0.32,1.87-0.57c0.6-0.25,1.189-0.56,1.729-0.92c0.551-0.36,1.061-0.78,1.521-1.24
	c1.86-1.86,2.93-4.44,2.93-7.07c0-0.66-0.069-1.31-0.2-1.96c-0.13-0.64-0.319-1.26-0.569-1.87c-0.25-0.6-0.561-1.18-0.92-1.72
	c-0.36-0.55-0.78-1.06-1.24-1.52c-0.46-0.47-0.97-0.88-1.521-1.25c-0.54-0.36-1.13-0.67-1.729-0.92c-0.601-0.25-1.23-0.44-1.87-0.57
	c-1.29-0.26-2.62-0.26-3.9,0c-0.64,0.13-1.27,0.32-1.88,0.57c-0.6,0.25-1.18,0.56-1.72,0.92c-0.55,0.37-1.06,0.78-1.52,1.25
	c-0.461,0.46-0.881,0.97-1.25,1.52c-0.36,0.54-0.671,1.12-0.921,1.72c-0.25,0.61-0.439,1.23-0.569,1.87
	c-0.13,0.65-0.19,1.3-0.19,1.96c0,2.63,1.07,5.21,2.931,7.07C256.74,234.193,257.25,234.613,257.8,234.973z"/>
<path d="M321.462,154.878c2.343,0,4.695-0.818,6.594-2.486l27.39-24.05c4.15-3.644,4.561-9.962,0.917-14.112
	c-3.646-4.151-9.964-4.561-14.112-0.916l-27.39,24.05c-4.15,3.644-4.561,9.962-0.917,14.112
	C315.921,153.728,318.684,154.878,321.462,154.878z"/>
<path d="M128.404,231.221c2.343,0,4.695-0.818,6.594-2.486l27.39-24.05c4.15-3.644,4.561-9.962,0.917-14.112
	c-3.646-4.151-9.964-4.561-14.112-0.916l-27.39,24.05c-4.15,3.644-4.561,9.962-0.917,14.112
	C122.863,230.071,125.627,231.221,128.404,231.221z"/>
<g>
</g>
<g>
</g>
<g>
</g>
<g>
</g>
<g>
</g>
<g>
</g>
<g>
</g>
<g>
</g>
<g>
</g>
<g>
</g>
<g>
</g>
<g>
</g>
<g>
</g>
<g>
</g>
<g>
</g>
</svg>
