<?xml version="1.0" encoding="iso-8859-1"?>
<!-- Generator: Adobe Illustrator 19.0.0, SVG Export Plug-In . SVG Version: 6.00 Build 0)  -->
<svg version="1.1" id="Capa_1" xmlns="http://www.w3.org/2000/svg" xmlns:xlink="http://www.w3.org/1999/xlink" x="0px" y="0px"
	 viewBox="0 0 512.001 512.001" style="enable-background:new 0 0 512.001 512.001;" xml:space="preserve">
<path style="fill:#EBBF72;" d="M259.976,132.734h-10.177c-11.453,0-20.738,9.285-20.738,20.738v48.069h51.652v-48.069
	C280.714,142.018,271.429,132.734,259.976,132.734z"/>
<path d="M254.888,142.734c-5.523,0-10-4.477-10-10V59.549c0-5.523,4.477-10,10-10c5.522,0,10,4.477,10,10v73.185
	C264.888,138.257,260.41,142.734,254.888,142.734z"/>
<path d="M254.89,27.625c-2.64,0-5.21-1.07-7.07-2.93s-2.93-4.44-2.93-7.07s1.07-5.21,2.93-7.07c1.86-1.86,4.43-2.93,7.07-2.93
	c2.63,0,5.21,1.07,7.07,2.93c1.859,1.86,2.93,4.44,2.93,7.07s-1.07,5.21-2.93,7.07S257.52,27.625,254.89,27.625z"/>
<circle style="fill:#C7E1F0;" cx="254.89" cy="333.17" r="153.25"/>
<path d="M290.714,173.895v-20.423c0-16.949-13.789-30.738-30.738-30.738H249.8c-16.949,0-30.738,13.789-30.738,30.738v20.423
	c-21.826,4.907-42.01,14.201-59.58,26.897c-0.68,0.383-1.31,0.85-1.886,1.382c-39.996,29.779-65.953,77.409-65.953,130.995
	c0,53.591,25.961,101.231,65.964,131.012c0.556,0.512,1.168,0.956,1.822,1.329c26.864,19.432,59.845,30.904,95.459,30.904
	c90.014,0,163.245-73.231,163.245-163.245C418.133,255.461,363.551,190.268,290.714,173.895z M394.297,365.137l-25.692,5.068
	c1.886-24.394,1.904-48.9,0.058-73.297l25.557,5.248c0.18,0.037,0.359,0.056,0.539,0.083c2.202,9.965,3.373,20.313,3.373,30.931
	c0,10.973-1.244,21.66-3.592,31.932C394.459,365.115,394.378,365.121,394.297,365.137z M334.354,452.291
	c-12.375,8.282-26.104,14.69-40.781,18.811c4.952-23.592,8.662-47.544,11.082-71.564c13.78-1.17,27.544-2.833,41.281-4.975
	C343.323,413.979,339.457,433.263,334.354,452.291z M297.495,361.01c-5.532-0.327-10.246,3.882-10.57,9.395
	c-0.204,3.456-0.443,6.912-0.702,10.369c-21.486,1.188-42.997,1.156-64.481-0.1c-2.322-31.489-2.402-63.166-0.232-94.669
	c21.639-1.327,43.304-1.359,64.944-0.104c0.276,3.935,0.524,7.87,0.728,11.805c0.276,5.339,4.692,9.483,9.978,9.483
	c0.175,0,0.351-0.005,0.526-0.014c5.516-0.286,9.755-4.989,9.469-10.504c-0.159-3.075-0.348-6.151-0.549-9.227
	c13.915,1.324,27.813,3.183,41.679,5.576c2.356,26.919,2.336,54-0.057,80.916c-13.921,2.305-27.872,4.093-41.842,5.364
	c0.181-2.573,0.352-5.147,0.503-7.719C307.215,366.067,303.009,361.335,297.495,361.01z M173.109,450.706
	c-4.92-18.612-8.665-37.462-11.206-56.441c13.75,2.191,27.528,3.889,41.322,5.105c2.396,23.885,6.044,47.651,10.954,71.141
	C199.347,466.108,185.514,459.364,173.109,450.706z M115.235,365.101c-2.348-10.272-3.592-20.959-3.592-31.932
	c0-10.618,1.171-20.965,3.373-30.93c0.179-0.027,0.358-0.046,0.538-0.083l23.633-4.853c-1.807,24.14-1.787,48.385,0.059,72.523
	l-23.768-4.689C115.397,365.121,115.316,365.115,115.235,365.101z M173.109,215.632c12.233-8.538,25.854-15.215,40.452-19.622
	c-4.814,23.573-8.371,47.412-10.658,71.366c-13.712,1.265-27.409,3.025-41.078,5.293
	C164.367,253.49,168.137,234.439,173.109,215.632z M254.888,189.924c6.079,0,12.069,0.384,17.951,1.122
	c5.384,24.609,9.358,49.618,11.893,74.721c-20.506-1.085-41.031-1.046-61.536,0.106c2.498-25.079,6.438-49.993,11.798-74.561
	C241.498,190.405,248.137,189.924,254.888,189.924z M334.354,214.047c5.154,19.22,9.049,38.699,11.663,58.313
	c-13.657-2.218-27.34-3.944-41.039-5.162c-2.308-24.085-5.912-48.098-10.77-71.786C308.646,199.54,322.157,205.884,334.354,214.047z
	 M159.623,373.617c-2.354-26.7-2.375-53.561-0.058-80.264c13.877-2.445,27.785-4.354,41.711-5.728
	c-0.921,14.09-1.418,28.203-1.456,42.311c-0.043,16.401,0.524,32.814,1.674,49.19C187.514,377.808,173.553,375.972,159.623,373.617z
	 M388.092,280.48l-18.376-3.773c-1.025-0.211-2.052-0.407-3.077-0.612c-1.603-13.398-3.775-26.741-6.511-39.994
	C371.988,248.95,381.536,263.963,388.092,280.48z M239.062,153.472c0-5.921,4.817-10.738,10.738-10.738h10.176
	c5.921,0,10.738,4.817,10.738,10.738v17.222c-5.209-0.504-10.487-0.77-15.826-0.77s-10.617,0.266-15.826,0.77L239.062,153.472
	L239.062,153.472z M147.191,238.83c-2.501,12.483-4.499,25.044-5.997,37.652c-0.378,0.077-0.756,0.148-1.134,0.225l-18.376,3.773
	C127.781,265.12,136.465,251.059,147.191,238.83z M122.079,386.825l18.056,3.562c0.384,0.076,0.768,0.145,1.152,0.22
	c1.488,12.356,3.452,24.666,5.904,36.902C136.692,415.537,128.155,401.808,122.079,386.825z M235.634,475.116
	c-5.464-24.476-9.491-49.309-12.103-74.311c10.449,0.558,20.902,0.848,31.357,0.848c9.84,0,19.68-0.252,29.515-0.746
	c-2.646,24.982-6.718,49.874-12.182,74.324l-0.03,0.136c-5.674,0.686-11.447,1.048-17.303,1.048
	C248.359,476.414,241.934,475.966,235.634,475.116z M360.127,430.238c2.686-13.011,4.825-26.109,6.419-39.26
	c1.031-0.198,2.063-0.388,3.093-0.591l18.057-3.562C381.154,402.96,371.755,417.64,360.127,430.238z"/>
<path d="M297.37,343.165c-2.63,0-5.21-1.06-7.07-2.92c-1.86-1.87-2.93-4.44-2.93-7.07c0-2.64,1.069-5.22,2.93-7.08
	c1.86-1.86,4.44-2.93,7.07-2.93s5.21,1.07,7.069,2.93c1.86,1.87,2.931,4.44,2.931,7.08c0,2.63-1.07,5.2-2.931,7.07
	C302.58,342.105,300,343.165,297.37,343.165z"/>
<path style="fill:#F4DAAB;" d="M10.139,455.008L10.139,455.008c19,5.02,33.765,19.978,38.537,39.041l0,0l0,0
	c4.772-19.064,19.537-34.022,38.537-39.041h0.001c0.186-0.049,0.186-0.313,0-0.362l0,0c-19-5.019-33.765-19.978-38.538-39.042l0,0
	l0,0c-4.772,19.064-19.537,34.022-38.537,39.041l0,0C9.954,454.695,9.954,454.959,10.139,455.008z"/>
<path d="M48.677,504.05c-4.587,0-8.586-3.122-9.701-7.572c-3.887-15.527-15.916-27.713-31.391-31.801
	c-0.003-0.001-0.005-0.001-0.008-0.002C3.116,463.492,0,459.442,0,454.827s3.116-8.665,7.577-9.847
	c15.484-4.091,27.512-16.276,31.399-31.803c1.114-4.45,5.113-7.572,9.701-7.572s8.587,3.122,9.701,7.572
	c3.887,15.527,15.915,27.713,31.391,31.801c4.454,1.169,7.58,5.216,7.585,9.837s-3.11,8.675-7.577,9.859
	c-15.484,4.091-27.513,16.276-31.399,31.804C57.264,500.928,53.264,504.05,48.677,504.05z M33.1,454.827
	c6.053,4.251,11.327,9.525,15.577,15.575c4.251-6.05,9.524-11.324,15.578-15.576c-6.054-4.252-11.328-9.525-15.578-15.574
	C44.426,445.302,39.153,450.576,33.1,454.827z"/>
<g>
	<path style="fill:#CD5C63;" d="M85.453,182.555c4.443,9.389-2.077,21.79-14.563,27.699s-27.933,3.904-32.377-5.485
		c-4.443-9.389,3.8-22.606,16.286-28.515S81.009,173.166,85.453,182.555z"/>
	<path style="fill:#CD5C63;" d="M164.595,145.101c4.443,9.389-2.077,21.79-14.563,27.699c-12.486,5.909-27.933,3.904-32.377-5.485
		s3.8-22.606,16.286-28.515C146.427,132.891,160.152,135.712,164.595,145.101z"/>
</g>
<path d="M173.634,140.823c-0.171-0.361-0.355-0.712-0.541-1.061c-0.085-0.219-0.168-0.439-0.27-0.655l-34.701-73.324
	c-1.194-2.523-3.389-4.433-6.054-5.266c-2.665-0.833-5.557-0.515-7.976,0.878l-76.123,43.833c-4.516,2.601-6.278,8.233-4.049,12.943
	l21.345,45.103c-4.958,0.365-9.986,1.689-14.744,3.94c-7.939,3.758-14.628,9.768-18.835,16.924
	c-4.929,8.385-5.735,17.463-2.212,24.907s11.055,12.576,20.664,14.081c2.014,0.316,4.068,0.472,6.141,0.472
	c6.367,0,12.899-1.472,18.888-4.306c7.986-3.779,14.451-9.792,18.204-16.93c4.188-7.964,4.596-16.743,1.121-24.086
	c-0.167-0.354-0.351-0.699-0.535-1.043c-0.087-0.225-0.173-0.451-0.277-0.672l-27.735-58.606l58.735-33.82l19.704,41.635
	c-4.832,0.376-9.835,1.678-14.72,3.99c-7.94,3.757-14.629,9.768-18.835,16.924c-4.929,8.385-5.735,17.463-2.212,24.907
	c4.412,9.321,15.034,14.533,26.951,14.533c6.128,0,12.6-1.379,18.743-4.286C172.056,173.441,180.543,155.425,173.634,140.823z
	 M75.668,193.056c-1.723,3.277-5.024,6.251-9.057,8.159c-4.224,1.999-9.225,2.805-13.379,2.154
	c-2.833-0.444-5.063-1.573-5.681-2.878c-0.617-1.304-0.077-3.744,1.376-6.217c2.13-3.625,5.924-6.982,10.148-8.981
	c2.951-1.397,6.095-2.128,8.99-2.128c1.061,0,2.089,0.098,3.062,0.298c1.527,0.313,4.244,1.168,5.285,3.37
	C77.455,189.033,76.394,191.676,75.668,193.056z M145.754,163.762c-8.441,3.996-17.573,2.42-19.06-0.724
	c-0.617-1.304-0.077-3.745,1.376-6.217c2.13-3.625,5.924-6.981,10.148-8.98c3.129-1.481,6.261-2.128,9.003-2.128
	c4.064,0,7.272,1.423,8.333,3.667C157.334,153.137,153.521,160.086,145.754,163.762z"/>
<path style="fill:#F4DAAB;" d="M369.595,135.892L369.595,135.892c19,5.02,33.765,19.978,38.537,39.041l0,0l0,0
	c4.772-19.064,19.537-34.022,38.537-39.041h0.001c0.186-0.049,0.186-0.313,0-0.362l0,0c-19-5.019-33.765-19.978-38.538-39.042l0,0
	l0,0c-4.772,19.064-19.537,34.022-38.537,39.041l0,0C369.409,135.579,369.409,135.843,369.595,135.892z"/>
<path d="M408.132,184.934L408.132,184.934c-4.588,0-8.587-3.122-9.701-7.572c-3.886-15.527-15.914-27.713-31.391-31.801
	c-4.466-1.18-7.585-5.229-7.585-9.85c0-4.624,3.123-8.675,7.595-9.852c15.467-4.086,27.495-16.271,31.381-31.799
	c1.114-4.45,5.113-7.572,9.701-7.572c4.587,0,8.587,3.121,9.7,7.572c3.888,15.527,15.916,27.713,31.393,31.801
	c4.478,1.19,7.59,5.244,7.584,9.862c-0.005,4.618-3.128,8.664-7.594,9.839c-15.467,4.086-27.495,16.272-31.383,31.799
	C416.719,181.812,412.719,184.934,408.132,184.934z M392.556,135.711c6.054,4.251,11.326,9.525,15.576,15.574
	c4.251-6.049,9.523-11.322,15.576-15.574c-6.053-4.251-11.325-9.524-15.576-15.575C403.882,126.187,398.608,131.46,392.556,135.711z
	"/>
<path style="fill:#CD5C63;" d="M443.429,478.176c-1.389,10.627-13.972,17.744-28.105,15.896
	c-14.133-1.847-26.413-12.215-25.024-22.842s15.922-17.489,30.055-15.641C434.488,457.437,444.819,467.549,443.429,478.176z"/>
<path style="fill:#9A84B8;" d="M443.429,478.176c-1.389,10.627-13.972,17.744-28.105,15.896
	c-14.133-1.847-26.413-12.215-25.024-22.842s15.922-17.489,30.055-15.641C434.488,457.437,444.819,467.549,443.429,478.176z"/>
<path d="M502.417,396.236c-19.026-0.794-43.783-11.338-44.026-11.443c-2.881-1.24-6.175-1.058-8.898,0.493
	c-2.726,1.55-4.566,4.288-4.973,7.396l-7.573,57.936c-4.461-2.472-9.635-4.204-15.295-4.944c-8.924-1.168-18.019,0.301-25.608,4.131
	c-8.863,4.474-14.57,11.811-15.658,20.13c-1.088,8.319,2.542,16.877,9.958,23.479c6.351,5.652,14.763,9.408,23.686,10.574
	c1.997,0.261,3.966,0.388,5.896,0.388c17.323,0,31.497-10.192,33.421-24.902v-0.001c0.021-0.161,0.03-0.32,0.048-0.48
	c0.016-0.102,0.041-0.201,0.054-0.304l9.266-70.886c10.263,3.524,25.353,7.853,38.869,8.417c5.531,0.217,10.178-4.057,10.408-9.574
	C512.222,401.126,507.935,396.466,502.417,396.236z M416.621,484.157c-4.842-0.633-9.694-2.757-12.98-5.682
	c-2.321-2.067-3.634-4.346-3.424-5.948c0.209-1.602,2.063-3.466,4.838-4.867c3.046-1.537,6.877-2.366,10.702-2.366
	c1.107,0,2.215,0.069,3.303,0.211c8.97,1.173,15.029,6.972,14.454,11.375C432.938,481.282,425.591,485.329,416.621,484.157z"/>
<g>
</g>
<g>
</g>
<g>
</g>
<g>
</g>
<g>
</g>
<g>
</g>
<g>
</g>
<g>
</g>
<g>
</g>
<g>
</g>
<g>
</g>
<g>
</g>
<g>
</g>
<g>
</g>
<g>
</g>
</svg>
