<?xml version="1.0" encoding="iso-8859-1"?>
<!-- Generator: Adobe Illustrator 19.0.0, SVG Export Plug-In . SVG Version: 6.00 Build 0)  -->
<svg version="1.1" id="Capa_1" xmlns="http://www.w3.org/2000/svg" xmlns:xlink="http://www.w3.org/1999/xlink" x="0px" y="0px"
	 viewBox="0 0 512 512" style="enable-background:new 0 0 512 512;" xml:space="preserve">
<path style="fill:#E2A546;" d="M306.698,330.439l-20.711,43.107h60.066l-20.711-43.107c-3.076,0.457-6.185,0.695-9.322,0.695
	S309.773,330.896,306.698,330.439z"/>
<path style="fill:#EBBF72;" d="M287.512,213.725c0,30.095-9.266,64.929-24.647,94.418c13.384,11.916,28.185,19.973,43.832,22.296
	c3.076,0.457,6.185,0.695,9.322,0.695s6.246-0.238,9.322-0.695c61.749-9.166,110.373-107.479,110.373-180.892
	C435.715,72.477,382.125,10,316.02,10c-49.133,0-91.345,34.519-109.785,83.886C252.831,106.699,287.512,155.488,287.512,213.725z"/>
<path style="fill:#8578A9;" d="M174.678,373.464l-22.812,47.48h60.066l-22.812-47.48c-2.387,0.311-4.793,0.485-7.221,0.485
	C179.471,373.949,177.065,373.775,174.678,373.464z"/>
<path style="fill:#9A84B8;" d="M174.678,373.464c2.387,0.311,4.793,0.485,7.221,0.485c2.428,0,4.834-0.174,7.221-0.485
	c29.581-3.856,55.819-30.949,73.746-65.32c15.381-29.489,24.647-64.323,24.647-94.418c0-58.237-34.682-107.026-81.278-119.839
	c-7.813-2.148-15.96-3.291-24.336-3.291c-58.329,0-105.614,55.127-105.614,123.13C76.285,278.898,119.718,366.3,174.678,373.464z"/>
<path d="M338.828,66.642c29.018,12.07,48.514,44.71,48.514,81.22c0,5.523,4.477,10,10,10s10-4.477,10-10
	c0-44.49-24.447-84.551-60.833-99.686c-5.099-2.121-10.953,0.292-13.073,5.393C331.314,58.667,333.728,64.521,338.828,66.642z"/>
<path d="M160.268,380.365l-17.416,36.248c-1.489,3.099-1.281,6.745,0.549,9.655c1.831,2.91,5.027,4.676,8.465,4.676h22.149
	c-0.317,0.873-0.712,1.718-1.173,2.704c-1.664,3.556-3.943,8.425-3.943,17.06s2.279,13.505,3.942,17.061
	c1.283,2.742,2.058,4.397,2.058,8.585s-0.774,5.843-2.058,8.584c-1.664,3.556-3.942,8.426-3.942,17.062c0,5.523,4.477,10,10,10
	c5.523,0,10-4.477,10-10c0-4.188,0.774-5.843,2.058-8.585c1.664-3.556,3.942-8.426,3.942-17.061c0-8.636-2.279-13.505-3.942-17.062
	c-1.283-2.742-2.058-4.397-2.058-8.584c0-4.187,0.774-5.841,2.057-8.583c1.242-2.654,2.826-6.043,3.55-11.182h17.426
	c3.438,0,6.634-1.766,8.465-4.676c1.83-2.91,2.038-6.556,0.549-9.655l-17.415-36.248c22.609-7.513,43.943-26.69,61.602-55.846
	c0.218-0.361,0.43-0.727,0.647-1.09c8.589,6.24,17.478,10.879,26.543,13.841l-15.349,31.947c-1.489,3.099-1.281,6.745,0.549,9.655
	c1.831,2.91,5.027,4.676,8.465,4.676h22.952c-0.572,2.16-1.328,4.008-2.168,6.05c-2.117,5.147-4.751,11.553-4.751,23.254
	c0,11.703,2.635,18.109,4.751,23.257c1.815,4.414,3.249,7.899,3.249,15.65s-1.434,11.237-3.249,15.65
	c-2.117,5.148-4.751,11.554-4.751,23.257c0,5.523,4.477,10,10,10s10-4.477,10-10c0-7.751,1.434-11.237,3.249-15.651
	c2.117-5.148,4.751-11.554,4.751-23.257s-2.635-18.109-4.751-23.257c-1.815-4.414-3.249-7.899-3.249-15.651
	c0-7.749,1.434-11.234,3.248-15.647c1.451-3.527,3.144-7.648,4.067-13.657h16.718c3.438,0,6.634-1.766,8.465-4.676
	c1.83-2.91,2.038-6.556,0.549-9.655l-15.349-31.947c25.466-8.319,49.544-29.91,69.493-62.847
	c22.858-37.74,36.504-84.422,36.504-124.875C445.715,67.087,387.534,0,316.02,0c-50.541,0-94.416,33.511-115.808,82.271
	c-5.966-1.098-12.082-1.676-18.313-1.676c-63.75,0-115.614,59.722-115.614,133.13c0,35.899,12.104,77.318,32.38,110.793
	C116.324,353.675,137.658,372.852,160.268,380.365z M167.765,410.944l12.982-27.02c0.384,0.007,0.768,0.025,1.152,0.025
	c0.384,0,0.768-0.018,1.152-0.025l12.982,27.02H167.765z M301.885,363.546l10.806-22.491c1.108,0.05,2.218,0.078,3.328,0.078
	s2.22-0.028,3.328-0.078l10.806,22.491H301.885z M316.02,20c60.486,0,109.695,58.115,109.695,129.547
	c0,36.404-12.879,80.284-33.611,114.514c-17.856,29.481-39.52,48.742-61.173,54.921c-4.987,1.423-9.972,2.152-14.911,2.152
	s-9.925-0.729-14.911-2.152c-8.653-2.469-17.306-7.039-25.719-13.504c14.03-29.37,22.123-62.404,22.123-91.752
	c0-58.223-32.629-107.83-77.935-125.864C238.174,47.474,274.431,20,316.02,20z M181.899,100.595c3.832,0,7.61,0.276,11.325,0.797
	c6.672,0.936,13.137,2.68,19.318,5.161c37.738,15.147,64.97,57.467,64.97,107.172c0,24.213-6.507,52.201-17.586,77.414
	c-2.889,6.575-6.09,12.958-9.567,19.039c-0.766,1.34-1.541,2.67-2.334,3.979c-15.599,25.754-34.468,42.567-53.275,47.934
	c-4.3,1.227-8.597,1.858-12.851,1.858s-8.551-0.631-12.851-1.858c-18.808-5.367-37.677-22.179-53.276-47.934
	c-18.188-30.03-29.487-68.513-29.487-100.432C86.285,151.345,129.177,100.595,181.899,100.595z"/>
<path d="M118.952,222.07c5.523,0,10-4.477,10-10c0-38.03,25.748-68.998,57.514-69.376c0.196-0.002,0.389-0.018,0.585-0.018
	c5.523,0,10-4.477,10-10c0-5.061-3.763-9.233-8.642-9.897c-0.445-0.061-0.896-0.103-1.358-0.103
	c-43.064,0-78.099,40.102-78.099,89.394C108.952,217.593,113.429,222.07,118.952,222.07z"/>
<path d="M120.91,258.85c0.63-0.13,1.26-0.32,1.87-0.57c0.6-0.25,1.18-0.56,1.72-0.92c0.55-0.37,1.06-0.79,1.52-1.25
	s0.88-0.97,1.25-1.52c0.36-0.54,0.67-1.12,0.92-1.72c0.25-0.61,0.44-1.24,0.57-1.87c0.13-0.65,0.19-1.31,0.19-1.96
	c0-0.65-0.06-1.31-0.19-1.95s-0.32-1.27-0.57-1.87c-0.25-0.61-0.56-1.19-0.92-1.73c-0.37-0.55-0.79-1.06-1.25-1.52
	s-0.97-0.88-1.52-1.24c-0.54-0.36-1.12-0.67-1.72-0.92c-0.61-0.25-1.24-0.44-1.87-0.57c-3.26-0.66-6.71,0.41-9.03,2.73
	c-0.46,0.46-0.88,0.97-1.24,1.52c-0.36,0.54-0.67,1.12-0.92,1.73c-0.25,0.6-0.44,1.23-0.57,1.87s-0.2,1.3-0.2,1.95
	s0.07,1.31,0.2,1.96c0.13,0.63,0.32,1.26,0.57,1.87c0.25,0.6,0.56,1.18,0.92,1.72c0.36,0.55,0.78,1.06,1.24,1.52
	c1.86,1.86,4.44,2.93,7.07,2.93C119.6,259.04,120.26,258.98,120.91,258.85z"/>
<path d="M296.4,49.71c0.25,0.6,0.56,1.19,0.92,1.73c0.37,0.54,0.79,1.06,1.25,1.52s0.97,0.88,1.52,1.24
	c0.54,0.36,1.12,0.67,1.72,0.92c0.61,0.25,1.24,0.44,1.87,0.57c0.65,0.13,1.31,0.2,1.96,0.2s1.31-0.07,1.95-0.2s1.27-0.32,1.87-0.57
	c0.61-0.25,1.19-0.56,1.73-0.92c0.55-0.36,1.06-0.78,1.52-1.24s0.88-0.98,1.24-1.52s0.67-1.13,0.92-1.73s0.44-1.23,0.57-1.87
	s0.2-1.3,0.2-1.95c0-0.66-0.07-1.31-0.2-1.96c-0.13-0.64-0.32-1.27-0.57-1.87s-0.56-1.18-0.92-1.72c-0.36-0.55-0.78-1.06-1.24-1.52
	c-0.46-0.47-0.97-0.88-1.52-1.25c-0.54-0.36-1.12-0.67-1.73-0.92c-0.6-0.25-1.23-0.44-1.87-0.57c-1.29-0.26-2.62-0.26-3.91,0
	c-0.63,0.13-1.26,0.32-1.87,0.57c-0.6,0.25-1.18,0.56-1.72,0.92c-0.55,0.37-1.06,0.78-1.52,1.25c-0.46,0.46-0.88,0.97-1.25,1.52
	c-0.36,0.54-0.67,1.12-0.92,1.72c-0.25,0.6-0.44,1.23-0.57,1.87c-0.13,0.65-0.19,1.3-0.19,1.96c0,0.65,0.06,1.31,0.19,1.95
	S296.15,49.11,296.4,49.71z"/>
<g>
</g>
<g>
</g>
<g>
</g>
<g>
</g>
<g>
</g>
<g>
</g>
<g>
</g>
<g>
</g>
<g>
</g>
<g>
</g>
<g>
</g>
<g>
</g>
<g>
</g>
<g>
</g>
<g>
</g>
</svg>
