<?xml version="1.0" encoding="iso-8859-1"?>
<!-- Generator: Adobe Illustrator 19.0.0, SVG Export Plug-In . SVG Version: 6.00 Build 0)  -->
<svg version="1.1" id="Capa_1" xmlns="http://www.w3.org/2000/svg" xmlns:xlink="http://www.w3.org/1999/xlink" x="0px" y="0px"
	 viewBox="0 0 512 512" style="enable-background:new 0 0 512 512;" xml:space="preserve">
<g>
	<path style="fill:#FFC107;" d="M211.093,206.784c-13.785-21.057-36.649-34.428-61.76-36.117c-4.885,0-9.707,0.235-14.507,0.448
		c-18.944,2.543-38.209-0.896-55.104-9.835c-20.51-10.677-37.321-27.295-48.235-47.68c-2.37-4.677-7.43-7.352-12.629-6.677
		c-4.816,1.149-8.208,5.46-8.192,10.411c0,2.539,0,5.739-0.192,9.451c-0.789,29.867-2.133,85.461,24.811,113.237
		c7.756,8.072,17.936,13.39,28.992,15.147c2.304,37.44,18.112,60.224,44.437,64.213c6.72,21.163,26.56,43.285,40.619,43.285
		c4.413,0.005,8.374-2.709,9.963-6.827l53.333-138.667C213.975,213.681,213.393,209.738,211.093,206.784z"/>
	<path style="fill:#FFC107;" d="M501.525,126.827c0-3.733-0.192-6.912-0.192-9.451c0.016-4.951-3.376-9.262-8.192-10.411
		c-5.196-0.655-10.245,2.015-12.629,6.677c-10.917,20.378-27.727,36.987-48.235,47.659c-16.892,8.946-36.158,12.392-55.104,9.856
		c-4.8-0.213-9.621-0.491-14.507-0.491c-25.103,1.68-47.966,15.034-61.76,36.075c-2.292,2.949-2.874,6.881-1.536,10.368
		l53.333,138.667c1.568,4.143,5.533,6.885,9.963,6.891c14.059,0,33.899-22.123,40.533-43.285
		c26.325-3.989,42.133-26.773,44.437-64.213c11.056-1.757,21.236-7.075,28.992-15.147
		C503.765,212.288,502.293,156.693,501.525,126.827z"/>
</g>
<path style="fill:#CFD8DC;" d="M392.746,420.779L343.85,262.912c-5.616-25.856-22.374-47.908-45.781-60.245
	c-5.142-2.728-11.522-0.829-14.336,4.267c-0.782,1.545-1.163,3.261-1.109,4.992h-53.141c0.021-1.74-0.397-3.457-1.216-4.992
	c-2.764-5.201-9.219-7.178-14.421-4.416c-23.186,12.153-39.84,33.903-45.525,59.456l-49.323,159.723
	c-8.636,40.323,17.051,80.012,57.374,88.648c5.137,1.1,10.376,1.655,15.629,1.656h128c41.237-0.022,74.649-33.47,74.626-74.707
	c-0.003-5.557-0.626-11.096-1.858-16.514L392.746,420.779z"/>
<circle style="fill:#546E7A;" cx="256" cy="160" r="74.667"/>
<path style="fill:#FFC107;" d="M256,64c-37.163,0-74.667-9.899-74.667-32S218.837,0,256,0s74.667,9.899,74.667,32S293.162,64,256,64
	z M203.626,32c16.155,8.274,34.269,11.963,52.373,10.667c18.104,1.296,36.218-2.393,52.373-10.667
	C292.218,23.726,274.104,20.037,256,21.333C237.895,20.037,219.782,23.726,203.626,32z"/>
<g>
</g>
<g>
</g>
<g>
</g>
<g>
</g>
<g>
</g>
<g>
</g>
<g>
</g>
<g>
</g>
<g>
</g>
<g>
</g>
<g>
</g>
<g>
</g>
<g>
</g>
<g>
</g>
<g>
</g>
</svg>
