<?xml version="1.0" encoding="iso-8859-1"?>
<!-- Generator: Adobe Illustrator 19.0.0, SVG Export Plug-In . SVG Version: 6.00 Build 0)  -->
<svg version="1.1" id="Capa_1" xmlns="http://www.w3.org/2000/svg" xmlns:xlink="http://www.w3.org/1999/xlink" x="0px" y="0px"
	 viewBox="0 0 512 512" style="enable-background:new 0 0 512 512;" xml:space="preserve">
<g>
	<path style="fill:#FFC107;" d="M261.909,300.458l-64-42.667c-4.852-3.228-11.397-1.965-14.699,2.837L65.877,431.295
		c-3.343,4.851-2.12,11.493,2.731,14.836c2.759,1.901,6.251,2.396,9.429,1.335l57.749-19.2l38.016,37.995
		c2.006,1.978,4.713,3.083,7.531,3.072c0.572,0.002,1.143-0.048,1.707-0.149c3.384-0.55,6.297-2.693,7.829-5.76l74.667-149.333
		C267.933,309.281,266.379,303.44,261.909,300.458z"/>
	<path style="fill:#FFC107;" d="M446.123,431.295L328.789,260.629c-3.302-4.802-9.847-6.066-14.699-2.837l-64,42.667
		c-4.481,2.984-6.037,8.839-3.627,13.653l74.667,149.333c1.533,3.067,4.446,5.21,7.829,5.76c0.564,0.094,1.135,0.137,1.707,0.128
		c2.831,0.005,5.548-1.115,7.552-3.115l38.016-37.995l57.749,19.2c4.343,1.406,9.101-0.072,11.883-3.691
		C448.611,440.071,448.714,435.067,446.123,431.295z"/>
</g>
<g>
	<path style="fill:#F44336;" d="M200.811,111.295c-23.275-33.941-55.189-68.629-115.477-68.629C26.709,42.666,0,81.365,0,117.333
		c0.894,19.175,5.846,37.941,14.528,55.061c3.207,6.171,5.499,12.775,6.805,19.605c-1.306,6.83-3.599,13.435-6.805,19.605
		C5.846,228.725,0.894,247.492,0,266.666c0,35.968,26.709,74.667,85.333,74.667c56.384,0,89.152-40.939,115.477-79.296
		c1.206-1.783,1.852-3.885,1.856-6.037V117.333C202.662,115.181,202.016,113.078,200.811,111.295z"/>
	<path style="fill:#F44336;" d="M490.667,191.999c1.306-6.83,3.599-13.435,6.805-19.605c8.682-17.12,13.634-35.887,14.528-55.061
		c0-35.968-26.709-74.667-85.333-74.667c-60.288,0-92.203,34.688-115.477,68.629c-1.206,1.783-1.852,3.885-1.856,6.037v138.667
		c0.004,2.152,0.65,4.254,1.856,6.037c26.325,38.357,59.093,79.296,115.477,79.296c58.624,0,85.333-38.699,85.333-74.667
		c-0.894-19.175-5.846-37.941-14.528-55.061C494.265,205.434,491.973,198.83,490.667,191.999z"/>
</g>
<path style="fill:#D32F2F;" d="M256,63.999c-47.851,0-85.333,56.235-85.333,128s37.483,128,85.333,128s85.333-56.235,85.333-128
	S303.851,63.999,256,63.999z"/>
<g>
</g>
<g>
</g>
<g>
</g>
<g>
</g>
<g>
</g>
<g>
</g>
<g>
</g>
<g>
</g>
<g>
</g>
<g>
</g>
<g>
</g>
<g>
</g>
<g>
</g>
<g>
</g>
<g>
</g>
</svg>
