<?xml version="1.0" encoding="iso-8859-1"?>
<!-- Generator: Adobe Illustrator 19.0.0, SVG Export Plug-In . SVG Version: 6.00 Build 0)  -->
<svg version="1.1" id="Capa_1" xmlns="http://www.w3.org/2000/svg" xmlns:xlink="http://www.w3.org/1999/xlink" x="0px" y="0px"
	 viewBox="0 0 512.141 512.141" style="enable-background:new 0 0 512.141 512.141;" xml:space="preserve">
<g>
	<path style="fill:#388E3C;" d="M479.138,66.573c-8.718-0.612-16.98-4.127-23.467-9.984c-6.346-6.99-10.635-15.599-12.395-24.875
		c-1.725-19.155-18.647-33.288-37.803-31.573c-57.856,0-82.517,122.709-85.141,136.704c-0.65,3.463,0.451,7.024,2.944,9.515
		l42.667,42.667c1.999,1.994,4.707,3.114,7.531,3.115c0.659-0.002,1.316-0.066,1.963-0.192
		c13.995-2.603,136.704-27.285,136.704-85.141C512.141,72.376,493.048,69.026,479.138,66.573z"/>
	<path style="fill:#388E3C;" d="M189.026,365.922l-42.667-42.667c-2.486-2.486-6.037-3.587-9.493-2.944
		C122.85,322.936,0.141,347.618,0.141,405.474c-1.715,19.16,12.415,36.088,31.573,37.824c9.278,1.753,17.888,6.043,24.875,12.395
		c5.855,6.488,9.37,14.749,9.984,23.467c2.453,13.888,5.803,32.981,40.235,32.981c57.856,0,82.517-122.709,85.141-136.704
		C192.605,371.977,191.511,368.417,189.026,365.922z"/>
</g>
<g>
	<path style="fill:#81C784;" d="M138.808,384.141c-5.891,0.011-10.675-4.757-10.686-10.648c-0.005-2.84,1.123-5.565,3.134-7.571
		l10.667-10.667c4.237-4.093,10.99-3.975,15.083,0.262c3.993,4.134,3.993,10.687,0,14.821l-10.667,10.667
		C144.343,383.007,141.634,384.135,138.808,384.141z"/>
	<path style="fill:#81C784;" d="M362.808,160.141c-5.891,0.011-10.675-4.757-10.686-10.648c-0.005-2.84,1.123-5.565,3.134-7.571
		l10.667-10.667c4.093-4.237,10.845-4.354,15.083-0.262c4.237,4.093,4.354,10.845,0.262,15.083
		c-0.086,0.089-0.173,0.176-0.262,0.262l-10.667,10.667C368.343,159.007,365.634,160.135,362.808,160.141z"/>
</g>
<path style="fill:#4CAF50;" d="M362.36,149.922c-39.147-39.125-118.635-23.317-177.216,35.243
	c-26.486,25.494-45.232,57.951-54.08,93.632c-8.667,29.235-1.535,60.874,18.837,83.563c15.389,14.567,35.999,22.319,57.173,21.504
	c45.806-2.817,88.776-23.134,120.021-56.747c26.486-25.494,45.232-57.951,54.08-93.632
	C389.849,204.253,382.725,172.615,362.36,149.922z"/>
<path style="fill:#81C784;" d="M187.618,335.309c-2.831,0.005-5.548-1.115-7.552-3.115c-10.508-14.868-12.59-34.109-5.504-50.88
	c7.885-25.041,21.889-47.719,40.747-65.984c23.168-25.653,55.203-41.564,89.643-44.523c9.952-0.643,19.752,2.695,27.243,9.28
	c4.092,4.237,3.975,10.99-0.262,15.083c-4.134,3.992-10.687,3.992-14.82,0c-7.445-7.424-48.789-2.688-86.699,35.243
	c-16.299,15.702-28.439,35.21-35.328,56.768c-4.821,16.917-2.517,27.349,0,29.867c4.171,4.16,4.179,10.914,0.019,15.085
	c-2.006,2.011-4.731,3.139-7.571,3.134L187.618,335.309z"/>
<g>
</g>
<g>
</g>
<g>
</g>
<g>
</g>
<g>
</g>
<g>
</g>
<g>
</g>
<g>
</g>
<g>
</g>
<g>
</g>
<g>
</g>
<g>
</g>
<g>
</g>
<g>
</g>
<g>
</g>
</svg>
