<?xml version="1.0" encoding="iso-8859-1"?>
<!-- Generator: Adobe Illustrator 19.0.0, SVG Export Plug-In . SVG Version: 6.00 Build 0)  -->
<svg version="1.1" id="Capa_1" xmlns="http://www.w3.org/2000/svg" xmlns:xlink="http://www.w3.org/1999/xlink" x="0px" y="0px"
	 viewBox="0 0 512.023 512.023" style="enable-background:new 0 0 512.023 512.023;" xml:space="preserve">
<g>
	<path style="fill:#FFC107;" d="M339.937,474.709l-42.667-74.667c-1.653-2.884-4.556-4.832-7.851-5.269
		c-3.3-0.487-6.633,0.64-8.96,3.029l-32,32c-3.247,3.244-4.055,8.202-2.005,12.309l32,64c2.628,5.272,9.032,7.416,14.305,4.789
		c2.074-1.034,3.755-2.715,4.789-4.789l7.723-15.445h25.408c5.891-0.002,10.665-4.779,10.663-10.67
		C341.341,478.142,340.857,476.32,339.937,474.709z"/>
	<path style="fill:#FFC107;" d="M263.564,429.781l-32-32c-2.325-2.393-5.66-3.52-8.96-3.029c-3.295,0.437-6.198,2.386-7.851,5.269
		l-42.667,74.667c-2.934,5.109-1.171,11.628,3.938,14.562c1.619,0.93,3.454,1.418,5.321,1.417h25.408l7.723,15.445
		c2.628,5.272,9.032,7.416,14.305,4.789c2.074-1.034,3.755-2.715,4.789-4.789l32-64
		C267.629,437.999,266.821,433.029,263.564,429.781z"/>
</g>
<g>
	<path style="fill:#4CAF50;" d="M379.02,199.616c1.031,3.63,3.903,6.444,7.552,7.403c3.646,0.967,7.531-0.063,10.219-2.709
		c13.633-13.513,34.66-16.142,51.2-6.4c5.102,2.945,11.626,1.195,14.57-3.907c1.351-2.341,1.763-5.108,1.152-7.741
		c-18.677-78.916-80.294-140.533-159.211-159.211c-5.739-1.331-11.47,2.243-12.8,7.982c-0.611,2.633-0.199,5.4,1.152,7.741
		c9.859,16.515,7.221,37.62-6.4,51.2c-4.137,4.194-4.091,10.948,0.103,15.085c1.275,1.258,2.846,2.174,4.569,2.665
		C333.567,123.993,366.749,157.175,379.02,199.616z"/>
	<path style="fill:#4CAF50;" d="M447.905,271.445c-16.548,9.703-37.55,7.078-51.2-6.4c-4.194-4.137-10.948-4.091-15.085,0.103
		c-1.258,1.275-2.174,2.846-2.665,4.569c-5.817,20.524-16.662,39.273-31.552,54.549c-4.122,4.209-4.052,10.962,0.157,15.084
		c2.524,2.472,6.108,3.534,9.571,2.836c1.82-0.449,3.676-0.735,5.547-0.853c3.029,0,10.667,12.693,10.667,42.667
		c0,2.325,0,4.629-0.235,7.445c-0.26,5.885,4.299,10.867,10.185,11.128c2.611,0.116,5.174-0.732,7.202-2.381
		c36.636-29.889,62.349-71.063,73.131-117.099c1.331-5.739-2.243-11.47-7.982-12.8C453.013,269.682,450.246,270.094,447.905,271.445
		L447.905,271.445z"/>
	<path style="fill:#4CAF50;" d="M213.345,64c0.045-7.475,2.085-14.803,5.909-21.227c2.945-5.102,1.195-11.626-3.907-14.57
		c-2.341-1.351-5.108-1.763-7.741-1.152C128.69,45.728,67.073,107.345,48.396,186.261c-1.331,5.739,2.243,11.47,7.982,12.8
		c2.633,0.611,5.4,0.199,7.741-1.152c16.54-9.742,37.567-7.113,51.2,6.4c4.194,4.137,10.948,4.091,15.085-0.103
		c1.258-1.275,2.174-2.846,2.665-4.569c12.264-42.481,45.476-75.694,87.957-87.957c5.666-1.614,8.95-7.515,7.337-13.181
		c-0.491-1.722-1.407-3.294-2.665-4.569C217.777,85.984,213.335,75.219,213.345,64z"/>
	<path style="fill:#4CAF50;" d="M133.004,269.717c-1.614-5.666-7.515-8.95-13.181-7.337c-1.722,0.491-3.294,1.407-4.569,2.665
		c-13.65,13.478-34.652,16.103-51.2,6.4c-5.102-2.945-11.626-1.195-14.57,3.907c-1.351,2.341-1.763,5.108-1.152,7.741
		c10.821,46.056,36.589,87.232,73.28,117.099c4.569,3.718,11.288,3.028,15.006-1.541c1.66-2.04,2.508-4.621,2.381-7.248
		c-0.213-2.432-0.32-4.885-0.32-7.403c0-29.973,7.637-42.667,10.667-42.667c1.869,0.098,3.725,0.362,5.547,0.789
		c5.775,1.164,11.4-2.574,12.564-8.349c0.698-3.463-0.364-7.047-2.836-9.571C149.715,308.952,138.849,290.225,133.004,269.717z"/>
</g>
<g>
	<circle style="fill:#FFC107;" cx="256.012" cy="64" r="64"/>
	<circle style="fill:#FFC107;" cx="85.345" cy="234.667" r="64"/>
	<circle style="fill:#FFC107;" cx="426.678" cy="234.667" r="64"/>
</g>
<g>
	<path style="fill:#F44336;" d="M362.678,320c-29.947,4.519-58.246,16.605-82.219,35.115c-1.999,2.004-3.12,4.721-3.115,7.552
		v42.667c-0.005,2.831,1.115,5.548,3.115,7.552c23.972,18.51,52.271,30.596,82.219,35.115c20.032,0,32-23.915,32-64
		S382.71,320,362.678,320z"/>
	<path style="fill:#F44336;" d="M231.564,355.115c-23.972-18.51-52.271-30.596-82.219-35.115c-20.032,0-32,23.915-32,64
		s11.968,64,32,64c29.947-4.519,58.246-16.605,82.219-35.115c1.999-2.004,3.12-4.721,3.115-7.552v-42.667
		C234.683,359.836,233.563,357.119,231.564,355.115z"/>
</g>
<path style="fill:#D32F2F;" d="M256.012,320c-23.936,0-42.667,28.096-42.667,64s18.731,64,42.667,64s42.667-28.096,42.667-64
	S279.948,320,256.012,320z"/>
<g>
</g>
<g>
</g>
<g>
</g>
<g>
</g>
<g>
</g>
<g>
</g>
<g>
</g>
<g>
</g>
<g>
</g>
<g>
</g>
<g>
</g>
<g>
</g>
<g>
</g>
<g>
</g>
<g>
</g>
</svg>
