<?xml version="1.0" encoding="iso-8859-1"?>
<!-- Generator: Adobe Illustrator 19.0.0, SVG Export Plug-In . SVG Version: 6.00 Build 0)  -->
<svg version="1.1" id="Capa_1" xmlns="http://www.w3.org/2000/svg" xmlns:xlink="http://www.w3.org/1999/xlink" x="0px" y="0px"
	 viewBox="0 0 469.333 469.333" style="enable-background:new 0 0 469.333 469.333;" xml:space="preserve">
<path style="fill:#546E7A;" d="M234.667,0c-29.455,0-53.333,23.878-53.333,53.333v53.333c0,5.891,4.776,10.667,10.667,10.667h85.333
	c5.891,0,10.667-4.776,10.667-10.667V53.333C288,23.878,264.122,0,234.667,0z"/>
<path style="fill:#FFC107;" d="M234.667,85.333c-58.304,0-117.333,58.624-117.333,170.667c0,91.733,66.901,213.333,117.333,213.333
	S352,347.733,352,256C352,143.957,292.971,85.333,234.667,85.333z"/>
<path style="fill:#FFE082;" d="M234.667,426.667c-2.465,0.002-4.855-0.85-6.763-2.411C203.968,404.608,160,325.781,160,256
	c0-84.032,37.568-128,74.667-128c5.891,0,10.667,4.776,10.667,10.667s-4.776,10.667-10.667,10.667
	c-22.144,0-53.333,33.088-53.333,106.667c2.709,55.833,23.842,109.196,60.096,151.744c4.56,3.73,5.232,10.45,1.502,15.01
	C240.904,425.233,237.869,426.669,234.667,426.667z"/>
<g>
	<path style="fill:#FFD54F;" d="M64,256H42.667C36.776,256,32,260.776,32,266.667c0,5.891,4.776,10.667,10.667,10.667H64
		c5.891,0,10.667-4.776,10.667-10.667C74.667,260.776,69.891,256,64,256z"/>
	<path style="fill:#FFD54F;" d="M426.667,256h-21.333c-5.891,0-10.667,4.776-10.667,10.667c0,5.891,4.776,10.667,10.667,10.667
		h21.333c5.891,0,10.667-4.776,10.667-10.667C437.333,260.776,432.558,256,426.667,256z"/>
	<path style="fill:#FFD54F;" d="M99.115,408.448l-21.333,21.333c-4.237,4.093-4.354,10.845-0.262,15.083
		c4.093,4.237,10.845,4.354,15.083,0.262c0.089-0.086,0.176-0.173,0.262-0.262l21.333-21.333c4.093-4.237,3.975-10.99-0.262-15.083
		C109.802,404.455,103.248,404.455,99.115,408.448z"/>
	<path style="fill:#FFD54F;" d="M384,149.333c2.831,0.005,5.548-1.115,7.552-3.115l21.333-21.333
		c4.237-4.093,4.354-10.845,0.262-15.083c-4.093-4.237-10.845-4.354-15.083-0.262c-0.089,0.086-0.176,0.173-0.262,0.262
		l-21.333,21.333c-4.159,4.172-4.149,10.926,0.024,15.085C378.487,148.208,381.185,149.327,384,149.333z"/>
	<path style="fill:#FFD54F;" d="M77.781,146.219c4.237,4.092,10.99,3.975,15.083-0.262c3.992-4.134,3.992-10.687,0-14.82
		l-21.333-21.333c-4.237-4.093-10.99-3.975-15.083,0.262c-3.992,4.134-3.992,10.687,0,14.82L77.781,146.219z"/>
	<path style="fill:#FFD54F;" d="M370.219,408.448c-4.237-4.093-10.99-3.976-15.083,0.261c-3.993,4.134-3.993,10.688,0,14.821
		l21.333,21.333c4.237,4.093,10.99,3.976,15.083-0.261c3.993-4.134,3.993-10.688,0-14.821L370.219,408.448z"/>
</g>
<g>
</g>
<g>
</g>
<g>
</g>
<g>
</g>
<g>
</g>
<g>
</g>
<g>
</g>
<g>
</g>
<g>
</g>
<g>
</g>
<g>
</g>
<g>
</g>
<g>
</g>
<g>
</g>
<g>
</g>
</svg>
