<?xml version="1.0" encoding="iso-8859-1"?>
<!-- Generator: Adobe Illustrator 19.0.0, SVG Export Plug-In . SVG Version: 6.00 Build 0)  -->
<svg version="1.1" id="Capa_1" xmlns="http://www.w3.org/2000/svg" xmlns:xlink="http://www.w3.org/1999/xlink" x="0px" y="0px"
	 viewBox="0 0 512.02 512.02" style="enable-background:new 0 0 512.02 512.02;" xml:space="preserve">
<path style="fill:#795548;" d="M511.581,228.077c3.652,35.157-21.887,66.618-57.044,70.271c-2.169,0.225-4.348,0.34-6.529,0.343
	h-61.867c-12.83,0.085-23.163,10.554-23.078,23.384c0.038,5.711,2.178,11.209,6.012,15.442l27.307,29.867l14.293,15.573l17.707,19.2
	c1.243,0.959,2.323,2.112,3.2,3.413l2.987,3.2c0.761,0.912,1.406,1.916,1.92,2.987c17.528,25.365,14.479,59.622-7.253,81.493
	c-24.909,24.978-65.351,25.034-90.329,0.125c-0.042-0.042-0.083-0.083-0.125-0.125l-18.133-20.267l-14.08-15.787l-17.92-20.267
	c-16.948-18.027-45.3-18.901-63.327-1.953c-0.671,0.631-1.322,1.282-1.953,1.953l-17.92,20.267l-14.08,15.787l-17.707,19.84
	c-24.702,25.166-65.128,25.542-90.295,0.84c-22.25-21.84-25.474-56.556-7.625-82.12c0.442-0.997,1.016-1.93,1.707-2.773l2.773-2.773
	c0.691-1.187,1.554-2.265,2.56-3.2c0.514-0.557,1.086-1.058,1.707-1.493l16.853-18.347l14.293-15.573l27.307-29.867
	c8.613-9.51,7.886-24.202-1.624-32.815c-4.233-3.834-9.731-5.974-15.442-6.012H64.007c-35.346-0.046-63.962-28.738-63.916-64.084
	c0.003-2.181,0.117-4.36,0.343-6.529c4.431-33.236,33.034-57.897,66.56-57.387h100.907l1.28-2.56
	c-12.931-17.873-19.875-39.38-19.84-61.44c-0.058-32.144,14.455-62.582,39.467-82.773c45.703-37.17,112.886-30.253,150.056,15.451
	c10.997,13.521,18.513,29.531,21.891,46.629c5.63,28.678-0.856,58.407-17.92,82.133l1.28,2.56h100.907
	C478.547,170.18,507.15,194.84,511.581,228.077z"/>
<g>
	<path style="fill:#F44336;" d="M256.007,384.023c-11.782,0-21.333-9.551-21.333-21.333s9.551-21.333,21.333-21.333
		c11.782,0,21.333,9.551,21.333,21.333S267.79,384.023,256.007,384.023z"/>
	<path style="fill:#F44336;" d="M256.007,320.023c-11.782,0-21.333-9.551-21.333-21.333s9.551-21.333,21.333-21.333
		c11.782,0,21.333,9.551,21.333,21.333S267.79,320.023,256.007,320.023z"/>
	<path style="fill:#F44336;" d="M256.007,256.023c-11.782,0-21.333-9.551-21.333-21.333c0-11.782,9.551-21.333,21.333-21.333
		c11.782,0,21.333,9.551,21.333,21.333C277.341,246.472,267.79,256.023,256.007,256.023z"/>
</g>
<g>
	<path style="fill:#FFC107;" d="M213.341,106.69c-11.782,0-21.333-9.551-21.333-21.333s9.551-21.333,21.333-21.333
		c11.782,0,21.333,9.551,21.333,21.333S225.123,106.69,213.341,106.69z"/>
	<path style="fill:#FFC107;" d="M298.674,106.69c-11.782,0-21.333-9.551-21.333-21.333s9.551-21.333,21.333-21.333
		s21.333,9.551,21.333,21.333S310.456,106.69,298.674,106.69z"/>
</g>
<g>
	<rect x="85.341" y="170.69" style="fill:#A1887F;" width="21.333" height="128"/>
	<rect x="405.341" y="170.69" style="fill:#A1887F;" width="21.333" height="128"/>
	<polygon style="fill:#A1887F;" points="205.447,457.197 191.367,472.983 101.341,382.957 115.634,367.383 	"/>
	<polygon style="fill:#A1887F;" points="410.674,382.957 320.647,472.983 306.567,457.197 396.381,367.383 	"/>
</g>
<path style="fill:#FAFAFA;" d="M256.007,170.69c-17.339-1.569-32.79-11.585-41.301-26.773c-2.733-5.219-0.719-11.665,4.5-14.398
	c4.983-2.61,11.135-0.902,14.06,3.902c0.341,0.555,9.515,15.936,22.741,15.936c13.227,0,22.656-15.787,22.72-15.936
	c3.063-5.032,9.626-6.628,14.658-3.564c4.804,2.925,6.512,9.078,3.902,14.06C288.781,159.099,273.339,169.114,256.007,170.69z"/>
<g>
</g>
<g>
</g>
<g>
</g>
<g>
</g>
<g>
</g>
<g>
</g>
<g>
</g>
<g>
</g>
<g>
</g>
<g>
</g>
<g>
</g>
<g>
</g>
<g>
</g>
<g>
</g>
<g>
</g>
</svg>
