<?xml version="1.0" encoding="iso-8859-1"?>
<!-- Generator: Adobe Illustrator 19.0.0, SVG Export Plug-In . SVG Version: 6.00 Build 0)  -->
<svg version="1.1" id="Capa_1" xmlns="http://www.w3.org/2000/svg" xmlns:xlink="http://www.w3.org/1999/xlink" x="0px" y="0px"
	 viewBox="0 0 512.001 512.001" style="enable-background:new 0 0 512.001 512.001;" xml:space="preserve">
<path style="fill:#455A64;" d="M320.001,96c-5.891,0-10.667-4.776-10.667-10.667v-32c0-17.673-14.327-32-32-32h-42.667
	c-17.673,0-32,14.327-32,32v32c0,5.891-4.776,10.667-10.667,10.667c-5.891,0-10.667-4.776-10.667-10.667v-32
	C181.334,23.878,205.212,0,234.667,0h42.667c29.455,0,53.333,23.878,53.333,53.333v32C330.667,91.224,325.892,96,320.001,96z"/>
<g>
	<path style="fill:#FFC107;" d="M429.782,281.472c-2.041-2.638-5.198-4.169-8.533-4.139H90.667
		c-5.891-0.002-10.668,4.773-10.67,10.664c0,0.908,0.115,1.812,0.344,2.691c15.853,60.026,61.043,107.93,120.043,127.253
		c19.145,26.685,34.462,55.918,45.504,86.848c1.91,5.573,7.976,8.543,13.548,6.633c3.117-1.068,5.565-3.516,6.633-6.633
		c11.042-30.93,26.359-60.163,45.504-86.848c59-19.324,104.19-67.228,120.043-127.253
		C432.464,287.498,431.787,284.095,429.782,281.472z"/>
	<path style="fill:#FFC107;" d="M431.659,200c-25.118-97.019-124.131-155.307-221.15-130.189
		C146.685,86.335,96.845,136.176,80.321,200c-1.473,5.704,1.957,11.522,7.661,12.995c0.877,0.226,1.78,0.34,2.685,0.339h330.667
		c5.891-0.001,10.665-4.778,10.664-10.669C431.998,201.765,431.884,200.87,431.659,200z"/>
</g>
<path style="fill:#F44336;" d="M431.681,200.085c-1.185-4.75-5.451-8.084-10.347-8.085H90.667
	c-4.896,0.001-9.162,3.335-10.347,8.085c-7.541,29.694-7.541,60.802,0,90.496c1.185,4.75,5.451,8.084,10.347,8.085h330.667
	c4.896-0.001,9.162-3.335,10.347-8.085C439.221,260.887,439.221,229.779,431.681,200.085z"/>
<g>
</g>
<g>
</g>
<g>
</g>
<g>
</g>
<g>
</g>
<g>
</g>
<g>
</g>
<g>
</g>
<g>
</g>
<g>
</g>
<g>
</g>
<g>
</g>
<g>
</g>
<g>
</g>
<g>
</g>
</svg>
