<?xml version="1.0" encoding="iso-8859-1"?>
<!-- Generator: Adobe Illustrator 19.0.0, SVG Export Plug-In . SVG Version: 6.00 Build 0)  -->
<svg version="1.1" id="Capa_1" xmlns="http://www.w3.org/2000/svg" xmlns:xlink="http://www.w3.org/1999/xlink" x="0px" y="0px"
	 viewBox="0 0 512.45 512.45" style="enable-background:new 0 0 512.45 512.45;" xml:space="preserve">
<path style="fill:#CFD8DC;" d="M325.498,129.576c-1.255-0.733-2.651-1.191-4.096-1.344l-106.667-10.667
	c-2.5-0.28-5.017,0.357-7.083,1.792C109.177,185.688,51.169,297.526,53.669,416.232c-3.455,49.565,33.925,92.545,83.49,96
	c4.165,0.29,8.345,0.29,12.51,0h213.333c35.861,0,96-15.253,96-117.333C459.002,266.003,415.333,179.219,325.498,129.576z"/>
<path style="fill:#B0BEC5;" d="M393.402,39.869c-5.157-24.133-27.09-40.937-51.733-39.637c-9.201-1.324-18.28,3.097-22.912,11.157
	c-0.888,1.906-1.416,3.96-1.557,6.059c-14.665-10.57-32.132-16.561-50.197-17.216c-19.904,0-26.325,9.685-28.437,15.808
	C221.152,3.984,199.712-0.779,178.832,2.771c-12.03,4.47-19.597,16.419-18.496,29.205c-0.995,23.461,8.365,46.174,25.6,62.123
	c18.56,14.165,19.349,23.616,17.429,31.723c-1.194,4.997,1.344,10.135,6.037,12.224c21.788,8.267,44.97,12.237,68.267,11.691
	c23.593,1.3,47.171-2.815,68.928-12.032C381.736,118.667,400.63,79.175,393.402,39.869z"/>
<path style="fill:#43A047;" d="M267.002,277.565h-53.333c-2.74-0.001-5.376,1.054-7.36,2.944l-2.133,2.133
	c-5.184,5.056-20.885,20.523-29.056,17.067c-5.43-2.284-11.684,0.265-13.968,5.695c-1.489,3.539-0.961,7.604,1.382,10.646
	c9.242,23.453,9.105,49.563-0.384,72.917c-3.287,4.889-1.988,11.517,2.901,14.803c0.376,0.253,0.768,0.482,1.174,0.685
	c11.052,15.776,16.491,34.804,15.445,54.037c-0.252,5.579,3.842,10.408,9.387,11.072c0.426,0.031,0.854,0.031,1.28,0
	c5.07,0.001,9.439-3.566,10.453-8.533c2.038-13.268,8.869-25.328,19.2-33.899c2.863-1.761,6.389-2.069,9.515-0.832
	c4.019,1.367,8.466,0.258,11.371-2.837c2.892-3.135,3.638-7.69,1.899-11.584c-5.023-15.343-4.086-32.015,2.624-46.699
	c1.53-2.319,4.428-3.317,7.061-2.432c5.795,1.062,11.353-2.774,12.415-8.569c0.338-1.844,0.184-3.745-0.447-5.511
	c-2.835-9.283-4.322-18.924-4.416-28.629c0-8.533,1.536-19.2,8.533-21.76c5.549-1.977,8.446-8.078,6.469-13.628
	C275.503,280.416,271.499,277.582,267.002,277.565z"/>
<path style="fill:#4CAF50;" d="M390.352,386.109c-16.843-19.865-23.412-46.472-17.749-71.893c2.277-4.708,0.804-10.373-3.477-13.376
	c-4.921-3.153-10.285-5.554-15.915-7.125c-15.921-3.728-28.727-15.521-33.749-31.083c-1.26-2.893-3.736-5.081-6.763-5.973
	c-3.029-0.933-6.318-0.439-8.939,1.344l-32,21.333c-4.897,3.274-6.214,9.898-2.94,14.796c0.969,1.45,2.279,2.64,3.814,3.466
	c10.763,4.345,19.306,12.865,23.68,23.616c1.49,8.951-0.83,18.117-6.4,25.28c-3.155,4.975-1.68,11.566,3.295,14.721
	c0.851,0.54,1.774,0.956,2.742,1.237c7.948,4.752,13.985,12.132,17.067,20.864c3.883,8.856,3.174,19.053-1.899,27.285
	c-2.774,4.385-1.99,10.129,1.856,13.611c3.849,3.429,9.634,3.501,13.568,0.171c1.045,0.32,4.821,4.267,4.267,12.587
	c-0.318,5.808,4.076,10.8,9.877,11.221h0.981c5.543,0.021,10.179-4.206,10.667-9.728c3.128-16.234,15.5-29.116,31.595-32.896h0.171
	c4.674-0.027,8.825-2.991,10.368-7.403C395.909,393.677,394.236,388.777,390.352,386.109z"/>
<path style="fill:#EF5350;" d="M256.336,170.899c-17.567-0.033-31.835,14.18-31.869,31.747
	c-0.032,16.951,13.234,30.949,30.162,31.826c4.159-0.669,7.942-2.803,10.667-6.016c2.888-2.295,6.377-3.71,10.048-4.075
	c3.112-0.351,5.912-2.051,7.659-4.651c3.434-4.945,5.293-10.812,5.333-16.832C288.336,185.226,274.009,170.899,256.336,170.899z"/>
<path style="fill:#D32F2F;" d="M277.669,202.899c-1.837-0.024-3.672,0.119-5.483,0.427c-0.795,0.144-1.569,0.388-2.304,0.725
	c-6.293,1.174-12.246,3.731-17.429,7.488c-1.468,1.081-2.852,2.272-4.139,3.563c-0.604,0.432-1.168,0.918-1.685,1.451
	c-3.85,4.121-6.844,8.965-8.811,14.251c-1.175,4.417,0.159,9.123,3.477,12.267c0.32,0.752,0.72,1.468,1.195,2.133
	c2.188,3.253,3.299,7.111,3.179,11.029c-0.06,1.819-0.303,3.627-0.725,5.397c-2.303,4.252-1.67,9.495,1.579,13.077
	c8.13,8.53,19.364,13.408,31.147,13.525c23.564,0,42.667-19.103,42.667-42.667S301.233,202.899,277.669,202.899z"/>
<path style="fill:#F44336;" d="M260.389,233.747c-0.747-1.433-1.671-2.766-2.752-3.968c-0.299-0.427-1.685-2.133-2.133-2.56
	c-8.016-8.72-19.324-13.673-31.168-13.653c-23.564,0-42.667,19.103-42.667,42.667s19.103,42.667,42.667,42.667
	c17.906,0.06,33.907-11.171,39.936-28.032l0,0c0.128-0.384,0.235-0.747,0.341-1.131c0.719-1.716,1.221-3.514,1.493-5.355
	c0.602-2.674,0.903-5.408,0.896-8.149C267.164,248.235,264.854,240.383,260.389,233.747z"/>
<g>
</g>
<g>
</g>
<g>
</g>
<g>
</g>
<g>
</g>
<g>
</g>
<g>
</g>
<g>
</g>
<g>
</g>
<g>
</g>
<g>
</g>
<g>
</g>
<g>
</g>
<g>
</g>
<g>
</g>
</svg>
