<?xml version="1.0" encoding="iso-8859-1"?>
<!-- Generator: Adobe Illustrator 19.0.0, SVG Export Plug-In . SVG Version: 6.00 Build 0)  -->
<svg version="1.1" id="Capa_1" xmlns="http://www.w3.org/2000/svg" xmlns:xlink="http://www.w3.org/1999/xlink" x="0px" y="0px"
	 viewBox="0 0 512.001 512.001" style="enable-background:new 0 0 512.001 512.001;" xml:space="preserve">
<path style="fill:#FFE082;" d="M399.36,224.001c-5.277-2.841-10.404-5.952-15.36-9.323c-37.245-27.256-81.869-42.599-128-44.011
	c-46.134,1.418-90.757,16.769-128,44.032c-4.955,3.378-10.082,6.496-15.36,9.344c-3.724,2.241-5.994,6.277-5.973,10.624
	c0.006,2.545,0.921,5.004,2.581,6.933l64,74.667c3.813,4.415,10.466,4.947,14.933,1.195c19.975-13.442,43.774-20.038,67.819-18.795
	c23.997-1.231,47.747,5.349,67.691,18.752c1.94,1.67,4.416,2.586,6.976,2.581h0.811c2.826-0.212,5.451-1.54,7.296-3.691l64-74.667
	c1.662-1.943,2.57-4.419,2.56-6.976v-1.067C405.342,229.522,403.023,225.796,399.36,224.001z"/>
<path style="fill:#F44336;" d="M397.803,320.47c-1.015-0.316-2.073-0.474-3.136-0.469H117.334c-1.063-0.005-2.121,0.153-3.136,0.469
	C30.955,346.22,0,395.222,0,501.334c0,5.891,4.776,10.667,10.667,10.667h490.667c5.891,0,10.667-4.776,10.667-10.667
	C512,395.222,481.046,346.22,397.803,320.47z"/>
<path style="fill:#CFD8DC;" d="M404.886,231.617c-1.109-3.747-4.179-6.587-8-7.403c-3.815-0.782-7.754,0.556-10.304,3.499
	l-57.813,67.456c-22.233-12.325-47.356-18.482-72.768-17.835c-25.405-0.644-50.52,5.513-72.747,17.835l-57.813-67.456
	c-3.843-4.465-10.578-4.969-15.043-1.125c-1.545,1.33-2.677,3.076-3.261,5.029c-17.899,60.075,22.997,180.245,56,213.333
	c4.165,4.164,10.917,4.164,15.083,0c2.809-2.971,5.284-6.24,7.381-9.749c11.258,32.478,34.495,59.43,64.96,75.349
	c3.3,1.905,7.366,1.905,10.667,0c30.546-15.877,53.863-42.835,65.173-75.349c2.121,3.49,4.618,6.738,7.445,9.685
	c4.165,4.164,10.917,4.164,15.083,0C381.867,411.862,422.784,291.713,404.886,231.617z"/>
<path style="fill:#F44336;" d="M467.2,132.268C444.288,101.292,366.592,0.001,330.667,0.001c-14.758-0.052-29.432,2.23-43.477,6.763
	c-6.606,2.323-13.525,3.64-20.523,3.904c-10.547-0.647-20.995-2.413-31.168-5.269c-10.71-3.013-21.721-4.823-32.832-5.397
	c-25.408,0-96,79.573-96,160c-0.032,5.469,4.078,10.076,9.515,10.667L403.2,201.729h1.152c2.771,0,5.434-1.079,7.424-3.008
	l54.229-52.437C469.865,142.573,470.376,136.577,467.2,132.268z"/>
<path style="fill:#C62828;" d="M384,160.001c-5.27-0.004-9.748-3.856-10.539-9.067c-3.691-24.99-13.667-48.633-28.992-68.715
	c-4.093-4.237-3.976-10.99,0.262-15.083c4.134-3.993,10.687-3.993,14.821,0c18.614,23.292,30.696,51.116,35.008,80.619
	c0.866,5.819-3.143,11.24-8.96,12.117C385.071,159.956,384.536,159.999,384,160.001z"/>
<path style="fill:#CFD8DC;" d="M426.667,181.334c0-27.733-116.331-74.667-170.667-74.667s-170.667,46.933-170.667,76.8
	c-2.951,20.633,1.969,41.622,13.781,58.795c2.795,2.881,6.653,4.486,10.667,4.437c4.295-0.218,8.483-1.415,12.245-3.499
	c6.028-3.207,11.882-6.732,17.536-10.56c33.78-25.066,74.396-39.243,116.437-40.64c42.029,1.366,82.645,15.505,116.437,40.533
	c5.643,3.817,11.482,7.334,17.493,10.539c7.015,4.804,16.355,4.422,22.955-0.939c11.781-17.139,16.699-38.075,13.781-58.667
	L416,181.334H426.667z"/>
<g>
	<path style="fill:#455A64;" d="M256,362.668c-18.881,0.614-35.975-11.099-42.219-28.928c-1.644-5.657,1.61-11.576,7.267-13.219
		c5.54-1.61,11.356,1.478,13.128,6.968c3.444,8.908,12.298,14.525,21.824,13.845c9.487,0.69,18.318-4.879,21.781-13.739
		c1.697-5.644,7.647-8.843,13.291-7.147c5.644,1.697,8.843,7.647,7.147,13.291l0,0C291.976,351.569,274.881,363.282,256,362.668z"/>
	<circle style="fill:#455A64;" cx="202.667" cy="245.334" r="10.667"/>
	<circle style="fill:#455A64;" cx="309.334" cy="245.334" r="10.667"/>
</g>
<circle style="fill:#FFC107;" cx="458.667" cy="181.334" r="53.333"/>
<g>
</g>
<g>
</g>
<g>
</g>
<g>
</g>
<g>
</g>
<g>
</g>
<g>
</g>
<g>
</g>
<g>
</g>
<g>
</g>
<g>
</g>
<g>
</g>
<g>
</g>
<g>
</g>
<g>
</g>
</svg>
