<?xml version="1.0" encoding="iso-8859-1"?>
<!-- Generator: Adobe Illustrator 19.0.0, SVG Export Plug-In . SVG Version: 6.00 Build 0)  -->
<svg version="1.1" id="Capa_1" xmlns="http://www.w3.org/2000/svg" xmlns:xlink="http://www.w3.org/1999/xlink" x="0px" y="0px"
	 viewBox="0 0 490.667 490.667" style="enable-background:new 0 0 490.667 490.667;" xml:space="preserve">
<g>
	<path style="fill:#CFD8DC;" d="M165.322,182.784l-37.376-21.803v-43.648c0-5.891-4.776-10.667-10.667-10.667
		c-5.891,0-10.667,4.776-10.667,10.667v31.211l-21.333-12.437V96c0-5.891-4.776-10.667-10.667-10.667S63.946,90.109,63.946,96
		v27.733l-26.624-15.616c-4.87-3.314-11.505-2.053-14.819,2.818c-3.314,4.87-2.053,11.505,2.818,14.819
		c0.426,0.29,0.872,0.548,1.335,0.774l34.133,19.904L25.546,172.8c-4.713,3.535-5.668,10.22-2.133,14.933s10.221,5.668,14.933,2.133
		l42.347-31.765l19.989,11.669l-32.469,24.363c-4.713,3.535-5.668,10.221-2.133,14.933c3.535,4.713,10.221,5.668,14.933,2.133l0,0
		l39.68-29.867l33.877,19.755c1.615,1.005,3.474,1.55,5.376,1.579c5.891,0.003,10.669-4.77,10.672-10.661
		C170.62,188.208,168.603,184.696,165.322,182.784z"/>
	<path style="fill:#CFD8DC;" d="M154.57,289.451l-33.877,19.755l-39.68-29.739c-4.713-3.535-11.399-2.579-14.933,2.133
		s-2.579,11.399,2.133,14.933l0,0l32.469,24.341l-19.989,11.669L38.346,300.8c-4.713-3.535-11.399-2.579-14.933,2.133
		s-2.579,11.399,2.133,14.933l35.136,26.347l-34.133,19.904c-5.09,2.966-6.812,9.497-3.845,14.587
		c1.916,3.288,5.438,5.306,9.243,5.296c1.883,0.006,3.733-0.495,5.355-1.451l26.645-15.616v27.733
		c0,5.891,4.776,10.667,10.667,10.667s10.667-4.776,10.667-10.667V354.56l21.333-12.437v31.211c0,5.891,4.776,10.667,10.667,10.667
		c5.891,0,10.667-4.776,10.667-10.667v-43.648l37.376-21.803c5.298-2.577,7.503-8.96,4.926-14.258
		c-2.577-5.298-8.96-7.503-14.258-4.926c-0.463,0.225-0.909,0.484-1.335,0.774L154.57,289.451z"/>
	<path style="fill:#CFD8DC;" d="M463.989,364.117l-34.133-19.904l35.157-26.347c4.713-3.535,5.668-10.22,2.133-14.933
		c-3.535-4.713-10.22-5.668-14.933-2.133l-42.347,31.765l-19.989-11.669l32.469-24.363c4.713-3.535,5.668-10.22,2.133-14.933
		c-3.535-4.713-10.22-5.668-14.933-2.133l-39.68,29.867l-33.877-19.755c-4.87-3.314-11.505-2.053-14.819,2.818
		c-3.314,4.87-2.053,11.505,2.818,14.819c0.426,0.29,0.872,0.548,1.335,0.773l37.291,21.696v43.648
		c0,5.891,4.776,10.667,10.667,10.667c5.891,0,10.667-4.776,10.667-10.667v-31.211l21.333,12.437v40.107
		c0,5.891,4.776,10.667,10.667,10.667s10.667-4.776,10.667-10.667v-27.733l26.624,15.531c1.62,0.99,3.478,1.521,5.376,1.536
		c5.891,0.003,10.669-4.77,10.672-10.661C469.287,369.541,467.27,366.029,463.989,364.117z"/>
	<path style="fill:#CFD8DC;" d="M330.613,202.667c1.883,0.006,3.733-0.495,5.355-1.451l33.877-19.755l39.68,29.867
		c4.713,3.535,11.399,2.58,14.933-2.133c3.535-4.713,2.58-11.399-2.133-14.933l-32.448-24.491l19.989-11.669l42.347,31.765
		c4.713,3.535,11.399,2.579,14.933-2.133c3.535-4.713,2.579-11.399-2.133-14.933l-35.136-26.347l34.133-19.904
		c5.298-2.577,7.503-8.96,4.926-14.258c-2.577-5.298-8.96-7.503-14.258-4.926c-0.463,0.225-0.909,0.484-1.335,0.774l-26.731,15.595
		V96c0-5.891-4.776-10.667-10.667-10.667S405.279,90.109,405.279,96v40.107l-21.333,12.437v-31.211
		c0-5.891-4.776-10.667-10.667-10.667c-5.891,0-10.667,4.776-10.667,10.667v43.648l-37.376,21.803
		c-5.09,2.966-6.812,9.497-3.845,14.587C323.303,200.652,326.815,202.669,330.613,202.667z"/>
	<path style="fill:#CFD8DC;" d="M292.725,41.536c5.272-2.633,7.412-9.042,4.779-14.315c-2.633-5.272-9.042-7.412-14.315-4.779
		l-27.243,13.632V10.667C255.946,4.776,251.17,0,245.279,0s-10.667,4.776-10.667,10.667v25.408l-27.221-13.632
		c-5.272-2.633-11.681-0.494-14.315,4.779c-2.633,5.272-0.494,11.681,4.779,14.315l36.779,18.389v18.816l-27.221-13.632
		c-5.272-2.633-11.681-0.494-14.315,4.779c-2.633,5.272-0.494,11.681,4.779,14.315l36.779,18.389v36.075
		c0,5.891,4.776,10.667,10.667,10.667c5.891,0,10.667-4.776,10.667-10.667v-36.075l36.779-18.389
		c5.272-2.633,7.412-9.042,4.779-14.315c-2.633-5.272-9.042-7.412-14.315-4.779l0,0l-27.285,13.632V59.925L292.725,41.536z"/>
	<path style="fill:#CFD8DC;" d="M283.167,425.536c1.482,0.748,3.119,1.135,4.779,1.131c5.891,0,10.666-4.776,10.666-10.667
		c0-4.036-2.279-7.727-5.887-9.535l-36.779-18.389V352c0-5.891-4.776-10.667-10.667-10.667s-10.667,4.776-10.667,10.667v36.075
		l-36.779,18.389c-5.272,2.633-7.412,9.042-4.779,14.315c2.633,5.272,9.042,7.412,14.315,4.779l27.221-13.632v18.816l-36.779,18.389
		c-5.272,2.633-7.412,9.042-4.779,14.315c2.633,5.273,9.042,7.412,14.315,4.779l27.221-13.632V480
		c0,5.891,4.776,10.667,10.667,10.667c5.891,0,10.667-4.776,10.667-10.667v-25.408l27.221,13.632
		c1.496,0.747,3.149,1.127,4.821,1.109c5.891,0,10.666-4.776,10.666-10.667c0-4.036-2.279-7.727-5.887-9.535l-36.779-18.389v-18.816
		L283.167,425.536z"/>
</g>
<path style="fill:#90A4AE;" d="M336.266,182.955l-85.333-53.333c-3.459-2.162-7.848-2.162-11.307,0l-85.333,53.333
	c-3.119,1.949-5.013,5.368-5.013,9.045v106.667c0,3.678,1.895,7.096,5.013,9.045l85.333,53.333c3.459,2.162,7.848,2.162,11.307,0
	l85.333-53.333c3.119-1.949,5.013-5.368,5.013-9.045V192C341.279,188.322,339.385,184.904,336.266,182.955z"/>
<path style="fill:#FAFAFA;" d="M297.482,219.221c-2.63-5.271-9.035-7.413-14.307-4.783c-0.003,0.001-0.005,0.003-0.008,0.004
	l-27.221,13.611v-25.387c0-5.891-4.776-10.667-10.667-10.667c-5.891,0-10.667,4.776-10.667,10.667v25.408l-27.221-13.611
	c-5.272-2.633-11.681-0.494-14.315,4.779c-2.633,5.272-0.494,11.681,4.779,14.315l23.573,11.776l-23.573,11.797
	c-5.267,2.64-7.396,9.049-4.757,14.315c1.805,3.602,5.485,5.879,9.514,5.887c1.652,0.001,3.282-0.386,4.757-1.131l27.221-13.611V288
	c0,5.891,4.776,10.667,10.667,10.667c5.891,0,10.667-4.776,10.667-10.667v-25.408l27.221,13.611c1.488,0.751,3.133,1.139,4.8,1.131
	c5.891,0,10.666-4.776,10.666-10.667c0-4.036-2.279-7.727-5.887-9.535l-23.595-11.797l23.573-11.797
	c5.271-2.63,7.413-9.035,4.783-14.307C297.485,219.227,297.483,219.224,297.482,219.221z"/>
<g>
</g>
<g>
</g>
<g>
</g>
<g>
</g>
<g>
</g>
<g>
</g>
<g>
</g>
<g>
</g>
<g>
</g>
<g>
</g>
<g>
</g>
<g>
</g>
<g>
</g>
<g>
</g>
<g>
</g>
</svg>
