<?xml version="1.0" encoding="iso-8859-1"?>
<!-- Generator: Adobe Illustrator 19.0.0, SVG Export Plug-In . SVG Version: 6.00 Build 0)  -->
<svg version="1.1" id="Capa_1" xmlns="http://www.w3.org/2000/svg" xmlns:xlink="http://www.w3.org/1999/xlink" x="0px" y="0px"
	 viewBox="0 0 512.217 512.217" style="enable-background:new 0 0 512.217 512.217;" xml:space="preserve">
<path style="fill:#CFD8DC;" d="M396.617,258.731c-2.005-2.787-5.228-4.438-8.661-4.437H145.566
	c-3.433-0.001-6.656,1.651-8.661,4.437c-51.624,71.717-35.336,171.706,36.382,223.33s171.706,35.336,223.33-36.382
	C436.809,389.844,436.809,314.566,396.617,258.731z"/>
<path style="fill:#B0BEC5;" d="M353.609,115.968c-4.589-3.694-11.304-2.969-14.998,1.62c-0.756,0.939-1.348,2-1.749,3.137
	c-13.391,38.716-55.632,59.246-94.348,45.855c-21.511-7.44-38.415-24.344-45.855-45.855c-1.962-5.555-8.055-8.468-13.61-6.506
	c-1.137,0.401-2.198,0.993-3.137,1.749c-59.698,47.971-69.205,135.253-21.234,194.951c47.971,59.698,135.253,69.205,194.951,21.234
	s69.205-135.253,21.234-194.951c-6.288-7.826-13.408-14.946-21.234-21.234H353.609z"/>
<g>
	<path style="fill:#455A64;" d="M138.761,266.667c-2.308,0-4.554-0.749-6.4-2.133l-128-96c-4.713-3.535-5.668-10.221-2.133-14.933
		s10.221-5.668,14.933-2.133l128,96c4.713,3.535,5.668,10.221,2.133,14.933C145.28,265.086,142.118,266.667,138.761,266.667z"/>
	<path style="fill:#455A64;" d="M10.761,234.667c-5.891-0.028-10.644-4.826-10.617-10.716c0.024-5.186,3.775-9.603,8.889-10.468
		l64-10.667c5.779-1.141,11.39,2.619,12.531,8.398c1.141,5.779-2.619,11.39-8.398,12.531c-0.21,0.042-0.422,0.077-0.634,0.105
		l-64,10.667C11.947,234.619,11.354,234.669,10.761,234.667z"/>
	<path style="fill:#455A64;" d="M394.761,256c-5.891,0.016-10.68-4.747-10.696-10.638c-0.009-3.257,1.471-6.34,4.018-8.37
		l106.667-85.333c4.601-3.682,11.315-2.937,14.997,1.664c3.682,4.601,2.937,11.315-1.664,14.997l0,0l-106.667,85.333
		C399.529,255.168,397.182,255.996,394.761,256z"/>
	<path style="fill:#455A64;" d="M501.428,234.667c-1.36-0.001-2.706-0.261-3.968-0.768l-53.333-21.333
		c-5.473-2.186-8.138-8.394-5.952-13.867c2.186-5.473,8.394-8.138,13.867-5.952l0,0l53.333,21.333
		c5.479,2.165,8.165,8.362,5.999,13.841C509.761,232.001,505.815,234.677,501.428,234.667z"/>
</g>
<path style="fill:#F44336;" d="M333.748,149.76c-2.096-0.614-4.33-0.569-6.4,0.128l-64,21.333
	c-5.589,1.862-8.611,7.902-6.749,13.491c1.308,3.928,4.771,6.743,8.882,7.224c15.36,1.707,14.528,51.733,11.861,116.949
	c-0.243,5.814,4.218,10.749,10.027,11.093c0.704,0,1.408,0,2.133,0c26.325,0.021,69.611-27.093,73.259-51.797
	C362.761,267.115,375.156,161.771,333.748,149.76z"/>
<circle style="fill:#CFD8DC;" cx="266.761" cy="96" r="96"/>
<g>
	<path style="fill:#455A64;" d="M224.094,85.333c-5.891,0-10.667-4.776-10.667-10.667S218.203,64,224.094,64h0.213
		c5.891,0,10.667,4.776,10.667,10.667s-4.776,10.667-10.667,10.667H224.094z"/>
	<path style="fill:#455A64;" d="M309.428,85.333c-5.891,0-10.667-4.776-10.667-10.667S303.537,64,309.428,64h0.213
		c5.891,0,10.667,4.776,10.667,10.667s-4.776,10.667-10.667,10.667H309.428z"/>
	<path style="fill:#455A64;" d="M267.166,106.667c-5.891,0-10.667-4.776-10.667-10.667c0-5.891,4.776-10.667,10.667-10.667h0.213
		c5.891,0,10.667,4.776,10.667,10.667c0,5.891-4.776,10.667-10.667,10.667H267.166z"/>
	<path style="fill:#455A64;" d="M266.761,149.333c-14.984,1.372-29.797-4.027-40.384-14.72c-3.723-4.566-3.04-11.285,1.525-15.008
		s11.285-3.04,15.008,1.525c6.749,5.314,15.309,7.779,23.851,6.869c8.555,0.942,17.135-1.534,23.872-6.891
		c3.898-4.279,10.467-4.748,14.933-1.067c4.394,3.632,5.094,10.104,1.579,14.592C296.554,145.319,281.742,150.711,266.761,149.333z"
		/>
</g>
<g>
</g>
<g>
</g>
<g>
</g>
<g>
</g>
<g>
</g>
<g>
</g>
<g>
</g>
<g>
</g>
<g>
</g>
<g>
</g>
<g>
</g>
<g>
</g>
<g>
</g>
<g>
</g>
<g>
</g>
</svg>
