<?xml version="1.0" encoding="iso-8859-1"?>
<!-- Generator: Adobe Illustrator 19.0.0, SVG Export Plug-In . SVG Version: 6.00 Build 0)  -->
<svg version="1.1" id="Capa_1" xmlns="http://www.w3.org/2000/svg" xmlns:xlink="http://www.w3.org/1999/xlink" x="0px" y="0px"
	 viewBox="0 0 512 512" style="enable-background:new 0 0 512 512;" xml:space="preserve">
<path d="M133.09,341.547c-3.877-0.004-7.446-2.111-9.323-5.504c-0.992-1.668-2.165-3.22-3.499-4.629
	c-4.048-4.28-3.86-11.031,0.419-15.079c4.28-4.048,11.031-3.86,15.079,0.419c0.113,0.12,0.223,0.242,0.331,0.366
	c2.456,2.588,4.604,5.451,6.4,8.533c2.833,5.165,0.943,11.649-4.222,14.482c-0.015,0.008-0.03,0.016-0.045,0.025
	C136.66,341.044,134.892,341.521,133.09,341.547z"/>
<path style="fill:#546E7A;" d="M255.97,0c-105.99,0.118-191.882,86.01-192,192v117.333c0,5.891,4.776,10.667,10.667,10.667h362.667
	c5.891,0,10.667-4.776,10.667-10.667V192C447.852,86.01,361.96,0.118,255.97,0z"/>
<g>
	<path style="fill:#FAFAFA;" d="M287.97,170.667h80.789c5.891-0.01,10.658-4.794,10.648-10.685c-0.002-0.982-0.139-1.96-0.408-2.904
		c-12.274-42.572-45.556-75.854-88.128-88.128c-3.217-0.897-6.669-0.251-9.344,1.749c-2.686,2.014-4.267,5.176-4.267,8.533V160
		c0,5.891,4.776,10.667,10.667,10.667C287.941,170.667,287.955,170.667,287.97,170.667z"/>
	<path style="fill:#FAFAFA;" d="M221.047,68.949c-42.572,12.274-75.854,45.556-88.128,88.128c-1.614,5.666,1.67,11.567,7.336,13.181
		c0.952,0.271,1.936,0.408,2.926,0.408h80.789c5.891,0,10.667-4.776,10.667-10.667V79.211c0-3.357-1.581-6.519-4.267-8.533
		C227.703,68.676,224.254,68.037,221.047,68.949z"/>
	<path style="fill:#FAFAFA;" d="M223.97,213.333h-85.333c-5.891,0-10.667,4.776-10.667,10.667v85.333
		c0,5.891,4.776,10.667,10.667,10.667c5.891,0,10.667-4.776,10.667-10.667h64c0,5.891,4.776,10.667,10.667,10.667
		s10.667-4.776,10.667-10.667V224C234.636,218.109,229.861,213.333,223.97,213.333z"/>
	<path style="fill:#FAFAFA;" d="M287.97,213.333h85.333c5.891,0,10.667,4.776,10.667,10.667v85.333
		c0,5.891-4.776,10.667-10.667,10.667H287.97c-5.891,0-10.667-4.776-10.667-10.667V224
		C277.303,218.109,282.079,213.333,287.97,213.333z"/>
</g>
<path style="fill:#CFD8DC;" d="M468.663,344.96c-0.013-1.107-0.185-2.206-0.512-3.264c-5.452-28.706-33.143-47.558-61.849-42.106
	c-12.38,2.351-23.514,9.044-31.399,18.874c-26.233-15.173-56.436-22.073-86.656-19.797c-27.733-0.576-37.291,11.072-40.661,18.155
	c-0.235,0.491-0.448,1.045-0.683,1.6c-26.267-15.123-56.473-22.005-86.699-19.755c-12.113-1.346-24.276,2.048-33.941,9.472
	c-8.884-6.196-19.462-9.503-30.293-9.472c-29.455,0.026-53.312,23.925-53.286,53.38c0.024,27.256,20.594,50.108,47.697,52.988
	l16.405,98.133c0.881,5.047,5.224,8.755,10.347,8.832h0.171c5.07,0.001,9.439-3.566,10.453-8.533l9.387-47.317
	c6.044-29.505,31.962-50.721,62.08-50.816h7.68c18.388-0.023,34.723,11.738,40.533,29.184l9.173,27.52
	c1.875,5.585,7.922,8.592,13.507,6.717c3.167-1.063,5.654-3.55,6.717-6.717l14.123-42.155c2.822-8.685,10.921-14.561,20.053-14.549
	h14.699c10.485-0.006,19.421,7.609,21.077,17.963l16.213,59.52c1.27,4.642,5.492,7.858,10.304,7.851l0,0
	c4.759-0.008,8.936-3.168,10.24-7.744l14.699-51.797c1.391-8.477,6.076-16.061,13.035-21.099c4.473-3.194,9.866-4.842,15.36-4.693
	c2.831,0.005,5.548-1.115,7.552-3.115l0.405-0.405c20.814-7.756,34.642-27.601,34.709-49.813
	C469.376,349.636,469.161,347.272,468.663,344.96z"/>
<g>
</g>
<g>
</g>
<g>
</g>
<g>
</g>
<g>
</g>
<g>
</g>
<g>
</g>
<g>
</g>
<g>
</g>
<g>
</g>
<g>
</g>
<g>
</g>
<g>
</g>
<g>
</g>
<g>
</g>
</svg>
