<?xml version="1.0" encoding="iso-8859-1"?>
<!-- Generator: Adobe Illustrator 19.0.0, SVG Export Plug-In . SVG Version: 6.00 Build 0)  -->
<svg version="1.1" id="Capa_1" xmlns="http://www.w3.org/2000/svg" xmlns:xlink="http://www.w3.org/1999/xlink" x="0px" y="0px"
	 viewBox="0 0 512 512" style="enable-background:new 0 0 512 512;" xml:space="preserve">
<path style="fill:#F44336;" d="M415.288,353.387l-75.456-58.667V160c0.001-3.498-1.713-6.774-4.587-8.768
	C333.88,150.293,300.793,128,222.499,128c-38.707-1.9-77.271,5.956-112.149,22.848c-3.217,1.927-5.185,5.402-5.184,9.152v170.667
	c0,5.891,4.776,10.667,10.667,10.667c17.943,0.039,34.614,9.276,44.16,24.469c13.308,25.341,12.655,55.744-1.728,80.491
	c-2.201,4.779-0.589,10.449,3.797,13.355l36.267,24.085c27.532,18.453,59.933,28.293,93.077,28.267h69.333
	c23.503-0.006,46.05-9.309,62.72-25.877l0,0c34.626-34.49,34.736-90.519,0.247-125.144c-2.671-2.681-5.511-5.189-8.503-7.506
	L415.288,353.387z"/>
<path style="fill:#D32F2F;" d="M177.912,354.304c-13.453-21.312-36.877-34.256-62.08-34.304c-5.891,0-10.667,4.776-10.667,10.667
	v52.053c-0.029,24.404,12.17,47.2,32.491,60.715l24.32,16.213c1.75,1.167,3.806,1.79,5.909,1.792
	c0.981-0.005,1.957-0.141,2.901-0.405c3.001-0.849,5.48-2.97,6.784-5.803C201.251,403.989,187.939,370.005,177.912,354.304z"/>
<path style="fill:#CFD8DC;" d="M222.499,0c-43.755,0-160,0-160,85.333c0,81.216,50.56,85.184,52.693,85.333
	c2.125,0.096,4.234-0.415,6.08-1.472c31.646-14.689,66.376-21.503,101.227-19.861c70.805,0,100.267,19.2,100.587,19.435
	c1.786,1.237,3.907,1.9,6.08,1.899c0.6-0.003,1.199-0.053,1.792-0.149c2.133-0.363,51.541-9.643,51.541-85.184
	C382.499,46.4,354.744,0,222.499,0z"/>
<g>
</g>
<g>
</g>
<g>
</g>
<g>
</g>
<g>
</g>
<g>
</g>
<g>
</g>
<g>
</g>
<g>
</g>
<g>
</g>
<g>
</g>
<g>
</g>
<g>
</g>
<g>
</g>
<g>
</g>
</svg>
