<?xml version="1.0" encoding="iso-8859-1"?>
<!-- Generator: Adobe Illustrator 19.0.0, SVG Export Plug-In . SVG Version: 6.00 Build 0)  -->
<svg version="1.1" id="Capa_1" xmlns="http://www.w3.org/2000/svg" xmlns:xlink="http://www.w3.org/1999/xlink" x="0px" y="0px"
	 viewBox="0 0 512.008 512.008" style="enable-background:new 0 0 512.008 512.008;" xml:space="preserve">
<path style="fill:#F44336;" d="M501.342,0.011H330.675c-2.831-0.005-5.548,1.115-7.552,3.115l-320,320
	c-4.164,4.165-4.164,10.917,0,15.083L173.79,508.875c4.165,4.164,10.917,4.164,15.083,0l320-320c2.002-1.996,3.13-4.704,3.136-7.531
	V10.677C512.008,4.786,507.233,0.011,501.342,0.011z M416.008,149.344c-29.455,0-53.333-23.878-53.333-53.333
	s23.878-53.333,53.333-53.333s53.333,23.878,53.333,53.333S445.464,149.344,416.008,149.344z"/>
<g>
	<path style="fill:#FAFAFA;" d="M194.59,352.331l-36.459-9.109l-9.109-36.459c-1.426-5.72-7.218-9.202-12.939-7.776
		c-5.72,1.426-9.202,7.218-7.776,12.939l0,0l6.4,25.408l-25.408-6.4c-5.72-1.426-11.513,2.056-12.939,7.776
		c-1.426,5.72,2.056,11.513,7.776,12.939l0,0l36.459,9.109l9.109,36.459c1.164,4.752,5.412,8.102,10.304,8.128
		c0.87-0.004,1.737-0.111,2.581-0.32c5.713-1.427,9.189-7.214,7.765-12.928l-6.4-25.408l25.408,6.4
		c0.868,0.191,1.756,0.277,2.645,0.256c5.891-0.006,10.661-4.787,10.655-10.678C202.658,357.778,199.331,353.519,194.59,352.331z"/>
	<path style="fill:#FAFAFA;" d="M210.227,237.792c-4.159-4.172-10.913-4.183-15.085-0.024c-2.662,2.654-3.731,6.512-2.814,10.157
		l6.4,25.408l-25.408-6.4c-4.653-1.123-9.49,0.952-11.883,5.099c-2.361,4.175-1.645,9.412,1.749,12.8l53.333,53.333
		c4.237,4.092,10.99,3.975,15.083-0.262c3.992-4.134,3.992-10.687,0-14.82l-26.155-26.048l5.312,1.344
		c5.716,1.423,11.505-2.057,12.928-7.773c0.421-1.692,0.421-3.462,0-5.155l-1.323-5.312l26.112,26.112
		c4.237,4.092,10.99,3.975,15.083-0.262c3.992-4.134,3.992-10.687,0-14.82L210.227,237.792z"/>
	<path style="fill:#FAFAFA;" d="M324.787,225.141l-64-32c-5.267-2.639-11.676-0.508-14.315,4.759c-1.507,3.007-1.507,6.549,0,9.556
		l32,64c2.633,5.272,9.042,7.412,14.315,4.779s7.412-9.042,4.779-14.315l0,0l-2.133-4.459l0.235-0.149l15.083-15.083l0.149-0.235
		l4.459,2.133c5.272,2.633,11.681,0.494,14.315-4.779c2.633-5.272,0.494-11.681-4.779-14.315l0,0L324.787,225.141z M285.299,237.408
		l-5.44-10.859l10.859,5.44L285.299,237.408z"/>
	<path style="fill:#FAFAFA;" d="M359.56,173.792c-10.181-9.75-26.235-9.75-36.416,0c-1.829,1.458-4.422,1.458-6.251,0
		c-1.726-1.723-1.729-4.519-0.006-6.245c0.002-0.002,0.004-0.004,0.006-0.006l10.667-10.667c4.237-4.092,4.355-10.845,0.262-15.083
		s-10.845-4.355-15.083-0.262c-0.089,0.086-0.176,0.173-0.262,0.262l-10.667,10.667c-10.045,10.061-10.045,26.355,0,36.416
		c10.181,9.75,26.235,9.75,36.416,0c1.829-1.458,4.422-1.458,6.251,0c1.726,1.723,1.729,4.519,0.005,6.245
		c-0.002,0.002-0.004,0.004-0.005,0.006l-10.667,10.667c-4.237,4.093-4.354,10.845-0.262,15.083
		c4.093,4.237,10.845,4.354,15.083,0.262c0.089-0.086,0.176-0.173,0.262-0.262l10.667-10.667
		C369.605,200.147,369.605,183.853,359.56,173.792z"/>
</g>
<g>
</g>
<g>
</g>
<g>
</g>
<g>
</g>
<g>
</g>
<g>
</g>
<g>
</g>
<g>
</g>
<g>
</g>
<g>
</g>
<g>
</g>
<g>
</g>
<g>
</g>
<g>
</g>
<g>
</g>
</svg>
